<svg xmlns="http://www.w3.org/2000/svg" width="141.969" height="96" viewBox="0 0 141.969 96"><defs><style>.cls-1{fill:#62347e;fill-opacity:.6}.cls-1,.cls-2,.cls-3,.cls-4,.cls-5{fill-rule:evenodd}.cls-2,.cls-3,.cls-5{fill:#fff}.cls-2{filter:url(#filter)}.cls-4{fill:#ffd11a}.cls-5{filter:url(#filter-2)}</style><filter id="filter" x="612" y="2153.03" width="141.969" height="7.97" filterUnits="userSpaceOnUse"><feOffset result="offset" dy="1" in="SourceAlpha"/><feGaussianBlur result="blur"/><feFlood result="flood" flood-color="#141312" flood-opacity=".3"/><feComposite result="composite" operator="in" in2="blur"/><feBlend result="blend" in="SourceGraphic"/></filter><filter id="filter-2" x="631" y="2065" width="104" height="27" filterUnits="userSpaceOnUse"><feOffset result="offset" dy="1" in="SourceAlpha"/><feGaussianBlur result="blur"/><feFlood result="flood" flood-color="#141312" flood-opacity=".3"/><feComposite result="composite" operator="in" in2="blur"/><feBlend result="blend" in="SourceGraphic"/></filter></defs><path id="bg" class="cls-1" d="M656.193,2074.99h53.612a15.231,15.231,0,0,1,15.205,15.2v67.61L719,2159l-18-5-19,5-18-5-19,5-4.01-1.2v-67.61A15.229,15.229,0,0,1,656.193,2074.99Z" transform="translate(-612 -2065)"/><path id="wave" class="cls-2" d="M680.48,2159.99h-0.037c-3.425-.02-6.585-1.21-9.742-2.39-2.959-1.11-5.92-2.23-8.871-2.24-2.95.01-5.911,1.13-8.87,2.24-3.165,1.19-6.333,2.37-9.77,2.39h-0.01c-3.436-.01-6.6-1.2-9.769-2.39-2.959-1.11-5.92-2.23-8.87-2.24-2.953.01-5.917,1.13-8.877,2.24-0.6.22-1.2,0.45-2,.73a1.239,1.239,0,0,1-1.582-.68,1.149,1.149,0,0,1,.717-1.5c0.519-.19,1.242-0.46,1.959-0.73,3.167-1.19,6.336-2.38,9.776-2.39h0.01c3.437,0.01,6.6,1.2,9.769,2.39,2.959,1.11,5.92,2.22,8.87,2.24,2.951-.02,5.912-1.13,8.871-2.24,3.166-1.19,6.334-2.38,9.77-2.39h0.009c3.437,0.01,6.605,1.2,9.77,2.39,2.958,1.11,5.92,2.22,8.87,2.24,2.951-.02,5.912-1.13,8.87-2.24,3.165-1.19,6.333-2.38,9.77-2.39h0.009c3.436,0.01,6.6,1.2,9.77,2.39,2.958,1.11,5.92,2.22,8.871,2.24,2.95-.02,5.911-1.13,8.87-2.24,3.165-1.19,6.333-2.38,9.769-2.39h0.01c3.437,0.01,6.605,1.2,9.77,2.39a36.191,36.191,0,0,0,6.774,2.06,1.168,1.168,0,0,1,1.011,1.34,1.219,1.219,0,0,1-1.415.96,37.911,37.911,0,0,1-7.275-2.18c-2.958-1.11-5.919-2.23-8.87-2.24-2.95.01-5.911,1.13-8.87,2.24-3.165,1.19-6.332,2.38-9.769,2.39h-0.01c-3.437-.02-6.605-1.2-9.77-2.39-2.959-1.11-5.921-2.23-8.871-2.24-2.95.01-5.911,1.13-8.87,2.24-3.157,1.18-6.315,2.37-9.742,2.39H680.48Z" transform="translate(-612 -2065)"/><path id="border" class="cls-3" d="M710.256,2075.98a13.007,13.007,0,0,1,13.758,13.76L724,2158l2.01-.56v-67.88a15.6,15.6,0,0,0-15.567-15.57H655.555a15.6,15.6,0,0,0-15.566,15.57v67.88L642,2158l-0.014-68.26a13.007,13.007,0,0,1,13.756-13.76h54.514M674.5,2082h18a1.5,1.5,0,0,1,0,3h-18A1.5,1.5,0,0,1,674.5,2082Zm-6,0a1.5,1.5,0,1,1-1.5,1.5A1.5,1.5,0,0,1,668.5,2082Zm-27.5,8h84v2H641v-2Zm6,5h9a1,1,0,0,1,0,2h-9A1,1,0,0,1,647,2095Zm0,4h9a1,1,0,0,1,0,2h-9A1,1,0,0,1,647,2099Zm0,4h9a1,1,0,0,1,0,2h-9A1,1,0,0,1,647,2103Z" transform="translate(-612 -2065)"/><path id="content_l" class="cls-4" d="M650,2112h27a4,4,0,0,1,4,4v12a4,4,0,0,1-4,4H650a4,4,0,0,1-4-4v-12A4,4,0,0,1,650,2112Zm1,3h25a2,2,0,0,1,2,2v10a2,2,0,0,1-2,2H651a2,2,0,0,1-2-2v-10A2,2,0,0,1,651,2115Zm-3.5,22h32a1.5,1.5,0,0,1,0,3h-32A1.5,1.5,0,0,1,647.5,2137Zm0,6h29a1.5,1.5,0,0,1,0,3h-29A1.5,1.5,0,0,1,647.5,2143Z" transform="translate(-612 -2065)"/><path id="content_r" class="cls-4" d="M689,2112h27a4,4,0,0,1,4,4v12a4,4,0,0,1-4,4H689a4,4,0,0,1-4-4v-12A4,4,0,0,1,689,2112Zm1,3h25a2,2,0,0,1,2,2v10a2,2,0,0,1-2,2H690a2,2,0,0,1-2-2v-10A2,2,0,0,1,690,2115Zm-3.5,22h32a1.5,1.5,0,0,1,0,3h-32A1.5,1.5,0,0,1,686.5,2137Zm0,6h29a1.5,1.5,0,0,1,0,3h-29A1.5,1.5,0,0,1,686.5,2143Z" transform="translate(-612 -2065)"/><path id="corners" class="cls-5" d="M632.732,2089.26a0.867,0.867,0,0,1-1.734,0A24.284,24.284,0,0,1,655.256,2065a0.865,0.865,0,1,1,0,1.73,22.561,22.561,0,0,0-22.524,22.53m78.01-22.53a0.865,0.865,0,1,1,0-1.73A24.284,24.284,0,0,1,735,2089.26a0.867,0.867,0,0,1-1.734,0A22.561,22.561,0,0,0,710.742,2066.73Z" transform="translate(-612 -2065)"/></svg>