<svg version="1" xmlns="http://www.w3.org/2000/svg" width="933.333" height="933.333" viewBox="0 0 700.000000 700.000000"><path d="M3179 6186 c-2 -2 -35 -7 -74 -11 -421 -38 -799 -179 -1055 -394 -216 -181 -368 -445 -411 -711 -5 -36 -12 -76 -14 -90 -3 -14 -5 -79 -6 -145 -2 -296 61 -513 207 -710 202 -272 550 -452 1154 -599 138 -33 281 -67 300 -71 55 -11 515 -111 605 -131 61 -14 121 -27 135 -30 14 -2 34 -8 45 -11 11 -4 25 -8 30 -9 65 -12 291 -85 380 -121 418 -172 636 -401 699 -736 15 -76 18 -288 5 -347 -4 -19 -10 -54 -13 -77 -3 -23 -15 -72 -27 -110 -92 -290 -292 -513 -591 -657 -82 -39 -240 -99 -298 -112 -11 -2 -28 -6 -37 -8 -124 -30 -135 -32 -203 -41 -30 -5 -62 -9 -70 -11 -192 -29 -629 -25 -820 6 -30 6 -72 12 -94 16 -215 33 -483 136 -656 253 -276 185 -458 454 -545 801 -22 90 -34 153 -40 210 -2 14 -6 45 -9 70 -3 25 -7 78 -8 117 -2 57 -6 73 -18 74 -130 6 -280 2 -284 -8 -7 -17 8 -283 20 -349 53 -311 143 -548 282 -744 59 -83 63 -88 147 -174 147 -152 296 -255 505 -349 102 -46 320 -120 342 -117 2 0 26 -6 53 -14 57 -17 198 -42 285 -51 19 -2 64 -7 100 -11 36 -3 74 -8 85 -10 28 -6 465 -5 493 0 12 3 61 8 110 11 48 4 94 8 102 10 8 2 51 8 95 15 221 33 472 112 660 207 191 97 392 265 505 422 111 153 201 370 225 536 3 23 8 52 11 65 10 48 12 316 3 395 -60 494 -369 816 -984 1024 -79 27 -418 120 -485 134 -14 2 -108 23 -210 47 -102 23 -192 43 -200 45 -754 166 -948 223 -1190 349 -242 125 -398 306 -455 525 -19 76 -26 136 -29 242 -14 539 321 919 929 1057 50 12 115 24 145 27 30 3 62 8 70 10 81 21 589 21 670 0 8 -2 40 -7 70 -10 220 -25 495 -120 673 -232 115 -72 245 -198 327 -316 79 -113 171 -336 195 -472 12 -68 24 -153 30 -205 3 -30 8 -56 10 -58 3 -4 204 -5 293 -3 19 1 22 5 18 29 -2 15 -7 54 -11 87 -7 67 -14 113 -20 135 -2 8 -7 31 -10 50 -8 47 -22 100 -50 190 -135 432 -434 754 -861 927 -107 44 -241 88 -289 96 -16 3 -61 12 -100 20 -63 14 -134 26 -250 43 -46 6 -590 16 -596 10z" transform="matrix(.1 0 0 -.1 0 700)"/></svg>