<svg xmlns="http://www.w3.org/2000/svg" width="222.2" height="48" viewBox="0 0 222.2 48"><path fill="#EB2227" d="M205.6 35.7h16.2v3.1h-16.2v-3.1zm16.2-13.6v3.1h-1.1c1 .6 1.5 1.9 1.5 3.1 0 3.3-2.6 5.2-5.6 5.2-3.4 0-5.6-2.4-5.6-5.2 0-1.7.8-2.6 1.5-3.1h-1.1v-3.1h10.4zm-5.1 8.3c1 0 2.6-.7 2.6-2.6 0-1.1-.5-1.8-1.2-2.2-.4-.3-.9-.4-1.3-.4-.5 0-.9.1-1.4.3-.7.3-1.4 1-1.4 2.4 0 1.7 1.5 2.5 2.7 2.5zM205.6 20v-3.1h6.6c-1.2-1.1-1.2-2.6-1.2-3 0-2.2 1.6-5.1 5.5-5.1 3.8 0 5.6 2.6 5.6 5.2 0 1.5-.7 2.6-1.5 3h1.1v3h-16.1zm11-8.1c-1.3 0-2.6 1-2.6 2.5 0 1.6 1.3 2.6 2.6 2.6 1.4 0 2.7-1 2.7-2.5 0-1.6-1.3-2.6-2.7-2.6zM34.2 28.8l4 7.9 4-7.9h-8zm72.1-8.9l-8 4 8 4v-8zm89.3 18.9l-4-7.9-4 7.9h8z"/><path fill="#007461" d="M52.8 38.8h-5.7l-8.9-19-8.9 19h-5.7L38.2 7.7l14.6 31.1zm57.5-24.3V8.8H92.4v30h17.9v-5.6H98.1V14.5h12.2zM5.7 8.8H0v30h5.7v-30zm6.9 15l10.6-15h-6.7l-10.6 15 10.6 15h6.7l-10.6-15zm148.7-15h-5.7v30h5.7v-30zm6.9 15l10.6-15h-6.7l-10.6 15 10.6 15h6.7l-10.6-15zm-38.5 3.4c2.9-1.9 4.5-4.9 4.5-8.2 0-3.7-1.7-6.7-4.7-8.4-2-1.2-4.4-1.7-7.7-1.7h-7.1v30h5.7V14.6h1.4c3.9 0 6.6 1 6.6 4.5 0 3.3-3.3 4.7-7 4.8h-.8l10.6 15h6.7l-8.2-11.7zM84.6 10.5c-2-1.2-4.4-1.7-7.7-1.7h-7.1v30h5.7V14.5h1.4c3.9 0 6.6 1 6.6 4.5 0 3.3-3.3 4.7-7 4.8h-.8l3.8 5.4c1.9-.3 3.6-.9 5-1.8.1-.1.2-.1.3-.2 2.9-1.9 4.5-4.9 4.5-8.2-.1-3.7-1.7-6.7-4.7-8.5m114-1.7l-7 12-7-12H179l12.7 21.8 12.7-21.8h-5.8zM52.4 43l2.3 5c11-8.4 13.1-17.8 5.9-27.8-5.7-7.9.6-15 2.5-16.9L58.8 0c-2.8 3-10 12.4-3.7 21.9C61.3 31 60.6 36 52.4 43m85.8 0l2.3 5c11-8.4 13.1-17.8 5.9-27.8-5.7-7.9.6-15 2.5-16.9L144.6 0c-2.8 3-10 12.4-3.7 21.9 6.2 9.1 5.6 14.1-2.7 21.1"/></svg>