<svg xmlns="http://www.w3.org/2000/svg" width="68" height="51" viewBox="0 0 68 51"><path fill="#B7B7B7" d="M57.3 3.8h8.9c1 0 1.8-.8 1.8-1.9C68 .8 67.2 0 66.2 0h-8.9c-1 0-1.8.8-1.8 1.9 0 1.1.8 1.9 1.8 1.9zm-3.1 2.5H28c-1.4 0-2 1.1-2.1 1.5-.2.6-.7 1.1-1.6 1.1H7.6c-1.1 0-1.9.8-1.9 1.9 0 1.1.9 1.9 1.9 1.9h1.7c.7 0 1.2.6 1.2 1.3v30.8c0 1.9-.7 3-1.5 2.9-.8-.1-1.3-.6-1.9-2.1-.7-1.9-2-2.4-3.5-2.5C2.3 43 .3 44 0 45.8c-.3 1.7.1 3.6 3 4.7 3.8 1.4 7.2-.9 7.2-.9l8.3-5.6s2-1.1 2.9-2.5c1.1-1.6 1.1-3.6 1.1-3.6V14c0-.7.6-1.3 1.2-1.3h1c1.4 0 1.9-1 2.1-1.4.2-.6.6-1 1.7-1H32c1.1 0 1.9.4 1.9 1.9v29.6s0 .9.6 1.3c.8.5 1.6.2 2-.1.5-.3 7.9-5.2 7.9-5.2 1-.7 1-1.9 1-1.9V11.8c0-.9.7-1.5 1.6-1.5h7.3l.1-.1V6.5l-.1-.1-.1-.1zM56 35.1s.1.9.6 1.3c.8.6 1.6.2 2 0 .4-.3 7.9-5.2 7.9-5.2 1-.7 1-1.9 1-1.9v-23H56v28.8z"/></svg>