<svg xmlns="http://www.w3.org/2000/svg" width="183.1" height="68" viewBox="0 0 183.1 68"><path fill="#712177" d="M91.7 0L75.4 14.2l-26 22.7 26-13.2 16.3-8.2z"/><path fill="#00B3E3" d="M112.5 18.2v-.1.1L103 9.9l-.1-.1-11.2 5.7v13.2l11.3 8.2h31z"/><path fill="#99999A" d="M91.7 28.7V15.5l-16.3 8.2v13.2z"/><path fill="#712177" d="M0 49.1v3.4h6v15.2h3.9V52.5h6v-3.4zm20.1 0v18.6h12.3v-3.6H24v-4.2h7.1v-3.3H24v-4h8.1v-3.5zm17.5-.4v19h3.9V57.3l11 10.7h.1V49.1h-3.9v10.3l-11-10.7zm35.9 2.8l-2.4 2.8c-1-1.2-2.4-2.1-4.4-2.1-3.3 0-5.5 2.5-5.5 6.1 0 3.5 2.3 6.1 5.9 6.1 1.2 0 2.2-.4 3-.9v-3h-4v-3.3H74v8.3c-1.8 1.7-4.1 2.6-6.9 2.6-5.7 0-9.8-4.1-9.8-9.6s3.9-9.6 9.5-9.6c2.9-.2 5 .8 6.7 2.6m12.2 9.6h-2.6v6.6h-3.9V49.1h7.3c3.5 0 6.6 2.2 6.6 6 0 2.6-1.4 4.5-3.4 5.4l4.3 7.2h-4.5l-3.8-6.6zm.5-3.3c1.8 0 3-.9 3-2.7 0-1.7-1.2-2.7-3-2.7h-3.1v5.4h3.1zm12.4-8.7h3.9v18.6h-3.9z"/><path fill="#99999A" d="M117.6 49.1c3.8 0 5.8 1.9 5.8 4.9 0 2-1.1 3.3-2.2 3.8 2.1.6 3.7 1.9 3.7 4.6 0 3.3-2.5 5.2-6.1 5.2H111V49.1h6.6zm-4 7.9h3.9c2.1 0 3.3-1.2 3.3-2.8 0-1.7-1.2-2.8-3.5-2.8h-3.7V57zm0 8.3h5c2.3 0 3.8-1 3.8-3 0-1.9-1.3-3-4-3h-4.7v6zm27.6 2.3l-1.7-3.8h-8.3l-1.7 3.8h-2.7l8.5-18.9h.1l8.5 18.9h-2.7zm-2.6-6l-3.2-7.2-3.2 7.2h6.4zm20.3-12.5h2.6V68h-.1l-11.6-12.8v12.5h-2.6V48.8h.1l11.6 12.8V49.1zm24.2 18.5l-8.4-10.5 7.1-8.1h-2.9l-7.7 8.7v-8.6h-2.6v18.5h2.6v-6.5L173 59l7.1 8.6h3z"/></svg>