<svg xmlns="http://www.w3.org/2000/svg" width="151.6" height="60" viewBox="0 0 151.6 60"><path fill-rule="evenodd" clip-rule="evenodd" fill="#2C9CFE" d="M40.4 11h-6.6v32.8h20.5V38H40.4V11zm79.6 0H98.1v5.5H110l-.3.7-13.3 26.6h23.2v-5.5h-13.3l.3-.7L120 11zm18.3 26.6L151.6 11h-21.9v5.5h11.9l-.3.7L128 43.8h23.2v-5.5H138l.3-.7zM18.3 26l-.9-.3.8-.5c1.2-.7 2.1-1.6 2.6-2.7.6-1 .8-2.3.8-3.9s-.3-3-.9-4.1c-.6-1.1-1.6-2-2.8-2.6-.6-.3-1.5-.5-2.6-.7-1.1-.1-2.9-.2-5.3-.2H0v32.8h11.7c4.4 0 7.7-.8 9.6-2.3 1.9-1.5 2.9-4 2.9-7.4 0-2-.5-3.7-1.5-5-.8-1.4-2.4-2.4-4.4-3.1zM6.6 15.6h3.3c2 0 3.3.3 4.2 1.1.9.7 1.3 1.9 1.3 3.5s-.5 2.7-1.4 3.5c-.9.7-2.3 1.1-4.1 1.1H6.6v-9.2zm9.7 22.3c-1 .8-2.4 1.2-4.5 1.2H6.5v-9.9h5.2c2.1 0 3.6.4 4.5 1.2 1 .8 1.5 2.1 1.5 3.8 0 1.6-.5 2.9-1.4 3.7z"/><path d="M75.6 0L61.4 43.7h6.7v-.1c1.7-2.4 4.4-4 7.5-4 3.1 0 5.9 1.6 7.5 4v.1h6.7L75.6 0zm0 33.9c-1.7 0-3.3.3-4.8.9l4.8-15.5 4.8 15.5c-1.5-.5-3.1-.9-4.8-.9zm0 11.1c-3 0-5.4 2.3-5.6 5.2v.8c.3 4 4.7 5.5 5.1 9 1.8-1.4 2.4-4.3 1.9-6.5-.2-.8-.6-1.6-.6-2.1 0-.2.1-.3.3-.2 1.3 1 1.8 3.8 1.3 5.4 1.4-1 2.8-2.3 3-5.4 0-.5.1-.9 0-1.4-.2-2.7-2.5-4.8-5.4-4.8z" fill-rule="evenodd" clip-rule="evenodd" fill="#EA6868"/></svg>