<svg xmlns="http://www.w3.org/2000/svg" width="169.2" height="65" viewBox="0 0 169.2 65"><path fill="#4E2A95" d="M69.2 0L54 8.6v17.5l15.2 8.6 15.2-8.6V8.6z"/><path fill="#C1C1C1" d="M100 0l-6 3.4 7.5 4.3V27L94 31.3l6 3.4 15.2-8.7V8.6z"/><path fill="#22AA2B" d="M84.6 0l-6 3.3 7.5 4.3V27l-7.5 4.3 6 3.4L99.8 26V8.6z"/><path fill="#4E2A95" d="M125.2 61.6V51.2h10.9v10.4h-10.9zm-3.5-12.1v13.8c0 .9.8 1.7 1.7 1.7h14.3c.9 0 1.7-.8 1.7-1.7V49.5c0-1-.7-1.7-1.7-1.7h-14.3c-.9-.1-1.7.7-1.7 1.7M0 65V45.3c0-.9 1.3-1.1 1.9-1.1h2.5c1.5 0 1.8.5 2.1 1.1 1.2 2.1 7.9 13.9 9.1 16.1 2.7-4.7 6.1-10.8 8.8-15.5.8-1.5 1.1-1.7 2.1-1.7h2.8c.9 0 1.9.3 2 1.2v19.5h-3.6V47.1C26.1 50.2 21 59.8 19.1 63c-.4.7-1 2-1.8 2h-3.2c-.8 0-1.4-1.2-1.9-2-2.7-4.7-5.8-11-8.5-15.7v17.8H0zm34.3-15.5v13.8c0 .9.8 1.7 1.7 1.7h15.6v-3.4H37.7v-3.5h13.9v-3.5H37.7v-3.4h13.9v-3.5H36c-.9 0-1.7.8-1.7 1.8m47.3 8.6l4-6.9 4 6.9h-8zm7-8.6c-.5-1.1-1.5-1.7-3-1.8-1.4.1-2.4.6-3 1.7l-9 15.6h4l2-3.4h12l2 3.4h4l-9-15.5zm10.7-3.3V63c0 1.1.9 2 2 2h17.6v-3.5h-16V47.7h16v-3.5h-17.5c-1.2 0-2.1.9-2.1 2M142.4 65V48.7c0-.8 1.2-.9 1.8-.9h2.7c1.3 0 1.3.5 1.6 1 1 1.8 6.3 11 7.3 12.8 2.3-4 4.6-8.1 7-12.1.6-1.3.9-1.6 1.8-1.6h2.9c.8 0 1.7.3 1.7 1v16.2h-3.5v-14c-1.4 2.5-5.4 9.4-6.9 12.2-.3.6-.9 1.7-1.5 1.7h-2.8c-.7 0-1.2-1-1.6-1.7-2.3-4.1-4.6-8.1-6.9-12.2V65h-3.6zM54.6 49.5v13.8c0 .9.8 1.7 1.7 1.7h13.9c.9 0 1.7-.8 1.7-1.7v-8.6H61.5v3.4h7v3.5H58.1V51.3H72v-3.5H56.4c-1-.1-1.8.7-1.8 1.7"/></svg>