<svg xmlns="http://www.w3.org/2000/svg" width="424.625" height="105.69" viewBox="0 0 424.625 105.69"><path fill="#37bbc7" d="M834.371,2425.81a5.134,5.134,0,0,0-2.326,1.2,7.984,7.984,0,0,0-1.009,3.3,0.233,0.233,0,0,1-.458,0,7.984,7.984,0,0,0-1.009-3.3,5.134,5.134,0,0,0-2.326-1.2,0.235,0.235,0,0,1-.173-0.23,0.224,0.224,0,0,1,.173-0.22,5.049,5.049,0,0,0,2.326-1.21,7.981,7.981,0,0,0,1.009-3.29,0.231,0.231,0,0,1,.458,0,7.981,7.981,0,0,0,1.009,3.29,5.049,5.049,0,0,0,2.326,1.21,0.224,0.224,0,0,1,.174.22,0.236,0.236,0,0,1-.174.23M855.579,2482a4.628,4.628,0,0,0-2.122,1.1,7.289,7.289,0,0,0-.92,3,0.211,0.211,0,0,1-.418,0,7.272,7.272,0,0,0-.921-3,4.624,4.624,0,0,0-2.121-1.1,0.206,0.206,0,0,1-.158-0.2,0.217,0.217,0,0,1,.158-0.21,4.624,4.624,0,0,0,2.121-1.1,7.25,7.25,0,0,0,.921-3,0.211,0.211,0,0,1,.418,0,7.237,7.237,0,0,0,.92,3,4.628,4.628,0,0,0,2.122,1.1,0.218,0.218,0,0,1,.158.21A0.207,0.207,0,0,1,855.579,2482Zm40.657-19.51a11.255,11.255,0,0,0-5.161,2.67c-1,1.06-1.771,4.29-2.239,7.31a0.514,0.514,0,0,1-1.017,0c-0.468-3.02-1.241-6.25-2.239-7.31a11.262,11.262,0,0,0-5.16-2.67,0.517,0.517,0,0,1,0-1,11.262,11.262,0,0,0,5.16-2.67c1-1.06,1.771-4.29,2.239-7.31a0.514,0.514,0,0,1,1.017,0c0.468,3.02,1.241,6.25,2.239,7.31a11.255,11.255,0,0,0,5.161,2.67A0.517,0.517,0,0,1,896.236,2462.49ZM799.5,2407.91a10.475,10.475,0,0,0-4.822,2.5c-0.933.99-1.656,4-2.093,6.83a0.48,0.48,0,0,1-.95,0c-0.437-2.83-1.16-5.84-2.093-6.83a10.475,10.475,0,0,0-4.822-2.5,0.477,0.477,0,0,1-.359-0.47,0.465,0.465,0,0,1,.359-0.46,10.569,10.569,0,0,0,4.822-2.5c0.933-.99,1.655-4,2.092-6.83a0.481,0.481,0,0,1,.951,0c0.437,2.83,1.16,5.84,2.093,6.83a10.569,10.569,0,0,0,4.822,2.5,0.465,0.465,0,0,1,.359.46A0.477,0.477,0,0,1,799.5,2407.91ZM535.579,2400a4.628,4.628,0,0,0-2.122,1.1,7.289,7.289,0,0,0-.92,3,0.211,0.211,0,0,1-.418,0,7.287,7.287,0,0,0-.921-3,4.624,4.624,0,0,0-2.121-1.1,0.206,0.206,0,0,1-.158-0.2,0.217,0.217,0,0,1,.158-0.21,4.624,4.624,0,0,0,2.121-1.1,7.237,7.237,0,0,0,.92-3,0.212,0.212,0,0,1,.419,0,7.237,7.237,0,0,0,.92,3,4.628,4.628,0,0,0,2.122,1.1,0.218,0.218,0,0,1,.158.21A0.207,0.207,0,0,1,535.579,2400Zm-36.442,65.38c-3.4.89-6.731,2.45-8.643,4.48-1.672,1.78-2.967,7.18-3.75,12.24a0.862,0.862,0,0,1-1.7,0c-0.784-5.06-2.078-10.46-3.751-12.24-1.912-2.03-5.238-3.59-8.642-4.48a0.844,0.844,0,0,1-.644-0.83,0.857,0.857,0,0,1,.644-0.84c3.4-.89,6.73-2.45,8.642-4.48,1.672-1.77,2.967-7.17,3.75-12.24a0.862,0.862,0,0,1,1.7,0c0.783,5.07,2.078,10.47,3.75,12.24,1.913,2.03,5.238,3.59,8.643,4.48a0.859,0.859,0,0,1,.645.84A0.847,0.847,0,0,1,499.137,2465.38Zm119.7,28.28a8.015,8.015,0,0,0-3.635,1.88c-0.7.75-1.247,3.02-1.577,5.15a0.362,0.362,0,0,1-.716,0c-0.33-2.13-.874-4.4-1.577-5.15a8.015,8.015,0,0,0-3.635-1.88,0.362,0.362,0,0,1,0-.7,7.93,7.93,0,0,0,3.635-1.89c0.7-.74,1.247-3.01,1.577-5.14a0.362,0.362,0,0,1,.716,0c0.33,2.13.874,4.4,1.577,5.14a7.93,7.93,0,0,0,3.635,1.89A0.362,0.362,0,0,1,618.835,2493.66Zm-42.6-83.17a11.255,11.255,0,0,0-5.161,2.67c-1,1.06-1.771,4.29-2.239,7.31a0.514,0.514,0,0,1-1.017,0c-0.468-3.02-1.241-6.25-2.239-7.31a11.262,11.262,0,0,0-5.16-2.67,0.517,0.517,0,0,1,0-1,11.262,11.262,0,0,0,5.16-2.67c1-1.06,1.771-4.29,2.239-7.31a0.514,0.514,0,0,1,1.017,0c0.468,3.02,1.241,6.25,2.239,7.31a11.255,11.255,0,0,0,5.161,2.67A0.518,0.518,0,0,1,576.236,2410.49Z" transform="translate(-472 -2395.31)"/></svg>