<svg xmlns="http://www.w3.org/2000/svg" width="129.9" height="137" viewBox="0 0 129.9 137"><path fill="#FFF" d="M129.2,77c-0.6-0.9-1.5-1.6-2.5-1.9l-0.9-0.3c0.2-2.9,0.3-5.9,0.3-9c0-17.5-5.9-33.9-16.5-46.3 C98.8,6.9,84.4,0,69.2,0C53.9,0,39.6,6.9,28.8,19.4C18.2,31.8,12.3,48.2,12.3,65.7c0,3.1,0.1,6.2,0.2,9l-1,0.3c-1,0.3-1.9,1-2.5,1.9 c-0.1,0.2-0.2,0.4-0.3,0.5L6.5,56.7c0,0,0.1-0.1,0.1-0.1c0.6-0.8,0.8-1.7,0.7-2.6l0,0l0-0.1c-0.2-1-0.7-1.8-1.4-2.4 c-0.6-0.5-1.4-0.7-2.2-0.7c-0.1,0-0.3,0-0.4,0l0,0l0,0l0,0c-1,0.1-1.8,0.7-2.4,1.5C0.2,53-0.1,53.9,0,54.8l0,0l0,0.1 c0.2,1,0.7,1.8,1.4,2.4l3,28.7c0.1,1.3,0.7,2.5,1.6,3.4C7,90.4,8.1,91,9.4,91.2l0.1,0l0.8,7.2c0.1,1,0.5,1.9,1.1,2.6 c0.6,0.7,1.4,1.3,2.4,1.5l1.7,0.5c0.5,3.6,1.6,6.9,3.1,10.1c2.3,4.7,5.7,8.8,10.1,12.2c5.5,4.2,12,7.3,19.4,9.3 c6.3,1.6,13.4,2.5,21.1,2.5c7.7,0,14.8-0.8,21.1-2.5c7.4-1.9,14-5.1,19.4-9.3c4.4-3.4,7.7-7.5,10.1-12.2c1.6-3.2,2.6-6.6,3.1-10.1 l1.6-0.4c0.9-0.3,1.8-0.8,2.4-1.5c0.6-0.7,1-1.6,1.1-2.6l1.9-18.3C130,79,129.7,77.9,129.2,77z M114.4,91.1 c-2.2,5.3-5.6,9.9-10,13.6c-9.6,8.3-22.6,11.8-35.1,11.8c-12.5,0-25.5-3.4-35.1-11.8c-4.3-3.8-7.7-8.3-10-13.6c-2.1-5.8-3-11.9-3-18 c0-1.2,0-2.4,0.1-3.6c1.1-9.8,5.3-18.5,12.7-25.1c9.6-8.5,22.6-12,35.2-12c12.5,0,25.6,3.5,35.2,12c7.4,6.6,11.6,15.2,12.7,25.1 c0.1,1.2,0.1,2.4,0.1,3.6C117.3,79.2,116.4,85.3,114.4,91.1z"/><path fill-rule="evenodd" clip-rule="evenodd" fill="#37BBC7" d="M120.9,75.3L120.9,75.3c0,14.9-5.4,26.6-14.2,34.8 c-9.3,8.7-22.4,13.3-36.9,13.5l0,0c-0.2,0-0.5,0-0.7,0c-0.2,0-0.5,0-0.7,0l0,0c-14.5-0.1-27.6-4.8-36.9-13.5 c-8.8-8.2-14.2-19.9-14.2-34.8h0c0-0.8,0-1.5,0-2.3c0-15,5.4-26.8,14.2-35.1c9.4-8.9,22.8-13.6,37.6-13.6c14.8,0,28.1,4.7,37.6,13.6 c8.8,8.3,14.2,20.1,14.2,35.1C120.9,73.8,120.9,74.6,120.9,75.3L120.9,75.3z M3.6,53.9L3.6,53.9c-0.2,0-0.3,0.1-0.4,0.2 c-0.1,0.1-0.1,0.3-0.1,0.4l0,0c0,0.1,0.1,0.3,0.2,0.3c0.1,0.1,0.3,0.1,0.4,0.1l0,0c0.1,0,0.3-0.1,0.3-0.2c0.1-0.1,0.1-0.3,0.1-0.4 l0,0C4.2,54.2,4.1,54,4,54C3.9,53.9,3.7,53.8,3.6,53.9L3.6,53.9z M3.5,52.7L3.5,52.7c-0.5,0.1-0.9,0.3-1.1,0.7 C2.1,53.7,2,54.2,2,54.6l0,0c0.1,0.5,0.3,0.8,0.7,1.1C2.9,55.9,3.1,56,3.3,56l3.2,29.7c0.1,0.9,0.5,1.7,1,2.3c0.6,0.6,1.3,1,2.2,1.2 l1.6,0.3l0.9,8.7c0.1,0.6,0.3,1.1,0.6,1.5c0.4,0.4,0.8,0.7,1.4,0.9l3,0.8c0.4,3.8,1.5,7.5,3.1,10.8c2.2,4.4,5.4,8.3,9.5,11.5 c5.6,4.3,12,7.2,18.7,8.9c6.7,1.7,13.7,2.4,20.6,2.4c6.9,0,13.9-0.7,20.6-2.4c6.7-1.7,13.1-4.6,18.7-8.9c4.1-3.2,7.3-7.1,9.5-11.5 c1.6-3.3,2.7-7,3.1-10.8l2.9-0.8c0.6-0.2,1-0.5,1.4-0.9c0.4-0.4,0.6-0.9,0.6-1.5l1.9-18.3c0.1-0.7-0.1-1.3-0.4-1.8 c-0.3-0.5-0.8-0.9-1.4-1.1l-2.4-0.8c0.2-3.4,0.3-6.9,0.3-10.4c0-17.6-6.1-33.5-16-45C98.1,9.1,84.3,2,69.2,2S40.3,9.1,30.3,20.7 c-9.9,11.5-16,27.4-16,45c0,3.5,0.1,7,0.3,10.4L12.2,77c-0.6,0.2-1.1,0.6-1.4,1.1c-0.3,0.5-0.5,1.1-0.4,1.8l0.9,8.4l-1.3-0.2 c-0.6-0.1-1.2-0.4-1.6-0.8c-0.4-0.4-0.7-1-0.7-1.6L4.4,55.9c0.2-0.1,0.4-0.3,0.6-0.5c0.2-0.3,0.4-0.8,0.3-1.2l0,0 c-0.1-0.5-0.3-0.8-0.7-1.1C4.3,52.8,3.9,52.7,3.5,52.7L3.5,52.7z M121.1,100.2c0.1-0.8,0.1-1.7,0.1-2.6l0-1.1c0-1.1,0-2.1,0.1-3.2 c0.1-1,0.3-2,0.5-3.1c0.8-3.8,1.4-7.7,1.7-11.8c0-0.3,0.1-0.7,0.1-1l2.1,0.7c0.4,0.1,0.7,0.4,0.9,0.7c0.2,0.3,0.3,0.7,0.2,1.1 l-1.9,18.3c0,0.4-0.2,0.7-0.4,0.9c-0.2,0.2-0.5,0.4-0.8,0.5L121.1,100.2L121.1,100.2z M14.7,77.3c0,0.4,0.1,0.7,0.1,1.1 c0.4,4.1,0.9,8,1.7,11.8c0.2,1.1,0.4,2.1,0.5,3.1c0.1,1,0.1,2.1,0.1,3.2l0,1.1c0,0.9,0,1.7,0.1,2.6l-2.6-0.7 c-0.3-0.1-0.6-0.3-0.8-0.5c-0.2-0.2-0.3-0.6-0.4-0.9l-1.9-18.3c0-0.4,0.1-0.8,0.2-1.1c0.2-0.3,0.5-0.6,0.9-0.7L14.7,77.3L14.7,77.3z M69.7,129c5.4,0,10.3-0.5,14.7-1.3l1.2,4.4c-5.2,1-10.5,1.4-15.8,1.5L69.7,129L69.7,129z M68.6,133.5c-5.3,0-10.6-0.5-15.8-1.5 l1.2-4.4c4.4,0.8,9.3,1.3,14.7,1.3L68.6,133.5L68.6,133.5z M112.6,111.4l2.6,2.6c0.5-0.8,0.9-1.6,1.3-2.5c2-4.2,3.1-8.8,3.1-13.8 C118,102.8,115.7,107.3,112.6,111.4L112.6,111.4z M114.6,114.9l-2.7-2.7c-2,2.5-4.4,4.8-7,6.8c-1.4,1-2.8,2-4.4,2.9l2.2,3.8 c1.7-1,3.3-2,4.8-3.2C110.4,120.3,112.8,117.8,114.6,114.9L114.6,114.9z M101.8,126.3l-2.2-3.8c-4.1,2.2-8.7,3.9-14.1,5l1.2,4.4 c0.9-0.2,1.8-0.4,2.7-0.6C93.7,130.1,97.9,128.5,101.8,126.3L101.8,126.3z M26.4,112.2l-2.7,2.7c1.9,2.8,4.3,5.4,7.1,7.6 c1.5,1.2,3.2,2.3,4.8,3.2l2.2-3.8c-1.6-0.9-3-1.9-4.4-2.9C30.7,117,28.4,114.8,26.4,112.2L26.4,112.2z M23.1,114l2.6-2.6 c-3-4-5.4-8.6-7.1-13.6c0,5,1.1,9.6,3.1,13.8C22.1,112.4,22.6,113.2,23.1,114L23.1,114z M38.7,122.5l-2.2,3.8 c3.9,2.2,8.1,3.7,12.4,4.9c0.9,0.2,1.8,0.5,2.7,0.6l1.2-4.4C47.5,126.3,42.8,124.7,38.7,122.5L38.7,122.5z M22.5,53.7 c2.4-4.5,5.5-8.5,9.3-11.8c9.4-8.3,22.7-12.8,37.4-12.8c14.7,0,28,4.5,37.4,12.8c3.8,3.3,6.9,7.3,9.3,11.8 c-2.4-5.7-5.8-10.6-10.1-14.6c-9.2-8.6-22.2-13.2-36.6-13.2c-14.4,0-27.4,4.6-36.6,13.2C28.3,43.1,24.9,47.9,22.5,53.7L22.5,53.7z M105.7,108.4c1.3-1.3,2.5-2.6,3.7-4c-0.9,1-1.9,1.9-2.9,2.8c-9.4,8.2-22.6,12.6-37.3,12.6c-14.7,0-27.9-4.4-37.3-12.6 c-1-0.9-2-1.8-2.9-2.8c1.1,1.4,2.4,2.8,3.7,4c9,8.8,21.7,13.5,35.9,13.7c0.2,0,0.4,0,0.7,0c0.2,0,0.5,0,0.7,0 C84,121.9,96.7,117.2,105.7,108.4L105.7,108.4z M116.3,91.8c2-5.6,3.1-11.8,3.1-18.8c0-1.3,0-2.6-0.1-3.8 c-1.2-11.1-6.1-20-13.5-26.5c-9.2-8.1-22.2-12.5-36.7-12.5c-14.5,0-27.5,4.4-36.7,12.5C25.1,49.2,20.2,58.1,19,69.2 c-0.1,1.2-0.1,2.5-0.1,3.8c0,6.9,1.1,13.2,3.1,18.8c2.4,5.7,6,10.5,10.6,14.5c9.2,8,22.2,12.3,36.6,12.3s27.4-4.3,36.6-12.3 C110.3,102.3,113.9,97.5,116.3,91.8L116.3,91.8z M119.8,94c0-0.3,0-0.6,0.1-0.8c0.1-1.1,0.3-2.2,0.5-3.3c0.8-3.7,1.4-7.6,1.7-11.6 c0.4-4,0.5-8.2,0.5-12.5c0-17.2-6-32.8-15.7-44.1c-9.7-11.2-23-18.2-37.7-18.2c-14.7,0-28.1,7-37.7,18.2 c-9.7,11.3-15.7,26.8-15.7,44.1c0,4.3,0.2,8.5,0.5,12.5c0.4,4,0.9,7.9,1.7,11.6c0.2,1.1,0.4,2.2,0.5,3.3c0,0.3,0,0.6,0.1,0.8 c2.8,9.9,7.7,18.2,15.5,24.2c8.1,6.1,19.5,9.7,35.1,9.7c15.6,0,27-3.6,35.1-9.7C112.1,112.3,116.9,103.9,119.8,94z"/></svg>