<svg class="icons-sprite" xmlns="http://www.w3.org/2000/svg">
  <symbol id="close" viewBox="0 0 24 24">
    <path d="M19 6.4L17.6 5 12 10.6 6.4 5 5 6.4l5.6 5.6L5 17.6 6.4 19l5.6-5.6 5.6 5.6 1.4-1.4-5.6-5.6z"/>
  </symbol>
  <symbol id="hamburger" viewBox="0 0 24 24">
    <path d="M3 6v2h18V6zm0 7h18v-2H3zm0 5h18v-2H3z"/>
  </symbol>
  <symbol id="social_fb" viewBox="0 0 32 32">
    <path d="M0 16C0 7.163 7.163 0 16 0s16 7.163 16 16-7.163 16-16 16S0 24.837 0 16zm17.134 8.874V16.17h2.403l.319-3h-2.722l.004-1.5c0-.783.075-1.202 1.199-1.202h1.502v-3h-2.404c-2.886 0-3.902 1.455-3.902 3.902v1.801h-1.8v3h1.8v8.704h3.601z"/>
  </symbol>
  <symbol id="social_insta" viewBox="0 0 32 32">
    <path d="M0 16C0 7.163 7.163 0 16 0s16 7.163 16 16-7.163 16-16 16S0 24.837 0 16zm16-8.533c-2.317 0-2.608.01-3.518.051-.908.042-1.528.186-2.07.397a4.179 4.179 0 0 0-1.513.984 4.19 4.19 0 0 0-.985 1.511c-.211.543-.355 1.163-.396 2.071-.04.91-.051 1.202-.051 3.52 0 2.317.01 2.607.051 3.517.042.908.186 1.528.397 2.07a4.19 4.19 0 0 0 .984 1.513c.474.474.95.767 1.511.985.543.21 1.163.354 2.071.396.91.041 1.201.052 3.519.052 2.317 0 2.607-.01 3.518-.052.908-.042 1.529-.185 2.072-.396a4.175 4.175 0 0 0 1.51-.985 4.19 4.19 0 0 0 .985-1.512c.21-.543.354-1.163.397-2.071.04-.91.051-1.2.051-3.518 0-2.317-.01-2.608-.051-3.519-.043-.908-.187-1.528-.397-2.07a4.188 4.188 0 0 0-.985-1.512 4.17 4.17 0 0 0-1.51-.984c-.545-.211-1.165-.355-2.074-.397-.91-.041-1.2-.051-3.518-.051h.003z"/><path d="M15.235 9.004h.766c2.278 0 2.548.009 3.448.05.832.038 1.284.177 1.584.293.399.155.683.34.981.639.299.298.484.583.639.981.116.3.256.752.293 1.584.041.9.05 1.17.05 3.447s-.009 2.548-.05 3.447c-.038.832-.177 1.284-.293 1.584-.155.399-.34.682-.639.98a2.639 2.639 0 0 1-.98.639c-.301.117-.753.256-1.585.294-.9.04-1.17.05-3.448.05-2.279 0-2.549-.01-3.448-.05-.832-.039-1.284-.178-1.585-.294a2.643 2.643 0 0 1-.981-.639 2.645 2.645 0 0 1-.639-.98c-.117-.3-.256-.752-.294-1.584-.04-.9-.049-1.17-.049-3.449s.008-2.548.05-3.447c.037-.832.176-1.284.293-1.585.155-.398.34-.682.639-.98.298-.3.583-.484.981-.64.3-.117.753-.255 1.585-.294.787-.035 1.092-.046 2.682-.048v.002zm5.32 1.417a1.024 1.024 0 1 0 0 2.049 1.024 1.024 0 0 0 0-2.049zm-4.554 1.197a4.382 4.382 0 1 0 0 8.765 4.382 4.382 0 0 0 0-8.765z"/><path d="M16 13.156a2.844 2.844 0 1 1 0 5.689 2.844 2.844 0 0 1 0-5.69z"/>
  </symbol>
  <symbol id="social_telegramm" viewBox="0 0 32 32">
    <path d="M16 0C7.165 0 0 7.163 0 16c0 8.836 7.165 16 16 16 8.836 0 16-7.164 16-16 0-8.837-7.164-16-16-16zm4.299 23.828c.25.177.573.221.861.113a.905.905 0 0 0 .563-.654c.676-3.176 2.316-11.216 2.93-14.104a.609.609 0 0 0-.201-.591.627.627 0 0 0-.62-.11c-3.261 1.209-13.305 4.977-17.41 6.495A.645.645 0 0 0 6 15.6c.01.275.195.513.461.593 1.842.551 4.258 1.318 4.258 1.318s1.129 3.41 1.717 5.144a.684.684 0 0 0 .47.448.673.673 0 0 0 .631-.162l2.407-2.272s2.779 2.036 4.355 3.159zm-8.564-6.75l1.306 4.309.291-2.728s5.044-4.551 7.921-7.144a.217.217 0 0 0 .026-.294.22.22 0 0 0-.292-.049l-9.252 5.907z"/>
  </symbol>
  <symbol id="social_whattsup" viewBox="0 0 32 32">
    <path d="M16.041 8.23c-4.241 0-7.689 3.447-7.69 7.687-.002 1.731.506 3.027 1.358 4.383l-.776 2.837 2.91-.764c1.304.774 2.548 1.238 4.193 1.239 4.237 0 7.69-3.45 7.69-7.688a7.685 7.685 0 0 0-7.685-7.695zm4.523 10.991c-.192.54-1.116 1.032-1.56 1.099-.399.06-.903.084-1.456-.092-.336-.107-.767-.25-1.317-.487-2.319-1.001-3.832-3.336-3.948-3.489-.116-.155-.944-1.253-.944-2.39 0-1.138.597-1.698.809-1.929a.85.85 0 0 1 .616-.289l.443.008c.141.007.332-.053.52.397.192.463.654 1.6.712 1.716.057.116.096.251.018.406-.077.154-.116.25-.23.385l-.347.405c-.116.115-.236.24-.101.472.134.232.598.988 1.285 1.602.883.788 1.628 1.032 1.859 1.146.23.115.365.096.501-.057.135-.155.577-.675.732-.907.155-.23.308-.193.52-.116.212.078 1.348.636 1.579.752.23.116.385.174.442.27.06.096.06.558-.133 1.098zM16 0C7.164 0 0 7.164 0 16s7.164 16 16 16 16-7.164 16-16S24.836 0 16 0zm.039 25.173a9.26 9.26 0 0 1-4.424-1.125l-4.903 1.285 1.312-4.793a9.229 9.229 0 0 1-1.235-4.624c.002-5.1 4.151-9.25 9.25-9.25A9.189 9.189 0 0 1 22.58 9.38a9.19 9.19 0 0 1 2.707 6.544c-.001 5.1-4.15 9.25-9.25 9.25z"/>
  </symbol>
</svg>