<svg xmlns="http://www.w3.org/2000/svg" width="123" height="30" viewBox="0 0 123 30"><path fill="#FFF" d="M2.777 16.04c.066 1.237.348 2.241.843 3.012.943 1.444 2.607 2.165 4.99 2.165 1.067 0 2.04-.158 2.918-.473 1.695-.614 2.544-1.712 2.544-3.294 0-1.187-.359-2.032-1.079-2.537-.728-.495-1.868-.924-3.422-1.29l-2.862-.668c-1.868-.435-3.191-.914-3.968-1.44C1.4 10.607.728 9.246.728 7.437c0-1.958.66-3.564 1.979-4.82C4.027 1.36 5.894.732 8.31.732c2.225 0 4.115.551 5.67 1.654 1.555 1.103 2.333 2.865 2.333 5.288h-2.776c-.143-1.167-.446-2.061-.911-2.685-.863-1.137-2.33-1.707-4.397-1.707-1.67 0-2.87.367-3.6 1.099-.731.731-1.096 1.583-1.096 2.552 0 1.067.431 1.849 1.294 2.344.566.316 1.846.712 3.84 1.186l2.963.698c1.428.336 2.53.796 3.308 1.378 1.342 1.02 2.012 2.498 2.012 4.437 0 2.413-.856 4.138-2.57 5.176-1.711 1.039-3.703 1.558-5.97 1.558-2.645 0-4.714-.692-6.21-2.076C.705 20.26-.03 18.394 0 16.04h2.776zm17.174-8.781h2.612v2.106c.536-.72 1.122-1.281 1.757-1.675.902-.595 1.964-.89 3.184-.89 1.806 0 3.338.69 4.598 2.068 1.26 1.38 1.89 3.35 1.89 5.912 0 3.462-.909 5.934-2.726 7.416-1.154.94-2.493 1.41-4.024 1.41-1.203 0-2.21-.262-3.025-.785-.476-.298-1.008-.807-1.594-1.529v8.115H19.95V7.259zm25.566 6.198c.613-.079 1.024-.335 1.231-.77.119-.238.178-.58.178-1.027 0-.914-.323-1.576-.97-1.988-.646-.412-1.572-.618-2.778-.618-1.391 0-2.379.378-2.962 1.133-.326.417-.539 1.039-.637 1.863h-2.493c.049-1.963.683-3.33 1.904-4.097 1.221-.77 2.637-1.154 4.248-1.154 1.867 0 3.385.356 4.55 1.068 1.158.712 1.735 1.82 1.735 3.323v9.154c0 .277.057.5.172.666.113.168.352.253.72.253a4.1 4.1 0 0 0 .4-.022c.148-.017.307-.038.475-.067v1.972c-.416.12-.732.193-.95.223a7.05 7.05 0 0 1-.89.044c-.92 0-1.589-.326-2.005-.978-.217-.347-.37-.837-.46-1.469-.543.711-1.326 1.33-2.344 1.854-1.02.524-2.143.786-3.37.786-1.474 0-2.68-.446-3.614-1.34-.935-.895-1.402-2.013-1.402-3.357 0-1.472.46-2.612 1.379-3.423.921-.809 2.128-1.307 3.622-1.495l4.261-.534zm8.315 9.616h2.671V1.282h-2.671zm6.49-15.888h2.642v2.254c.633-.78 1.207-1.35 1.722-1.705.88-.604 1.88-.905 2.999-.905 1.265 0 2.285.311 3.057.934.435.356.831.881 1.188 1.572.593-.85 1.29-1.48 2.092-1.89.802-.411 1.702-.616 2.702-.616 2.137 0 3.592.771 4.363 2.314.416.83.625 1.948.625 3.352v10.577h-2.777V12.036c0-1.058-.265-1.786-.793-2.181-.53-.395-1.176-.594-1.938-.594-1.049 0-1.951.351-2.708 1.054-.757.702-1.137 1.875-1.137 3.516v9.241h-2.716V12.703c0-1.078-.127-1.864-.386-2.359-.405-.741-1.162-1.112-2.27-1.112-1.01 0-1.928.391-2.754 1.172-.826.78-1.24 2.195-1.24 4.242v8.426h-2.67V7.185zm33.936 6.272c.613-.079 1.024-.335 1.232-.77.119-.238.177-.58.177-1.027 0-.914-.322-1.576-.97-1.988-.646-.412-1.572-.618-2.777-.618-1.392 0-2.38.378-2.963 1.133-.325.417-.538 1.039-.637 1.863h-2.493c.049-1.963.684-3.33 1.904-4.097 1.221-.77 2.637-1.154 4.248-1.154 1.868 0 3.385.356 4.552 1.068 1.156.712 1.734 1.82 1.734 3.323v9.154c0 .277.056.5.17.666.114.168.354.253.721.253.119 0 .252-.008.4-.022.148-.017.307-.038.475-.067v1.972c-.416.12-.731.193-.95.223a7.05 7.05 0 0 1-.89.044c-.92 0-1.589-.326-2.004-.978-.218-.347-.372-.837-.461-1.469-.543.711-1.326 1.33-2.344 1.854-1.019.524-2.143.786-3.37.786-1.474 0-2.68-.446-3.614-1.34-.935-.895-1.402-2.013-1.402-3.357 0-1.472.46-2.612 1.38-3.423.92-.809 2.127-1.307 3.621-1.495l4.261-.534zm8.315 9.616h2.671V1.282h-2.67zM120.65 8.77c1.406 1.364 2.108 3.37 2.108 6.017 0 2.56-.619 4.675-1.858 6.345-1.237 1.67-3.158 2.503-5.762 2.503-2.172 0-3.896-.737-5.174-2.215-1.277-1.476-1.915-3.46-1.915-5.95 0-2.668.673-4.793 2.02-6.374 1.344-1.58 3.153-2.371 5.422-2.371 2.035 0 3.755.682 5.16 2.045" fill-rule="evenodd"/></svg>