<svg id="Группа_1" data-name="Группа 1" xmlns="http://www.w3.org/2000/svg" width="268.5" height="162.25" viewBox="0 0 268.5 162.25"><defs><style>.cls-1,.cls-2{fill:#37bbc7;fill-rule:evenodd}.cls-2{fill:#e5e1d7}</style></defs><path class="cls-1" d="M676.2,3027.01a32.805,32.805,0,0,1-25.18-23.02,0.867,0.867,0,0,1,.157-0.78,0.828,0.828,0,0,1,.735-0.15h62.149a0.828,0.828,0,0,1,.735.15,0.87,0.87,0,0,1,.158.78,32.906,32.906,0,0,1-25.179,23.02H676.2Z" transform="translate(-536.719 -2908.75)"/><path class="cls-2" d="M711.227,2988.45l-0.454-.9,94-48,0.454,0.9Zm-18.714-15.56,9-39,0.974,0.22-9,39Zm-8.558,10.94v2.18L701,3003h14a0.817,0.817,0,0,1,.757.16,0.947,0.947,0,0,1,.162.83,34.219,34.219,0,0,1-25.929,24.3L700,3050h4a1.033,1.033,0,0,1,1,1v9a1.04,1.04,0,0,1-1,1h-4v8h17l0.046,0.1a0.914,0.914,0,0,1,.954.9,0.992,0.992,0,0,1-.954,1H648.954a0.956,0.956,0,0,1-.954-0.95,1.079,1.079,0,0,1,1-1.05h17v-8h-4a1.033,1.033,0,0,1-1-1v-9a1.033,1.033,0,0,1,1-1h4l10.011-21.71a34.121,34.121,0,0,1-25.93-24.3,0.941,0.941,0,0,1,.162-0.83A0.816,0.816,0,0,1,651,3003h14l17.046-16.99v-2.18A3.495,3.495,0,1,1,683.955,2983.83Zm1.43,6.3L690,3003h8ZM668,3069h30v-4H668v4Zm0-6h30v-2H668v2Zm-5-11v7h40v-7H663Zm21.587-23.5a1.587,1.587,0,1,0-1.587,1.58A1.586,1.586,0,0,0,684.587,3028.5ZM668,3050h14l0.046-18.15a3.5,3.5,0,1,1,1.908,0L684,3050h14l-11.031-23.84a4.335,4.335,0,0,0-7.937,0Zm8.794-23.49,0.491-1.12a6.25,6.25,0,0,1,11.43,0l0.491,1.12c10.414-2.03,19.608-8.93,23.794-18.51H654A31.094,31.094,0,0,0,676.794,3026.51ZM652,3005c0.128,0.4.54,0.49,0.684,0.88h60.631c0.143-.39.558-0.48,0.685-0.88H652Zm16-2h8l4.618-12.87Zm10,0h10l-5-13.83Zm5-24.1a1.585,1.585,0,1,0,1.587,1.58A1.585,1.585,0,0,0,683,2978.9Zm-49.442-69.67,0.884-.46,35,66-0.884.46Zm21.168,82.19-118-67,0.548-.84,118,67Z" transform="translate(-536.719 -2908.75)"/></svg>