<svg xmlns="http://www.w3.org/2000/svg" width="124" height="77" viewBox="0 0 124 77"><path fill="#ffd11a" d="M339.034,2691.33a38.229,38.229,0,0,0-8.866-15.22c1.872-.85,3.741-1.68,5.583-2.48a2.32,2.32,0,0,0,4.244-1.76l-0.007-.03c3.523-1.45,6.882-2.71,9.9-3.68a0.969,0.969,0,0,0,1.832-.57c5.956-1.76,10.289-2.15,11.433-.19,1.364,2.35-2.481,6.91-8.717,12.23a3.622,3.622,0,0,0-3.512-.96,3.562,3.562,0,0,0-2.05,5.45c-3.067,2.37-6.415,4.81-9.84,7.21m-74.1,22.18a38.214,38.214,0,0,0,8.832,15.3c-4.64,2.12-9.265,4.12-13.522,5.78a2.261,2.261,0,0,0-4.208,1.56c-7.84,2.75-13.8,3.81-15.171,1.45-1.545-2.66,3.576-8.17,11.279-14.44a1.225,1.225,0,0,0,1.98-1.24,1.6,1.6,0,0,0-.107-0.27c3.354-2.64,7.089-5.41,10.917-8.13v-0.01Zm10.06,16.54a38.842,38.842,0,0,0,37.032,9.61,38.441,38.441,0,0,0,27.483-46.64c-8.9,6.37-19.822,13.33-31.47,20.02C296.036,2719.93,284.861,2725.64,274.99,2730.05Zm17-64.71a38.453,38.453,0,0,0-27.362,47.12c0.053,0.19.109,0.39,0.165,0.58h0c-3.9,2.73-7.715,5.51-11.13,8.21a1.223,1.223,0,0,0-1.9,1.3,1.421,1.421,0,0,0,.062.18c-7.935,6.47-13.207,12.24-11.5,15.18,1.5,2.58,7.774,1.58,15.954-1.15a2.264,2.264,0,0,0,4.19-1.49c3.025-1.13,6.222-2.43,9.472-3.83h0.014l0.043-.02q2.2-.945,4.415-1.94h0c9.9-4.46,21.142-10.23,33.211-17.15,11.732-6.74,22.722-13.72,31.674-20.09l0-.01c1.623-1.16,3.23-2.33,4.8-3.5h0c1.817-1.35,3.583-2.7,5.263-4.03a3.627,3.627,0,0,0,3.428.88,3.573,3.573,0,0,0,2.542-4.38,3.464,3.464,0,0,0-.483-1.06c6.393-5.63,10.335-10.48,8.848-13.04-1.282-2.21-5.915-1.83-12.2.01a0.975,0.975,0,0,0-1.681.52c-3.069.98-6.468,2.26-10.024,3.72a2.32,2.32,0,0,0-4.272,1.71c0.008,0.03.016,0.06,0.025,0.09-1.9.82-3.819,1.69-5.74,2.57v0.01A38.821,38.821,0,0,0,291.991,2665.34Z" transform="translate(-240 -2664)"/></svg>