<svg xmlns="http://www.w3.org/2000/svg" width="85.97" height="108" viewBox="0 0 85.97 108"><defs><style>.cls-1{fill:#e5e1d7;fill-rule:evenodd}</style></defs><path class="cls-1" d="M1249.87,2368.18a0.935,0.935,0,0,1-.82.49,116.082,116.082,0,0,1-20.74-1.48c-1.6,1.29-4.39,1.86-7.67,1.65l-0.78,2.92a0.965,0.965,0,0,1-1.18.69l-7.74-2.09a0.965,0.965,0,0,1-.68-1.19l0.78-2.93c-2.95-1.47-5.09-3.37-5.83-5.3a116.1,116.1,0,0,1-18.7-9.17,1,1,0,0,1-.47-0.84,0.982,0.982,0,0,1,.48-0.84,28.492,28.492,0,0,1,20.4-3.47c0.16,0.03.32,0.07,0.48,0.11a14.637,14.637,0,0,1,15.35-5.23,14.789,14.789,0,0,1,10.71,12.28,4.186,4.186,0,0,1,.47.14,28.749,28.749,0,0,1,15.95,13.3A0.993,0.993,0,0,1,1249.87,2368.18Zm-31.62,2.14,0.45-1.69a24.583,24.583,0,0,1-2.99-.63,27.368,27.368,0,0,1-2.9-.96l-0.45,1.69Zm-2.04-4.2a18.43,18.43,0,0,0,8.81.49c-2.82-.55-5.63-1.19-8.42-1.94s-5.54-1.62-8.26-2.57A18.523,18.523,0,0,0,1216.21,2366.12Zm0.89-3.34a114.381,114.381,0,0,0,26.7,3.92l-51.77-13.99A115.23,115.23,0,0,0,1217.1,2362.78Zm5.15-19.4a12.7,12.7,0,0,0-13,4.13,8.1,8.1,0,0,1,.86.58,27.2,27.2,0,0,0,20.33,5.5,7.131,7.131,0,0,1,1.03-.07A12.833,12.833,0,0,0,1222.25,2343.38Zm11.07,12.38a5.751,5.751,0,0,0-2.64-.24,29.118,29.118,0,0,1-21.74-5.88,5.791,5.791,0,0,0-2.41-1.12,26.477,26.477,0,0,0-16.1,1.74l55.98,15.13A26.829,26.829,0,0,0,1233.32,2355.76Zm-4.94-3.45a1.133,1.133,0,0,1-.45-0.01,0.967,0.967,0,0,1-.69-0.74,6.189,6.189,0,0,0-2.34-3.48,0.971,0.971,0,0,1-.17-1.36,0.94,0.94,0,0,1,1.34-.18,8.006,8.006,0,0,1,3.05,4.61A0.976,0.976,0,0,1,1228.38,2352.31Zm-16.3,19.98a0.979,0.979,0,0,1,.13,1.37l-46.49,57.81a0.954,0.954,0,0,1-.99.33,1.041,1.041,0,0,1-.36-0.19,0.978,0.978,0,0,1-.13-1.37l46.48-57.81A0.967,0.967,0,0,1,1212.08,2372.29Zm-19.06,47.97a8.5,8.5,0,0,0,1.97-1.82,9.6,9.6,0,0,0,2-4.48c0.03-.19.07-0.37,0.1-0.54,0.18-1.06.34-1.99,0.41-2.84v-0.04a6.407,6.407,0,0,0-2.13-5.46,0.98,0.98,0,0,1-.12-1.23,0.956,0.956,0,0,1,.46-0.36c1.02-.43,1.98-0.87,2.86-1.29a4.516,4.516,0,0,1,1.06-.34l-0.42-1.46a0.965,0.965,0,1,1,1.86-.51l0.62,2.17a3.991,3.991,0,0,1,.59.28l-0.22-.78a1.02,1.02,0,0,1,.59-1.25,0.962,0.962,0,0,1,1.24.65l0.72,2.52a0.975,0.975,0,0,1-.5,1.14,0.749,0.749,0,0,0,.05.16c1.18,4.2,8.16,7.67,10.27,8.63a3.629,3.629,0,0,1,1.93,2.15,3.744,3.744,0,0,1-.25,2.93c-0.07.12-.74,1.43-1.06,2.01a17.475,17.475,0,0,1-3.22,4.43,3.012,3.012,0,0,0-.79,1.11h-0.01a12.943,12.943,0,0,1-4.07,5.15,0.943,0.943,0,0,1-.78.13,1.027,1.027,0,0,1-.55-0.4,0.988,0.988,0,0,1,.27-1.35,11.045,11.045,0,0,0,2.96-3.49,2.021,2.021,0,0,1-.34-0.06h0a2.729,2.729,0,0,1-.66-0.28c-0.35-.19-0.69-0.39-1.01-0.59a10.01,10.01,0,0,1-4.28,2.75,0.872,0.872,0,0,1-.53.01,0.957,0.957,0,0,1-.66-0.65,0.977,0.977,0,0,1,.63-1.22,8.166,8.166,0,0,0,3.19-1.94,34.942,34.942,0,0,1-4.51-3.59,20.618,20.618,0,0,1-3.17,4.49,0.937,0.937,0,0,1-.95.28,1.017,1.017,0,0,1-.4-0.23,0.975,0.975,0,0,1-.05-1.37,16.962,16.962,0,0,0,3.11-4.67c-0.53-.59-0.97-1.12-1.31-1.57a11.085,11.085,0,0,1-3.97,4.52,0.983,0.983,0,0,1-.71.09,0.952,0.952,0,0,1-.59-0.47A0.967,0.967,0,0,1,1193.02,2420.26Zm13.27-9.51a1.555,1.555,0,0,0-.08.23,1.87,1.87,0,0,0,1.31,2.29,1.825,1.825,0,0,0,1.71-.42A25.391,25.391,0,0,1,1206.29,2410.75Zm5.53,11.25a18.924,18.924,0,0,0,1.05-1.61,7.343,7.343,0,0,0-1.04-.95c-1.74-1.32-3.18-1.37-3.34-1.15a1.258,1.258,0,0,0,.22.91,6.549,6.549,0,0,0,1.81,2.01A8.217,8.217,0,0,0,1211.82,2422Zm-13-6.65a3.214,3.214,0,0,0,.57.22c1.13,0.3,2.07-.09,2.22-0.64,0.06-.58-1.23-2.45-2.32-3.1-0.08.62-.2,1.26-0.31,1.92-0.08.47-.17,0.96-0.25,1.46C1198.76,2415.25,1198.79,2415.3,1198.82,2415.35Zm0.63-5.56a6.63,6.63,0,0,1,2.84,2.28c0.57,0.76,1.48,2.2,1.17,3.36a3.1,3.1,0,0,1-2.88,2.17,32.312,32.312,0,0,0,8.22,6.44,0.683,0.683,0,0,0,.22.09,1.657,1.657,0,0,0,1.5-.61,10.281,10.281,0,0,1-1.15-.75,8.444,8.444,0,0,1-2.36-2.66,2.675,2.675,0,0,1-.06-2.98c1.05-1.42,3.58-1.11,6.03.74a10.923,10.923,0,0,1,.88.76c0.11-.19.49-0.93,0.56-1.06a1.749,1.749,0,0,0,.12-1.38,1.651,1.651,0,0,0-.9-1q-1.47-.675-2.7-1.35a3.753,3.753,0,0,1-3.92,1.31,3.814,3.814,0,0,1-2.66-4.67,3.554,3.554,0,0,1,.48-1.09,9.955,9.955,0,0,1-2.53-4.06,2.176,2.176,0,0,0-.51-0.92,2.026,2.026,0,0,0-.97-0.58,2.05,2.05,0,0,0-1.44.13c-0.55.26-1.13,0.53-1.73,0.8A7.808,7.808,0,0,1,1199.45,2409.79Zm17.29-36.24a0.974,0.974,0,0,1,1.1.81l11.6,73.51a0.958,0.958,0,0,1-.8,1.11,0.778,0.778,0,0,1-.4-0.02,0.972,0.972,0,0,1-.7-0.78l-11.6-73.51A0.981,0.981,0,0,1,1216.74,2373.55Z" transform="translate(-1164.03 -2341)"/></svg>