<svg id="Группа_2" data-name="Группа 2" xmlns="http://www.w3.org/2000/svg" width="146.562" height="121.16" viewBox="0 0 146.562 121.16"><defs><style>.cls-1,.cls-2{fill:#845988;fill-rule:evenodd}.cls-2{fill:#e5e1d7}</style></defs><path id="Shape_15_копия" data-name="Shape 15 копия" class="cls-1" d="M693,2347l3.37,5.78a0.825,0.825,0,0,1-.008.82,0.881,0.881,0,0,1-.128.17,0.827,0.827,0,0,1-.58.24h-25.31a0.826,0.826,0,0,1-.708-0.41,0.844,0.844,0,0,1-.008-0.83L673,2347h20Z" transform="translate(-614.719 -2304)"/><path class="cls-2" d="M733,2334a1.154,1.154,0,0,1,1,1,1.028,1.028,0,0,1-1,1h-2v4a1.323,1.323,0,0,1-1,1h-8a1.154,1.154,0,0,1-1-1v-4h-1v4a0.924,0.924,0,0,1-1,1h-9a0.837,0.837,0,0,1-1-.61l0-4.39h-1v4a0.854,0.854,0,0,1-1,1h-9a1.154,1.154,0,0,1-1-1v-4h-2v10c0,0.75.176,1-1,1h-1l3.37,5.78a0.825,0.825,0,0,1-.008.82,0.881,0.881,0,0,1-.128.17,0.827,0.827,0,0,1-.58.24L684,2354v4h-2v-4l-11.656.01a0.826,0.826,0,0,1-.708-0.41,0.844,0.844,0,0,1-.008-0.83L673,2347h-1c-0.453,0-1,.46-1,0v-11h-2v4a0.924,0.924,0,0,1-1,1h-9a1.154,1.154,0,0,1-1-1v-4h-1v4a0.851,0.851,0,0,1-1,1h-9a1.153,1.153,0,0,1-1-1v-4h-1v4a0.874,0.874,0,0,1-1,1h-8c-0.838,0-1-.26-1-1v-4h-2a1,1,0,0,1,0-2h2l-0.113-7.05-2.069-.01A0.923,0.923,0,0,1,632,2326a1.153,1.153,0,0,1,1-1h2l-0.113-4.16A1.13,1.13,0,0,1,636,2320h8a1.212,1.212,0,0,1,1,1v4h1v-4a1,1,0,0,1,1-1h9a1.154,1.154,0,0,1,1,1v4h1v-4a1.152,1.152,0,0,1,1-1l8.732,0.01A1.463,1.463,0,0,1,669,2321v4h2v-10s7.812-11,9-11h6c1.625,0,9,11,9,11v10h2v-4a2.111,2.111,0,0,1,.677-0.74,0.76,0.76,0,0,1,.581-0.24L707,2320a1.153,1.153,0,0,1,1,1v4h1v-4.15a0.825,0.825,0,0,1,.822-0.83h8.895A1.474,1.474,0,0,1,720,2321v4h1v-4a0.991,0.991,0,0,1,1-1h8a1.153,1.153,0,0,1,1,1v4h2a1.153,1.153,0,0,1,1,1,1,1,0,0,1-1,1h-2v7h2Zm-90-12h-6v17h6v-17Zm3,5h-1v7h1v-7Zm9-5h-7v17h7v-17Zm3,5h-1v7h1v-7Zm9-5h-7v17h7v-17Zm4,5h-2v7h2v-7Zm1,25h22l-3-5H675Zm14-46h-6l-6,8h18Zm7,10H673v2h20v-2Zm0,3H673v23h4v-14c0-1.48,1.075-2.46,2.112-3.51a5.806,5.806,0,0,1,7.767,0c1.037,1.05,2.121,2.03,2.121,3.51v14h4v-23Zm-14,9v14h8v-14a3.182,3.182,0,0,0-1.283-2.34,3.866,3.866,0,0,0-2.722-1.14,3.82,3.82,0,0,0-2.721,1.14A3.171,3.171,0,0,0,679,2328Zm14,15H673v2h20v-2Zm4-16h-2v7h2v-7Zm9-5h-7v17h7v-17Zm3,5h-1v7h1v-7Zm9-5h-7v17h7v-17Zm3,5h-1v7h1v-7Zm8-5h-6v17h6v-17Zm-58.732,37.42-55,35-0.537-.84,55-35Zm8.208-.27-21,66-0.952-.3,21-66Zm19.011,37.74-0.974.22-8-35,0.974-.22Zm-2.214-37.31,66,43-0.546.84-66-43Z" transform="translate(-614.719 -2304)"/></svg>