<svg xmlns="http://www.w3.org/2000/svg" width="640" height="640" viewBox="0 0 640 640"><path fill="#fff" fill-opacity=".25" fill-rule="evenodd" clip-rule="evenodd" d="M399.7 456.8c-1.6.4-3.3 1.2-4.2 2.2-.8.9-1.4 3.5-1.8 5.9 0 .2-.2.4-.4.4s-.4-.2-.4-.4c-.4-2.5-1-5.1-1.8-5.9-.9-1-2.5-1.7-4.2-2.2-.2-.1-.3-.2-.3-.4s.1-.4.3-.4c1.7-.4 3.3-1.2 4.2-2.2.8-.9 1.4-3.5 1.8-6 0-.2.2-.4.4-.4s.4.1.4.4c.4 2.5 1 5.1 1.8 6 .9 1 2.6 1.7 4.2 2.2.2 0 .3.2.3.4s-.1.4-.3.4zM176.4 237.6c-1.4.4-2.8 1-3.6 1.9-.7.7-1.2 3-1.6 5.1 0 .2-.2.3-.4.3s-.3-.1-.4-.3c-.3-2.1-.9-4.4-1.6-5.1-.8-.9-2.2-1.5-3.6-1.9-.2 0-.3-.2-.3-.4s.1-.3.3-.4c1.4-.4 2.8-1 3.6-1.9.7-.7 1.2-3 1.6-5.1 0-.2.2-.3.4-.3s.3.1.4.3c.3 2.1.9 4.4 1.6 5.1.8.9 2.2 1.5 3.6 1.9.2 0 .3.2.3.4 0 .3-.1.4-.3.4zM428.6 357.8c-1.1.3-2.2.8-2.8 1.5-.6.6-1 2.3-1.2 4 0 .1-.1.2-.3.2-.1 0-.3-.1-.3-.2-.3-1.6-.7-3.4-1.2-4-.6-.7-1.7-1.2-2.8-1.5-.1 0-.2-.1-.2-.3 0-.1.1-.2.2-.3 1.1-.3 2.2-.8 2.8-1.5.5-.6 1-2.3 1.2-4 0-.1.1-.2.3-.2.1 0 .3.1.3.2.3 1.7.7 3.4 1.2 4 .6.7 1.7 1.2 2.8 1.5.1 0 .2.1.2.3 0 .1-.1.2-.2.3zM524.2 278.6c-1 .2-2 .7-2.5 1.3-.5.5-.9 2.1-1.1 3.6 0 .1-.1.2-.2.2s-.2-.1-.2-.2c-.2-1.5-.6-3.1-1.1-3.6-.6-.6-1.5-1.1-2.5-1.3-.1 0-.2-.1-.2-.2s.1-.2.2-.2c1-.3 2-.7 2.5-1.3.5-.5.9-2.1 1.1-3.6 0-.1.1-.2.2-.2s.2.1.2.2c.2 1.5.6 3.1 1.1 3.6.6.6 1.5 1 2.5 1.3.1 0 .2.1.2.2s-.1.1-.2.2zM639.8 512.4c-1.1.3-2.2.8-2.8 1.5-.6.6-1 2.3-1.2 4 0 .1-.1.2-.3.2-.1 0-.3-.1-.3-.2-.3-1.6-.7-3.4-1.2-4-.6-.7-1.7-1.2-2.8-1.5-.1 0-.2-.1-.2-.3 0-.1.1-.2.2-.3 1.1-.3 2.2-.8 2.8-1.5.5-.6 1-2.3 1.2-4 0-.1.1-.2.3-.2.1 0 .3.1.3.2.3 1.7.7 3.4 1.2 4 .6.7 1.7 1.2 2.8 1.5.1 0 .2.1.2.3 0 .1-.1.2-.2.3zM434.5 56.3c-1.3.3-2.5.9-3.3 1.7-.6.7-1.1 2.7-1.4 4.6 0 .2-.2.3-.3.3-.2 0-.3-.1-.3-.3-.3-1.9-.8-3.9-1.4-4.6-.7-.8-2-1.3-3.3-1.7-.1 0-.3-.2-.3-.3 0-.1.1-.3.3-.3 1.3-.3 2.5-.9 3.3-1.7.6-.7 1.1-2.7 1.4-4.6 0-.2.2-.3.3-.3.2 0 .3.1.3.3.3 1.9.8 3.9 1.4 4.6.7.8 2 1.3 3.3 1.7.1 0 .2.2.2.3 0 .2-.1.3-.2.3zM231.5 391.2c-1.8.5-3.5 1.3-4.5 2.3-.9.9-1.5 3.7-2 6.4 0 .2-.2.4-.4.4s-.4-.2-.5-.4c-.4-2.6-1.1-5.5-2-6.4-1-1.1-2.7-1.9-4.5-2.3-.2-.1-.3-.2-.3-.4s.1-.4.3-.4c1.8-.5 3.5-1.3 4.5-2.3.9-.9 1.6-3.7 2-6.4 0-.2.2-.4.5-.4.2 0 .4.2.4.4.4 2.7 1.1 5.5 2 6.4 1 1.1 2.7 1.9 4.5 2.3.2.1.3.2.3.4s-.1.4-.3.4zM302.5 162.6c-1.9.5-3.7 1.4-4.8 2.5-.9 1-1.6 4-2.1 6.8 0 .2-.2.4-.5.4-.2 0-.4-.2-.5-.4-.4-2.8-1.2-5.8-2.1-6.8-1.1-1.1-2.9-2-4.8-2.5-.2-.1-.4-.2-.4-.5 0-.2.1-.4.4-.5 1.9-.5 3.7-1.4 4.8-2.5.9-1 1.6-4 2.1-6.8 0-.2.2-.4.5-.4.2 0 .4.2.5.4.4 2.8 1.2 5.8 2.1 6.8 1.1 1.1 2.9 2 4.8 2.5.2.1.4.2.4.5s-.2.5-.4.5zM355.5 293.6c-1.6.4-3.1 1.1-4 2.1-.8.8-1.4 3.3-1.7 5.6 0 .2-.2.3-.4.3s-.4-.1-.4-.3c-.4-2.3-1-4.8-1.7-5.6-.9-.9-2.4-1.6-4-2.1-.2 0-.3-.2-.3-.4s.1-.3.3-.4c1.6-.4 3.1-1.1 4-2 .8-.8 1.4-3.3 1.7-5.6 0-.2.2-.3.4-.3s.4.1.4.3c.4 2.3 1 4.8 1.7 5.6.9.9 2.4 1.6 4 2 .2 0 .3.2.3.4s-.1.3-.3.4zM560.2 425.9c-1.6.4-3.1 1.1-4 2.1-.8.8-1.4 3.3-1.7 5.6 0 .2-.2.3-.4.3s-.4-.1-.4-.3c-.4-2.3-1-4.8-1.7-5.6-.9-.9-2.4-1.6-4-2.1-.2 0-.3-.2-.3-.4s.1-.3.3-.4c1.6-.4 3.1-1.1 4-2 .8-.8 1.4-3.3 1.7-5.6 0-.2.2-.3.4-.3s.4.1.4.3c.4 2.3 1 4.8 1.7 5.6.9.9 2.4 1.6 4 2 .2 0 .3.2.3.4s-.2.4-.3.4zM467.7 184.1c-1.6.4-3.2 1.2-4.1 2.1-.8.9-1.4 3.4-1.8 5.9 0 .2-.2.3-.4.3s-.4-.1-.4-.3c-.4-2.4-1-5-1.8-5.9-.9-1-2.5-1.7-4.1-2.1-.2-.1-.3-.2-.3-.4s.1-.3.3-.4c1.6-.4 3.2-1.2 4.1-2.2.8-.8 1.4-3.4 1.8-5.9 0-.2.2-.3.4-.3s.4.1.4.3c.4 2.4 1 5 1.8 5.9.9 1 2.5 1.7 4.1 2.2.2 0 .3.2.3.4s-.1.4-.3.4zM74 524.3c-1.1.3-2.1.8-2.7 1.4-.5.6-.9 2.3-1.2 3.8 0 .1-.1.2-.3.2-.1 0-.3-.1-.3-.2-.3-1.6-.7-3.3-1.2-3.8-.6-.6-1.6-1.1-2.7-1.4-.1 0-.2-.1-.2-.3s.1-.2.2-.3c1.1-.3 2.1-.8 2.7-1.4.5-.6.9-2.3 1.2-3.8 0-.1.1-.2.3-.2.1 0 .3.1.3.2.2 1.6.6 3.3 1.2 3.8.6.6 1.6 1.1 2.7 1.4.1 0 .2.1.2.3s-.1.2-.2.3zM206.5 108.5c-1.6.4-3.1 1.1-3.9 2-.8.8-1.4 3.3-1.7 5.6 0 .2-.2.3-.4.3s-.4-.1-.4-.3c-.4-2.3-1-4.8-1.7-5.6-.9-.9-2.4-1.7-3.9-2-.2 0-.3-.2-.3-.4s.1-.3.3-.4c1.6-.4 3.1-1.1 3.9-2 .8-.8 1.4-3.3 1.7-5.6 0-.2.2-.3.4-.3s.4.1.4.3c.3 2.3.9 4.8 1.7 5.6.9.9 2.4 1.6 3.9 2 .2 0 .3.2.3.4s-.1.3-.3.4zM140.7 592.4c-1.1.3-2.1.8-2.7 1.4-.5.6-.9 2.3-1.2 3.8 0 .1-.1.2-.3.2-.1 0-.3-.1-.3-.2-.3-1.6-.7-3.3-1.2-3.8-.6-.6-1.6-1.1-2.7-1.4-.1 0-.2-.1-.2-.3 0-.1.1-.2.2-.3 1.1-.3 2.1-.8 2.7-1.4.5-.6.9-2.3 1.2-3.8 0-.1.1-.2.3-.2.1 0 .3.1.3.2.2 1.6.6 3.3 1.2 3.8.6.6 1.6 1.1 2.7 1.4.1 0 .2.1.2.3 0 .2-.1.3-.2.3zM185.7 482.1c-.6.2-1.2.4-1.6.8-.3.3-.5 1.3-.7 2.2 0 .1-.1.1-.2.1s-.1-.1-.2-.1c-.1-.9-.4-1.9-.7-2.2-.3-.4-1-.7-1.6-.8-.1 0-.1-.1-.1-.2s0-.1.1-.2c.6-.2 1.2-.4 1.6-.8.3-.3.5-1.3.7-2.2 0-.1.1-.1.2-.1s.1.1.2.1c.1.9.4 1.9.7 2.2.3.4 1 .7 1.6.8.1 0 .1.1.1.2s-.1.2-.1.2zM378.6 606.8c-.6.2-1.2.4-1.6.8-.3.3-.5 1.3-.7 2.2 0 .1-.1.1-.2.1s-.1-.1-.2-.1c-.1-.9-.4-1.9-.7-2.2-.3-.4-1-.7-1.6-.8-.1 0-.1-.1-.1-.2s0-.1.1-.2c.6-.2 1.2-.4 1.6-.8.3-.3.5-1.3.7-2.2 0-.1.1-.1.2-.1s.1.1.2.1c.1.9.4 1.9.7 2.2.3.4 1 .7 1.6.8.1 0 .1.1.1.2s0 .2-.1.2zM94.8 86.1c-1.5.4-3 1.1-3.9 2-.8.8-1.3 3.2-1.7 5.5 0 .2-.2.3-.4.3s-.4-.1-.4-.3c-.4-2.3-.9-4.7-1.7-5.5-.9-.9-2.3-1.6-3.9-2-.2 0-.3-.2-.3-.4s.1-.3.3-.4c1.5-.4 3-1.1 3.9-2 .8-.8 1.3-3.2 1.7-5.5 0-.2.2-.3.4-.3s.4.1.4.3c.3 2.3.9 4.7 1.7 5.5.9.9 2.3 1.6 3.9 2 .2 0 .3.2.3.4s-.1.4-.3.4zM275.1 533.3c-1.7.4-3.3 1.2-4.2 2.2-.8.9-1.5 3.5-1.8 6 0 .2-.2.4-.4.4s-.4-.2-.4-.4c-.4-2.5-1-5.1-1.8-6-.9-1-2.6-1.8-4.2-2.2-.2 0-.3-.2-.3-.4s.1-.4.3-.4c1.7-.4 3.3-1.2 4.2-2.2.8-.9 1.5-3.5 1.8-6 0-.2.2-.4.4-.4s.4.2.4.4c.4 2.5 1 5.1 1.8 6 .9 1 2.6 1.8 4.2 2.2.2 0 .3.2.3.4s-.1.4-.3.4zM17.6 265.9c-2.2.6-4.4 1.6-5.6 2.9-1.1 1.1-1.9 4.7-2.4 7.9 0 .3-.3.5-.6.5s-.5-.2-.5-.5c-.5-3.3-1.4-6.8-2.4-7.9-1.2-1.3-3.4-2.3-5.6-2.9-.3-.1-.4-.3-.4-.5 0-.3.2-.5.4-.5 2.2-.6 4.4-1.6 5.6-2.9 1.1-1.1 1.9-4.7 2.4-7.9 0-.3.3-.5.5-.5.3 0 .5.2.6.5.5 3.3 1.4 6.8 2.4 7.9 1.2 1.3 3.4 2.3 5.6 2.9.3.1.4.3.4.5s-.1.4-.4.5zM112.6 365.3c-1.7.4-3.3 1.2-4.3 2.2-.8.9-1.5 3.5-1.9 6 0 .2-.2.4-.4.4s-.4-.1-.4-.4c-.4-2.5-1-5.2-1.9-6-.9-1-2.6-1.8-4.3-2.2-.2-.1-.3-.2-.3-.4s.1-.4.3-.4c1.7-.4 3.3-1.2 4.3-2.2.8-.9 1.5-3.5 1.9-6 0-.2.2-.4.4-.4s.4.2.4.4c.4 2.5 1 5.2 1.9 6 .9 1 2.6 1.8 4.3 2.2.2 0 .3.2.3.4 0 .1-.1.3-.3.4zM256.2 7.2c-1.3.3-2.5.9-3.2 1.7-.6.7-1.1 2.7-1.4 4.6 0 .2-.2.3-.3.3-.2 0-.3-.1-.3-.3-.3-1.9-.8-3.9-1.4-4.6-.7-.8-2-1.3-3.2-1.7-.1 0-.2-.2-.2-.3 0-.2.1-.3.2-.3 1.3-.3 2.5-.9 3.2-1.7.6-.7 1.1-2.7 1.4-4.6 0-.2.2-.3.3-.3.2 0 .3.1.3.3.3 1.9.8 3.9 1.4 4.6.7.8 2 1.4 3.2 1.7.2 0 .2.2.2.3.1.1 0 .2-.2.3zM455.6 556.4c-1 .3-2 .7-2.5 1.3-.5.5-.9 2.1-1.1 3.6 0 .1-.1.2-.3.2-.1 0-.2-.1-.3-.2-.2-1.5-.6-3.1-1.1-3.6-.6-.6-1.5-1-2.5-1.3-.1 0-.2-.1-.2-.2s.1-.2.2-.3c1-.3 2-.7 2.5-1.3.5-.5.9-2.1 1.1-3.6 0-.1.1-.2.3-.2.1 0 .2.1.3.2.2 1.5.6 3.1 1.1 3.6.6.6 1.5 1 2.5 1.3.1 0 .2.1.2.3s-.1.1-.2.2zM537.6 83.6c-1.1.3-2.1.8-2.7 1.4-.5.6-.9 2.3-1.2 3.9 0 .1-.1.2-.3.2-.1 0-.3-.1-.3-.2-.2-1.6-.6-3.3-1.2-3.9-.6-.6-1.6-1.1-2.7-1.4-.1 0-.2-.1-.2-.3s.1-.2.2-.3c1.1-.3 2.1-.8 2.7-1.4.5-.6.9-2.3 1.2-3.8 0-.1.1-.2.3-.2.1 0 .3.1.3.2.3 1.6.7 3.3 1.2 3.8.6.6 1.6 1.1 2.7 1.4.1 0 .2.1.2.3s-.1.3-.2.3zM607.7 162.6c-1.6.4-3.2 1.2-4.2 2.2-.8.9-1.4 3.5-1.8 6 0 .2-.2.3-.4.3s-.4-.1-.4-.3c-.4-2.5-1-5.1-1.8-6-.9-1-2.6-1.7-4.2-2.2-.2 0-.3-.2-.3-.4s.1-.4.3-.4c1.7-.4 3.3-1.2 4.2-2.2.8-.9 1.4-3.5 1.8-5.9 0-.2.2-.4.4-.4s.4.2.4.4c.4 2.4 1 5.1 1.8 5.9.9 1 2.6 1.7 4.2 2.2.2 0 .3.2.3.4s-.1.4-.3.4zM576.6 633.9c-1.2.3-2.3.8-3 1.6-.6.6-1 2.5-1.3 4.3 0 .2-.2.3-.3.3-.2 0-.3-.1-.3-.3-.3-1.8-.7-3.6-1.3-4.3-.7-.7-1.8-1.3-3-1.6-.1 0-.2-.2-.2-.3 0-.1.1-.3.2-.3 1.2-.3 2.3-.8 3-1.6.6-.6 1-2.5 1.3-4.3 0-.1.2-.3.3-.3.2 0 .3.1.3.3.3 1.8.7 3.6 1.3 4.3.7.7 1.8 1.2 3 1.6.1 0 .2.2.2.3.1.2 0 .3-.2.3z"/></svg>