<svg id="Группа_1" data-name="Группа 1" xmlns="http://www.w3.org/2000/svg" width="428" height="240" viewBox="0 0 428 240"><defs><style>.cls-1{fill:#37bbc7}.cls-2,.cls-3{fill:#e8f0f1;fill-rule:evenodd}.cls-3{fill:#fff}</style></defs><path id="bg" class="cls-1" d="M0 0H428V240H0z"/><path id="stars" class="cls-2" d="M1031.84,1456.97a2.769,2.769,0,0,0-1.22.63,4.356,4.356,0,0,0-.53,1.73,0.12,0.12,0,0,1-.24,0,4.2,4.2,0,0,0-.53-1.73,2.769,2.769,0,0,0-1.22-.63,0.12,0.12,0,0,1-.09-0.12,0.117,0.117,0,0,1,.09-0.11,2.68,2.68,0,0,0,1.22-.64,4.093,4.093,0,0,0,.53-1.72,0.12,0.12,0,0,1,.24,0,4.244,4.244,0,0,0,.53,1.72,2.68,2.68,0,0,0,1.22.64,0.107,0.107,0,0,1,.09.11,0.111,0.111,0,0,1-.09.12m11.13,29.48a2.347,2.347,0,0,0-1.12.58,3.82,3.82,0,0,0-.48,1.57,0.109,0.109,0,0,1-.11.1,0.116,0.116,0,0,1-.11-0.1,3.82,3.82,0,0,0-.48-1.57,2.358,2.358,0,0,0-1.11-.58,0.117,0.117,0,0,1-.09-0.11,0.127,0.127,0,0,1,.09-0.11,2.44,2.44,0,0,0,1.11-.57,3.93,3.93,0,0,0,.48-1.58,0.117,0.117,0,0,1,.11-0.09,0.109,0.109,0,0,1,.11.09,3.93,3.93,0,0,0,.48,1.58,2.427,2.427,0,0,0,1.12.57,0.117,0.117,0,0,1,.08.11A0.108,0.108,0,0,1,1042.97,1486.45Zm12.2,17.65a4.182,4.182,0,0,0-1.91.99,6.6,6.6,0,0,0-.83,2.7,0.175,0.175,0,0,1-.18.16,0.178,0.178,0,0,1-.19-0.16,6.6,6.6,0,0,0-.83-2.7,4.182,4.182,0,0,0-1.91-.99,0.186,0.186,0,0,1,0-.36,4.182,4.182,0,0,0,1.91-.99,6.652,6.652,0,0,0,.83-2.7,0.178,0.178,0,0,1,.19-0.16,0.175,0.175,0,0,1,.18.16,6.652,6.652,0,0,0,.83,2.7,4.182,4.182,0,0,0,1.91.99A0.186,0.186,0,0,1,1055.17,1504.1Zm9.13-27.89a5.88,5.88,0,0,0-2.71,1.41c-0.53.55-.93,2.24-1.18,3.83a0.268,0.268,0,0,1-.53,0c-0.25-1.59-.65-3.28-1.17-3.83a5.931,5.931,0,0,0-2.71-1.41,0.259,0.259,0,0,1-.2-0.26,0.267,0.267,0,0,1,.2-0.26,6.017,6.017,0,0,0,2.71-1.4c0.52-.56.92-2.25,1.17-3.84a0.262,0.262,0,0,1,.27-0.22,0.259,0.259,0,0,1,.26.22c0.25,1.59.65,3.28,1.18,3.84a5.965,5.965,0,0,0,2.71,1.4,0.267,0.267,0,0,1,.2.26A0.259,0.259,0,0,1,1064.3,1476.21Zm-19.15-44.84c0.22,0.05.45,0.11,0.67,0.16a8.394,8.394,0,0,0,1.13,3.47,6.073,6.073,0,0,0,2.78,1.44,0.279,0.279,0,0,1,0,.54,5.98,5.98,0,0,0-2.78,1.44c-0.54.57-.96,2.31-1.21,3.94a0.27,0.27,0,0,1-.27.23,0.289,0.289,0,0,1-.28-0.23c-0.25-1.63-.66-3.37-1.2-3.94a6.08,6.08,0,0,0-2.78-1.44,0.279,0.279,0,0,1,0-.54,6.177,6.177,0,0,0,2.78-1.44A8.861,8.861,0,0,0,1045.15,1431.37Zm-123.6-46.79a5.549,5.549,0,0,0-2.53,1.31,8.69,8.69,0,0,0-1.1,3.59,0.253,0.253,0,0,1-.5,0,8.66,8.66,0,0,0-1.1-3.59,5.549,5.549,0,0,0-2.53-1.31,0.243,0.243,0,0,1-.188-0.24,0.235,0.235,0,0,1,.188-0.24,5.466,5.466,0,0,0,2.53-1.32,8.688,8.688,0,0,0,1.1-3.58,0.253,0.253,0,0,1,.5,0,8.688,8.688,0,0,0,1.1,3.58,5.466,5.466,0,0,0,2.53,1.32,0.235,0.235,0,0,1,.189.24A0.242,0.242,0,0,1,921.546,1384.58Zm-7.563-46.03a2.573,2.573,0,0,0-1.22.63,4.17,4.17,0,0,0-.53,1.73,0.122,0.122,0,0,1-.24,0,4.155,4.155,0,0,0-.53-1.73,2.573,2.573,0,0,0-1.22-.63,0.135,0.135,0,0,1-.091-0.12,0.117,0.117,0,0,1,.091-0.12,2.665,2.665,0,0,0,1.22-.63,4.155,4.155,0,0,0,.53-1.73,0.122,0.122,0,0,1,.24,0,4.17,4.17,0,0,0,.53,1.73,2.665,2.665,0,0,0,1.22.63,0.117,0.117,0,0,1,.091.12,0.135,0.135,0,0,1-.091.12m50.126,119.47a2.491,2.491,0,0,0-1.113.58,3.791,3.791,0,0,0-.483,1.57,0.111,0.111,0,0,1-.22,0,3.791,3.791,0,0,0-.483-1.57,2.493,2.493,0,0,0-1.112-.58,0.1,0.1,0,0,1-.083-0.11,0.1,0.1,0,0,1,.083-0.1,2.493,2.493,0,0,0,1.112-.58,3.794,3.794,0,0,0,.483-1.58,0.112,0.112,0,0,1,.22,0,3.794,3.794,0,0,0,.483,1.58,2.491,2.491,0,0,0,1.113.58,0.1,0.1,0,0,1,.083.1A0.1,0.1,0,0,1,964.109,1458.02Zm-19.118,34.3a9.774,9.774,0,0,0-4.534,2.35c-0.877.93-1.557,3.76-1.967,6.42a0.453,0.453,0,0,1-.894,0c-0.411-2.66-1.09-5.49-1.968-6.42a9.77,9.77,0,0,0-4.533-2.35,0.455,0.455,0,0,1-.338-0.44,0.447,0.447,0,0,1,.338-0.44,9.863,9.863,0,0,0,4.533-2.35c0.877-.93,1.557-3.76,1.968-6.42a0.453,0.453,0,0,1,.894,0c0.41,2.66,1.09,5.49,1.967,6.42a9.867,9.867,0,0,0,4.534,2.35,0.448,0.448,0,0,1,.338.44A0.456,0.456,0,0,1,944.991,1492.32Zm62.8,14.83a4.131,4.131,0,0,0-1.91.99,6.448,6.448,0,0,0-.83,2.7,0.186,0.186,0,0,1-.19.16,0.183,0.183,0,0,1-.18-0.16,6.6,6.6,0,0,0-.83-2.7,4.182,4.182,0,0,0-1.91-.99,0.192,0.192,0,0,1-.14-0.18,0.2,0.2,0,0,1,.14-0.19,4.089,4.089,0,0,0,1.91-.99,6.6,6.6,0,0,0,.83-2.7,0.183,0.183,0,0,1,.18-0.16,0.186,0.186,0,0,1,.19.16,6.448,6.448,0,0,0,.83,2.7,4.04,4.04,0,0,0,1.91.99,0.2,0.2,0,0,1,.14.19A0.192,0.192,0,0,1,1007.79,1507.15Zm-22.353-43.63a5.884,5.884,0,0,0-2.707,1.41c-0.524.55-.929,2.24-1.174,3.83a0.27,0.27,0,0,1-.534,0c-0.246-1.59-.651-3.28-1.175-3.83a5.884,5.884,0,0,0-2.707-1.41,0.261,0.261,0,0,1-.2-0.26,0.269,0.269,0,0,1,.2-0.26,5.963,5.963,0,0,0,2.707-1.4c0.524-.56.929-2.25,1.175-3.84a0.262,0.262,0,0,1,.266-0.22,0.256,0.256,0,0,1,.268.22c0.245,1.59.65,3.28,1.174,3.84a5.969,5.969,0,0,0,2.707,1.4,0.268,0.268,0,0,1,.2.26A0.26,0.26,0,0,1,985.437,1463.52Zm-42.412-134.84c0.226,0.05.451,0.11,0.675,0.16a8.4,8.4,0,0,0,1.129,3.47,6.124,6.124,0,0,0,2.78,1.44,0.28,0.28,0,0,1,0,.54,6.029,6.029,0,0,0-2.78,1.44c-0.538.57-.954,2.31-1.206,3.94a0.278,0.278,0,0,1-.548,0c-0.252-1.63-.668-3.37-1.206-3.94a6.034,6.034,0,0,0-2.78-1.44,0.279,0.279,0,0,1,0-.54,6.129,6.129,0,0,0,2.78-1.44A8.788,8.788,0,0,0,943.025,1328.68Zm-24.076,121.95a5.546,5.546,0,0,0-2.529,1.31,8.657,8.657,0,0,0-1.1,3.58,0.251,0.251,0,0,1-.5,0,8.674,8.674,0,0,0-1.1-3.58,5.555,5.555,0,0,0-2.53-1.31,0.249,0.249,0,0,1-.188-0.24,0.253,0.253,0,0,1,.188-0.25,5.555,5.555,0,0,0,2.53-1.31,8.674,8.674,0,0,0,1.1-3.58,0.251,0.251,0,0,1,.5,0,8.657,8.657,0,0,0,1.1,3.58,5.546,5.546,0,0,0,2.529,1.31,0.254,0.254,0,0,1,.189.25A0.251,0.251,0,0,1,918.949,1450.63Zm238.8-133.71a2.769,2.769,0,0,0-1.22.63,4.147,4.147,0,0,0-.53,1.73,0.122,0.122,0,0,1-.24,0,4.3,4.3,0,0,0-.53-1.73,2.769,2.769,0,0,0-1.22-.63,0.111,0.111,0,0,1-.09-0.12,0.126,0.126,0,0,1,.09-0.12,2.578,2.578,0,0,0,1.22-.63,4.246,4.246,0,0,0,.53-1.73,0.122,0.122,0,0,1,.24,0,4.1,4.1,0,0,0,.53,1.73,2.578,2.578,0,0,0,1.22.63,0.14,0.14,0,0,1,.09.12,0.12,0.12,0,0,1-.09.12m11.12,29.48a2.39,2.39,0,0,0-1.11.57,3.777,3.777,0,0,0-.48,1.58,0.117,0.117,0,0,1-.11.09,0.109,0.109,0,0,1-.11-0.09,3.759,3.759,0,0,0-.49-1.58,2.341,2.341,0,0,0-1.11-.57,0.117,0.117,0,0,1-.08-0.11,0.108,0.108,0,0,1,.08-0.11,2.266,2.266,0,0,0,1.11-.58,3.655,3.655,0,0,0,.49-1.57,0.109,0.109,0,0,1,.11-0.1,0.116,0.116,0,0,1,.11.1,3.674,3.674,0,0,0,.48,1.57,2.311,2.311,0,0,0,1.11.58,0.117,0.117,0,0,1,.09.11A0.127,0.127,0,0,1,1168.87,1346.4Zm43.68,49.12a4.182,4.182,0,0,0-1.91.99,6.519,6.519,0,0,0-.82,2.7,0.192,0.192,0,0,1-.19.16,0.178,0.178,0,0,1-.19-0.16,6.5,6.5,0,0,0-.83-2.7,4.144,4.144,0,0,0-1.9-.99,0.183,0.183,0,0,1,0-.36,4.144,4.144,0,0,0,1.9-.99,6.448,6.448,0,0,0,.83-2.7,0.178,0.178,0,0,1,.19-0.16,0.192,0.192,0,0,1,.19.16,6.467,6.467,0,0,0,.82,2.7,4.182,4.182,0,0,0,1.91.99A0.186,0.186,0,0,1,1212.55,1395.52Zm-22.35-43.62a5.965,5.965,0,0,0-2.71,1.4,9.3,9.3,0,0,0-1.17,3.84,0.262,0.262,0,0,1-.27.22,0.259,0.259,0,0,1-.26-0.22,9.432,9.432,0,0,0-1.18-3.84,5.965,5.965,0,0,0-2.71-1.4,0.267,0.267,0,0,1-.2-0.26,0.259,0.259,0,0,1,.2-0.26,5.88,5.88,0,0,0,2.71-1.41c0.52-.55.93-2.24,1.18-3.83a0.268,0.268,0,0,1,.53,0c0.24,1.59.65,3.28,1.17,3.83a5.88,5.88,0,0,0,2.71,1.41,0.259,0.259,0,0,1,.2.26A0.267,0.267,0,0,1,1190.2,1351.9Zm-66.49-12.89a5.49,5.49,0,0,0-2.53,1.31,8.688,8.688,0,0,0-1.09,3.58,0.257,0.257,0,0,1-.25.21,0.249,0.249,0,0,1-.25-0.21,8.668,8.668,0,0,0-1.1-3.58,5.441,5.441,0,0,0-2.53-1.31,0.258,0.258,0,0,1-.19-0.25,0.246,0.246,0,0,1,.19-0.24,5.534,5.534,0,0,0,2.53-1.31,8.671,8.671,0,0,0,1.1-3.59,0.249,0.249,0,0,1,.25-0.21,0.257,0.257,0,0,1,.25.21,8.692,8.692,0,0,0,1.09,3.59,5.586,5.586,0,0,0,2.53,1.31,0.236,0.236,0,0,1,.19.24A0.247,0.247,0,0,1,1123.71,1339.01Zm-14.96-48.09a2.769,2.769,0,0,0-1.22.63,4.147,4.147,0,0,0-.53,1.73,0.122,0.122,0,0,1-.24,0,4.3,4.3,0,0,0-.53-1.73,2.769,2.769,0,0,0-1.22-.63,0.111,0.111,0,0,1-.09-0.12,0.126,0.126,0,0,1,.09-0.12,2.578,2.578,0,0,0,1.22-.63,4.246,4.246,0,0,0,.53-1.73,0.122,0.122,0,0,1,.24,0,4.1,4.1,0,0,0,.53,1.73,2.578,2.578,0,0,0,1.22.63,0.14,0.14,0,0,1,.09.12,0.12,0.12,0,0,1-.09.12m11.12,29.48a2.39,2.39,0,0,0-1.11.57,3.777,3.777,0,0,0-.48,1.58,0.117,0.117,0,0,1-.11.09,0.109,0.109,0,0,1-.11-0.09,3.759,3.759,0,0,0-.49-1.58,2.341,2.341,0,0,0-1.11-.57,0.117,0.117,0,0,1-.08-0.11,0.108,0.108,0,0,1,.08-0.11,2.266,2.266,0,0,0,1.11-.58,3.655,3.655,0,0,0,.49-1.57,0.109,0.109,0,0,1,.11-0.1,0.116,0.116,0,0,1,.11.1,3.674,3.674,0,0,0,.48,1.57,2.311,2.311,0,0,0,1.11.58,0.117,0.117,0,0,1,.09.11A0.127,0.127,0,0,1,1119.87,1320.4Zm43.68,49.12a4.182,4.182,0,0,0-1.91.99,6.519,6.519,0,0,0-.82,2.7,0.192,0.192,0,0,1-.19.16,0.178,0.178,0,0,1-.19-0.16,6.5,6.5,0,0,0-.83-2.7,4.144,4.144,0,0,0-1.9-.99,0.183,0.183,0,0,1,0-.36,4.144,4.144,0,0,0,1.9-.99,6.448,6.448,0,0,0,.83-2.7,0.178,0.178,0,0,1,.19-0.16,0.192,0.192,0,0,1,.19.16,6.467,6.467,0,0,0,.82,2.7,4.182,4.182,0,0,0,1.91.99A0.186,0.186,0,0,1,1163.55,1369.52Zm-22.35-43.62a5.965,5.965,0,0,0-2.71,1.4,9.3,9.3,0,0,0-1.17,3.84,0.262,0.262,0,0,1-.27.22,0.259,0.259,0,0,1-.26-0.22,9.432,9.432,0,0,0-1.18-3.84,5.965,5.965,0,0,0-2.71-1.4,0.267,0.267,0,0,1-.2-0.26,0.259,0.259,0,0,1,.2-0.26,5.88,5.88,0,0,0,2.71-1.41c0.52-.55.93-2.24,1.18-3.83a0.268,0.268,0,0,1,.53,0c0.24,1.59.65,3.28,1.17,3.83a5.88,5.88,0,0,0,2.71,1.41,0.259,0.259,0,0,1,.2.26A0.267,0.267,0,0,1,1141.2,1325.9Zm-66.49-12.89a5.49,5.49,0,0,0-2.53,1.31,8.688,8.688,0,0,0-1.09,3.58,0.257,0.257,0,0,1-.25.21,0.249,0.249,0,0,1-.25-0.21,8.668,8.668,0,0,0-1.1-3.58,5.441,5.441,0,0,0-2.53-1.31,0.258,0.258,0,0,1-.19-0.25,0.246,0.246,0,0,1,.19-0.24,5.534,5.534,0,0,0,2.53-1.31,8.671,8.671,0,0,0,1.1-3.59,0.249,0.249,0,0,1,.25-0.21,0.257,0.257,0,0,1,.25.21,8.692,8.692,0,0,0,1.09,3.59,5.586,5.586,0,0,0,2.53,1.31,0.236,0.236,0,0,1,.19.24A0.247,0.247,0,0,1,1074.71,1313.01Zm195.18-11.52a9.724,9.724,0,0,0-4.53,2.35c-0.88.93-1.56,3.76-1.97,6.42a0.452,0.452,0,0,1-.45.38,0.46,0.46,0,0,1-.45-0.38c-0.41-2.66-1.09-5.49-1.96-6.42a9.811,9.811,0,0,0-4.54-2.35,0.45,0.45,0,0,1-.33-0.44,0.442,0.442,0,0,1,.33-0.44,9.9,9.9,0,0,0,4.54-2.35c0.87-.93,1.55-3.76,1.96-6.42a0.46,0.46,0,0,1,.45-0.38,0.452,0.452,0,0,1,.45.38c0.41,2.66,1.09,5.49,1.97,6.42a9.816,9.816,0,0,0,4.53,2.35,0.45,0.45,0,0,1,.34.44A0.459,0.459,0,0,1,1269.89,1301.49Zm15.19,138.17a2.68,2.68,0,0,1,1.22.64,4.093,4.093,0,0,1,.53,1.72,0.12,0.12,0,0,0,.24,0,4.093,4.093,0,0,1,.53-1.72,2.642,2.642,0,0,1,1.21-.64,0.111,0.111,0,0,0,.09-0.12,0.107,0.107,0,0,0-.09-0.11,2.642,2.642,0,0,1-1.21-.64,4.093,4.093,0,0,1-.53-1.72,0.12,0.12,0,0,0-.24,0,4.093,4.093,0,0,1-.53,1.72,2.68,2.68,0,0,1-1.22.64,0.117,0.117,0,0,0-.09.11,0.12,0.12,0,0,0,.09.12m-26.83-49.2a2.44,2.44,0,0,1,1.11.57,3.93,3.93,0,0,1,.48,1.58,0.1,0.1,0,0,0,.11.09,0.107,0.107,0,0,0,.11-0.09,3.777,3.777,0,0,1,.48-1.58,2.341,2.341,0,0,1,1.11-.57,0.116,0.116,0,0,0,0-.22,2.341,2.341,0,0,1-1.11-.57,3.777,3.777,0,0,1-.48-1.58,0.117,0.117,0,0,0-.11-0.09,0.109,0.109,0,0,0-.11.09,3.93,3.93,0,0,1-.48,1.58,2.44,2.44,0,0,1-1.11.57A0.112,0.112,0,0,0,1258.25,1390.46Zm34.8,2.82a9.91,9.91,0,0,1,4.53,2.35c0.87,0.93,1.55,3.76,1.96,6.42a0.451,0.451,0,0,0,.89,0c0.41-2.66,1.09-5.49,1.96-6.42a9.91,9.91,0,0,1,4.53-2.35,0.442,0.442,0,0,0,.33-0.44,0.45,0.45,0,0,0-.33-0.44,9.806,9.806,0,0,1-4.53-2.34c-0.87-.94-1.55-3.77-1.96-6.43a0.451,0.451,0,0,0-.89,0c-0.41,2.66-1.09,5.49-1.96,6.43a9.806,9.806,0,0,1-4.53,2.34,0.45,0.45,0,0,0-.33.44A0.442,0.442,0,0,0,1293.05,1393.28Zm-41.73,26.37a4.144,4.144,0,0,1,1.9.99,6.448,6.448,0,0,1,.83,2.7,0.178,0.178,0,0,0,.19.16,0.192,0.192,0,0,0,.19-0.16,6.467,6.467,0,0,1,.82-2.7,4.144,4.144,0,0,1,1.9-.99,0.186,0.186,0,0,0,0-.36,4.144,4.144,0,0,1-1.9-.99,6.519,6.519,0,0,1-.82-2.7,0.192,0.192,0,0,0-.19-0.16,0.178,0.178,0,0,0-.19.16,6.5,6.5,0,0,1-.83,2.7,4.144,4.144,0,0,1-1.9.99A0.186,0.186,0,0,0,1251.32,1419.65Zm-40.58,23.52a5.978,5.978,0,0,1,2.7,1.4,9.3,9.3,0,0,1,1.17,3.84,0.276,0.276,0,0,0,.54,0c0.24-1.59.64-3.28,1.17-3.84a5.875,5.875,0,0,1,2.7-1.4,0.267,0.267,0,0,0,.2-0.26,0.259,0.259,0,0,0-.2-0.26,5.793,5.793,0,0,1-2.7-1.41c-0.53-.55-0.93-2.24-1.17-3.83a0.273,0.273,0,0,0-.54,0c-0.24,1.59-.65,3.28-1.17,3.83a5.893,5.893,0,0,1-2.7,1.41,0.259,0.259,0,0,0-.2.26A0.267,0.267,0,0,0,1210.74,1443.17Zm40.09-96.25c-0.23.05-.45,0.11-0.68,0.16a8.414,8.414,0,0,1-1.12,3.47,6.138,6.138,0,0,1-2.77,1.44,0.279,0.279,0,0,0,0,.54,5.95,5.95,0,0,1,2.77,1.44c0.53,0.57.95,2.31,1.2,3.93a0.278,0.278,0,0,0,.55,0c0.25-1.62.66-3.36,1.2-3.93a5.95,5.95,0,0,1,2.77-1.44,0.279,0.279,0,0,0,0-.54,6.138,6.138,0,0,1-2.77-1.44A8.839,8.839,0,0,1,1250.83,1346.92Zm66.24,4.67a5.5,5.5,0,0,1,2.52,1.31,8.671,8.671,0,0,1,1.1,3.59,0.249,0.249,0,0,0,.25.21,0.257,0.257,0,0,0,.25-0.21,8.543,8.543,0,0,1,1.09-3.59,5.547,5.547,0,0,1,2.52-1.31,0.236,0.236,0,0,0,.19-0.24,0.247,0.247,0,0,0-.19-0.25,5.453,5.453,0,0,1-2.52-1.31,8.688,8.688,0,0,1-1.09-3.58,0.257,0.257,0,0,0-.25-0.21,0.249,0.249,0,0,0-.25.21,8.668,8.668,0,0,1-1.1,3.58,5.4,5.4,0,0,1-2.52,1.31,0.258,0.258,0,0,0-.19.25A0.246,0.246,0,0,0,1317.07,1351.59Zm-348.049-21.03a2.3,2.3,0,0,1,1.11.58,3.756,3.756,0,0,1,.482,1.57,0.11,0.11,0,0,0,.219,0,3.741,3.741,0,0,1,.482-1.57,2.3,2.3,0,0,1,1.11-.58,0.111,0.111,0,0,0,.082-0.11,0.12,0.12,0,0,0-.082-0.11,2.375,2.375,0,0,1-1.11-.57,3.864,3.864,0,0,1-.482-1.58,0.112,0.112,0,0,0-.219,0,3.864,3.864,0,0,1-.482,1.58,2.375,2.375,0,0,1-1.11.57,0.121,0.121,0,0,0-.083.11A0.112,0.112,0,0,0,969.021,1330.56Zm28.808-11.18a9.917,9.917,0,0,1,4.521,2.35c0.88,0.93,1.55,3.76,1.96,6.42a0.455,0.455,0,0,0,.9,0c0.41-2.66,1.08-5.49,1.96-6.42a9.924,9.924,0,0,1,4.52-2.35,0.448,0.448,0,0,0,0-.87,9.924,9.924,0,0,1-4.52-2.35c-0.88-.93-1.55-3.77-1.96-6.42a0.455,0.455,0,0,0-.9,0c-0.41,2.65-1.08,5.49-1.96,6.42a9.917,9.917,0,0,1-4.521,2.35A0.449,0.449,0,0,0,997.829,1319.38ZM961.6,1287.02c-0.225.05-.449,0.11-0.673,0.17a8.4,8.4,0,0,1-1.126,3.46,6.013,6.013,0,0,1-2.773,1.44,0.28,0.28,0,0,0,0,.54,6.013,6.013,0,0,1,2.773,1.44c0.536,0.57.952,2.31,1.2,3.94a0.278,0.278,0,0,0,.547,0c0.251-1.63.666-3.37,1.2-3.94a6.008,6.008,0,0,1,2.773-1.44,0.28,0.28,0,0,0,0-.54,6,6,0,0,1-2.773-1.44A8.753,8.753,0,0,1,961.6,1287.02Zm68.238,4.68a5.441,5.441,0,0,1,2.53,1.31,8.688,8.688,0,0,1,1.09,3.58,0.257,0.257,0,0,0,.25.21,0.249,0.249,0,0,0,.25-0.21,8.668,8.668,0,0,1,1.1-3.58,5.355,5.355,0,0,1,2.52-1.31,0.258,0.258,0,0,0,.19-0.25,0.246,0.246,0,0,0-.19-0.24,5.446,5.446,0,0,1-2.52-1.31,8.671,8.671,0,0,1-1.1-3.59,0.249,0.249,0,0,0-.25-0.21,0.257,0.257,0,0,0-.25.21,8.692,8.692,0,0,1-1.09,3.59,5.534,5.534,0,0,1-2.53,1.31,0.238,0.238,0,0,0-.18.24A0.25,0.25,0,0,0,1029.84,1291.7Zm242.13,205.14a2.5,2.5,0,0,1,1.21.63,4.1,4.1,0,0,1,.53,1.73,0.122,0.122,0,0,0,.24,0,4.246,4.246,0,0,1,.53-1.73,2.578,2.578,0,0,1,1.22-.63,0.125,0.125,0,0,0,0-.24,2.578,2.578,0,0,1-1.22-.63,4.246,4.246,0,0,1-.53-1.73,0.122,0.122,0,0,0-.24,0,4.1,4.1,0,0,1-.53,1.73,2.5,2.5,0,0,1-1.21.63,0.125,0.125,0,0,0,0,.24m-12.1-168.53a2.5,2.5,0,0,1,1.11.58,3.876,3.876,0,0,1,.48,1.58,0.117,0.117,0,0,0,.11.09,0.109,0.109,0,0,0,.11-0.09,3.876,3.876,0,0,1,.48-1.58,2.5,2.5,0,0,1,1.11-.58,0.106,0.106,0,0,0,.09-0.1,0.109,0.109,0,0,0-.09-0.11,2.5,2.5,0,0,1-1.11-.58,3.874,3.874,0,0,1-.48-1.57,0.109,0.109,0,0,0-.11-0.1,0.116,0.116,0,0,0-.11.1,3.874,3.874,0,0,1-.48,1.57,2.5,2.5,0,0,1-1.11.58,0.1,0.1,0,0,0-.08.11A0.1,0.1,0,0,0,1259.87,1328.31Zm29.56,2.83a9.736,9.736,0,0,1,4.52,2.35c0.88,0.93,1.56,3.76,1.97,6.42a0.442,0.442,0,0,0,.44.38,0.452,0.452,0,0,0,.45-0.38c0.41-2.66,1.09-5.49,1.96-6.42a9.736,9.736,0,0,1,4.52-2.35,0.459,0.459,0,0,0,.34-0.44,0.45,0.45,0,0,0-.34-0.44,9.829,9.829,0,0,1-4.52-2.35c-0.87-.93-1.55-3.76-1.96-6.42a0.452,0.452,0,0,0-.45-0.38,0.442,0.442,0,0,0-.44.38c-0.41,2.66-1.09,5.49-1.97,6.42a9.829,9.829,0,0,1-4.52,2.35,0.45,0.45,0,0,0-.34.44A0.459,0.459,0,0,0,1289.43,1331.14Zm-70.82,174.69a5.893,5.893,0,0,1,2.7,1.41c0.52,0.55.93,2.24,1.17,3.83a0.268,0.268,0,0,0,.53,0c0.25-1.59.65-3.28,1.18-3.83a5.793,5.793,0,0,1,2.7-1.41,0.259,0.259,0,0,0,.2-0.26,0.267,0.267,0,0,0-.2-0.26,5.875,5.875,0,0,1-2.7-1.4c-0.53-.56-0.93-2.25-1.18-3.84a0.277,0.277,0,0,0-.26-0.23,0.27,0.27,0,0,0-.27.23,9.3,9.3,0,0,1-1.17,3.84,5.978,5.978,0,0,1-2.7,1.4,0.267,0.267,0,0,0-.2.26A0.259,0.259,0,0,0,1218.61,1505.83Zm40.09-38.79c-0.23.05-.45,0.11-0.68,0.16a8.469,8.469,0,0,1-1.12,3.47,6.124,6.124,0,0,1-2.78,1.44,0.27,0.27,0,0,0-.2.27,0.279,0.279,0,0,0,.2.27,5.938,5.938,0,0,1,2.78,1.44c0.53,0.57.95,2.3,1.2,3.93a0.278,0.278,0,0,0,.55,0c0.25-1.63.66-3.36,1.2-3.93a5.9,5.9,0,0,1,2.77-1.44,0.277,0.277,0,0,0,.21-0.27,0.269,0.269,0,0,0-.21-0.27,6.086,6.086,0,0,1-2.77-1.44A8.839,8.839,0,0,1,1258.7,1467.04Zm52.5,20.41a5.446,5.446,0,0,1,2.52,1.31,8.668,8.668,0,0,1,1.1,3.58,0.249,0.249,0,0,0,.25.22,0.256,0.256,0,0,0,.25-0.22,8.688,8.688,0,0,1,1.09-3.58,5.534,5.534,0,0,1,2.53-1.31,0.246,0.246,0,0,0,.18-0.24,0.25,0.25,0,0,0-.18-0.25,5.534,5.534,0,0,1-2.53-1.31,8.688,8.688,0,0,1-1.09-3.58,0.256,0.256,0,0,0-.25-0.22,0.249,0.249,0,0,0-.25.22,8.668,8.668,0,0,1-1.1,3.58,5.446,5.446,0,0,1-2.52,1.31,0.258,0.258,0,0,0-.19.25A0.255,0.255,0,0,0,1311.2,1487.45Zm-174.68,2.77a2.578,2.578,0,0,1-1.22-.63,4.1,4.1,0,0,1-.53-1.73,0.122,0.122,0,0,0-.24,0,4.1,4.1,0,0,1-.53,1.73,2.542,2.542,0,0,1-1.21.63,0.111,0.111,0,0,0-.09.12,0.126,0.126,0,0,0,.09.12,2.542,2.542,0,0,1,1.21.63,4.1,4.1,0,0,1,.53,1.73,0.122,0.122,0,0,0,.24,0,4.1,4.1,0,0,1,.53-1.73,2.578,2.578,0,0,1,1.22-.63,0.14,0.14,0,0,0,.09-0.12,0.12,0.12,0,0,0-.09-0.12m11.09-29.48a2.44,2.44,0,0,1-1.11-.57,3.93,3.93,0,0,1-.48-1.58,0.109,0.109,0,0,0-.11-0.09,0.117,0.117,0,0,0-.11.09,3.777,3.777,0,0,1-.48,1.58,2.341,2.341,0,0,1-1.11.57,0.117,0.117,0,0,0-.08.11,0.108,0.108,0,0,0,.08.11,2.351,2.351,0,0,1,1.11.58,3.723,3.723,0,0,1,.48,1.57,0.116,0.116,0,0,0,.11.1,0.109,0.109,0,0,0,.11-0.1,3.874,3.874,0,0,1,.48-1.57,2.358,2.358,0,0,1,1.11-.58,0.117,0.117,0,0,0,.09-0.11A0.127,0.127,0,0,0,1147.61,1460.74Zm-29.56-2.82a9.736,9.736,0,0,1-4.52-2.35c-0.88-.93-1.55-3.76-1.96-6.42a0.452,0.452,0,0,0-.45-0.38,0.442,0.442,0,0,0-.44.38c-0.41,2.66-1.09,5.49-1.97,6.42a9.736,9.736,0,0,1-4.52,2.35,0.455,0.455,0,0,0,0,.88,9.736,9.736,0,0,1,4.52,2.35c0.88,0.93,1.56,3.76,1.97,6.42a0.442,0.442,0,0,0,.44.38,0.452,0.452,0,0,0,.45-0.38c0.41-2.66,1.08-5.49,1.96-6.42a9.736,9.736,0,0,1,4.52-2.35A0.455,0.455,0,0,0,1118.05,1457.92Zm46.98-26.37a4.144,4.144,0,0,1-1.9-.99,6.6,6.6,0,0,1-.83-2.7,0.183,0.183,0,0,0-.18-0.16,0.186,0.186,0,0,0-.19.16,6.448,6.448,0,0,1-.83,2.7,4.144,4.144,0,0,1-1.9.99,0.192,0.192,0,0,0-.14.18,0.2,0.2,0,0,0,.14.19,4.052,4.052,0,0,1,1.9.99,6.448,6.448,0,0,1,.83,2.7,0.186,0.186,0,0,0,.19.16,0.183,0.183,0,0,0,.18-0.16,6.6,6.6,0,0,1,.83-2.7,4.052,4.052,0,0,1,1.9-.99,0.184,0.184,0,0,0,.14-0.19A0.181,0.181,0,0,0,1165.03,1431.55Zm24.84,44.67a5.79,5.79,0,0,1-2.7-1.4c-0.52-.55-0.92-2.25-1.17-3.83a0.259,0.259,0,0,0-.26-0.23,0.262,0.262,0,0,0-.27.23c-0.25,1.58-.65,3.28-1.17,3.83a5.79,5.79,0,0,1-2.7,1.4,0.279,0.279,0,0,0-.2.27,0.267,0.267,0,0,0,.2.26,5.883,5.883,0,0,1,2.7,1.4,9.45,9.45,0,0,1,1.17,3.83,0.262,0.262,0,0,0,.27.23,0.259,0.259,0,0,0,.26-0.23,9.45,9.45,0,0,1,1.17-3.83,5.883,5.883,0,0,1,2.7-1.4,0.276,0.276,0,0,0,.21-0.26A0.288,0.288,0,0,0,1189.87,1476.22Zm-92.59,23.39a5.547,5.547,0,0,1-2.52-1.31,8.668,8.668,0,0,1-1.1-3.58,0.24,0.24,0,0,0-.24-0.22,0.249,0.249,0,0,0-.25.22,8.668,8.668,0,0,1-1.1,3.58,5.547,5.547,0,0,1-2.52,1.31,0.255,0.255,0,0,0-.19.24,0.258,0.258,0,0,0,.19.25,5.453,5.453,0,0,1,2.52,1.31,8.668,8.668,0,0,1,1.1,3.58,0.258,0.258,0,0,0,.25.22,0.24,0.24,0,0,0,.24-0.22,8.668,8.668,0,0,1,1.1-3.58,5.453,5.453,0,0,1,2.52-1.31,0.247,0.247,0,0,0,.19-0.25A0.244,0.244,0,0,0,1097.28,1499.61Z" transform="translate(-898 -1273)"/><path id="icon" class="cls-3" d="M1055,1393a5.588,5.588,0,0,1-4.87,5.55,1.8,1.8,0,0,1,.65,1.61,1.779,1.779,0,0,1-1.76,1.57,1.635,1.635,0,0,1-.22-0.02,1.78,1.78,0,0,1-1.54-1.99,1.752,1.752,0,0,1,.82-1.29,5.6,5.6,0,0,1-.06-10.83,1.829,1.829,0,0,1-.76-1.26,1.774,1.774,0,1,1,2.94,1.12A5.588,5.588,0,0,1,1055,1393Zm-5.55-2.02a2.025,2.025,0,1,0,2,2.02A2.019,2.019,0,0,0,1049.45,1390.98Zm-1.21-9.67a1.593,1.593,0,0,1-.43.06,1.788,1.788,0,0,1-.43-3.52A1.783,1.783,0,0,1,1048.24,1381.31Zm-1.78-6.42a1.812,1.812,0,0,1-.64.12A1.781,1.781,0,1,1,1046.46,1374.89Zm-2.55-6.15a1.734,1.734,0,0,1-.83.21,1.765,1.765,0,0,1-1.56-.95,1.8,1.8,0,0,1,.73-2.42A1.785,1.785,0,0,1,1043.91,1368.74Zm-4.27-5.48a1.78,1.78,0,1,1,1.01-.32A1.728,1.728,0,0,1,1039.64,1363.26Zm-2.99,18.35a2.005,2.005,0,0,1-.53.08,1.773,1.773,0,0,1-1.69-1.25,1.794,1.794,0,0,1,1.16-2.24,1.77,1.77,0,0,1,2.22,1.17A1.8,1.8,0,0,1,1036.65,1381.61Zm-1.11-23.58a1.749,1.749,0,0,1-1.33-.59,1.8,1.8,0,0,1,.15-2.52,1.762,1.762,0,0,1,2.5.14,1.8,1.8,0,0,1-.14,2.52A1.73,1.73,0,0,1,1035.54,1358.03Zm-0.28,14.9a1.792,1.792,0,0,1-.81,2.39,1.68,1.68,0,0,1-.78.18,1.749,1.749,0,0,1-1.59-.99h0a1.789,1.789,0,0,1,.81-2.39A1.761,1.761,0,0,1,1035.26,1372.93Zm-4.42-19.59a1.762,1.762,0,0,1-1.17-.44,1.805,1.805,0,0,1-.16-2.52,1.775,1.775,0,0,1,2.51-.16,1.8,1.8,0,0,1,.15,2.52A1.759,1.759,0,0,1,1030.84,1353.34Zm0.92,13.62a1.793,1.793,0,0,1-.44,2.49,1.728,1.728,0,0,1-1.01.32,1.751,1.751,0,0,1-1.45-.77,1.78,1.78,0,0,1,.44-2.48A1.758,1.758,0,0,1,1031.76,1366.96Zm-0.46,49.62a1.793,1.793,0,0,1,.44,2.49,1.772,1.772,0,0,1-2.47.44,1.79,1.79,0,0,1-.44-2.48A1.771,1.771,0,0,1,1031.3,1416.58Zm-4.51-22.6h-0.04A1.752,1.752,0,1,1,1026.79,1393.98Zm-0.66-29.37a1.764,1.764,0,0,1-1.29-.55,1.805,1.805,0,0,1,.06-2.53,1.772,1.772,0,0,1,2.51.07,1.793,1.793,0,0,1-.06,2.52A1.759,1.759,0,0,1,1026.13,1364.61Zm-0.5-15.36a1.737,1.737,0,0,1-1-.31,1.793,1.793,0,0,1-.46-2.48,1.752,1.752,0,0,1,2.46-.46A1.781,1.781,0,0,1,1025.63,1349.25Zm-0.27,29.31a1.789,1.789,0,0,1-.86,2.37,1.675,1.675,0,0,1-.75.17A1.782,1.782,0,1,1,1025.36,1378.56Zm-4.14-18.41a1.745,1.745,0,0,1-1.08-.37,1.794,1.794,0,0,1-.32-2.51,1.76,1.76,0,0,1,2.49-.31,1.79,1.79,0,0,1,.31,2.5A1.771,1.771,0,0,1,1021.22,1360.15Zm-1.25-14.33a1.725,1.725,0,0,1-.82-0.21,1.78,1.78,0,0,1,1.64-3.16A1.788,1.788,0,0,1,1019.97,1345.82Zm-4.1,24.69a1.773,1.773,0,0,1-1.17-.45,1.794,1.794,0,0,1-.16-2.51,1.755,1.755,0,0,1,2.5-.16,1.787,1.787,0,0,1,.16,2.52A1.759,1.759,0,0,1,1015.87,1370.51Zm-0.17-14.02a1.709,1.709,0,0,1-.86-0.23,1.782,1.782,0,0,1-.68-2.42,1.757,1.757,0,0,1,2.41-.7h-0.01A1.789,1.789,0,0,1,1015.7,1356.49Zm-1.76-13.39a1.99,1.99,0,0,1-.63-0.11,1.8,1.8,0,0,1-1.03-2.31,1.773,1.773,0,0,1,2.28-1.04A1.788,1.788,0,0,1,1013.94,1343.1Zm-1.9,22.64a1.774,1.774,0,1,1-.66-2.43A1.792,1.792,0,0,1,1012.04,1365.74Zm-2.34-12.03a1.872,1.872,0,0,1-.61-0.11,1.8,1.8,0,0,1-1.05-2.3A1.772,1.772,0,1,1,1009.7,1353.71Zm-2.08-12.58a1.509,1.509,0,0,1-.42-0.05h0a1.785,1.785,0,0,1,.84-3.47,1.792,1.792,0,0,1,1.3,2.16A1.769,1.769,0,0,1,1007.62,1341.13Zm-1.48,21.6a1.786,1.786,0,0,1-1.69,1.24,1.7,1.7,0,0,1-.54-0.09,1.79,1.79,0,0,1-1.14-2.25,1.769,1.769,0,0,1,2.23-1.15A1.79,1.79,0,0,1,1006.14,1362.73Zm-2.79-10.85a2.186,2.186,0,0,1-.36-0.03,1.788,1.788,0,0,1-1.38-2.11A1.771,1.771,0,1,1,1003.35,1351.88Zm-2.24-11.93a1.477,1.477,0,0,1-.21-0.01A1.794,1.794,0,1,1,1001.11,1339.95Zm-4.319,11.1H996.7A1.818,1.818,0,1,1,996.791,1351.05Zm-2.279-11.48h0a1.785,1.785,0,1,1,1.773-1.79,1.78,1.78,0,0,1-1.773,1.79Zm-2.949,23.01h-0.18a1.772,1.772,0,0,1-1.762-1.6A1.773,1.773,0,1,1,991.563,1362.58Zm-1.2-11.37a1.111,1.111,0,0,1-.181.01A1.781,1.781,0,1,1,990.359,1351.21Zm-2.236-11.24a1.591,1.591,0,0,1-.218.01A1.753,1.753,0,1,1,988.123,1339.97Zm-4.006,12.37h0a1.712,1.712,0,0,1-.444.06A1.788,1.788,0,1,1,984.117,1352.34Zm-2.286-11.21a1.56,1.56,0,0,1-.426.05A1.769,1.769,0,1,1,981.831,1341.13Zm-3.713,13.28a1.733,1.733,0,0,1-.7.14,1.771,1.771,0,0,1-1.631-1.08A1.775,1.775,0,1,1,978.118,1354.41Zm-2.4-11.36a1.752,1.752,0,0,1-.631.12A1.786,1.786,0,1,1,975.721,1343.05Zm-3.219,14.32a1.715,1.715,0,0,1-.938.28,1.788,1.788,0,0,1-.944-3.3,1.764,1.764,0,0,1,2.444.56A1.789,1.789,0,0,1,972.5,1357.37Zm-2.611-11.66a1.781,1.781,0,0,1-2.395-.75,1.788,1.788,0,0,1,.74-2.41,1.769,1.769,0,0,1,2.394.75A1.792,1.792,0,0,1,969.891,1345.71Zm-2.494,15.45a1.746,1.746,0,0,1-.647.36,6.516,6.516,0,0,1-8.418,9.58,1.788,1.788,0,0,1-1.692,2.32,1.816,1.816,0,0,1-.866-0.23,1.788,1.788,0,0,1,.99-3.34,6.549,6.549,0,0,1,4.755-11,6.325,6.325,0,0,1,2.965.73,1.773,1.773,0,0,1,3.1-.94A1.8,1.8,0,0,1,967.4,1361.16Zm-5.878,1.26a2.975,2.975,0,1,0,2.954,2.98A2.973,2.973,0,0,0,961.519,1362.42Zm1.892-13.05a1.785,1.785,0,1,1,1.007-.32A1.717,1.717,0,0,1,963.411,1349.37Zm-5.2,4.12a1.751,1.751,0,0,1-1.322-.6,1.791,1.791,0,0,1,.145-2.52,1.759,1.759,0,0,1,2.5.15,1.792,1.792,0,0,1-.149,2.52A1.766,1.766,0,0,1,958.208,1353.49Zm-4.671,4.71a1.76,1.76,0,0,1-1.173-.45,1.792,1.792,0,0,1-.153-2.52,1.765,1.765,0,0,1,2.5-.15,1.792,1.792,0,0,1,.151,2.52A1.753,1.753,0,0,1,953.537,1358.2Zm0.221,26.23a1.773,1.773,0,0,1-1.732,1.42,1.529,1.529,0,0,1-.365-0.04A1.782,1.782,0,1,1,953.758,1384.43Zm-2.839-21.76a1.772,1.772,0,0,1-1.46.77,1.719,1.719,0,0,1-1.007-.32,1.787,1.787,0,0,1-.449-2.48,1.764,1.764,0,0,1,2.465-.45,1.788,1.788,0,0,1,.451,2.48h0Zm-3.313,5.51a1.77,1.77,0,0,1-1.57.96,1.751,1.751,0,0,1-.823-0.21,1.791,1.791,0,0,1-.744-2.41,1.769,1.769,0,0,1,2.395-.75A1.792,1.792,0,0,1,947.606,1368.18Zm-2.626,5.87a1.778,1.778,0,0,1-1.657,1.15,1.737,1.737,0,0,1-.629-0.12A1.78,1.78,0,1,1,944.98,1374.05Zm-1.9,6.15a1.781,1.781,0,0,1-1.721,1.36,2.034,2.034,0,0,1-.422-0.05,1.8,1.8,0,0,1-1.3-2.17A1.775,1.775,0,1,1,943.077,1380.2Zm-1.148,6.33a1.783,1.783,0,0,1-1.759,1.58,1.592,1.592,0,0,1-.215-0.02A1.783,1.783,0,1,1,941.929,1386.53Zm-2.156,4.65a1.785,1.785,0,1,1-1.773,1.79A1.781,1.781,0,0,1,939.773,1391.18Zm0.18,6.66a1.787,1.787,0,0,1,.42,3.55,1.519,1.519,0,0,1-.213.01A1.787,1.787,0,0,1,939.953,1397.84Zm0.968,6.59a1.785,1.785,0,0,1,.841,3.47,2.026,2.026,0,0,1-.422.05A1.787,1.787,0,0,1,940.921,1404.43Zm1.752,6.43a1.761,1.761,0,0,1,2.285,1.04,1.787,1.787,0,0,1-1.031,2.3,1.707,1.707,0,0,1-.625.11A1.784,1.784,0,0,1,942.673,1410.86Zm2.515,6.16a1.782,1.782,0,0,1,1.647,3.16,1.75,1.75,0,0,1-.822.21,1.771,1.771,0,0,1-1.572-.96A1.794,1.794,0,0,1,945.188,1417.02Zm5.7,6.27a1.8,1.8,0,0,1-.454,2.49A1.782,1.782,0,1,1,950.892,1423.29Zm0.286-30.84h-0.093A1.821,1.821,0,1,1,951.178,1392.45Zm0.323,6.65c-0.059,0-.115.01-0.175,0.01A1.792,1.792,0,1,1,951.5,1399.1Zm0.532,3.05a1.768,1.768,0,0,1,2.156,1.28,1.8,1.8,0,0,1-1.279,2.18,2.232,2.232,0,0,1-.44.05A1.784,1.784,0,0,1,952.033,1402.15Zm2.8,26.22a1.793,1.793,0,0,1-.154,2.52,1.778,1.778,0,0,1-2.5-.16,1.8,1.8,0,0,1,.156-2.52A1.764,1.764,0,0,1,954.834,1428.37Zm-0.976-48.91a1.7,1.7,0,0,1-.62-0.12,1.788,1.788,0,0,1-1.04-2.3,1.766,1.766,0,0,1,2.281-1.04A1.788,1.788,0,0,1,953.858,1379.46Zm-0.9,31.42a1.775,1.775,0,1,1,2.326.95,1.9,1.9,0,0,1-.7.14A1.776,1.776,0,0,1,952.962,1410.88Zm3.746,3.7a1.755,1.755,0,0,1,2.442.57,1.785,1.785,0,0,1-1.5,2.73,1.763,1.763,0,0,1-1.508-.85A1.785,1.785,0,0,1,956.708,1414.58Zm2.645,18.35a1.794,1.794,0,0,1,.147,2.52,1.765,1.765,0,0,1-2.5.15,1.8,1.8,0,0,1-.147-2.52A1.766,1.766,0,0,1,959.353,1432.93Zm1.045-12.82a1.766,1.766,0,0,1,2.5.19,1.8,1.8,0,0,1-.194,2.52,1.756,1.756,0,0,1-2.5-.2A1.785,1.785,0,0,1,960.4,1420.11Zm3.983,16.81a1.786,1.786,0,0,1-1.012,3.25,1.718,1.718,0,0,1-1.009-.32,1.788,1.788,0,0,1-.447-2.48A1.768,1.768,0,0,1,964.381,1436.92Zm0.494-11.91a1.766,1.766,0,0,1,2.5-.19,1.8,1.8,0,0,1,.183,2.52,1.764,1.764,0,0,1-2.5.19A1.8,1.8,0,0,1,964.875,1425.01Zm4.971,15.26a1.785,1.785,0,0,1-.83,3.36,1.768,1.768,0,0,1-.828-0.21,1.792,1.792,0,0,1-.74-2.41A1.77,1.77,0,0,1,969.846,1440.27Zm0.189-11.09a1.754,1.754,0,0,1,2.443-.56,1.791,1.791,0,0,1,.561,2.46,1.768,1.768,0,0,1-1.506.83,1.7,1.7,0,0,1-.938-0.27A1.789,1.789,0,0,1,970.035,1429.18Zm5.632,13.75a1.785,1.785,0,0,1-.634,3.45,1.756,1.756,0,0,1-.631-0.12,1.785,1.785,0,0,1-1.024-2.3A1.756,1.756,0,0,1,975.667,1442.93Zm0.09-10.41a1.756,1.756,0,0,1,2.33-.93,1.785,1.785,0,0,1-.7,3.42,1.756,1.756,0,0,1-.7-0.15A1.784,1.784,0,0,1,975.757,1432.52Zm6.013,12.34a1.782,1.782,0,0,1-.426,3.51,1.589,1.589,0,0,1-.43-0.05A1.782,1.782,0,0,1,981.77,1444.86Zm0.149-9.92a1.774,1.774,0,1,1,1.716,2.24,1.729,1.729,0,0,1-.447-0.06A1.792,1.792,0,0,1,981.919,1434.94Zm6.143,11.09a1.782,1.782,0,0,1-.216,3.55,1.562,1.562,0,0,1-.216-0.01A1.783,1.783,0,0,1,988.062,1446.03Zm0.314-9.64a1.773,1.773,0,1,1,1.766,1.96,1.142,1.142,0,0,1-.183-0.01A1.776,1.776,0,0,1,988.376,1436.39Zm6.072,10.04a1.785,1.785,0,0,1,0,3.57h0A1.785,1.785,0,0,1,994.448,1446.43Zm0.53-9.6a1.772,1.772,0,1,1,1.858,1.69c-0.031,0-.059.01-0.09,0.01A1.782,1.782,0,0,1,994.978,1436.83Zm-5.757-10.1h0a1.787,1.787,0,0,1,.278-3.55,5.541,5.541,0,0,1,10.234.03,1.773,1.773,0,0,1,1.6,1.5,1.8,1.8,0,0,1-1.331,2.01A5.546,5.546,0,0,1,989.221,1426.73Zm7.4-1.36a2.009,2.009,0,1,0-2.008,2.02A2.02,2.02,0,0,0,996.618,1425.37Zm4.222,20.69a1.787,1.787,0,0,1,.41,3.55,1.477,1.477,0,0,1-.21.01A1.787,1.787,0,0,1,1000.84,1446.06Zm0.73-9.79a1.776,1.776,0,1,1,2.09,1.39,1.472,1.472,0,0,1-.36.04A1.771,1.771,0,0,1,1001.57,1436.27Zm5.57,8.66a1.784,1.784,0,0,1,.83,3.47,2.007,2.007,0,0,1-.42.05A1.786,1.786,0,0,1,1007.14,1444.93Zm0.86-10.21a1.777,1.777,0,1,1,2.28,1.05,1.655,1.655,0,0,1-.61.12A1.783,1.783,0,0,1,1008,1434.72Zm2.38-13.45a1.788,1.788,0,0,1,.54-2.46,1.762,1.762,0,0,1,2.45.55,1.8,1.8,0,0,1-.54,2.46A1.764,1.764,0,0,1,1010.38,1421.27Zm2.88,21.77a1.765,1.765,0,0,1,2.28,1.04,1.8,1.8,0,0,1-1.04,2.3,1.668,1.668,0,0,1-.62.12A1.788,1.788,0,0,1,1013.26,1443.04Zm0.87-10.85a1.775,1.775,0,1,1,2.41.69,1.709,1.709,0,0,1-.86.23A1.752,1.752,0,0,1,1014.13,1432.19Zm4.97,8.22a1.765,1.765,0,0,1,2.39.76,1.787,1.787,0,0,1-.75,2.41,1.837,1.837,0,0,1-.82.2A1.788,1.788,0,0,1,1019.1,1440.41Zm0.7-11.66a1.79,1.79,0,0,1,.31-2.5,1.779,1.779,0,1,1,1.09,3.2A1.752,1.752,0,0,1,1019.8,1428.75Zm1.97-56.21a1.785,1.785,0,0,1-1.41,2.86,1.753,1.753,0,0,1-1.42-.72,1.794,1.794,0,0,1,.35-2.5A1.761,1.761,0,0,1,1021.77,1372.54Zm-3.48,44.92a1.763,1.763,0,0,1-2.51-.03,1.793,1.793,0,0,1,.03-2.52,1.763,1.763,0,0,1,2.51.03A1.793,1.793,0,0,1,1018.29,1417.46Zm-10.66,5.2a1.787,1.787,0,0,1-1.04,2.3,1.745,1.745,0,0,1-2.28-1.04A1.776,1.776,0,1,1,1007.63,1422.66Zm-22.854,1.22a1.8,1.8,0,0,1-2.291,1.03,1.8,1.8,0,0,1-1.02-2.31,1.773,1.773,0,0,1,2.29-1.03h0A1.8,1.8,0,0,1,984.776,1423.88Zm-6.585-5.15a1.8,1.8,0,0,1,.53,2.47,1.77,1.77,0,0,1-1.491.82,1.7,1.7,0,0,1-.958-0.29A1.781,1.781,0,0,1,978.191,1418.73Zm-6.06-48.93a1.8,1.8,0,0,1,.165-2.52,1.767,1.767,0,0,1,2.5.17,1.8,1.8,0,0,1-.167,2.52A1.765,1.765,0,0,1,972.131,1369.8Zm1.184,45.01a1.786,1.786,0,0,1,.022,2.52,1.744,1.744,0,0,1-1.265.53,1.723,1.723,0,0,1-1.241-.51h0a1.788,1.788,0,0,1-.02-2.52A1.767,1.767,0,0,1,973.315,1414.81Zm-3.284-42.74a1.781,1.781,0,1,1-2.483.35A1.757,1.757,0,0,1,970.031,1372.07Zm-3.733,5.5a1.789,1.789,0,0,1-.76,3.4,1.724,1.724,0,0,1-.758-0.18,1.784,1.784,0,0,1-.844-2.37A1.755,1.755,0,0,1,966.3,1377.57Zm-2.539,6.15a1.786,1.786,0,0,1-.411,3.52,1.944,1.944,0,0,1-.414-0.05A1.783,1.783,0,0,1,963.759,1383.72Zm-3.052,8.27a1.774,1.774,0,1,1,1.773,1.84h-0.05A1.783,1.783,0,0,1,960.707,1391.99Zm0.508,7a1.773,1.773,0,1,1,2.054,1.45c-0.1.01-.207,0.02-0.309,0.02A1.779,1.779,0,0,1,961.215,1398.99Zm8.119,10.98a1.788,1.788,0,0,1-.489,2.47,1.7,1.7,0,0,1-.983.3,1.774,1.774,0,0,1-1.475-.79,1.8,1.8,0,0,1,.489-2.48A1.772,1.772,0,0,1,969.334,1409.97Zm-3.9-3.24a1.7,1.7,0,0,1-.659.13,1.782,1.782,0,1,1,1.644-2.45A1.789,1.789,0,0,1,965.437,1406.73Zm13.421-40.16a1.783,1.783,0,1,1,.867-0.23A1.705,1.705,0,0,1,978.858,1366.57Zm6.058-2.65a1.765,1.765,0,0,1-1.691-1.25,1.773,1.773,0,1,1,2.226,1.17A1.659,1.659,0,0,1,984.916,1363.92Zm12.888-1.33a1.768,1.768,0,1,1,.187.01C997.93,1362.6,997.869,1362.59,997.8,1362.59ZM1017.18,1393a22.573,22.573,0,1,1-22.57-22.73A22.669,22.669,0,0,1,1017.18,1393Zm-22.57-19.16a19.16,19.16,0,1,0,19.03,19.16A19.118,19.118,0,0,0,994.61,1373.84Zm13.23,20.95a1.784,1.784,0,0,1-1.77-1.79,11.515,11.515,0,0,0-11.46-11.54,1.785,1.785,0,0,1,0-3.57,15.083,15.083,0,0,1,15.01,15.11A1.786,1.786,0,0,1,1007.84,1394.79Zm13.44,18.07a1.778,1.778,0,0,1-1.47-2.78,1.763,1.763,0,0,1,2.46-.48,1.785,1.785,0,0,1,.48,2.48A1.758,1.758,0,0,1,1021.28,1412.86Zm1.47-8.32a1.794,1.794,0,1,1,.97,2.32A1.775,1.775,0,0,1,1022.75,1404.54Zm4.3,33.02a1.784,1.784,0,0,1-.46,2.48,1.761,1.761,0,0,1-2.46-.47,1.793,1.793,0,0,1,.46-2.48A1.761,1.761,0,0,1,1027.05,1437.56Zm-2.17-13.07a1.793,1.793,0,0,1-.06-2.52,1.772,1.772,0,0,1,2.51-.06,1.793,1.793,0,0,1,.06,2.52A1.753,1.753,0,0,1,1024.88,1424.49Zm0.63-40.63a1.775,1.775,0,0,1,2.13,1.33,1.8,1.8,0,0,1-1.32,2.15,1.915,1.915,0,0,1-.41.05A1.79,1.79,0,0,1,1025.51,1383.86Zm1.05,13.21a1.786,1.786,0,0,1-.32,3.54,1.816,1.816,0,0,1-.32-0.03A1.784,1.784,0,0,1,1026.56,1397.07Zm5.58,36.23a1.775,1.775,0,0,1-.16,2.51,1.735,1.735,0,0,1-1.17.45,1.77,1.77,0,0,1-1.33-.61,1.8,1.8,0,0,1,.16-2.52A1.763,1.763,0,0,1,1032.14,1433.3Zm-0.08-21.77a1.761,1.761,0,0,1,2.37-.81,1.789,1.789,0,0,1,.81,2.39,1.774,1.774,0,0,1-2.37.81A1.792,1.792,0,0,1,1032.06,1411.53Zm4.63,16.92a1.8,1.8,0,0,1,.14,2.52,1.759,1.759,0,0,1-1.33.6,1.779,1.779,0,0,1-1.18-.45,1.807,1.807,0,0,1-.14-2.53A1.784,1.784,0,0,1,1036.69,1428.45Zm-0.58-20.52a1.89,1.89,0,0,1-.53-0.08A1.772,1.772,0,1,1,1036.11,1407.93Zm1.76-10.03a1.787,1.787,0,0,1-.27,3.55,2.645,2.645,0,0,1-.27-0.02A1.786,1.786,0,0,1,1037.87,1397.9Zm0-9.75a1.229,1.229,0,0,1-.27.02,1.772,1.772,0,0,1-1.75-1.51A1.776,1.776,0,1,1,1037.87,1388.15Zm0.23,6.66a1.785,1.785,0,1,1,1.77-1.78A1.775,1.775,0,0,1,1038.1,1394.81Zm2.52,28.29a1.781,1.781,0,0,1,.44,2.48,1.751,1.751,0,0,1-1.45.77,1.833,1.833,0,0,1-1.02-.32,1.8,1.8,0,0,1-.44-2.49A1.761,1.761,0,0,1,1040.62,1423.1Zm0.87-5.05a1.787,1.787,0,1,1,.74,2.41A1.774,1.774,0,0,1,1041.49,1418.05Zm2.66-5.86a1.758,1.758,0,0,1,2.29-1.02,1.786,1.786,0,0,1-.64,3.45A1.776,1.776,0,0,1,1044.15,1412.19Zm1.93-6.14a1.774,1.774,0,1,1,1.72,2.22,2.1,2.1,0,0,1-.43-0.05A1.788,1.788,0,0,1,1046.08,1406.05Z" transform="translate(-898 -1273)"/></svg>