<svg id="battlefield" xmlns="http://www.w3.org/2000/svg" xmlns:xlink="http://www.w3.org/1999/xlink" width="300" height="642" viewBox="0 0 300 642"><symbol id="iPhone_main" viewBox="-368 -787 735 1573"><path fill-rule="evenodd" clip-rule="evenodd" fill="#FFF" d="M-260,778h527c55.2,0,100-44.8,100-100V-687 c0-55.2-44.8-100-100-100h-527c-55.2,0-100,44.8-100,100V678C-360,733.2-315.2,778-260,778z"/><path fill="#636363" d="M267,775c53.5,0,97-43.5,97-97V-687c0-53.5-43.5-97-97-97h-527c-53.5,0-97,43.5-97,97V678 c0,53.5,43.5,97,97,97H267 M267,778h-527c-55.2,0-100-44.8-100-100V-687c0-55.2,44.8-100,100-100h527c55.2,0,100,44.8,100,100V678 C367,733.2,322.2,778,267,778L267,778z"/><path fill-rule="evenodd" clip-rule="evenodd" d="M57.5,659h-107c-4.1,0-7.5-3.4-7.5-7.5s3.4-7.5,7.5-7.5h107 c4.1,0,7.5,3.4,7.5,7.5S61.6,659,57.5,659z M3,704c4.4,0,8,3.6,8,8s-3.6,8-8,8s-8-3.6-8-8S-1.4,704,3,704z M131,786v-8h124v8H131 z M-368,499h8v70h-8V499z M-368,364h8v55h-8V364z M-368,232h8v55h-8V232z"/><path fill-rule="evenodd" clip-rule="evenodd" fill="#666" d="M3.5-616.5c35.1,0,63.5-28.4,63.5-63.5 c0-35.1-28.4-63.5-63.5-63.5c-35.1,0-63.5,28.4-63.5,63.5C-60-644.9-31.6-616.5,3.5-616.5z"/><path fill="#FFF" d="M16-659c4.4,0,8-3.6,8-8v-25c0-4.4-3.6-8-8-8H-9c-4.4,0-8,3.6-8,8v25c0,4.4,3.6,8,8,8H16 M16-655H-9 c-6.6,0-12-5.4-12-12v-25c0-6.6,5.4-12,12-12h25c6.6,0,12,5.4,12,12v25C28-660.4,22.6-655,16-655L16-655z"/><path fill-rule="evenodd" clip-rule="evenodd" fill="#FFF" d="M-318,562h640V-574h-640V562z"/><path d="M323-574h-641V563h641V-574z M-317-573h639V562h-639V-573z"/></symbol><use xlink:href="#iPhone_main" width="735" height="1573" id="XMLID_6_" x="-368" y="-787" transform="matrix(.4082 0 0 -.4082 150.204 320.816)" overflow="visible"/></svg>