<svg xmlns="http://www.w3.org/2000/svg" width="32" height="32" viewBox="0 0 32 32"><g fill="none" fill-rule="evenodd"><circle cx="16" cy="16" r="16" fill="#906BCA"/><path fill="#FFF" d="M21.836 10.554a7.88 7.88 0 0 0-5.61-2.325c-4.371 0-7.93 3.556-7.93 7.927a7.906 7.906 0 0 0 1.058 3.964l-1.125 4.11 4.204-1.103a7.928 7.928 0 0 0 3.79.965h.003c4.371 0 7.93-3.557 7.931-7.928a7.88 7.88 0 0 0-2.32-5.61zm-5.61 12.198h-.003a6.583 6.583 0 0 1-3.355-.918l-.24-.143-2.495.654.666-2.432-.157-.249a6.573 6.573 0 0 1-1.008-3.507 6.6 6.6 0 0 1 6.595-6.59 6.554 6.554 0 0 1 4.66 1.933 6.55 6.55 0 0 1 1.929 4.662 6.6 6.6 0 0 1-6.592 6.59zm2.262-5.58c-.182-.066-.314-.099-.446.1-.132.198-.512.644-.628.776-.115.132-.23.149-.429.05-.198-.1-.837-.309-1.594-.984-.589-.525-.986-1.174-1.102-1.372-.116-.198-.012-.305.087-.404.09-.089.198-.232.297-.347.1-.116.132-.199.198-.33.066-.133.033-.249-.016-.348-.05-.1-.446-1.074-.611-1.47-.161-.387-.324-.335-.446-.34a7.945 7.945 0 0 0-.38-.008.728.728 0 0 0-.528.248c-.182.198-.694.678-.694 1.653s.71 1.917.81 2.049c.098.132 1.397 2.133 3.385 2.991.472.204.842.326 1.13.418.474.15.906.13 1.248.078.38-.057 1.172-.48 1.337-.942.165-.463.165-.86.116-.942-.05-.083-.182-.132-.38-.231-.198-.1-1.173-.579-1.354-.645z"/></g></svg>