<svg xmlns="http://www.w3.org/2000/svg" width="32" height="32" viewBox="0 0 32 32"><g fill="none" fill-rule="evenodd"><circle cx="16" cy="16" r="16" fill="#906BCA"/><path fill="#FFF" d="M19.345 18.908c-.28.4-.692.713-1.233.938-.542.228-1.183.34-1.925.34-.89 0-1.624-.154-2.202-.463a2.849 2.849 0 0 1-1-.892c-.255-.37-.384-.732-.384-1.084 0-.203.077-.378.23-.522a.818.818 0 0 1 .588-.219c.193 0 .356.056.489.17a1.3 1.3 0 0 1 .341.504c.115.264.24.485.373.661.133.178.32.325.562.44.242.114.56.172.954.172.54 0 .98-.115 1.319-.348.338-.231.508-.522.508-.869 0-.275-.092-.5-.274-.67a1.794 1.794 0 0 0-.708-.393 12.75 12.75 0 0 0-1.16-.29 8.988 8.988 0 0 1-1.626-.489c-.436-.187-.783-.44-1.039-.763-.257-.324-.384-.724-.384-1.203 0-.457.134-.862.406-1.216.27-.355.661-.628 1.174-.819.513-.19 1.115-.285 1.808-.285.554 0 1.033.063 1.436.19.404.126.739.294 1.005.503.267.21.462.43.585.66.123.229.184.454.184.672a.76.76 0 0 1-.23.541.763.763 0 0 1-.575.241c-.21 0-.368-.048-.477-.145a1.939 1.939 0 0 1-.353-.472 2.156 2.156 0 0 0-.591-.733c-.23-.176-.598-.263-1.107-.263-.47 0-.851.094-1.14.285-.29.19-.434.42-.434.688 0 .165.05.31.148.43a1.2 1.2 0 0 0 .406.311c.171.087.346.155.522.204.176.05.467.12.874.215.508.11.968.23 1.38.362.412.133.762.293 1.052.48.289.19.514.429.676.718.162.288.243.642.243 1.06 0 .502-.14.953-.421 1.353m3.804-3.11a7.136 7.136 0 0 0-7.132-7.139 7.11 7.11 0 0 0-1.08.09 4.05 4.05 0 0 0-2.641-.978 4.07 4.07 0 0 0-4.067 4.073c0 .917.307 1.761.82 2.442a7.201 7.201 0 0 0-.164 1.513 7.135 7.135 0 0 0 8.608 6.985 4.04 4.04 0 0 0 2.668 1.004 4.07 4.07 0 0 0 2.9-6.924 7.13 7.13 0 0 0 .088-1.065"/></g></svg>