<svg xmlns="http://www.w3.org/2000/svg" width="32" height="32" viewBox="0 0 32 32"><g fill="none" fill-rule="evenodd"><circle cx="16" cy="16" r="16" fill="#906BCA"/><g fill="#FFF"><path d="M13.673 24.582c-.568 0-.466-.218-.67-.757l-1.658-5.469 10.299-6.429 1.207.32-1.004 2.735-8.174 9.6z"/><path d="M13.964 18.76l7.04 5.192c.8.437 1.381.218 1.585-.742l2.866-13.498c.29-1.178-.451-1.702-1.222-1.353L7.418 14.847c-1.149.465-1.134 1.105-.203 1.382l4.32 1.352 9.992-6.298c.466-.29.902-.13.553.19l-8.116 7.286z"/></g></g></svg>