<svg xmlns="http://www.w3.org/2000/svg" width="102" height="122" viewBox="0 0 102 122"><path fill="none" d="M0 0h102v122H0z"/><path d="M27.73 94.89l-1.58-4h-5.1l-1.53 4H18l5.1-12.66h1.24l4.88 12.66zm-2.08-5.25l-1.46-3.92a16.62 16.62 0 0 1-.59-1.81 18.88 18.88 0 0 1-.55 1.81l-1.49 3.92zm11.61 5.25v-6a2.45 2.45 0 0 0-.52-1.69 2.11 2.11 0 0 0-1.7-.58 2.72 2.72 0 0 0-2.18.8 4.12 4.12 0 0 0-.7 2.66v4.86h-1.41V85.5h1.18l.22 1.31h.08a2.77 2.77 0 0 1 1.23-1.09 4.15 4.15 0 0 1 1.7-.39 3.56 3.56 0 0 1 2.56.83 3.47 3.47 0 0 1 .87 2.63v6.1zm10.85-1.19H48a3.42 3.42 0 0 1-3 1.44 3.5 3.5 0 0 1-2.89-1.27 5.53 5.53 0 0 1-1-3.61 5.71 5.71 0 0 1 1-3.64A3.55 3.55 0 0 1 45 85.33a3.41 3.41 0 0 1 3 1.41h.12v-5.2h1.32v13.35h-1.16zm-2.87.24a2.62 2.62 0 0 0 2.12-.75 4 4 0 0 0 .64-2.57v-.31a4.78 4.78 0 0 0-.67-2.86 2.55 2.55 0 0 0-2.14-.86 2.18 2.18 0 0 0-1.94 1 4.93 4.93 0 0 0-.68 2.76 4.68 4.68 0 0 0 .68 2.73 2.23 2.23 0 0 0 1.99.86zm11.61-8.61a6.06 6.06 0 0 1 1.12.1l-.19 1.34a5.29 5.29 0 0 0-1.05-.13 2.49 2.49 0 0 0-2 .93 3.4 3.4 0 0 0-.83 2.32V95h-1.39v-9.5h1.19l.16 1.7a4.06 4.06 0 0 1 1.27-1.43 2.88 2.88 0 0 1 1.72-.44zm11.08 4.9a5.25 5.25 0 0 1-1.15 3.61 4.58 4.58 0 0 1-5.49.69 3.85 3.85 0 0 1-1.53-1.69 5.74 5.74 0 0 1-.53-2.61 5.17 5.17 0 0 1 1.15-3.61 4.15 4.15 0 0 1 3.22-1.29 4 4 0 0 1 3.16 1.32 5.18 5.18 0 0 1 1.17 3.58zm-7.22 0a4.44 4.44 0 0 0 .73 2.77 2.52 2.52 0 0 0 2.14 1 2.56 2.56 0 0 0 2.14-1 5.56 5.56 0 0 0 0-5.51 3 3 0 0 0-4.3 0 4.46 4.46 0 0 0-.71 2.74zM70.33 83a.92.92 0 0 1 .25-.71.81.81 0 0 1 .6-.24.82.82 0 0 1 .59.24.89.89 0 0 1 .23.71 1 1 0 0 1-.26.73.86.86 0 0 1-.59.23.84.84 0 0 1-.6-.23 1 1 0 0 1-.22-.73zm1.56 11.86h-1.44V85.5h1.44zm9.51-1.16a3.4 3.4 0 0 1-3 1.44 3.5 3.5 0 0 1-2.89-1.27 5.59 5.59 0 0 1-1-3.61 5.71 5.71 0 0 1 1-3.64 3.57 3.57 0 0 1 2.89-1.29 3.41 3.41 0 0 1 3 1.41h.12v-5.2h1.44v13.35h-1.38zm-2.88.24a2.63 2.63 0 0 0 2.13-.75 4 4 0 0 0 .66-2.57v-.31a4.71 4.71 0 0 0-.66-2.86 2.52 2.52 0 0 0-2.14-.86 2.17 2.17 0 0 0-1.94 1 4.84 4.84 0 0 0-.66 2.76 4.7 4.7 0 0 0 .74 2.65 2.23 2.23 0 0 0 1.87.94z" fill="#152177"/><path d="M30.09 32a3.51 3.51 0 0 0-2.57 1 3.37 3.37 0 0 0-1.05 2.57v15a3.6 3.6 0 0 0 3.62 3.62 3.57 3.57 0 0 0 3.57-3.61v-15A3.6 3.6 0 0 0 30.09 32zm29-13.49l2.48-4.58a.41.41 0 0 0 .08-.38.44.44 0 0 0-.25-.31.49.49 0 0 0-.39 0 .55.55 0 0 0-.31.25L58.21 18a17.53 17.53 0 0 0-14.09 0l-2.54-4.6a.49.49 0 0 0-.63-.2.46.46 0 0 0-.25.31.47.47 0 0 0 .08.38l2.49 4.58a15.49 15.49 0 0 0-6 5.37A13.42 13.42 0 0 0 35 31.36h32.35a13.42 13.42 0 0 0-2.24-7.52 15.53 15.53 0 0 0-6-5.37zm-14.36 6.62a1.38 1.38 0 0 1-1 .41 1.35 1.35 0 0 1-1.33-1.36 1.35 1.35 0 0 1 .38-1 1.25 1.25 0 0 1 .95-.4 1.33 1.33 0 0 1 1 .4 1.4 1.4 0 0 1 .39 1 1.34 1.34 0 0 1-.39.95zm14.77 0a1.3 1.3 0 0 1-1 .41 1.35 1.35 0 0 1-1-.41 1.26 1.26 0 0 1-.39-.95 1.4 1.4 0 0 1 .39-1 1.3 1.3 0 0 1 1-.4 1.25 1.25 0 0 1 1 .4 1.34 1.34 0 0 1 .37 1 1.26 1.26 0 0 1-.37.95zM35.07 55.92a3.81 3.81 0 0 0 3.84 3.84h2.6v7.93a3.62 3.62 0 0 0 3.57 3.6 3.65 3.65 0 0 0 2.56-1.05 3.6 3.6 0 0 0 1.07-2.55v-7.94h4.82v7.93a3.4 3.4 0 0 0 1.06 2.54 3.66 3.66 0 0 0 5.1 0 3.39 3.39 0 0 0 1.05-2.54v-7.93h2.64a3.69 3.69 0 0 0 2.68-1.12 3.74 3.74 0 0 0 1.18-2.71V32.63H35.07zM72.22 32a3.55 3.55 0 0 0-3.57 3.62v15a3.6 3.6 0 1 0 7.19 0v-15A3.4 3.4 0 0 0 74.78 33a3.58 3.58 0 0 0-2.56-1z" fill="#7555b3"/></svg>