<svg xmlns="http://www.w3.org/2000/svg" width="102" height="122" viewBox="0 0 102 122"><defs><style>.b{fill:#152177}</style></defs><path fill="none" d="M0 0h102v122H0z"/><path class="b" d="M18.7 6.78h64.6v64.27H18.7z"/><path d="M35.7 60.49l4.93-3c.95 1.69 1.82 3.1 3.89 3.1s3.25-.78 3.25-3.8V36.28h6.07V56.9c0 6.25-3.69 9.1-9.06 9.1a9.4 9.4 0 0 1-9.08-5.51m21.44-.66L62.07 57A6.59 6.59 0 0 0 68 60.66c2.5 0 4.11-1.25 4.11-3 0-2.07-1.7-2.8-4.42-4L66.3 53c-4.37-1.83-7.3-4.17-7.3-9.08 0-4.52 3.4-8 8.88-8a9 9 0 0 1 8.6 4.83l-4.73 3a4.1 4.1 0 0 0-3.89-2.57A2.63 2.63 0 0 0 65 43.55v.23c0 1.82 1.14 2.56 3.73 3.68l1.53.65c5.08 2.2 8 4.42 8 9.5 0 5.44-4.28 8.47-10 8.47a11.63 11.63 0 0 1-11-6.16" fill="#fff"/><path class="b" d="M11.42 98.28A3.06 3.06 0 0 1 10.2 98v-1.28a5.09 5.09 0 0 0 1.29.19 1.72 1.72 0 0 0 1.29-.53 2.19 2.19 0 0 0 .4-1.49V82.28h1.46v12.49a3.62 3.62 0 0 1-.84 2.54 3.08 3.08 0 0 1-2.38.97zm12.19-3.39l-.29-1.34a4 4 0 0 1-1.41 1.2 4.49 4.49 0 0 1-1.7.31 3.23 3.23 0 0 1-2.21-.73 2.65 2.65 0 0 1-1-2c0-1.92 1.53-2.92 4.61-3h1.59v-.59a2.36 2.36 0 0 0-.47-1.7 2 2 0 0 0-1.53-.52 6.3 6.3 0 0 0-2.69.71l-.44-1.09a6.46 6.46 0 0 1 1.53-.59 6.56 6.56 0 0 1 1.7-.22 3.74 3.74 0 0 1 2.52.75 3.11 3.11 0 0 1 .81 2.4v6.46zm-3.21-1a2.84 2.84 0 0 0 2.07-.68 2.69 2.69 0 0 0 .77-2v-.91h-1.43a5.56 5.56 0 0 0-2.48.52 1.71 1.71 0 0 0-.75 1.48 1.47 1.47 0 0 0 .48 1.18 2 2 0 0 0 1.34.39zm9.32 1l-3.61-9.46h1.55l2 5.61c.46 1.31.73 2.17.82 2.56a18.14 18.14 0 0 1 .59-1.9c.34-1 1.11-3 2.28-6.27h1.55l-3.5 9.46zm12.63 0l-.28-1.34a3.92 3.92 0 0 1-1.42 1.2 4.31 4.31 0 0 1-1.7.31 3.1 3.1 0 0 1-2.21-.73 2.57 2.57 0 0 1-.82-2c0-1.92 1.55-2.92 4.61-3h1.61v-.59a2.36 2.36 0 0 0-.49-1.7 2 2 0 0 0-1.53-.52 6.34 6.34 0 0 0-2.69.71L37 86.09a7.12 7.12 0 0 1 1.53-.59 6.56 6.56 0 0 1 1.7-.22 3.69 3.69 0 0 1 2.52.75 3.11 3.11 0 0 1 .81 2.4v6.46zm-3.25-1a2.9 2.9 0 0 0 2.11-.68 2.69 2.69 0 0 0 .78-2v-.91h-1.45a5.5 5.5 0 0 0-2.46.52 1.7 1.7 0 0 0-.77 1.48 1.47 1.47 0 0 0 .48 1.18 2 2 0 0 0 1.31.39zm14.64-2.39a3.1 3.1 0 0 1-1.21 2.59 5.26 5.26 0 0 1-3.23 1 8.24 8.24 0 0 1-3.4-.58v-1.4a9.2 9.2 0 0 0 1.7.5 8.59 8.59 0 0 0 1.82.19 3.67 3.67 0 0 0 2.09-.58 1.77 1.77 0 0 0 .73-1.54 2 2 0 0 0-.24-1.1 2.54 2.54 0 0 0-.89-.77A9.89 9.89 0 0 0 49.3 89a6 6 0 0 1-2.52-1.5 3.38 3.38 0 0 1-.88-2.25A2.79 2.79 0 0 1 47 83a4.59 4.59 0 0 1 3-.84 8.32 8.32 0 0 1 3.4.7l-.46 1.27a7.81 7.81 0 0 0-3-.66A2.91 2.91 0 0 0 48 84a1.67 1.67 0 0 0-.65 1.39 1.86 1.86 0 0 0 1.06 1.81 10.46 10.46 0 0 0 1.7.78 6.89 6.89 0 0 1 2.73 1.52 3 3 0 0 1 .9 2zm6.15 3.56a4.1 4.1 0 0 1-3.18-1.26 5.24 5.24 0 0 1-1.14-3.57 5.38 5.38 0 0 1 1.16-3.68A4.16 4.16 0 0 1 60 85.26a7.75 7.75 0 0 1 1.36.14 4.23 4.23 0 0 1 1.09.36L62 87a6.29 6.29 0 0 0-1-.33 4.79 4.79 0 0 0-1-.11c-1.92 0-2.89 1.22-2.89 3.67a4.39 4.39 0 0 0 .73 2.66 2.42 2.42 0 0 0 2.09.93 6.33 6.33 0 0 0 2.43-.5v1.27a5.35 5.35 0 0 1-2.47.47zm8.98-9.8a5.51 5.51 0 0 1 1.14.11l-.21 1.32a4.55 4.55 0 0 0-1-.12 2.56 2.56 0 0 0-2 .93 3.35 3.35 0 0 0-.8 2.31v5.08h-1.4v-9.46h1.19l.15 1.7a4.49 4.49 0 0 1 1.28-1.43 3.07 3.07 0 0 1 1.65-.44zm2.79-2.38a.89.89 0 0 1 .25-.73.92.92 0 0 1 1.19 0 1 1 0 0 1 .26.73.94.94 0 0 1-.26.71.88.88 0 0 1-1.19 0 .89.89 0 0 1-.25-.71zm1.56 12h-1.43v-9.45h1.43zm7.46.18a4 4 0 0 1-1.7-.34 3.09 3.09 0 0 1-1.27-1h-.11a13.81 13.81 0 0 1 .11 1.57v3.88h-1.45V85.43h1.17l.21 1.29a3.49 3.49 0 0 1 1.29-1.12 4.17 4.17 0 0 1 1.7-.34 3.45 3.45 0 0 1 2.91 1.29 6.79 6.79 0 0 1 0 7.22 3.42 3.42 0 0 1-2.86 1.29zm-.2-8.64a2.53 2.53 0 0 0-2.11.79 4.12 4.12 0 0 0-.66 2.6v.32a4.71 4.71 0 0 0 .66 2.87 2.49 2.49 0 0 0 2.14.85 2.19 2.19 0 0 0 1.92-1 4.74 4.74 0 0 0 .7-2.75 4.56 4.56 0 0 0-.7-2.71 2.27 2.27 0 0 0-1.95-.97zm9.72 7.45a4.45 4.45 0 0 0 .73 0 2.66 2.66 0 0 0 .56-.12v1.14a3.2 3.2 0 0 1-.69.19 5.61 5.61 0 0 1-.82 0c-1.83 0-2.75-1-2.75-2.89v-5.64h-1.36v-.69l1.36-.6.61-2h.83v2.18h2.76v1.12h-2.76v5.56a1.85 1.85 0 0 0 .41 1.3 1.41 1.41 0 0 0 1.12.45z"/></svg>