<svg xmlns="http://www.w3.org/2000/svg" width="102" height="122" viewBox="0 0 102 122"><defs><style>.b{fill:#152177}.c{fill:#7555b3}</style></defs><path fill="none" d="M0 0h102v122H0z"/><path class="b" d="M18.05 6.78l56.43 59.57a2.65 2.65 0 0 0 3.4-.23 2.5 2.5 0 0 0 .34-3.12z"/><path class="c" d="M35.92 12.4l43 46.18a2.63 2.63 0 0 0 3.4-.22 2.49 2.49 0 0 0 .34-3.16zM23.38 24.45L66.3 70.62a2.63 2.63 0 0 0 3.4-.22 2.5 2.5 0 0 0 .3-3.15z"/><path class="b" d="M51 17.25l30 32.19a1.85 1.85 0 0 0 2.38-.17 1.69 1.69 0 0 0 .23-2.2zM27.51 38.41l30 32.2a1.83 1.83 0 0 0 2.36-.16 1.68 1.68 0 0 0 .24-2.2z"/><path class="c" d="M66.45 24.23l13.6 14.67a.94.94 0 0 0 1.18-.08.77.77 0 0 0 .11-1zM35 53.29L48.62 68a1 1 0 0 0 1.17 0 .78.78 0 0 0 .12-1L35 53.36z"/><path class="b" d="M19.46 94.62l-4.3-11.19c0 .89.12 1.94.12 3.16v8h-1.36V82h2.16l4 10.41 4-10.41h2.21v12.62h-1.44v-8.2a27 27 0 0 1 .12-3l-4.32 11.13zm14.2.17a4.3 4.3 0 0 1-3.32-1.29 4.89 4.89 0 0 1-1.22-3.5 5.39 5.39 0 0 1 1.14-3.54 3.75 3.75 0 0 1 3-1.36 3.6 3.6 0 0 1 2.82 1.17 4.49 4.49 0 0 1 1 3.08v.92H30.6a3.72 3.72 0 0 0 .83 2.52 3 3 0 0 0 2.26.87 7.67 7.67 0 0 0 3-.65v1.29a6.62 6.62 0 0 1-1.45.46 7.87 7.87 0 0 1-1.58.03zm-.39-8.61a2.35 2.35 0 0 0-1.82.74A3.36 3.36 0 0 0 30.6 89h4.95a3.12 3.12 0 0 0-.6-2.07 2.12 2.12 0 0 0-1.68-.75zm9.38 7.42a4.69 4.69 0 0 0 .75 0l.56-.12v1.1a2.41 2.41 0 0 1-.69.17 3.75 3.75 0 0 1-.82 0c-1.84 0-2.75-1-2.75-2.89v-5.6h-1.36v-.69L39.7 85l.61-2h.83v2.2h2.75v1.1h-2.75v5.51a1.91 1.91 0 0 0 .41 1.3 1.39 1.39 0 0 0 1.1.49zm7.21 1.19a4.3 4.3 0 0 1-3.31-1.29 4.86 4.86 0 0 1-1.23-3.5 5.39 5.39 0 0 1 1.14-3.54 3.75 3.75 0 0 1 3-1.36 3.59 3.59 0 0 1 2.82 1.17 4.49 4.49 0 0 1 1 3.08v.92h-6.46a3.72 3.72 0 0 0 .78 2.44 2.93 2.93 0 0 0 2.26.86 7.56 7.56 0 0 0 3-.64v1.29a6.76 6.76 0 0 1-1.45.45 7.63 7.63 0 0 1-1.55.12zm-.39-8.61a2.39 2.39 0 0 0-1.87.74 3.39 3.39 0 0 0-.8 2.08h5a3.08 3.08 0 0 0-.62-2.07 2.12 2.12 0 0 0-1.71-.75zM64 89.81a5.18 5.18 0 0 1-1.09 3.67 4.14 4.14 0 0 1-3.23 1.31 4.37 4.37 0 0 1-2.26-.6 3.92 3.92 0 0 1-1.52-1.69 5.88 5.88 0 0 1-.63-2.69 5.21 5.21 0 0 1 1.15-3.6 4.14 4.14 0 0 1 3.23-1.3 4.05 4.05 0 0 1 3.17 1.32A5.21 5.21 0 0 1 64 89.81zm-7.23 0a4.44 4.44 0 0 0 .73 2.76 2.89 2.89 0 0 0 4.06.21l.21-.21a5.58 5.58 0 0 0 0-5.51 2.59 2.59 0 0 0-2.16-.93 2.48 2.48 0 0 0-2.12.93 4.39 4.39 0 0 0-.73 2.75zM70.84 85a5.25 5.25 0 0 1 1.12.1l-.19 1.34a5.11 5.11 0 0 0-1-.14 2.56 2.56 0 0 0-2 .93 3.44 3.44 0 0 0-.77 2.3v5.09h-1.44v-9.46h1.19l.17 1.7a4.06 4.06 0 0 1 1.27-1.43 2.75 2.75 0 0 1 1.65-.43zm2.7 8.7a1.34 1.34 0 0 1 .26-.88.9.9 0 0 1 .76-.3 1 1 0 0 1 .78.3 1.29 1.29 0 0 1 .28.88 1.26 1.26 0 0 1-.28.87 1.1 1.1 0 0 1-.78.28 1 1 0 0 1-.73-.27 1.09 1.09 0 0 1-.29-.88zm3.78 5.15a3.28 3.28 0 0 1-1.32-.22v-1.15a4.74 4.74 0 0 0 1.18.17 1.25 1.25 0 0 0 1-.37 1.66 1.66 0 0 0 .3-1.12v-11h1.42v10.9c0 1.86-.9 2.79-2.58 2.79zm1-16.26a1 1 0 0 1 .23-.71.89.89 0 0 1 .62-.24.82.82 0 0 1 .59.24.93.93 0 0 1 .26.71 1 1 0 0 1-.26.73.86.86 0 0 1-.59.23.89.89 0 0 1-.62-.23 1 1 0 0 1-.21-.73zM89.06 92a2.41 2.41 0 0 1-1 2 4.75 4.75 0 0 1-2.77.71 6.13 6.13 0 0 1-3-.6v-1.25a7.61 7.61 0 0 0 1.47.54 5.91 5.91 0 0 0 1.51.2 3.45 3.45 0 0 0 1.7-.35 1.18 1.18 0 0 0 .61-1.11 1.16 1.16 0 0 0-.49-.93 7.11 7.11 0 0 0-1.87-.93 10.07 10.07 0 0 1-1.89-.86 2.63 2.63 0 0 1-.83-.83 2.21 2.21 0 0 1-.27-1.12 2.11 2.11 0 0 1 1-1.82 4.42 4.42 0 0 1 2.65-.65 7.75 7.75 0 0 1 3 .62l-.51 1.17a7 7 0 0 0-2.59-.59 3 3 0 0 0-1.55.32 1 1 0 0 0-.5.88 1.14 1.14 0 0 0 .18.65 1.79 1.79 0 0 0 .63.5 11.92 11.92 0 0 0 1.7.7 6.58 6.58 0 0 1 2.28 1.24 2.18 2.18 0 0 1 .54 1.51z"/></svg>