<svg xmlns="http://www.w3.org/2000/svg" width="102" height="122" viewBox="0 0 102 122"><defs><style>.b{fill:#152177}</style></defs><path fill="none" d="M0 0h102v122H0z"/><path class="b" d="M31.48 89.81v5.08H30V82.35h3.4a5.44 5.44 0 0 1 3.4.88 3.25 3.25 0 0 1 1.11 2.68 3.4 3.4 0 0 1-2.53 3.39l3.4 5.7h-1.7l-3-5.15zm0-1.28h2a3.51 3.51 0 0 0 2.28-.61 2.35 2.35 0 0 0 .73-1.84 2.15 2.15 0 0 0-.82-1.9 4 4 0 0 0-2.38-.54h-1.81zm13.28 6.6a4.37 4.37 0 0 1-3.31-1.27 4.88 4.88 0 0 1-1.23-3.55 5.39 5.39 0 0 1 1.14-3.62 3.75 3.75 0 0 1 3-1.36 3.59 3.59 0 0 1 2.82 1.17 4.5 4.5 0 0 1 1 3.09v.91h-6.46a3.72 3.72 0 0 0 .78 2.5 3 3 0 0 0 2.26.86 7.65 7.65 0 0 0 3.08-.7v1.28a8.18 8.18 0 0 1-1.45.47 8.07 8.07 0 0 1-1.63.22zm-.39-8.59a2.27 2.27 0 0 0-1.82.74 3.3 3.3 0 0 0-.8 2h5a3.16 3.16 0 0 0-.6-2.08 2.14 2.14 0 0 0-1.78-.66zm12.15 8.35l-.27-1.34h-.15a3.89 3.89 0 0 1-1.41 1.2 4.31 4.31 0 0 1-1.7.31 3.21 3.21 0 0 1-2.21-.71 2.62 2.62 0 0 1-.78-2.07c0-1.92 1.55-2.92 4.61-3h1.6v-.59a2.41 2.41 0 0 0-.48-1.7 2 2 0 0 0-1.53-.52 6 6 0 0 0-2.68.73l-.48-1a7 7 0 0 1 3.23-.81 3.73 3.73 0 0 1 2.52.74 3.19 3.19 0 0 1 .81 2.41v6.39zm-3.24-1a3 3 0 0 0 2.11-.7 2.65 2.65 0 0 0 .71-2v-.85h-1.44a5.14 5.14 0 0 0-2.47.55 1.58 1.58 0 0 0-.77 1.45 1.48 1.48 0 0 0 .48 1.19 1.93 1.93 0 0 0 1.38.46zm11.06 1.24a4 4 0 0 1-3.14-1.26 5.18 5.18 0 0 1-1.12-3.57 5.32 5.32 0 0 1 1.12-3.68 4.18 4.18 0 0 1 3.26-1.29 6.16 6.16 0 0 1 1.36.15 3.82 3.82 0 0 1 1.07.34L66.45 87a6.14 6.14 0 0 0-1-.32 5.58 5.58 0 0 0-1-.12c-1.94 0-2.89 1.22-2.89 3.68a4.4 4.4 0 0 0 .7 2.68 2.5 2.5 0 0 0 2.09.93 6.37 6.37 0 0 0 2.43-.51v1.25a5.16 5.16 0 0 1-2.44.54zM72.06 94a4.45 4.45 0 0 0 .73 0l.57-.1v1a2.36 2.36 0 0 1-.69.19 5.48 5.48 0 0 1-.81 0c-1.84 0-2.75-1-2.75-2.89v-5.58h-1.36v-.69l1.36-.6.59-2h.83v2.17h2.76v1.12h-2.76v5.56a2 2 0 0 0 .41 1.32 1.44 1.44 0 0 0 1.12.5z"/><path d="M80.16 39c0-3.84-4.83-7.49-12.26-9.76 1.7-7.54.95-13.55-2.4-15.45a5.24 5.24 0 0 0-2.6-.66c-3.26 0-7.55 2.32-11.9 6.35-4.33-4-8.62-6.3-11.9-6.3a5.16 5.16 0 0 0-2.69.66c-3.4 1.91-4.09 7.9-2.36 15.42-7.39 2.27-12.2 5.91-12.2 9.74s4.82 7.51 12.25 9.78c-1.7 7.52-1 13.55 2.4 15.45a5.29 5.29 0 0 0 2.67.66c3.26 0 7.55-2.32 11.9-6.35 4.32 4 8.6 6.3 11.9 6.3a5.33 5.33 0 0 0 2.68-.66c3.4-1.93 4.1-7.91 2.38-15.42 7.31-2.3 12.13-5.94 12.13-9.76zM62.9 15.72a2.7 2.7 0 0 1 1.34.31c1.7.93 2.33 4.44 1.7 9a33.51 33.51 0 0 1-.59 3.47 62.28 62.28 0 0 0-7.55-1.27 62.2 62.2 0 0 0-4.95-5.93c3.88-3.59 7.52-5.56 10.05-5.58zM40.46 45c.56 1 1.14 1.88 1.7 2.78-1.7-.26-3.32-.56-4.88-.93a49.13 49.13 0 0 1 1.62-4.68c.49.99 1.02 1.89 1.56 2.83zm-3.2-14c1.57-.38 3.2-.7 4.9-.94-.58.92-1.16 1.85-1.7 2.8s-1.07 1.9-1.55 2.85c-.64-1.5-1.19-3.09-1.65-4.63zm3.05 8c.73-1.57 1.56-3.17 2.44-4.73s1.89-3.11 2.88-4.52c1.7-.15 3.57-.24 5.37-.24a39.84 39.84 0 0 1 5.36.24c1 1.41 1.93 2.91 2.87 4.49s1.7 3.14 2.46 4.73c-.74 1.57-1.56 3.17-2.44 4.73s-1.89 3.11-2.88 4.52c-1.7.15-3.57.24-5.37.24s-3.59-.09-5.35-.22c-1-1.43-1.94-2.93-2.88-4.51A42.35 42.35 0 0 1 40.31 39zm21.23 6c.54-.94 1.05-1.89 1.55-2.84.63 1.57 1.17 3.17 1.7 4.71-1.57.37-3.2.69-4.9 1C60.4 46.9 61 46 61.54 45zm0-12.09C61 32 60.4 31 59.84 30.14a46 46 0 0 1 4.88.94c-.44 1.52-1 3.1-1.6 4.67-.53-1-1-1.86-1.6-2.84zM54.28 27c-1.07 0-2.16-.09-3.26-.09s-2.23 0-3.3.09A47.26 47.26 0 0 1 51 23.16 49.1 49.1 0 0 1 54.26 27zM37.74 16.1a2.59 2.59 0 0 1 1.36-.31c2.47 0 6.1 1.95 10 5.53a58.65 58.65 0 0 0-4.88 5.89 57 57 0 0 0-7.57 1.31 42.6 42.6 0 0 1-.62-3.39c-.58-4.58.09-8.13 1.71-9.03zm-3 30.09c-1.17-.37-2.29-.78-3.31-1.22-4.22-1.78-6.94-4.13-6.94-6s2.72-4.22 6.94-6c1-.42 2.12-.81 3.28-1.18A57.46 57.46 0 0 0 37.4 39a54.34 54.34 0 0 0-2.67 7.19zm4.37 16a2.92 2.92 0 0 1-1.34-.3c-1.62-.94-2.33-4.46-1.7-9 .14-1.13.34-2.27.59-3.38a62.31 62.31 0 0 0 7.55 1.28 59.46 59.46 0 0 0 4.95 5.92c-3.91 3.54-7.54 5.51-10.06 5.51zM51 54.8a45.83 45.83 0 0 1-3.3-3.8h6.67A45.06 45.06 0 0 1 51 54.8zm13.24 7.06a2.67 2.67 0 0 1-1.36.31c-2.46 0-6.1-2-10-5.52a59 59 0 0 0 4.9-5.92 57 57 0 0 0 7.57-1.3c.27 1.2.49 2.35.62 3.39.57 4.59-.11 8.18-1.73 9zm6.33-16.94c-1 .44-2.14.83-3.3 1.2A56.88 56.88 0 0 0 64.6 39a55.57 55.57 0 0 0 2.63-7.18c1.18.37 2.3.78 3.4 1.2 4.17 1.78 6.89 4.14 6.89 6s-2.72 4.22-6.94 6z" fill="#7555b3"/><ellipse class="b" cx="50.98" cy="38.97" rx="5.44" ry="5.42"/></svg>