<svg xmlns="http://www.w3.org/2000/svg" width="102" height="122" viewBox="0 0 102 122"><defs><style>.b{fill:#152177}.c{fill:#7555b3}.d{fill:#d789ef}.e{fill:#fff}</style></defs><path fill="none" d="M0 0h102v122H0z"/><path class="b" d="M31.86 89.81v5.08h-1.48V82.35h3.48a5.44 5.44 0 0 1 3.4.88 3.19 3.19 0 0 1 1.11 2.68 3.4 3.4 0 0 1-2.53 3.39l3.4 5.7h-1.7l-3-5.15zm0-1.26h2a3.49 3.49 0 0 0 2.28-.63 2.28 2.28 0 0 0 .73-1.84 2.15 2.15 0 0 0-.75-1.82 4.14 4.14 0 0 0-2.36-.54h-1.9zm13.27 6.59a4.32 4.32 0 0 1-3.31-1.28 4.92 4.92 0 0 1-1.22-3.55 5.38 5.38 0 0 1 1.13-3.62 3.75 3.75 0 0 1 3-1.36 3.59 3.59 0 0 1 2.82 1.17 4.5 4.5 0 0 1 1 3.09v.91h-6.46a3.76 3.76 0 0 0 .84 2.5 3 3 0 0 0 2.26.86 7.54 7.54 0 0 0 3-.7v1.28a6.74 6.74 0 0 1-1.44.47 7 7 0 0 1-1.62.23zm-.39-8.6a2.33 2.33 0 0 0-1.81.74 3.38 3.38 0 0 0-.8 2h5a3.17 3.17 0 0 0-.61-2.08 2.16 2.16 0 0 0-1.78-.66zm12.79 7.16h-.09a3.39 3.39 0 0 1-3 1.44 3.5 3.5 0 0 1-2.89-1.27 5.61 5.61 0 0 1-1-3.61 5.77 5.77 0 0 1 1-3.64 3.57 3.57 0 0 1 2.89-1.29 3.49 3.49 0 0 1 3 1.41h.11v-5.2H59v13.35h-1.2zm-2.87.24a2.67 2.67 0 0 0 2.14-.75 4 4 0 0 0 .64-2.57v-.31a4.71 4.71 0 0 0-.66-2.86 2.52 2.52 0 0 0-2.14-.86 2.18 2.18 0 0 0-1.94 1 4.86 4.86 0 0 0-.7 2.74 4.6 4.6 0 0 0 .7 2.67 2.23 2.23 0 0 0 1.96.94zM61.81 83a1 1 0 0 1 .24-.71.89.89 0 0 1 .61-.24.85.85 0 0 1 .6.24.93.93 0 0 1 .25.71 1 1 0 0 1-.25.73.91.91 0 0 1-1.21 0 1.09 1.09 0 0 1-.24-.73zm1.57 11.86h-1.45V85.5h1.45zm9.16-2.48a2.33 2.33 0 0 1-1 2 4.59 4.59 0 0 1-2.77.73 5.78 5.78 0 0 1-2.94-.61v-1.31a7.17 7.17 0 0 0 1.46.55 6 6 0 0 0 1.52.2 3.37 3.37 0 0 0 1.7-.36 1.2 1.2 0 0 0 .61-1.1 1.17 1.17 0 0 0-.5-.93 7.11 7.11 0 0 0-1.87-.93 10.48 10.48 0 0 1-1.85-.81 2.38 2.38 0 0 1-.8-.81 2.24 2.24 0 0 1 .66-3 4.28 4.28 0 0 1 2.58-.67 7.48 7.48 0 0 1 3 .62l-.5 1.17a6.66 6.66 0 0 0-2.59-.59 3 3 0 0 0-1.55.32 1 1 0 0 0-.51.88 1.26 1.26 0 0 0 .19.65 2.36 2.36 0 0 0 .63.5 14.81 14.81 0 0 0 1.7.7A6.26 6.26 0 0 1 72 90.86a2.13 2.13 0 0 1 .54 1.52z"/><path class="c" d="M82.3 57.88c-3.62 1.88-22.41 9.58-26.4 11.59s-6.23 2-9.37.56-23.15-9.56-26.76-11.27C18 57.9 17 57.17 17 56.49v-6.77s26-5.66 30.23-7.16 5.64-1.55 9.23-.25S81.43 47.44 85 48.75v6.78c0 .67-.82 1.4-2.67 2.37z"/><path class="d" d="M82.3 51c-3.62 1.88-22.41 9.57-26.4 11.65s-6.23 2-9.37.56S23.38 53.7 19.77 52s-3.67-2.85-.13-4.29S43 38.55 47.26 37s5.64-1.54 9.23-.24 22.24 8.71 25.77 10 3.67 2.36 0 4.24z"/><path class="c" d="M82.3 46.72c-3.62 1.88-22.41 9.59-26.4 11.65s-6.23 2.07-9.37.56-23.15-9.55-26.76-11.27C18 46.8 17 46.09 17 45.39v-6.77S43 33 47.23 31.48s5.64-1.56 9.23-.25 24.94 5.08 28.47 6.44v6.78c.07.55-.78 1.3-2.63 2.27z"/><path class="d" d="M82.3 39.87c-3.62 1.88-22.41 9.59-26.4 11.66s-6.23 2.07-9.37.56-23.15-9.56-26.76-11.27-3.67-2.9-.13-4.27S43 27.38 47.26 25.89s5.64-1.56 9.23-.25 22.24 8.71 25.77 9.94 3.67 2.36 0 4.24z"/><path class="c" d="M82.3 35.14C78.68 37 59.89 44.73 55.9 46.8s-6.23 2.07-9.37.56-23.15-9.56-26.76-11.27C18 35.23 17 34.52 17 33.89v-6.78S43 21.47 47.23 20s5.64-1.56 9.23-.26 24.94 5.09 28.47 6.44v6.78c0 .68-.81 1.42-2.67 2.37z"/><path class="d" d="M82.3 28.3c-3.62 1.88-22.41 9.59-26.4 11.7s-6.23 2.06-9.37.55S23.38 31 19.77 29.25s-3.67-2.9-.13-4.27S43 15.81 47.26 14.32s5.64-1.56 9.23-.26 22.24 8.71 25.77 10 3.67 2.36 0 4.24z"/><path class="e" d="M59.91 21.71l-5.9.61-1.31 3.16-2.12-3.52-6.81-.61 5.07-1.83-1.51-2.8 4.74 1.85 4.47-1.46-1.2 2.9 4.57 1.7zm-7.57 15.33L41.36 32.5l15.74-2.41-4.76 6.95z"/><ellipse class="e" cx="37.11" cy="26.72" rx="8.41" ry="3.25"/><path class="b" d="M66.86 22.57l9.32 3.68-9.32 3.66v-7.34zm-10.3 4.07l10.3-4.07v7.34l-1 .39-9.3-3.66z"/></svg>