<svg xmlns="http://www.w3.org/2000/svg" width="102" height="122" viewBox="0 0 102 122"><defs><style>.b{fill:#152177}.e{fill:#fff}</style></defs><path fill="none" d="M0 0h102v122H0z"/><path class="b" d="M58.11 29.4h8.19v8.3h4.11a17.82 17.82 0 0 0 5.65-1 14.69 14.69 0 0 0 2.7-1.17 10.18 10.18 0 0 1-1.9-5.25 10.93 10.93 0 0 1 2-7.79l.86-1 1 .82a12.87 12.87 0 0 1 5.1 8.2 12.47 12.47 0 0 1 9.45.86l1.11.65-.58 1.15c-2.31 4.47-7.12 5.86-11.9 5.62C76.92 56.27 61.59 64.56 43 64.56c-9.62 0-18.43-3.56-23.46-12l-.08-.14-.75-1.56A23.32 23.32 0 0 1 16.83 39l.17-1.25h7v-8.3h8V21.3h16.31v-8.12h9.78V29.4"/><path d="M84.47 32.47c.55-4.22-2.63-7.54-4.59-9.12-2.28 2.61-2.62 9.47.94 12.35a17.11 17.11 0 0 1-10.46 3.39H18.19a21.94 21.94 0 0 0 2.21 12l.6 1.12c.4.64.8 1.25 1.25 1.84 2.14.14 4.11.19 5.93.14a28.8 28.8 0 0 0 8.65-1.26.64.64 0 0 1 .8.39.63.63 0 0 1-.39.8l-.92.29a27.53 27.53 0 0 1-6 1h-3.41c-1.05 0-2.24 0-3.5-.08 4.35 4.86 11.13 7.78 19.67 7.78 18 0 33.32-8 40.08-25.84 4.81.49 9.42-.73 11.53-4.82a11.41 11.41 0 0 0-10.2-.08" fill="#d789ef"/><path d="M18.29 44.46a20.81 20.81 0 0 0 2.11 6.66l.6 1.09c.4.64.8 1.25 1.25 1.84 2.14.14 4.11.19 5.93.14a28.8 28.8 0 0 0 8.65-1.26.64.64 0 0 1 .8.39.63.63 0 0 1-.39.8l-.92.29a28.2 28.2 0 0 1-6.12 1h-6.86c4.34 4.86 11.17 7.8 19.7 7.8 15.42 0 28.9-5.83 36.66-18.74H18.29m15.13-13.72h7.05v7.03h-7.05zm8.13-8.11h7.05v7.03h-7.05zm8.14 8.11h7.05v7.03h-7.05zm0-16.21h7.05v7.03h-7.05z" fill="#7555b3"/><path class="e" d="M40 49.14a1.95 1.95 0 1 1-.76 3.74 1.93 1.93 0 0 1-1.19-1.81 1.93 1.93 0 0 1 2-1.93"/><path class="b" d="M40 49.73a1.44 1.44 0 0 1 .5.1.58.58 0 0 0-.29.49.56.56 0 0 0 .56.51.51.51 0 0 0 .49-.28 1.33 1.33 0 0 1 0 1.35 1.36 1.36 0 0 1-1.21.63 1.39 1.39 0 0 1 0-2.78M5.61 45.17h90.52c-2-.5-6.23-1.17-5.52-3.74-3.59 4.13-12.24 2.9-14.42.85-2.43 3.52-16.57 2.18-17.56-.56-3 3.57-12.48 3.57-15.52 0-1 2.74-15.13 4-17.61.64-2.19 2-10.83 3.29-14.42-.85.82 2.55-3.5 3.16-5.47 3.66"/><path class="e" d="M45.2 63.17a17.22 17.22 0 0 1-8.94-8.76 29.22 29.22 0 0 1-6.44 1h-3c-1 0-2.46 0-3.79-.1 4.42 4.41 9.86 7.8 19.94 7.85h2.23"/><path class="b" d="M33.56 88.53a6.35 6.35 0 0 1-1.7 4.78A6.72 6.72 0 0 1 27 95h-3.5V82.35h3.88A6.25 6.25 0 0 1 31.93 84a6.21 6.21 0 0 1 1.63 4.53zm-1.55 0a5.1 5.1 0 0 0-1.24-3.71 5 5 0 0 0-3.71-1.25h-2.12V93.7h1.78a5.43 5.43 0 0 0 4-1.3A5 5 0 0 0 32 88.59zm12.34 1.7a5.19 5.19 0 0 1-1.17 3.61 4.56 4.56 0 0 1-5.47.69 3.91 3.91 0 0 1-1.53-1.69 5.86 5.86 0 0 1-.48-2.61 5.19 5.19 0 0 1 1.17-3.61 4.15 4.15 0 0 1 3.22-1.29 4 4 0 0 1 3.16 1.32 5.2 5.2 0 0 1 1.1 3.58zm-7.22 0a4.44 4.44 0 0 0 .73 2.77A2.52 2.52 0 0 0 40 94a2.56 2.56 0 0 0 2.14-1 5.56 5.56 0 0 0 0-5.51 3 3 0 0 0-4.3 0 4.46 4.46 0 0 0-.71 2.74zm13.53 4.91a4 4 0 0 1-3.18-1.27 5.08 5.08 0 0 1-1.14-3.57 5.38 5.38 0 0 1 1.16-3.68 4.16 4.16 0 0 1 3.26-1.29 6.16 6.16 0 0 1 1.36.15 5.11 5.11 0 0 1 1.09.34L52.77 87a7.36 7.36 0 0 0-1-.32 4.8 4.8 0 0 0-1-.12c-1.92 0-2.89 1.22-2.89 3.68a4.53 4.53 0 0 0 .65 2.76 2.53 2.53 0 0 0 2.1.93 6.37 6.37 0 0 0 2.43-.51v1.27a5.22 5.22 0 0 1-2.4.45zm6.07-5a15.59 15.59 0 0 1 1.14-1.39l3.06-3.24h1.7l-3.86 4 4.13 5.36h-1.7l-3.4-4.46-1.09.93v3.53H55.3V81.54h1.41v8.59zm11.9 5a4.33 4.33 0 0 1-3.32-1.28 4.92 4.92 0 0 1-1.22-3.55 5.39 5.39 0 0 1 1.14-3.62 3.74 3.74 0 0 1 3-1.36 3.61 3.61 0 0 1 2.83 1.17 4.44 4.44 0 0 1 1 3.09v.91h-6.47a3.66 3.66 0 0 0 .83 2.5 2.94 2.94 0 0 0 2.26.87 7.55 7.55 0 0 0 3-.7v1.28a8.29 8.29 0 0 1-3.08.67zm-.39-8.6a2.32 2.32 0 0 0-1.82.74 3.25 3.25 0 0 0-.8 2h4.95a3.16 3.16 0 0 0-.6-2.08 2.15 2.15 0 0 0-1.73-.66zm10.66-1.21a6.06 6.06 0 0 1 1.12.1l-.19 1.34a5.19 5.19 0 0 0-1-.13 2.48 2.48 0 0 0-2 .93 3.38 3.38 0 0 0-.83 2.32V95h-1.44v-9.5h1.19l.17 1.7a3.83 3.83 0 0 1 1.28-1.43 2.82 2.82 0 0 1 1.7-.44z"/></svg>