<svg xmlns="http://www.w3.org/2000/svg" width="102" height="122" viewBox="0 0 102 122"><defs><style>.b{fill:#152177}.c{fill:#d789ef}.d{fill:#7555b3}</style></defs><path fill="none" d="M0 0h102v122H0z"/><path class="b" d="M13.26 83.48A4.13 4.13 0 0 0 10 84.86a5.53 5.53 0 0 0-1.23 3.79 5.66 5.66 0 0 0 1.16 3.83 4.2 4.2 0 0 0 3.4 1.36 11.9 11.9 0 0 0 3-.48v1.27a9.15 9.15 0 0 1-3.24.5 5.55 5.55 0 0 1-4.32-1.7 7 7 0 0 1-1.51-4.81A7.38 7.38 0 0 1 8 85.23a5.3 5.3 0 0 1 2-2.2 6.45 6.45 0 0 1 3.25-.8 7.75 7.75 0 0 1 3.48.73l-.63 1.25a6.81 6.81 0 0 0-2.84-.73zm11.39 11.41l-.29-1.34a4.18 4.18 0 0 1-1.36 1.2 4.49 4.49 0 0 1-1.7.31 3.21 3.21 0 0 1-2.3-.71 2.73 2.73 0 0 1-.8-2.07q0-2.88 4.59-3h1.7v-.59a2.41 2.41 0 0 0-.48-1.7 1.93 1.93 0 0 0-1.54-.52 5.93 5.93 0 0 0-2.67.73l-.44-1.11a6.3 6.3 0 0 1 1.53-.59 6.45 6.45 0 0 1 1.7-.22 3.65 3.65 0 0 1 2.51.75 3.12 3.12 0 0 1 .82 2.4v6.46zm-3.25-1a2.94 2.94 0 0 0 2.11-.7 2.66 2.66 0 0 0 .77-2v-.84h-1.45a5.12 5.12 0 0 0-2.46.54 1.54 1.54 0 0 0-.75 1.46 1.47 1.47 0 0 0 .46 1.18 2 2 0 0 0 1.32.42zm11.68 1.24a4.17 4.17 0 0 1-1.7-.34 3.27 3.27 0 0 1-1.29-1H30a13.61 13.61 0 0 1 .1 1.56v3.9h-1.44V85.5h1.16l.2 1.31a3.37 3.37 0 0 1 1.29-1.14 4.17 4.17 0 0 1 1.7-.34 3.54 3.54 0 0 1 2.93 1.29 6.86 6.86 0 0 1 0 7.22 3.55 3.55 0 0 1-2.86 1.29zm-.2-8.58a2.6 2.6 0 0 0-2.11.8 4.21 4.21 0 0 0-.66 2.6v.32a4.76 4.76 0 0 0 .66 2.85 2.55 2.55 0 0 0 2.14.86 2.23 2.23 0 0 0 1.92-1 4.53 4.53 0 0 0 .7-2.73 4.42 4.42 0 0 0-.7-2.71 2.24 2.24 0 0 0-1.95-.99zm6.53-3.52a.88.88 0 0 1 .25-.71.79.79 0 0 1 .6-.24.89.89 0 0 1 .61.24 1 1 0 0 1 .24.71 1.09 1.09 0 0 1-.24.73.88.88 0 0 1-.61.23.82.82 0 0 1-.6-.23 1 1 0 0 1-.25-.73zM41 94.89h-1.46V85.5H41zm9.16-2.51a2.32 2.32 0 0 1-1 2 4.62 4.62 0 0 1-2.77.72 6 6 0 0 1-3-.6v-1.31a7.34 7.34 0 0 0 1.48.55 5.83 5.83 0 0 0 1.5.2 3.35 3.35 0 0 0 1.7-.36 1.18 1.18 0 0 0 .61-1.1 1.25 1.25 0 0 0-.44-1 8.27 8.27 0 0 0-1.89-.92 11.71 11.71 0 0 1-1.87-.86 2.44 2.44 0 0 1-.83-.83 2.09 2.09 0 0 1-.27-1.12 2.14 2.14 0 0 1 .97-1.8 4.5 4.5 0 0 1 2.6-.66 7.58 7.58 0 0 1 3.05.66l-.51 1.17a6.73 6.73 0 0 0-2.61-.6 2.91 2.91 0 0 0-1.53.33 1 1 0 0 0-.52.88 1 1 0 0 0 .2.64 2.21 2.21 0 0 0 .63.51 14.75 14.75 0 0 0 1.7.69 6.18 6.18 0 0 1 2.28 1.24 2.08 2.08 0 0 1 .49 1.57zm5.38 1.57a4.45 4.45 0 0 0 .73 0l.56-.11v1a2 2 0 0 1-.68.18 3.75 3.75 0 0 1-.82 0c-1.83 0-2.75-.94-2.75-2.88v-5.52h-1.36v-.67l1.36-.59.61-2H54v2.18h2.75v1.12H54v5.56a1.93 1.93 0 0 0 .41 1.32 1.43 1.43 0 0 0 1.13.41zm7.53-8.63a6 6 0 0 1 1.12.1L64 86.77a5.19 5.19 0 0 0-1-.13 2.46 2.46 0 0 0-2 .93 3.41 3.41 0 0 0-.84 2.32v5.06h-1.43V85.5h1.19l.16 1.7a4.06 4.06 0 0 1 1.27-1.43 2.9 2.9 0 0 1 1.72-.44zm8.74 9.56l-.29-1.34a4.28 4.28 0 0 1-1.41 1.2 4.49 4.49 0 0 1-1.7.31 3.21 3.21 0 0 1-2.21-.71 2.64 2.64 0 0 1-.8-2.07q0-2.88 4.59-3h1.61v-.59a2.36 2.36 0 0 0-.47-1.7 2 2 0 0 0-1.55-.52 6 6 0 0 0-2.69.73l-.59-1a6.61 6.61 0 0 1 1.55-.59 6.06 6.06 0 0 1 1.7-.22 3.64 3.64 0 0 1 2.51.74 3.16 3.16 0 0 1 .82 2.41v6.39zm-3.25-1a2.94 2.94 0 0 0 2.11-.7 2.67 2.67 0 0 0 .73-2v-.85H70a5.24 5.24 0 0 0-2.46.55 1.58 1.58 0 0 0-.77 1.45 1.53 1.53 0 0 0 .48 1.19 2 2 0 0 0 1.36.46zm13.75 1v-6a2.43 2.43 0 0 0-.52-1.7 2.13 2.13 0 0 0-1.7-.57 2.72 2.72 0 0 0-2.18.8 4.12 4.12 0 0 0-.7 2.66v4.86h-1.42V85.5h1.15l.24 1.31a2.84 2.84 0 0 1 1.24-1.09 4.15 4.15 0 0 1 1.7-.39 3.59 3.59 0 0 1 2.58.83 3.43 3.43 0 0 1 .87 2.63v6.1zm12.58-4.66a5.21 5.21 0 0 1-1.17 3.61 4.12 4.12 0 0 1-3.21 1.29 4.17 4.17 0 0 1-2.26-.6 3.91 3.91 0 0 1-1.53-1.69 6 6 0 0 1-.53-2.61 5.13 5.13 0 0 1 1.16-3.61 4.54 4.54 0 0 1 6.37 0 5.13 5.13 0 0 1 1.17 3.62zm-7.22 0a4.44 4.44 0 0 0 .73 2.73 2.52 2.52 0 0 0 2.14.95 2.56 2.56 0 0 0 2.14-.95 4.48 4.48 0 0 0 .82-2.76 4.55 4.55 0 0 0-.73-2.75 3 3 0 0 0-4.3 0 4.5 4.5 0 0 0-.8 2.79z"/><path class="c" d="M68.68 27.36a19.74 19.74 0 0 0-2.26-2.66 18.63 18.63 0 0 0-2.69-2.23L62 24.82a16 16 0 0 0-2.53-1.49l-1.18 2.62a13.58 13.58 0 0 1 2.16 1.24 15.28 15.28 0 0 1 1.92 1.57l-2 2-2 2a8.85 8.85 0 0 1 1 1.14 7.76 7.76 0 0 1 .63 1.33l5.21-2.43 2.61-1.2 2.6-1.22a18 18 0 0 0-1.74-3.02zm4.71-3.28a25.4 25.4 0 0 0-2.91-3.39 23.2 23.2 0 0 0-3.4-2.86 25.64 25.64 0 0 0-12.54-4.55l-.31 2.8a23.78 23.78 0 0 1 3.93.69l-.73 2.77a21.39 21.39 0 0 1 3.28 1.18 21.84 21.84 0 0 1 3 1.7 18.63 18.63 0 0 1 2.69 2.23 19.74 19.74 0 0 1 2.26 2.66 18.28 18.28 0 0 1 1.7 3l2.72-1.17 2.62-1.19a25.29 25.29 0 0 0-2.31-3.87zm-12.68-3.39a22.55 22.55 0 0 0-3.28-1.19 20.86 20.86 0 0 0-3.43-.55h-3.4a20.49 20.49 0 0 0-3.4.59l.8 2.74a15.64 15.64 0 0 0-2.8 1l1.18 2.67a12.12 12.12 0 0 1 2.34-.85 12.64 12.64 0 0 1 2.28-.43h2.5a13.5 13.5 0 0 1 2.45.42 12.83 12.83 0 0 1 2.34.85l1.21-2.61a17.15 17.15 0 0 1 2.6 1.49l1.7-2.35a21.9 21.9 0 0 0-3.09-1.75zm-6.48-4.61l.25-2.85c-.74-.06-1.49-.1-2.24-.1a17 17 0 0 0-2.26.1 25.56 25.56 0 0 0-4.42.77 25.29 25.29 0 0 0-8.16 3.77 23.91 23.91 0 0 0-3.4 2.87l2 2a23.64 23.64 0 0 1 3.08-2.56l1.7 2.36a22.42 22.42 0 0 1 3-1.7 21 21 0 0 1 3.28-1.18 21.6 21.6 0 0 1 3.4-.6h3.4a22 22 0 0 1 3.4.6l.74-2.73a22.52 22.52 0 0 0-3.77-.75zm-6.44 6.24L47 19.54a21 21 0 0 0-3.28 1.18 22 22 0 0 0-3 1.7 20.35 20.35 0 0 0-4.95 4.89l2.35 1.7a17.67 17.67 0 0 0-1.51 2.59l2.62 1.2a15.85 15.85 0 0 1 1.25-2.15A14.18 14.18 0 0 1 44 27.11a13.58 13.58 0 0 1 2.16-1.24L45 23.26a16.27 16.27 0 0 1 2.79-.94zm-8.69-2.21a23.64 23.64 0 0 0-3.1 2.56l-2-2a26.39 26.39 0 0 0-5.1 7.28 25.48 25.48 0 0 0-2.36 8.64l2.87.25a22.82 22.82 0 0 1 .71-3.89l2.77.75A22.73 22.73 0 0 1 34 30.38a18.69 18.69 0 0 1 1.7-3 20.44 20.44 0 0 1 5.1-4.89zM34 47.44a20.3 20.3 0 0 1-1.19-3.3 21.69 21.69 0 0 1-.6-3.39v-1.69a16.61 16.61 0 0 1 .11-1.87 18.69 18.69 0 0 1 .61-3.39l-2.77-.74a21.76 21.76 0 0 0-.72 3.89l-2.87-.25c0 .77-.1 1.57-.1 2.37v2.13a27.52 27.52 0 0 0 .73 4.31 25.65 25.65 0 0 0 1.53 4.25A25.2 25.2 0 0 0 31 53.71l2.37-1.69a23.73 23.73 0 0 1-2-3.49zm4-7.27v-2.5a13.64 13.64 0 0 1 .44-2.46 15.42 15.42 0 0 1 .89-2.34l-2.62-1.2a18 18 0 0 1 1.51-2.59l-2.34-1.7a18.28 18.28 0 0 0-1.7 3 21.33 21.33 0 0 0-1.23 3.29 19.32 19.32 0 0 0-.61 3.38 16.74 16.74 0 0 0-.14 1.9v1.69a20.38 20.38 0 0 0 .59 3.39l2.77-.74a16.77 16.77 0 0 0 1 2.83l2.54-1.17a13.12 13.12 0 0 1-.85-2.37 14.71 14.71 0 0 1-.36-2.47zm5.78 17.07a21 21 0 0 1-3-1.78A19 19 0 0 1 38 53.19a20.84 20.84 0 0 1-2.29-2.76 20 20 0 0 1-1.7-3l-2.63 1.22a23.73 23.73 0 0 0 2 3.49L31 53.83a26 26 0 0 0 6.38 6.27 25.36 25.36 0 0 0 3.91 2.27l1.19-2.59a24.28 24.28 0 0 0 3.77 1.37l.75-2.76a21 21 0 0 1-3.35-1.22zm2.43-5.2A14.66 14.66 0 0 1 44 50.77a14.23 14.23 0 0 1-1.93-1.7 14.84 14.84 0 0 1-1.61-1.93 13.78 13.78 0 0 1-1.36-2.19l-2.62 1.21a15.94 15.94 0 0 1-1-2.83l-2.72.73A20.51 20.51 0 0 0 34 47.44a18.56 18.56 0 0 0 1.7 3 20.07 20.07 0 0 0 2.24 2.7 19 19 0 0 0 2.71 2.27l1.7-2.34a17.76 17.76 0 0 0 5.45 2.56l.75-2.68a14.52 14.52 0 0 1-2.45-1zm19.4 5.77a23.4 23.4 0 0 1-3.49 2 24.14 24.14 0 0 1-3.79 1.37l-.75-2.76a23.9 23.9 0 0 1-3.48.61h-3.4a24.27 24.27 0 0 1-3.49-.61l-.74 2.76a23.7 23.7 0 0 1-3.93-1.44l-1.22 2.59a26.7 26.7 0 0 0 4.21 1.62 26 26 0 0 0 4.47.78c.74 0 1.51.1 2.27.1a17.09 17.09 0 0 0 2.27-.1 25.63 25.63 0 0 0 12.64-4.61zm5.64-5.67l-2.36-1.7a18.67 18.67 0 0 1-2.24 2.7 19 19 0 0 1-2.71 2.27 21 21 0 0 1-3 1.78 22.73 22.73 0 0 1-3.32 1.22l.75 2.76a24.14 24.14 0 0 0 3.79-1.37 23.4 23.4 0 0 0 3.49-2l1.7 2.36a27 27 0 0 0 3.4-2.92 26.09 26.09 0 0 0 2.91-3.47zm-4.75-3.29l-2.36-1.69a16.51 16.51 0 0 1-1.67 2 14.08 14.08 0 0 1-1.93 1.69l1.7 2.36a18.37 18.37 0 0 1-2.6 1.52l1.2 2.6a20.59 20.59 0 0 0 3-1.78 20.28 20.28 0 0 0 2.7-2.27 18.67 18.67 0 0 0 2.24-2.7zm-4.25 4.27l-1.7-2.35a14.66 14.66 0 0 1-2.17 1.27 15.36 15.36 0 0 1-2.38.91 13.86 13.86 0 0 1-2.48.44H51a13.86 13.86 0 0 1-2.5-.44l-.75 2.78a17.76 17.76 0 0 1-5.45-2.56l-1.7 2.34a20.49 20.49 0 0 0 3 1.78 21.91 21.91 0 0 0 3.4 1.17 24.27 24.27 0 0 0 3.49.61h3.4a24.14 24.14 0 0 0 3.48-.61 21.63 21.63 0 0 0 3.32-1.22l-1.26-2.59a18 18 0 0 0 2.76-1.6z"/><path class="c" d="M68.68 27.36a19.74 19.74 0 0 0-2.26-2.66 18.63 18.63 0 0 0-2.69-2.23L62 24.82a16 16 0 0 0-2.53-1.49l-1.18 2.62a13.58 13.58 0 0 1 2.16 1.24 15.28 15.28 0 0 1 1.92 1.57l-2 2-2 2a8.85 8.85 0 0 1 1 1.14 7.76 7.76 0 0 1 .63 1.33l5.21-2.43 2.61-1.2 2.6-1.22a18 18 0 0 0-1.7-3"/><path class="b" d="M73.39 24.08a25.4 25.4 0 0 0-2.91-3.39 23.2 23.2 0 0 0-3.4-2.86 25.64 25.64 0 0 0-12.54-4.55l-.31 2.8a23.78 23.78 0 0 1 3.93.69l-.73 2.77a21.39 21.39 0 0 1 3.28 1.18 21.84 21.84 0 0 1 3 1.7 18.63 18.63 0 0 1 2.69 2.23 19.74 19.74 0 0 1 2.26 2.66 18.28 18.28 0 0 1 1.7 3l2.72-1.17 2.62-1.19a24.35 24.35 0 0 0-2.28-3.88"/><path class="b" d="M60.71 20.72a21.39 21.39 0 0 0-3.28-1.18 22 22 0 0 0-3.43-.59h-3.4a21.6 21.6 0 0 0-3.4.6l.8 2.77a16.42 16.42 0 0 0-2.8 1l1.18 2.63a12.83 12.83 0 0 1 2.34-.85 14.75 14.75 0 0 1 2.28-.43h2.5a13.5 13.5 0 0 1 2.45.42 12.83 12.83 0 0 1 2.34.85l1.21-2.61a17.15 17.15 0 0 1 2.6 1.49l1.7-2.35a22.42 22.42 0 0 0-3-1.7"/><path class="d" d="M54.23 16.08l.25-2.85c-.74-.06-1.49-.1-2.24-.1a17 17 0 0 0-2.26.1 25.56 25.56 0 0 0-4.42.77 25.29 25.29 0 0 0-8.16 3.77 23.91 23.91 0 0 0-3.4 2.87l2 2a23.64 23.64 0 0 1 3.08-2.56l1.7 2.36a22.42 22.42 0 0 1 3-1.7 21 21 0 0 1 3.28-1.18 21.6 21.6 0 0 1 3.4-.6h3.4a22 22 0 0 1 3.4.6l.74-2.73a22.8 22.8 0 0 0-3.93-.7"/><path class="d" d="M47.79 22.32L47 19.54a21 21 0 0 0-3.28 1.18 22 22 0 0 0-3 1.7 20.35 20.35 0 0 0-4.95 4.89l2.35 1.7a17.67 17.67 0 0 0-1.51 2.59l2.62 1.2a15.85 15.85 0 0 1 1.25-2.15A14.18 14.18 0 0 1 44 27.11a13.58 13.58 0 0 1 2.16-1.24L45 23.26a16.22 16.22 0 0 1 2.81-1"/><path class="c" d="M39.1 20.11a23.64 23.64 0 0 0-3.1 2.56l-2-2a26.39 26.39 0 0 0-5.1 7.28 25.48 25.48 0 0 0-2.36 8.64l2.87.25a22.82 22.82 0 0 1 .71-3.89l2.77.75A22.73 22.73 0 0 1 34 30.38a18.69 18.69 0 0 1 1.7-3 20.44 20.44 0 0 1 5.1-4.89l-1.7-2.36"/><path class="d" d="M34 47.44a20.3 20.3 0 0 1-1.19-3.3 21.69 21.69 0 0 1-.6-3.39v-1.69a16.61 16.61 0 0 1 .11-1.87 18.69 18.69 0 0 1 .61-3.39l-2.77-.74a21.76 21.76 0 0 0-.72 3.89l-2.87-.25c0 .77-.1 1.57-.1 2.37v2.13a27.52 27.52 0 0 0 .73 4.31 25.65 25.65 0 0 0 1.53 4.25A25.2 25.2 0 0 0 31 53.71l2.37-1.69a23.73 23.73 0 0 1-2-3.49L34 47.44"/><path class="b" d="M37.89 40.11v-2.53a13.8 13.8 0 0 1 .44-2.46 16.55 16.55 0 0 1 .89-2.34l-2.62-1.2a18.61 18.61 0 0 1 1.51-2.59l-2.34-1.7a18.28 18.28 0 0 0-1.7 3 21.33 21.33 0 0 0-1.23 3.29 19.43 19.43 0 0 0-.61 3.39 16.56 16.56 0 0 0-.1 1.86v1.69a21.46 21.46 0 0 0 .59 3.43l2.78-.74a15.94 15.94 0 0 0 1 2.83l2.6-1.09a13.12 13.12 0 0 1-.85-2.37 14.81 14.81 0 0 1-.41-2.47"/><path class="c" d="M43.67 57.17a20.13 20.13 0 0 1-3-1.78 18.88 18.88 0 0 1-2.7-2.27 19.78 19.78 0 0 1-2.23-2.69 20 20 0 0 1-1.7-3l-2.66 1.22a23.73 23.73 0 0 0 2 3.49L31 53.83a26 26 0 0 0 6.38 6.27 25.36 25.36 0 0 0 3.91 2.27l1.19-2.59a24.28 24.28 0 0 0 3.77 1.37l.75-2.76a20.88 20.88 0 0 1-3.31-1.22"/><path class="c" d="M46.1 51.95a15.19 15.19 0 0 1-2.17-1.27A13.5 13.5 0 0 1 42 49a13.58 13.58 0 0 1-1.62-1.93 14.27 14.27 0 0 1-1.28-2.12l-2.62 1.21a15.94 15.94 0 0 1-1-2.83l-2.72.73A20.51 20.51 0 0 0 34 47.44a18.56 18.56 0 0 0 1.7 3 20.07 20.07 0 0 0 2.24 2.7 19 19 0 0 0 2.71 2.27l1.7-2.34a17.76 17.76 0 0 0 5.45 2.56l.75-2.68a15.36 15.36 0 0 1-2.38-.86"/><path class="b" d="M65.5 57.75a24.13 24.13 0 0 1-3.48 2 24.62 24.62 0 0 1-3.8 1.37l-.74-2.76a23 23 0 0 1-3.49.61h-3.4a22.84 22.84 0 0 1-3.48-.61l-.75 2.76a23 23 0 0 1-3.86-1.37l-1.22 2.59a26.7 26.7 0 0 0 4.25 1.61 26 26 0 0 0 4.47.78c.74 0 1.51.1 2.27.1a17.09 17.09 0 0 0 2.27-.1 25.63 25.63 0 0 0 12.64-4.61l-1.7-2.35"/><path class="d" d="M71.14 52.07l-2.36-1.69a19.66 19.66 0 0 1-5 5 19.65 19.65 0 0 1-3 1.78 21.91 21.91 0 0 1-3.31 1.22l.74 2.76A24.62 24.62 0 0 0 62 59.73a24.13 24.13 0 0 0 3.48-2l1.7 2.35a26.92 26.92 0 0 0 3.4-2.91 26.18 26.18 0 0 0 2.91-3.48l-2.35-1.74"/><path class="c" d="M66.44 48.78l-2.37-1.69a15.7 15.7 0 0 1-1.6 2 14.08 14.08 0 0 1-1.93 1.69l1.7 2.36a18.37 18.37 0 0 1-2.6 1.52l1.2 2.6a20.59 20.59 0 0 0 3-1.78 20.28 20.28 0 0 0 2.7-2.27 18.67 18.67 0 0 0 2.24-2.7l-2.34-1.69"/><path class="d" d="M62.19 53.05l-1.7-2.35a15.3 15.3 0 0 1-2.18 1.25 13.53 13.53 0 0 1-2.38.86 13 13 0 0 1-2.48.44h-2.54a13.16 13.16 0 0 1-2.48-.44l-.75 2.78a16.05 16.05 0 0 1-2.83-1 15.49 15.49 0 0 1-2.62-1.51l-1.7 2.34a20.13 20.13 0 0 0 3 1.78 20.63 20.63 0 0 0 3.32 1.22 22.84 22.84 0 0 0 3.48.61h3.4a23 23 0 0 0 3.49-.61 20.88 20.88 0 0 0 3.31-1.22l-1.21-2.59A18.27 18.27 0 0 0 62 53.05"/></svg>