<svg xmlns="http://www.w3.org/2000/svg" width="102" height="122" viewBox="0 0 102 122"><defs><style>.b{fill:#152177}.d{fill:#fff}.e{fill:#7555b3}</style></defs><path fill="none" d="M0 0h102v122H0z"/><path class="b" d="M18.51 83.57A4.16 4.16 0 0 0 15.3 85a5.53 5.53 0 0 0-1.17 3.79 5.67 5.67 0 0 0 1.17 3.83 4.21 4.21 0 0 0 3.4 1.31 11.94 11.94 0 0 0 3-.51v1.29a9.5 9.5 0 0 1-3.25.52 5.55 5.55 0 0 1-4.34-1.69 7 7 0 0 1-1.56-4.8 7.35 7.35 0 0 1 .7-3.39 5.12 5.12 0 0 1 2-2.32 6.37 6.37 0 0 1 3.3-.87 7.81 7.81 0 0 1 3.4.68l-.61 1.32a6.59 6.59 0 0 0-2.83-.59zm5.89 11.42l-.14-12.6h1.48l.13 12.6zm8.22 4.17a3 3 0 0 1-1.32-.21v-1.16a4.58 4.58 0 0 0 1.17.15 1.23 1.23 0 0 0 1-.37 1.66 1.66 0 0 0 .3-1.12l-.12-11h1.43l.14 10.91c-.01 1.92-.86 2.8-2.6 2.8zm.85-16.27a1 1 0 0 1 .24-.73.86.86 0 0 1 1.46.71 1 1 0 0 1-.23.73.91.91 0 0 1-.6.24.81.81 0 0 1-.61-.24 1 1 0 0 1-.26-.72zm8.76 12.09a4.41 4.41 0 0 1-3.4-1.24 4.91 4.91 0 0 1-1.26-3.58 5.4 5.4 0 0 1 1.09-3.64 3.8 3.8 0 0 1 3-1.38 3.55 3.55 0 0 1 2.84 1.14 4.57 4.57 0 0 1 1.07 3.07v.91H39a3.84 3.84 0 0 0 .89 2.53 2.91 2.91 0 0 0 2.26.83 7.69 7.69 0 0 0 3-.68v1.29a7.73 7.73 0 0 1-1.43.47 8.82 8.82 0 0 1-1.49.28zm-.5-8.56a2.34 2.34 0 0 0-1.81.75 3.39 3.39 0 0 0-.82 2h5a3.17 3.17 0 0 0-.68-2.01 2.11 2.11 0 0 0-1.69-.74zm12.93 8.25v-6.11a2.54 2.54 0 0 0-.55-1.7 2.12 2.12 0 0 0-1.7-.54 2.73 2.73 0 0 0-2.17.81 4 4 0 0 0-.7 2.68v5h-1.43L48 85.32h1.3l.24 1.29a2.92 2.92 0 0 1 1.22-1.09 3.86 3.86 0 0 1 1.7-.4 3.59 3.59 0 0 1 2.6.79 3.51 3.51 0 0 1 1 2.58v6.17zm5.74-4.86c.26-.34.61-.81 1.12-1.39l3.08-3.32h1.7l-3.79 4.06 4.16 5.37H65l-3.43-4.37-1.07.93v3.54h-1.41l-.15-13.47h1.43v8.6zm7.68-7.3a1.06 1.06 0 0 1 .24-.73.89.89 0 0 1 .61-.24.87.87 0 0 1 .6.24.89.89 0 0 1 .25.71 1 1 0 0 1-.23.73.94.94 0 0 1-.6.24.81.81 0 0 1-.61-.24.94.94 0 0 1-.26-.71zm1.7 12h-1.44l-.1-9.45h1.46zm9.54-.11v-6.12a2.37 2.37 0 0 0-.56-1.69 2.09 2.09 0 0 0-1.7-.56 2.82 2.82 0 0 0-2.18.83 4 4 0 0 0-.66 2.66v5h-1.43l-.1-9.46h1.16l.25 1.29a2.85 2.85 0 0 1 1.23-1.19 4 4 0 0 1 1.7-.41 3.66 3.66 0 0 1 2.6.8 3.52 3.52 0 0 1 .88 2.63v6.16zm10.47-2.69a2.33 2.33 0 0 1-1 2 4.73 4.73 0 0 1-2.76.74 5.94 5.94 0 0 1-3-.56v-1.28a6.51 6.51 0 0 0 1.48.52 6 6 0 0 0 1.51.19 3.45 3.45 0 0 0 1.7-.38 1.2 1.2 0 0 0 .6-1.1 1.19 1.19 0 0 0-.49-.93A7.84 7.84 0 0 0 86 90a11.78 11.78 0 0 1-1.87-.84 2.8 2.8 0 0 1-.85-.83 2.34 2.34 0 0 1 .65-3 4.5 4.5 0 0 1 2.6-.66 7.49 7.49 0 0 1 3 .59L89 86.49a6.67 6.67 0 0 0-2.6-.56 2.82 2.82 0 0 0-1.53.34 1 1 0 0 0-.36 1.44.22.22 0 0 0 0 .08 1.82 1.82 0 0 0 .63.51 14.69 14.69 0 0 0 1.7.68 6.11 6.11 0 0 1 2.3 1.2 2.16 2.16 0 0 1 .65 1.53z"/><path d="M68.85 41.09a20.4 20.4 0 1 1-20.4-20.33 20.37 20.37 0 0 1 20.4 20.33" fill="#d789ef"/><path class="b" d="M34.43 26.89a20.43 20.43 0 0 0-5.8 14.27 20.3 20.3 0 0 0 5.8 14.28 19.52 19.52 0 0 0 14 5.92 19.51 19.51 0 0 0 14-5.92 20.29 20.29 0 0 0 5.77-14.28 20.46 20.46 0 0 0-5.79-14.29 19.58 19.58 0 0 0-14-5.91 19.56 19.56 0 0 0-13.98 5.93zm-.91 29.45a21.59 21.59 0 0 1-6.15-15.18 21.62 21.62 0 0 1 6.15-15.25 20.82 20.82 0 0 1 14.9-6.29 20.81 20.81 0 0 1 14.89 6.29 21.57 21.57 0 0 1 6.17 15.25 21.6 21.6 0 0 1-6.17 15.25 20.79 20.79 0 0 1-14.89 6.27 20.82 20.82 0 0 1-14.9-6.29z"/><path class="d" d="M57 41.37l-3.11.45-4.2.54H47l-.72 1.94L43 43.04l-2.5-3.39-1.4-3.89-.32-.85-1.86-.63-1.08-1.78-.79-2.57.87-2.24 2-.71 1.7.78.77 1.69 1-.13.31-.41-.31-1.69-.08-2.26.46-3.1v-1.7l1.41-2.27 2.47-1.73L50 14.25l4.83.72 4.2 3 2 3.1 1.24 2.26.33 5.59-.94 4.81-1.7 4.27-1.7 2.27z"/><path class="e" d="M54.4 54.63l-11.12.46v1.86l.92 6.51-.46.54L36 61.36l-.54-.93-.78-8.78-1.82-5.25-.44-1.24 6.24-4.27 1.94-.73 1.7 2.1 1.48 1.32 1.7.55.76.22.94 4 .71.84 1.8-.62-1.26 2.42 6.8 3.17-.83.45M35.94 27.57l2-.71 1.7.78.77 1.69 1-.15.22-.93-.46-1.8.43-4.29-.39-2.33 1.39-1.67 3-2.39-.86-1.17-4.35 2.19-1.75 1.37-1 2.15-1.55 2.1-.37 2.49.28 2.67"/><path class="d" d="M39.1 20.34s1.16-2.88 5.83-4.27.22-1 .22-1l-5.1 1.95-1.95 1.91-.85 1.54 1.85-.13m-2.31 6.82s-1.7-5.43 4.59-6.2l-.22-.95-4.29 1-1.17 4 .3 2.56.85-.54"/><path class="e" d="M55.08 54.72H58l.72 7.11-2.94.41-.65-7.44"/><path class="d" d="M56.41 69.61l-.94-12.71-.25-2.67-1.14.45h-3.54l-7.29.39.13 3.56.82 4.83 1.7 6.52 3.57.78 5.92-.47v-.2h.34zm2.38-8.45l3-.87 5.75-.3.86-2.65-1.54-4.59-1.8-.22-2.49.76-2.36 1.17-1.27-.23-1 .39"/><path class="b" d="M49.64 21.27a3.21 3.21 0 0 0-3.74 2.3c-.58-.12-.34-.91-.2-1.3.39-1 1.92-2.44 3.18-2.24.52 0 1.24.56.85 1.24M60 23.73a21.93 21.93 0 0 0 1.51 2.93c-.43.95-3.08 1.69-3 .1.57-.26 1.56 0 2.07-.39a5.74 5.74 0 0 1-.58-2.64m-9.29 0A8.77 8.77 0 0 0 52 26.06c.29.28.85.63.56 1.41a1.66 1.66 0 0 1-.82.68c-1 .29-3.4 0-2.56-1.2.83 0 2 .54 2.58 0-.48-.75-1.33-2.28-1-3.16m8.82 8.37a8.52 8.52 0 0 1-5.71 1.69 1.7 1.7 0 0 1-.22-2.17c.27.46.1 1.31.87 1.44 1.41.26 3.06-.86 4.08-1.23.63-1.07 0-1.46-.63-2.14a8.47 8.47 0 0 1-2.67-5.19c.48-.34.51.52.58.67a19.77 19.77 0 0 0 3.25 4.46c.29.29.73.59.78.78.13.56-.39 1.25-.32 1.69m-20.07-1c-.47-.27-.59-1.45-1.15-1.49s-.66 1.54-.66 2.48a3 3 0 0 1-.31-2.82c-.46-.23-.66.24-.92.41.34-2.39 3.5-1.1 3 1.42m21.06 2a4.36 4.36 0 0 1-3.78 2.88 4.37 4.37 0 0 1 0-1.35 11.32 11.32 0 0 0 3.78-1.53m-9.95.85a13.39 13.39 0 0 0 5.58.71 5.84 5.84 0 0 1 .1 1.38c-2.33.1-5.1-.48-5.68-2.09m-.24 1.27c.92 2.31 4 2 6.72 2a1.31 1.31 0 0 1-.7.76 6.55 6.55 0 0 1-4.37 0 5.77 5.77 0 0 1-1.7-1.81c-.18-.25-1.17-.9 0-.91m14.96 19.23c-1.2.25-2.05 1.4-3.23 1.34a3.78 3.78 0 0 1 3.23-1.34m.53 1.88a19.27 19.27 0 0 1-3.13.17c.48-.71 2.28-.46 3.13-.17m.34 1.61h-3.52c.61-.68 2.81-.26 3.52 0"/><path class="d" d="M57.39 62.48a24.87 24.87 0 0 1 .61 4.28 4.57 4.57 0 0 1-1.7.38c0-1.27-.24-3.26-.19-4.48.39 0 1-.28 1.31-.18m-1.8-20.32c-.56.37-1 .81-1.56 1.2a3.4 3.4 0 0 1-2.69-.74s.11 0 .11-.1c1.25.56 2.87-.24 4.14-.36m.12 11.93L54 49.75l-1.76-2.59s.39-1.08.94-1.08H55l1.7.61-.16 2.88-.78 4.49"/><path class="b" d="M55.3 47.92a.42.42 0 0 1-.42.43.44.44 0 0 1-.35-.52.44.44 0 0 1 .35-.35.42.42 0 0 1 .42.43m.44 2a.44.44 0 0 1-.52.34.39.39 0 0 1 .08-.77.41.41 0 0 1 .44.37v.06"/><path class="e" d="M59.21 38.77l-2.19 2.59 1.87.54.58 1.8v1.56l-.41 1.4.7 1.09-3.81 6.34.73.45 3.59-.81 3.38-9.25-.24-2.12-4.2-3.59z"/><path class="b" d="M68.85 56.7a20.27 20.27 0 0 0-1.17-3.39c-1.18-2.52-4.69-.95-6.6 0 .92-2.42 1.7-4.9 2.5-7.59a8.18 8.18 0 0 0 .61-2.8c-.1-.78-1.34-1.61-2-2.23-.35-.34-2-1.61-2.14-2.09s.7-1.49.95-2a17.21 17.21 0 0 0 .79-2.29c1.32-4.63 1.46-11-.43-14.78a16 16 0 0 0-4-4.44c-2.94-2.2-8.4-2.45-11.9-1.15a16.67 16.67 0 0 0-2.77 1.22c-2.33 1.37-4.8 2.27-5.49 5.08-1.7.75-2.21 2.92-2.13 5.44 0 .49.31 1.1.21 1.56a3.71 3.71 0 0 1-.43.68 6.75 6.75 0 0 0 .77 5.84 4.1 4.1 0 0 0 2.75 1.7 5.88 5.88 0 0 0 .63 2.09c.22.48 1 1.34.73 1.93a8.3 8.3 0 0 1-1.92 1.24 44.66 44.66 0 0 0-3.96 2.44c-.89.63-2.26.72-2.06 2.17a21.13 21.13 0 0 0 1.05 3.21c.34 1.06.85 2 1.13 3.15a38.17 38.17 0 0 1 .93 7.22 9.59 9.59 0 0 0 .21 2.45c.27.54 1.2.73 1.88 1 2 .93 4 2.3 6.62 2 .61 2.07 1.19 4.26 1.93 6a24.07 24.07 0 0 0 9.56.48A2.16 2.16 0 0 0 57 69.7a6.22 6.22 0 0 1-.1-1.43c.87-.15 2-.3 2.21-1.25.27-1.32-.83-3.22-.48-4.69.51-.16 1-.28 1-1.07a5.73 5.73 0 0 1 2.89-.49 2.17 2.17 0 0 0 .51.66 8.07 8.07 0 0 0 4.14 0c1.34-.53 1.99-3.39 1.68-4.73zM44.47 15.49a.34.34 0 0 1 .34.15c0 .38-.37.38-.63.48-.37.47-.93.69-1.39 1.2s-1 1.93-1.7 2.1a3.78 3.78 0 0 1-1 0 12.77 12.77 0 0 0-2 .53 10.37 10.37 0 0 1 6.38-4.46zm-7.36 6.54A5.58 5.58 0 0 1 41 20.22c.84 2.08-.59 4.54 0 6.78.17.69.73 1.78-.15 1.79a2.77 2.77 0 0 0-4.3-2.06c-.24-1.46-.46-3.57.56-4.7zm2.41 12.93c.12-.61 1.21-.86.77-1.69-.78 0-1 .72-1.7.79-1.89.17-3.2-2.49-3.13-4.1a2.6 2.6 0 0 1 2.69-2.5h.13c1.13.14 1.5 1.36 1.7 2.44.65 0 1.57 0 1.87-.52 0-1.24-.59-2.21-.56-3.39 0-2.12 1.23-4 .34-6.12 1-2.15 3.76-3.85 5.83-4.9 2.57-1.27 6.65-.25 9.08 1.1a13.24 13.24 0 0 1 3.4 3.56c-1.37-.4-2.55.27-2.33 1.41 1.16-1.05 3.11 0 3.69 1.15a11.92 11.92 0 0 1 .7 4.4 18.31 18.31 0 0 1-2.76 11 7.79 7.79 0 0 1-1.7 2.13 8.38 8.38 0 0 1-7 1.7c-3.14-1.09-4.62-3.17-6.32-5.56a5.64 5.64 0 0 0 1.89 3.39 8.47 8.47 0 0 0 2.77 2.27c-.85-.2-2.18-.27-2.54.51-2-.14-3.87-.34-4.82-1.7a14.9 14.9 0 0 1-1.84-4.28 4.3 4.3 0 0 1-.16-1.09zm14.56 8.35a3.4 3.4 0 0 1-2.69-.74.09.09 0 0 0 .09-.1c1.25.56 2.87-.24 4.16-.36-.56.37-1.04.83-1.56 1.2zm-.87 2.34a4.55 4.55 0 0 1-.21-1.42c1.77-1.15 2.1 2.02.21 1.42zm-.73-1.42a1.5 1.5 0 0 0 0 .3c-.43.26-1.09.26-1.53.5a4.16 4.16 0 0 1 1.7.4v.73a24.63 24.63 0 0 1-2.35 1.7 6 6 0 0 1-2.34.71c-.24 0-.27-.37-.38-.68a9.65 9.65 0 0 1-.76-2.59c0-1.19-.17-3.22 1.12-3A11.64 11.64 0 0 1 51 43.55a3.4 3.4 0 0 0 1.48.68zm-.54 3.39a25.26 25.26 0 0 1 2.89 5.67A29 29 0 0 1 49 50.72c.32-1.58 1.71-2.29 3-3.12zm.66-.56l.44-.49c.61.27 1-.34 1.51-.29s1 .81 1.7.78a26.31 26.31 0 0 1-.63 6 36.43 36.43 0 0 0-3-6zm4.33 0a2 2 0 0 1 2.54.85 48.57 48.57 0 0 1-3.4 5.33 26.06 26.06 0 0 0 .86-6.15zm1.86-.75a13.85 13.85 0 0 1-3.57-.49 5.3 5.3 0 0 0 0-1.13 2.59 2.59 0 0 1 1.22-.27 2.14 2.14 0 0 0-1.34-.16 2.1 2.1 0 0 0-.24-.69c.75-.27 2.48-2 3.48-1.44.48.29.67 1.84.7 2.59a2.7 2.7 0 0 1-.25 1.63zm-12.7-3.69c0 .32-.21.73-.21 1.15-.8 0-3.4-1-2.7-1.69.66.54 1.92.42 2.91.57zM36 60.68a50.29 50.29 0 0 0-2.82-15.52l7.18-4.09c.15.17 1.7 1.7 1.7 1.7a31.12 31.12 0 0 0 4 2.15 14.52 14.52 0 0 0 .59 2.51c.37 1.17.66 2.84 2.23 2-.14.66-1 1.08-.77 1.86.16.49 1.79 1.1 2.31 1.41A18.91 18.91 0 0 0 53 53.85c-3.09.1-6.8.34-9.72.71l-.19-5.67c-.41-.09-.49.74-.51.93-.08 1.05.49 3.27-.08 4.51-.62-.17-.94-.65-1.53-.87-.22.73.47.77.42 1.22s-1.15.16-1.24.92h2.5c.22 2.13.8 5.34 1.12 7.62A19.44 19.44 0 0 1 36 60.68zm10.12 8.48a63.05 63.05 0 0 1-2.75-13.47 33.4 33.4 0 0 1 11.54-.45c.31 2 .2 4 .42 6 .31 2.64.09 5.66.6 8.11a17.78 17.78 0 0 1-9.81-.19zm10.2-2c0-1.29-.24-3.25-.19-4.47.39 0 1-.31 1.31-.19a24.84 24.84 0 0 1 .65 4.29 4.39 4.39 0 0 1-1.82.4zM56 61.6c-.12-1.58-.2-3.12-.24-4.68a3.37 3.37 0 0 0 1.93-.51c.22 1.53.25 3.24.44 4.8a20.44 20.44 0 0 1-2.18.42zm.43-7.7c1.24-2.11 2.56-4.11 3.77-6.27-.19-.42-.63-.61-.75-1.08a4.74 4.74 0 0 0-.17-5 2.05 2.05 0 0 0-1.37-.56h-.16A14.19 14.19 0 0 1 59 39.65s2.24 1.82 3.67 2.85-1.17 7.27-1.94 9.08c-.28.71-.57 1.61-1 1.7-1.13.56-2.44.08-3.35.66zm3 6.46c-.15-1.83-.56-3.73-.75-5.46a6.12 6.12 0 0 1 1.21 0 11 11 0 0 1 .9 5.09 5.4 5.4 0 0 1-1.41.4zm6.8.27a5.69 5.69 0 0 1-2.84 0 14.36 14.36 0 0 1 2.61-.66 14.83 14.83 0 0 0-4.31-.12 30.28 30.28 0 0 0-.72-5c.82-.86 2.82-1.08 3.95-1.79.71-.44 1.59.18 1.9.67a15.77 15.77 0 0 1 1.07 3.61 2.68 2.68 0 0 1-1.75 3.32z"/></svg>