<svg xmlns="http://www.w3.org/2000/svg" width="102" height="122" viewBox="0 0 102 122"><defs><style>.b{fill:#152177}.d{fill:#7555b3}</style></defs><path fill="none" d="M0 0h102v122H0z"/><path class="b" d="M29.84 89.69v5.23h-1.48l-.14-12.6h3.48a5.35 5.35 0 0 1 3.4.84 3.15 3.15 0 0 1 1.16 2.66 3.38 3.38 0 0 1-2.52 3.39l3.61 5.68h-1.7l-3.11-5.22zm0-1.27h2a3.45 3.45 0 0 0 2.28-.65 2.23 2.23 0 0 0 .69-1.84 2 2 0 0 0-.76-1.8 3.9 3.9 0 0 0-2.38-.53h-1.9zm15.41 3.76a2.41 2.41 0 0 1-1 2 4.72 4.72 0 0 1-2.78.74 5.86 5.86 0 0 1-2.94-.56v-1.28a7.71 7.71 0 0 0 1.48.54 6 6 0 0 0 1.52.17 3.5 3.5 0 0 0 1.7-.38 1.14 1.14 0 0 0 .59-1.1 1.19 1.19 0 0 0-.49-.93 8.09 8.09 0 0 0-1.87-.91 9.85 9.85 0 0 1-1.91-.83 2.63 2.63 0 0 1-.83-.83 2.07 2.07 0 0 1-.29-1.11 2.15 2.15 0 0 1 .94-1.84 4.46 4.46 0 0 1 2.56-.7 7.74 7.74 0 0 1 3 .6l-.49 1.16a7.46 7.46 0 0 0-2.6-.5 2.91 2.91 0 0 0-1.53.34 1 1 0 0 0-.53.88 1.22 1.22 0 0 0 .21.64 1.77 1.77 0 0 0 .64.51 14.69 14.69 0 0 0 1.7.68 6.5 6.5 0 0 1 2.3 1.2 2.27 2.27 0 0 1 .62 1.51zM52 94.89a4 4 0 0 1-1.7-.32 3 3 0 0 1-1.29-1h-.12a10.41 10.41 0 0 1 .11 1.54V99h-1.42V85.27h1.16l.22 1.29a3.48 3.48 0 0 1 1.27-1.14 4.18 4.18 0 0 1 1.7-.35 3.47 3.47 0 0 1 2.92 1.25 6.73 6.73 0 0 1 0 7.22A3.54 3.54 0 0 1 52 94.89zm-.29-8.58a2.55 2.55 0 0 0-2.09.84A4 4 0 0 0 49 89.7v.3a4.79 4.79 0 0 0 .7 2.83 2.58 2.58 0 0 0 2.16.84 2.22 2.22 0 0 0 1.9-1 6.08 6.08 0 0 0-.11-5.49 2.34 2.34 0 0 0-1.91-.92zm10.78 8.44a4.47 4.47 0 0 1-3.4-1.25 4.91 4.91 0 0 1-1.24-3.5A5.42 5.42 0 0 1 59 86.42 3.81 3.81 0 0 1 62 85a3.59 3.59 0 0 1 2.84 1.15 4.47 4.47 0 0 1 1.07 3.07v.91h-6.46a3.76 3.76 0 0 0 .88 2.51 2.9 2.9 0 0 0 2.26.85 7.7 7.7 0 0 0 3-.68v1.29a8 8 0 0 1-1.43.47 8.1 8.1 0 0 1-1.67.18zm-.49-8.6a2.4 2.4 0 0 0-1.82.76 3.37 3.37 0 0 0-.73 2.09h5a3.12 3.12 0 0 0-.63-2.07 2.14 2.14 0 0 0-1.82-.78zm10.22 8.48A4 4 0 0 1 69 93.41a5.2 5.2 0 0 1-1.15-3.55 5.35 5.35 0 0 1 1.1-3.7 4.14 4.14 0 0 1 3.25-1.32 6.46 6.46 0 0 1 1.38.14 3.71 3.71 0 0 1 1.07.34l-.43 1.22a4.7 4.7 0 0 0-1-.31 4.29 4.29 0 0 0-1-.12c-1.92 0-2.88 1.24-2.85 3.71a4.33 4.33 0 0 0 .73 2.66 2.57 2.57 0 0 0 2.11.92 6.6 6.6 0 0 0 2.43-.54v1.27a4.91 4.91 0 0 1-2.42.5z"/><path fill="#d789ef" d="M69.53 22.54L51 13.13l-9.98 9.41-10-9.41-9.99 19.88 24.26 10.15 24.24-10.15V22.54z"/><path class="b" d="M70.97 13.13v9.41H66.3l-6.6-4.7 3.69-4.71h7.58z"/><path class="d" d="M51 13.13l-9.98 19.88-10-19.88H51zm15.3 9.41l-5.2 10.47L51 13.13h12.39l2.91 9.41zm4.67-9.41l9.88 19.88-8.6 5.08-2.72-5.08-3.23-10.47 4.67-9.41z"/><path class="b" d="M69.53 33.01l-5.78 4.39-2.65-4.39H41.02l-4.04 11.54 13.97 20.26 29.9-31.8H69.53z"/><path class="d" d="M41.02 33.01l9.93 31.8-29.92-31.8h19.99zm28.51 0l-18.58 31.8 10.15-31.8h8.43z"/></svg>