<svg xmlns="http://www.w3.org/2000/svg" width="102" height="122" viewBox="0 0 102 122"><defs><style>.b{fill:#152177}.c{fill:#7555b3}</style></defs><path fill="none" d="M0 0h102v122H0z"/><path class="b" d="M23.8 94.85l-1.58-4h-5.1l-1.47 4h-1.49l5-12.66h1.23l5 12.66zm-2-5.32l-1.36-3.85c-.19-.49-.38-1.1-.58-1.81a16.4 16.4 0 0 1-.55 1.81l-1.49 3.92zm16.36 5.32h-1.44l-2.55-8.47a11.69 11.69 0 0 1-.41-1.43 5.93 5.93 0 0 1-.24-1 19.65 19.65 0 0 1-.59 2.52l-2.49 8.38h-1.46l-3.4-12.61h1.62l2 7.8a30.08 30.08 0 0 1 .59 3.12 22.18 22.18 0 0 1 .7-3.11l2.26-7.65h1.56l2.38 7.74a22.47 22.47 0 0 1 .72 3 21.76 21.76 0 0 1 .63-3l2-7.77h1.55zm12.51-3.29a3.1 3.1 0 0 1-1.2 2.6 5.32 5.32 0 0 1-3.3.93 8.24 8.24 0 0 1-3.4-.58V93.2a7.88 7.88 0 0 0 1.7.5 8 8 0 0 0 1.82.21 3.76 3.76 0 0 0 2.22-.56 1.87 1.87 0 0 0 .74-1.56 2.12 2.12 0 0 0-.26-1.07 2.64 2.64 0 0 0-.88-.78 14.22 14.22 0 0 0-1.89-.79 6 6 0 0 1-2.52-1.5 3.23 3.23 0 0 1-.77-2.25 2.78 2.78 0 0 1 1-2.37 4.56 4.56 0 0 1 2.9-.87 8.62 8.62 0 0 1 3.4.7l-.46 1.27a7.92 7.92 0 0 0-3-.64 2.81 2.81 0 0 0-1.82.49 1.68 1.68 0 0 0-.66 1.39 2.14 2.14 0 0 0 .24 1.06 2.24 2.24 0 0 0 .81.78 9.63 9.63 0 0 0 1.7.77 6.86 6.86 0 0 1 2.74 1.52 3 3 0 0 1 .89 2.1zm14.25 3.33H57.8V82.35h7.06v1.31h-5.51v4.06h5.25v1.29h-5.25v4.64h5.57v1.24zm8.18-11.4a4.13 4.13 0 0 0-3.3 1.36 6.75 6.75 0 0 0 0 7.62 4.13 4.13 0 0 0 3.4 1.38 12.27 12.27 0 0 0 3-.47v1.27a9.09 9.09 0 0 1-3.23.49 5.49 5.49 0 0 1-4.32-1.7 6.92 6.92 0 0 1-1.53-4.81 7.64 7.64 0 0 1 .73-3.39 5.27 5.27 0 0 1 2.08-2.21 6.43 6.43 0 0 1 3.18-.87 7.71 7.71 0 0 1 3.4.73l-.58 1.26a6.71 6.71 0 0 0-2.83-.66zm13 8.11a3.08 3.08 0 0 1-1.21 2.6 5.27 5.27 0 0 1-3.29.93 8.18 8.18 0 0 1-3.4-.58V93.2a7.57 7.57 0 0 0 1.7.5 7.86 7.86 0 0 0 1.81.21 3.78 3.78 0 0 0 2.22-.56 1.83 1.83 0 0 0 .73-1.56 2 2 0 0 0-.25-1.07 2.58 2.58 0 0 0-.89-.78 13.8 13.8 0 0 0-1.88-.84 6.06 6.06 0 0 1-2.52-1.5 3.24 3.24 0 0 1-.88-2.25 2.8 2.8 0 0 1 1.15-2.32 4.59 4.59 0 0 1 2.91-.87 8.62 8.62 0 0 1 3.4.7l-.46 1.27a8 8 0 0 0-3-.64 2.93 2.93 0 0 0-1.84.49 1.69 1.69 0 0 0-.64 1.39 2 2 0 0 0 .17 1.06 2.35 2.35 0 0 0 .82.78 9.63 9.63 0 0 0 1.7.77 6.92 6.92 0 0 1 2.74 1.52 3 3 0 0 1 .86 2.1zM22.71 16.67l-3.4 1.7v47.7l3.4 1.67 13.36-24.53-13.36-26.54zm10.32 8.61l5-7.05 22.39 9.91-5.22.84-22.17-3.7zm-3.88 34.36l5.5 7.55L60.42 56.1l-4.98-.78-26.29 4.32z"/><path class="c" d="M30.6 65.9l-7.89 1.84V16.67l7.89 1.8V65.9z"/><path class="b" d="M26.45 14.79l4.15-2.06 7.84 32.78-7.84 26.18-4.15-2.06V14.79zm28.71 40.5l5.26.81 4.81-13.35-4.81-14.61-5.26.85v26.3z"/><path class="c" d="M38.69 69.42l-8.09 2.27V12.73l8.09 2.28v54.41z"/><path class="c" d="M65.93 55.07L30.6 61.61v10.08l35.33-9.95v-6.67zm.05-25.86L30.6 22.52v-9.79l35.38 10.01v6.47z"/><path class="c" d="M60.42 21.16l5.66 1.56v39.02l-5.66 1.55V21.16z"/><path class="b" d="M82.69 37.06l-15.18.71-5.38-.36 15.36-12.33 5.2 11.98z"/><path class="b" d="M62.13 37.41l15.36-.88V25.08l-15.36 2.47v9.86z"/><path class="b" d="M47.67 36.45l15.57-15.64 7.9 15.1-16.13 1.03-7.34-.49z"/><path class="b" d="M47.67 36.45l15.57-1.32V20.81l-15.57 3.62v12.02zm14.46 10.77l20.56.34-5.2 12-15.36-2.49v-9.85z"/><path class="b" d="M47.67 48.19l23.47.53-7.9 15.09-15.57-3.62v-12z"/><path d="M47.67 48.19l15.57 1.32 7.9-.79-16.13-1.02-7.34.49zm35.02-.63l-15.18-.69-5.38.35 15.36.87 5.2-.53z" fill="#d789ef"/><path class="c" d="M77.49 36.53l5.2.53V26.62l-5.2-1.54v11.45zm-6.35-.62l-7.9-.78V20.81l7.9 2.37v12.73zm6.35 12.18l5.2-.53V58l-5.2 1.56V48.09zm-6.35.63l-7.9.79v14.3l7.9-2.35V48.72z"/></svg>