<svg id="Layer_1" data-name="Layer 1" xmlns="http://www.w3.org/2000/svg" width="60" height="72" viewBox="0 0 60 72"><defs><style>.cls-2{fill:#152177}</style></defs><path fill="none" opacity=".99" d="M0 0h60v72H0z"/><path class="cls-2" d="M19.09 38.63L16.66 11.4h26.68l-2.43 27.22-10.93 3.03-10.89-3.02z"/><path fill="#7555b3" d="M30 39.34l8.83-2.45 2.07-23.26H30v25.71z"/><path class="cls-2" d="M19.14 4h1.7v1.68h1.55V4h1.7v5.08h-1.7v-1.7h-1.55v1.7h-1.7V4zm7.18 1.68h-1.49V4h4.68v1.68H28v3.4h-1.7v-3.4zM30.26 4H32l1.09 1.78L34.2 4H36v5.08h-1.72V6.56l-1.16 1.81-1.2-1.81v2.52h-1.66zm6.56 0h1.7v3.4h2.38v1.68h-4.08z"/><path fill="#fff" d="M30 16.96h-8.37l.08.9.82 9.2H34.1l-.39 4.33-3.72 1.01h-.01l-3.71-1-.24-2.67h-3.35l.46 5.25 6.84 1.9.02-.01 6.83-1.89.05-.57.79-8.79.08-.9H25.58l-.3-3.42h12.77l.07-.75.15-1.69.08-.9H30z"/><path class="cls-2" d="M18.68 56h-.83v-3.36h-3.76V56h-.83v-7.14h.83v3h3.76v-3h.83zm4.15 0H22v-6.4h-2.26v-.74h5.36v.74h-2.27zm6.5 0l-2.42-6.33c0 .5.07 1.1.07 1.79V56h-.77v-7.14h1.25l2.26 5.89L32 48.86h1.24V56h-.83v-4.6c0-.53 0-1.1.07-1.72L30 56zm5.87 0v-7.14h.8v6.39h3.15V56zm9.52-4.36a2.64 2.64 0 0 1 1.78.56 1.92 1.92 0 0 1 .65 1.53 2.22 2.22 0 0 1-.71 1.74 2.82 2.82 0 0 1-1.95.63 3.57 3.57 0 0 1-1.84-.39v-.78a3 3 0 0 0 .85.35 4.4 4.4 0 0 0 1 .12 2 2 0 0 0 1.34-.4 1.45 1.45 0 0 0 .48-1.17c0-1-.61-1.49-1.84-1.49a7.88 7.88 0 0 0-1.24.14l-.42-.27.27-3.34h3.55v.75h-2.85l-.18 2.14a6 6 0 0 1 1.11-.12z"/></svg>