<svg xmlns="http://www.w3.org/2000/svg" width="102" height="122" viewBox="0 0 102 122"><path fill="none" d="M0 0h102v122H0z"/><path d="M63.72 16.61c-.46-.28-.94-.53-1.42-.77s-1-.45-1.51-.66L60.3 15c-.44-.17-.9-.34-1.36-.48a25.43 25.43 0 1 0-12.28 49.36l.09 7.29c15.3-2.46 28.61-14.71 29.44-30.62a26.35 26.35 0 0 0-12.47-23.94zM45 23a2.64 2.64 0 0 1 2.39.95 6 6 0 0 1 1.09 1.69 6.29 6.29 0 0 1-.56 6.24 7.13 7.13 0 0 1-5.1-4 5 5 0 0 1-.51-2.05A3 3 0 0 1 45 23zm-7.6 7.5a4 4 0 0 1 .49 0 5.36 5.36 0 0 1 2.2.46 7.25 7.25 0 0 1 4.3 4.78 7 7 0 0 1-6.58.71 12.45 12.45 0 0 1-1.81-1.1 2.7 2.7 0 0 1 1.4-4.85zm2.86 15.57a4.93 4.93 0 0 1-2.2.51 2.76 2.76 0 0 1-2.19-4.8 5.46 5.46 0 0 1 1.87-1.11 6.92 6.92 0 0 1 6.54.57 6.55 6.55 0 0 1-4 4.88zM48.89 51a12.26 12.26 0 0 1-1 1.87 2.92 2.92 0 0 1-3.26.79 2.89 2.89 0 0 1-1.84-2.79 4.74 4.74 0 0 1 .47-2 6.81 6.81 0 0 1 4.93-4.1 6.42 6.42 0 0 1 .79 6.28zm4-25.41a11.85 11.85 0 0 1 1.06-1.87 2.75 2.75 0 0 1 2.43-1 2.9 2.9 0 0 1 2.75 2.93 4.69 4.69 0 0 1-.46 2.05 6.75 6.75 0 0 1-4.93 4.1 6 6 0 0 1-.81-6.23zm1.7 27.26a6.45 6.45 0 0 1-.59-7.93 7.1 7.1 0 0 1 5.1 4 5.21 5.21 0 0 1 .54 2.08c.23 2.32-3.35 3.75-5.09 1.88zM64 46.22a5.66 5.66 0 0 1-2.19-.47A7.2 7.2 0 0 1 57.54 41a7.24 7.24 0 0 1 4-1.2 6.52 6.52 0 0 1 2.55.51 11.37 11.37 0 0 1 1.86 1 2.75 2.75 0 0 1 .84 3.15A2.78 2.78 0 0 1 64 46.21z" fill="#7555b3"/><path d="M15.16 83.45a4.13 4.13 0 0 0-3.26 1.39 6.77 6.77 0 0 0 0 7.63 4.13 4.13 0 0 0 3.31 1.33 11.1 11.1 0 0 0 3-.49v1.29a9.91 9.91 0 0 1-3.25.51 5.55 5.55 0 0 1-4.31-1.7 7 7 0 0 1-1.55-4.79 7.64 7.64 0 0 1 .73-3.39 5.22 5.22 0 0 1 2-2.2 6.57 6.57 0 0 1 3.25-.82 8 8 0 0 1 3.48.72L18 84.2a6.79 6.79 0 0 0-2.84-.75zm6.94 2v6.13a2.53 2.53 0 0 0 .54 1.7 2.15 2.15 0 0 0 1.7.58 2.74 2.74 0 0 0 2.18-.86 4.11 4.11 0 0 0 .68-2.64v-5h1.43v9.45h-1.19l-.24-1.25a3 3 0 0 1-1.2 1.13 4.22 4.22 0 0 1-1.79.37 3.6 3.6 0 0 1-2.6-.8 3.46 3.46 0 0 1-.87-2.62v-6.19zM35.44 95a4 4 0 0 1-3.14-1.26 5 5 0 0 1-1.16-3.55 5.38 5.38 0 0 1 1.16-3.68 4.15 4.15 0 0 1 3.26-1.31 7.65 7.65 0 0 1 1.36.14 5.75 5.75 0 0 1 1.09.34l-.44 1.22a7.74 7.74 0 0 0-1-.31 5.58 5.58 0 0 0-1-.12c-1.92 0-2.89 1.24-2.87 3.68a4.24 4.24 0 0 0 .71 2.68 2.38 2.38 0 0 0 2.09.91 6.33 6.33 0 0 0 2.43-.5v1.27a5.4 5.4 0 0 1-2.49.49zm6-9.64v6.14a2.51 2.51 0 0 0 .53 1.69 2.07 2.07 0 0 0 1.7.56 2.73 2.73 0 0 0 2.18-.81 4.1 4.1 0 0 0 .66-2.66v-5h1.45v9.46h-1.24l-.21-1.27h-.08a2.8 2.8 0 0 1-1.23 1.13 4.21 4.21 0 0 1-1.78.37 3.64 3.64 0 0 1-2.62-.79 3.58 3.58 0 0 1-.8-2.68v-6.13zm21.68 9.35v-6.14a2.52 2.52 0 0 0-.49-1.7 1.94 1.94 0 0 0-1.52-.56 2.41 2.41 0 0 0-2 .78 3.73 3.73 0 0 0-.63 2.36v5.29H57v-6.15a2.58 2.58 0 0 0-.49-1.7 1.84 1.84 0 0 0-1.51-.54 2.31 2.31 0 0 0-2 .81 4.22 4.22 0 0 0-.67 2.65v5H51v-9.49h1.16l.25 1.28a2.76 2.76 0 0 1 1.14-1.08 3.46 3.46 0 0 1 1.7-.39 2.79 2.79 0 0 1 2.92 1.59 2.86 2.86 0 0 1 1.23-1.18 3.75 3.75 0 0 1 1.8-.45 3.28 3.28 0 0 1 2.41.82 3.66 3.66 0 0 1 .8 2.62v6.17zm8.75-9.66a3.49 3.49 0 0 1 3 1.36 6.75 6.75 0 0 1 0 7.21 3.54 3.54 0 0 1-2.89 1.31 4.34 4.34 0 0 1-1.7-.34 3.25 3.25 0 0 1-1.29-1h-.1l-.29 1.2h-1V81.33h1.43v5.24a3.37 3.37 0 0 1 2.79-1.51zm-.2 1.2a2.52 2.52 0 0 0-2.11.85 4.82 4.82 0 0 0-.69 2.9 4.65 4.65 0 0 0 .69 2.84 2.49 2.49 0 0 0 2.13.85 2.2 2.2 0 0 0 2-1 6.18 6.18 0 0 0 0-5.53 2.33 2.33 0 0 0-2.07-.9zm10.71 8.63a4.44 4.44 0 0 1-3.4-1.27 5 5 0 0 1-1.22-3.54 5.45 5.45 0 0 1 1.17-3.66 3.75 3.75 0 0 1 3-1.36 3.56 3.56 0 0 1 2.83 1.15 4.51 4.51 0 0 1 1.04 3.1v.9h-6.55a3.86 3.86 0 0 0 .87 2.52 2.93 2.93 0 0 0 2.26.85 7.74 7.74 0 0 0 3-.65v1.27a8.56 8.56 0 0 1-3.08.7zm-.42-8.61a2.39 2.39 0 0 0-1.82.76 3.38 3.38 0 0 0-.8 2h5a3.11 3.11 0 0 0-.7-2.03 2.13 2.13 0 0 0-1.73-.81zM92.55 85a6.27 6.27 0 0 1 1.14.1l-.19 1.36a4.7 4.7 0 0 0-1-.12 2.48 2.48 0 0 0-2 .93 3.44 3.44 0 0 0-.82 2.32v5.08h-1.45v-9.49h1.17l.19 1.69a4.09 4.09 0 0 1 1.26-1.42 2.84 2.84 0 0 1 1.7-.45z" fill="#152177"/></svg>