<svg xmlns="http://www.w3.org/2000/svg" width="102" height="122" viewBox="0 0 102 122"><defs><style>.b{fill:#152177}</style></defs><path fill="none" d="M0 0h102v122H0z"/><path class="b" d="M21.47 91.5a3.1 3.1 0 0 1-1.21 2.61A5.16 5.16 0 0 1 17 95a8.06 8.06 0 0 1-3.4-.56v-1.38a9.27 9.27 0 0 0 1.7.52 8 8 0 0 0 1.82.17 3.59 3.59 0 0 0 2.21-.56 1.79 1.79 0 0 0 .67-1.54 2 2 0 0 0-.25-1.08 2.6 2.6 0 0 0-.89-.76A11.75 11.75 0 0 0 17 89a6 6 0 0 1-2.53-1.49 3.22 3.22 0 0 1-.87-2.24A2.79 2.79 0 0 1 14.74 83a4.59 4.59 0 0 1 2.91-.87 8.86 8.86 0 0 1 3.4.68l-.45 1.27a8 8 0 0 0-3.06-.64 2.86 2.86 0 0 0-1.81.51 1.68 1.68 0 0 0-.67 1.39 2.27 2.27 0 0 0 .26 1.08 2.56 2.56 0 0 0 .81.76 10.81 10.81 0 0 0 1.7.77 6.88 6.88 0 0 1 2.74 1.5 2.93 2.93 0 0 1 .9 2.05zm6.39 3.5a4.32 4.32 0 0 1-3.4-1.26 5 5 0 0 1-1.22-3.54 5.53 5.53 0 0 1 1.12-3.64 3.75 3.75 0 0 1 3-1.36 3.64 3.64 0 0 1 2.82 1.16 4.45 4.45 0 0 1 1.05 3.08v.91H24.8a3.75 3.75 0 0 0 .85 2.53 2.89 2.89 0 0 0 2.26.85 7.47 7.47 0 0 0 3-.55v1.29a9.36 9.36 0 0 1-1.41.53 10 10 0 0 1-1.64 0zm-.42-8.59a2.35 2.35 0 0 0-1.82.74 3.51 3.51 0 0 0-.8 2h5a3 3 0 0 0-.61-2.06 2.11 2.11 0 0 0-1.77-.67zm7.78 8.48H33.8V81.47h1.44zm7.08 0a4.3 4.3 0 0 1-3.4-1.26 4.84 4.84 0 0 1-1.23-3.54 5.42 5.42 0 0 1 1.12-3.64 3.75 3.75 0 0 1 3-1.36 3.58 3.58 0 0 1 2.89 1.33 4.45 4.45 0 0 1 1 3.06v.92h-6.46a3.63 3.63 0 0 0 .87 2.52 2.88 2.88 0 0 0 2.24.87 7.75 7.75 0 0 0 3-.66v1.28a7.47 7.47 0 0 1-1.45.48 7.22 7.22 0 0 1-1.58 0zm-.43-8.47a2.35 2.35 0 0 0-1.82.74 3.38 3.38 0 0 0-.8 2h5a3.1 3.1 0 0 0-.61-2.06 2.17 2.17 0 0 0-1.77-.68zm12.85 8.33v-6.11a2.53 2.53 0 0 0-.52-1.7 2.21 2.21 0 0 0-1.7-.56 2.68 2.68 0 0 0-2.18.82 3.89 3.89 0 0 0-.68 2.61v5h-1.43v-9.49h1.09l.24 1.28a2.9 2.9 0 0 1 1.22-1.08 4.15 4.15 0 0 1 1.7-.39 3.67 3.67 0 0 1 2.59.81 3.5 3.5 0 0 1 1.05 2.65v6.16zm4.22-12.03a.94.94 0 0 1 .25-.73.83.83 0 0 1 .6-.22.9.9 0 0 1 .59.22 1 1 0 0 1 .26.73 1 1 0 0 1-.24.71.85.85 0 0 1-.61.24.77.77 0 0 1-.6-.24.92.92 0 0 1-.25-.71zm1.6 12h-1.43v-9.44h1.44zm4.37-9.46v6.14a2.41 2.41 0 0 0 .54 1.69 2.13 2.13 0 0 0 1.7.56 2.73 2.73 0 0 0 2.18-.81 4.16 4.16 0 0 0 .67-2.66v-4.93h1.4v9.45h-1.17L70 93.43a3.08 3.08 0 0 1-1.23 1.09 4.47 4.47 0 0 1-1.7.37 3.7 3.7 0 0 1-2.6-.81 3.46 3.46 0 0 1-1-2.58v-6.24zm21.65 9.39V88.5a2.5 2.5 0 0 0-.49-1.69 1.9 1.9 0 0 0-1.51-.56 2.32 2.32 0 0 0-2 .78 3.58 3.58 0 0 0-.65 2.35v5.29h-1.4v-6.15a2.52 2.52 0 0 0-.49-1.7 1.93 1.93 0 0 0-1.51-.56 2.35 2.35 0 0 0-2 .82 4.43 4.43 0 0 0-.63 2.73v5h-1.42v-9.49h1.16l.23 1.28A2.89 2.89 0 0 1 77 85.52a3.48 3.48 0 0 1 1.7-.39 2.85 2.85 0 0 1 2.93 1.59 2.93 2.93 0 0 1 1.22-1.17 3.81 3.81 0 0 1 1.84-.44 3.28 3.28 0 0 1 2.41.82 3.66 3.66 0 0 1 .8 2.62v6.19zM49.3 70.57H29.39a6.3 6.3 0 0 1-6.3-5.25 16.87 16.87 0 0 1 0-2.66V24.33a6.29 6.29 0 0 1 6.18-6.17h36.88a1.09 1.09 0 0 0 .9-.4c1.26-1.39 2.53-2.75 3.79-4.12.39-.42.39-.42.81 0l7.11 6.69c.44.43.43.43 0 .87-1 1.05-1.94 2.12-2.94 3.17a1.24 1.24 0 0 0-.36.91v39.07a6.33 6.33 0 0 1-6.34 6.27c-6.61-.08-13.26-.05-19.82-.05zm-3.4-44.29l-.29.24L42.16 30c-.41.44-.41.37 0 .79l12.56 11.88c.38.35.38.35.75 0l3.4-3.67 11.2-12.2 5.1-5.59c.24-.26.29-.41 0-.68l-3.52-3.29c-.34-.32-.35-.32-.69 0l-7.47 8.19-8.19 8.83c-.41.46-.42.46-.88 0l-4.15-3.76-4.12-3.81zm-9.72 14.39a19.54 19.54 0 0 0-2.64.39 6 6 0 0 0-4.95 6.38 5.11 5.11 0 0 0 2.11 3.94 7.13 7.13 0 0 0 2.4 1.16c1.24.36 2.51.67 3.77 1a9.32 9.32 0 0 1 2.72 1 2.76 2.76 0 0 1 .78 3.85 2.27 2.27 0 0 1-.18.25 3.82 3.82 0 0 1-1.91 1.24 7.27 7.27 0 0 1-4.72-.14 3.65 3.65 0 0 1-2.37-2.39.5.5 0 0 0-.56-.41h-2.21c-.35 0-.42.12-.37.47a6 6 0 0 0 3.4 4.66 10.86 10.86 0 0 0 8.19.42 5.89 5.89 0 0 0 4.56-5.38 5.08 5.08 0 0 0-2.43-5.26 10.63 10.63 0 0 0-2.21-1c-1.28-.41-2.6-.66-3.89-1a15 15 0 0 1-2.55-.95 2.3 2.3 0 0 1-1.21-2.73 2.84 2.84 0 0 1 1.84-2.13 5.94 5.94 0 0 1 3.25-.37 4 4 0 0 1 3.65 2.76.4.4 0 0 0 .42.32h2.27c.47 0 .52 0 .46-.56a5.81 5.81 0 0 0-2.5-4 9 9 0 0 0-5.12-1.52zm20.87 14.91h5.37c.34 0 .5-.09.46-.44a12.75 12.75 0 0 0-.15-2.43 6.47 6.47 0 0 0-5.1-5.52A11.2 11.2 0 0 0 55 47a6.81 6.81 0 0 0-6.45 4.8 10.54 10.54 0 0 0-.2 5.76 6.47 6.47 0 0 0 4.13 4.91 9.22 9.22 0 0 0 7.23-.27 5.19 5.19 0 0 0 2.85-3.08c.14-.39.12-.44-.27-.46h-2.4a.56.56 0 0 0-.39.21 3.87 3.87 0 0 1-2.86 1.57 4.42 4.42 0 0 1-4.3-1.56 5.16 5.16 0 0 1-1.09-2.68c0-.62 0-.64.6-.64z"/><path class="b" d="M55.52 53.15h-3.4c-.73 0-.76 0-.56-.77a4.31 4.31 0 0 1 5.4-2.8 5.23 5.23 0 0 1 .84.37 3.76 3.76 0 0 1 1.7 2.71c0 .44 0 .49-.44.49z"/></svg>