<svg xmlns="http://www.w3.org/2000/svg" width="102" height="122" viewBox="0 0 102 122"><path fill="none" d="M0 0h102v122H0z"/><path d="M35.95 91.5a3.12 3.12 0 0 1-1.21 2.59 5.21 5.21 0 0 1-3.29.93 8.21 8.21 0 0 1-3.4-.57V93a8.19 8.19 0 0 0 1.7.53 9.94 9.94 0 0 0 1.82.19 3.68 3.68 0 0 0 2.21-.56 1.8 1.8 0 0 0 .66-1.51 2 2 0 0 0-.26-1.07 2.64 2.64 0 0 0-.88-.78 12 12 0 0 0-1.94-.8 5.92 5.92 0 0 1-2.51-1.5 3.35 3.35 0 0 1-.77-2.25A2.78 2.78 0 0 1 29.29 83a4.59 4.59 0 0 1 2.91-.87 8.35 8.35 0 0 1 3.4.7l-.46 1.27a7.81 7.81 0 0 0-3-.66 2.91 2.91 0 0 0-1.83.51 1.67 1.67 0 0 0-.65 1.39 2 2 0 0 0 .24 1.06 2 2 0 0 0 .82.77 10.46 10.46 0 0 0 1.7.78 6.89 6.89 0 0 1 2.73 1.52 3 3 0 0 1 .8 2.03zm5.39 2.37a4.45 4.45 0 0 0 .73 0 2.66 2.66 0 0 0 .56-.12v1.14a3.11 3.11 0 0 1-.68.19 5.75 5.75 0 0 1-.83 0c-1.84 0-2.75-1-2.75-2.89v-5.64h-1.36v-.69l1.36-.6.61-2h.83v2.2h2.76v1.12h-2.76v5.56a1.85 1.85 0 0 0 .41 1.3 1.41 1.41 0 0 0 1.12.43zm1.68-8.44h1.57l2.07 5.39a22.84 22.84 0 0 1 .85 2.66 7.31 7.31 0 0 1 .44-1.48c.24-.71 1-2.9 2.36-6.56h1.53L47.8 96.19a5.27 5.27 0 0 1-1.43 2.27 3 3 0 0 1-2 .66 5.65 5.65 0 0 1-1.28-.12v-1.16a5.46 5.46 0 0 0 1.07.1 2.17 2.17 0 0 0 2.11-1.7l.53-1.33zm11.87 9.46h-1.43V81.47h1.43zm4.4-9.46v6.07a2.46 2.46 0 0 0 .53 1.69 2.13 2.13 0 0 0 1.7.56 2.67 2.67 0 0 0 2.18-.81 4 4 0 0 0 .69-2.64v-4.87h1.43v9.46h-1.17l-.22-1.27a2.78 2.78 0 0 1-1.23 1.07 4.21 4.21 0 0 1-1.78.37 3.7 3.7 0 0 1-2.6-.81 3.48 3.48 0 0 1-.87-2.63v-6.19zm15.66 6.88a2.41 2.41 0 0 1-1 2 4.64 4.64 0 0 1-2.77.71 6.23 6.23 0 0 1-2.94-.59v-1.24a7.17 7.17 0 0 0 1.46.55 6.51 6.51 0 0 0 1.52.18 3.45 3.45 0 0 0 1.7-.35 1.25 1.25 0 0 0 .12-2 8.16 8.16 0 0 0-1.87-.93 10 10 0 0 1-1.89-.85 2.53 2.53 0 0 1-.83-.83 2.16 2.16 0 0 1-.28-1.11 2.1 2.1 0 0 1 1-1.83 4.36 4.36 0 0 1 2.65-.72 7.87 7.87 0 0 1 3 .61L74.27 87a6.94 6.94 0 0 0-2.62-.62 3 3 0 0 0-1.54.32 1.08 1.08 0 0 0-.35 1.49 1.82 1.82 0 0 0 .63.51 12 12 0 0 0 1.7.71 6.37 6.37 0 0 1 2.28 1.22 2.27 2.27 0 0 1 .58 1.68zM26.43 54.22c1.92-2.3 2.16-4.67.67-9.08-1-2.8-2.52-5-1.36-6.68s3.84 0 1.7 2.41l.42.3c2.62.31 3.89-3.25 2-4.27-5.1-2.67-9.64 2.46-7.65 8.48.85 2.52 2 5.2 1.07 7.32a4.8 4.8 0 0 1-3.52 2.95c-2.25.1-.75-5.09 1.83-6.32.22-.11.55-.26.24-.63a5.64 5.64 0 0 0-6.1 3.15c-3.25 5.98 5.84 8.15 10.7 2.37zm56.1-17.57c.75 1.81 1.86 3.61 1.19 5.19s-1.26 1.93-2 2c-1.11.18-.82-3.29 1.1-4.32.17-.11.41-.56.19-.82a4.34 4.34 0 0 0-4.52 2.54c-2.15 4.46 4.84 5.7 8.26 1.31 1.36-1.7 1.41-3.49.12-6.64-.84-2-2.11-3.48-1.31-4.8s2.89-.19 1.36 1.7l.34.18c2 .1 2.79-2.52 1.29-3.18-4-1.66-7.68 2.61-5.93 6.84zm-25.21-4.71c-1.38-1.08-5.25.73-6.36 3.39-1.37 3.39-3.4 8.47-5.42 10.67s-2.33.53-2.11-.81a40.34 40.34 0 0 1 5.26-12.49c-.63-.91-4.71-.79-7.55 3.6-1.06 1.7-3.4 7.18-6.19 11.53-.59.94-1.32.29-.76-1.93a104.6 104.6 0 0 1 5-15 104 104 0 0 1 18.36-2.06c.7-.19 1.17-.82 0-.85a121.78 121.78 0 0 0-17.49 1.17A13 13 0 0 1 43.89 24a4.73 4.73 0 0 0-6 1.9 29.76 29.76 0 0 0-2.18 3.85 64.82 64.82 0 0 0-10.57 2.27c-2.07.8-1.85 3.3-.58 2.83A84 84 0 0 1 34.76 32a78 78 0 0 0-4.94 15c-1.18 6.59 2.92 6.56 4.93 4s6.71-12.87 7.41-13.92c.2-.35.49-.16.34.16-5.1 10.08-4.64 14-.53 13.11 1.85-.4 5.1-3.56 5.87-5.2.17-.39.52-.36.45-.19-3.21 8.31-7.29 15-10 17.15s-4.34-2.25 4.45-8.11c1.3-.88.69-2.08-.77-1.69-4.56.69-17.61 4.79-23.32 8.76-.45.29-.84.54-.82 1.17 0 .35.65.22.94 0a59.87 59.87 0 0 1 20.4-7.61.51.51 0 0 0 .3 0c.32 0 .31.08.1.22a8.24 8.24 0 0 1-1.07.54c-4.67 1.83-7.55 5.86-6.55 7.91.85 1.7 5.44 1.14 7.62 0 5.38-2.88 9.23-8.47 11.94-16.3 2.22-7 5.13-14.81 5.81-15.06zm31 16c-8.67-1.13-27.39.37-35.7 2.56-2.45.64-1.7 1.95-.53 1.7l.56-.14c6.8-1.32 23.26-2.46 32.86-.63 1.19.17 4.64-3.29 2.79-3.53zm-28.56-1c2.41-1.21 6-8.68 8.38-12.76.17-.31.47 0 .3.15-6 10.25-3.4 11.44-1.09 11.28 3.17-.18 6.07-4.71 6.72-5.72.25-.39.41-.09.25.2s-.69 1.3-1.2 2.44c-.72 1.59 0 2.22.66 2.49 1 .47 3.67.17 4.08-1.46-2.69 0 3.74-12.69 4.4-13.45-1.7-1-4.57.08-5.83 2.57-2.7 5.34-5 9.63-6.32 9.73-2.76.15 3.18-11.86 4.15-12.27-.6-.84-4.36-.49-6.46 2.75-.75 1.17-5.36 9.32-6.5 10.66-2 2.37-2.16.34-1.6-2 .21-.8.53-1.85.94-3a14.09 14.09 0 0 1 3.6-4.88c5.87-6.47 9.13-11.72 7.81-13.77s-5.1-1-7.6 2.74c-4.66 6.83-8.93 16.36-9.5 20.64s2.66 4.66 4.79 3.61zm2.46-12.7c.2-.45.34-.59.7-1.39a66.19 66.19 0 0 1 6.47-11.6c1.13-1.17 2.69.42-.15 4.76a43.23 43.23 0 0 1-5.61 7c-.53.59-1 1.07-1.21 1.36s-.32.15-.2-.12z" fill="#152177"/></svg>