<svg xmlns="http://www.w3.org/2000/svg" width="102" height="122" viewBox="0 0 102 122"><defs><style>.b{fill:#152177}</style></defs><path fill="none" d="M0 0h102v122H0z"/><path class="b" d="M45.68 47.73s3.25-.29 3.25-4.47a4.44 4.44 0 0 0-4-4.58h-7.1V51.9h3.57v-3.18l3.09 3.18h5.27zM44.3 45h-2.85v-3h2.87a1.48 1.48 0 0 1 .8 1.49A1.55 1.55 0 0 1 44.3 45zm13.43-6.25h-3.62a3.4 3.4 0 0 0-3.4 3.39v9.67h3.62v-2.23h3.4v2.32h3.4v-9.67a3.39 3.39 0 0 0-3.33-3.46zm0 7.06h-3.4v-3.2s0-.73 1.12-.73h1.26c1 0 1 .73 1 .73zm5.1-7.06h3.78V51.9h-3.78zm9.08 9.74v-9.72h-3.74V51.9H77v-3.39zm6.31 0v3.41h6.08a3.4 3.4 0 0 0 3.4-3.39v-1.29a3.39 3.39 0 0 0-3.4-3.38h-3v-1.56h6v-3.39h-5.77a3.55 3.55 0 0 0-3.4 3.47v1.17a3.4 3.4 0 0 0 3.4 3.39h2.86v1.69z"/><path d="M15.39 51.88h14.68s-2.8-12.77 6.5-18c2-1 8.5-4.64 19 3.13.34-.28.66-.5.66-.5s-9.65-9.6-20.38-8.51c-5.4.49-12.07 5.39-16 11.86a32 32 0 0 0-4.46 12.02zM46 29.06l.09-1.24a10.57 10.57 0 0 0-1.82-.71v1.22c.52.27 1.12.48 1.73.73zM44.28 33v1.17a11.28 11.28 0 0 1 1.84.22l.09-1.13a12.19 12.19 0 0 0-2-.26zm-6.8-5.78h.19l-.37-1.13a16 16 0 0 0-1.7.12l.4 1.09a12.44 12.44 0 0 1 1.37-.09zm.89 6.78l.42 1.27a14 14 0 0 1 1.62-.64L40 33.4a11 11 0 0 0-1.77.64zm-8.5-4.88L29 27.84c-.48.24-1 .49-1.47.8l.87 1.28c.39-.23.87-.52 1.36-.76zm3.81 8.34l.88 1.34a9.43 9.43 0 0 1 1.11-1.33l-.84-1.25a11.43 11.43 0 0 0-1.22 1.29zm-2.71 6l1.52 1.19a13.34 13.34 0 0 1 .39-2.17l-1.35-1a21.58 21.58 0 0 0-.62 2.08zm-8.14-8.79l-1.31-1.15c-.49.45-.95.93-1.37 1.38l1.42 1.22a10.92 10.92 0 0 1 1.19-1.4zm-5.61 8.23l-2.14-.78c-.34.8-.73 1.7-.92 2.22l2.13.78c.18-.57.64-1.49.86-2.17zm13.48 5.22a20.15 20.15 0 0 0 .22 2.34l2.23.8c-.17-.73-.32-1.55-.44-2.41z" fill="#7555b3"/><path class="b" d="M31 89.37v5.25h-1.45V82H33a5.54 5.54 0 0 1 3.4.9 3.22 3.22 0 0 1 1.1 2.68A3.39 3.39 0 0 1 34.92 89l3.4 5.67h-1.7l-3.06-5.25zm0-1.26h2a3.38 3.38 0 0 0 2.28-.63 2.28 2.28 0 0 0 .73-1.84 2.1 2.1 0 0 0-.75-1.8 3.93 3.93 0 0 0-2.26-.56h-2zm10.65-2.95v6.14a2.37 2.37 0 0 0 .53 1.7 2.09 2.09 0 0 0 1.7.58 2.67 2.67 0 0 0 2.17-.82 4 4 0 0 0 .68-2.64v-5h1.45v9.46H47l-.21-1.27a2.91 2.91 0 0 1-1.24 1.06 4.07 4.07 0 0 1-1.78.38 3.63 3.63 0 0 1-2.6-.75 3.38 3.38 0 0 1-.86-2.61v-6.23zM55.59 85a3.54 3.54 0 0 1 2.91 1.29 6.77 6.77 0 0 1 0 7.22 3.55 3.55 0 0 1-2.89 1.29 4.27 4.27 0 0 1-1.7-.34 3.27 3.27 0 0 1-1.28-1h-.1l-.31 1.22h-1v-13.5h1.44v5.24A3.42 3.42 0 0 1 55.59 85zm-.2 1.21a2.51 2.51 0 0 0-2.13.84 4.87 4.87 0 0 0-.63 2.77 4.71 4.71 0 0 0 .66 2.84 2.56 2.56 0 0 0 2.15.87 2.23 2.23 0 0 0 2-1 5.15 5.15 0 0 0 .56-2.72 4.74 4.74 0 0 0-.65-2.75 2.3 2.3 0 0 0-1.96-.86zm5.15-1.05h1.53l2.09 5.39a20.7 20.7 0 0 1 .84 2.64 8 8 0 0 1 .48-1.5c.23-.72 1-2.9 2.34-6.54h1.55l-4.09 10.76a5.34 5.34 0 0 1-1.34 2.37 3.12 3.12 0 0 1-2 .66 5.55 5.55 0 0 1-1.29-.15v-1.14a4.62 4.62 0 0 0 1.05.1 2.23 2.23 0 0 0 2.13-1.69l.52-1.34zm-32.12 25.91a5.19 5.19 0 0 1-1.17 3.61A4 4 0 0 1 24 116a4.25 4.25 0 0 1-2.26-.59 3.85 3.85 0 0 1-1.53-1.69 6 6 0 0 1-.55-2.61 5.09 5.09 0 0 1 1.18-3.59 4 4 0 0 1 3.21-1.29 4 4 0 0 1 3.16 1.32 5 5 0 0 1 1.21 3.52zm-7.22 0a4.41 4.41 0 0 0 .73 2.76 2.47 2.47 0 0 0 2.14 1 2.54 2.54 0 0 0 2.14-.93 4.65 4.65 0 0 0 .74-2.78 4.43 4.43 0 0 0-.74-2.73 2.6 2.6 0 0 0-2.15-1 2.57 2.57 0 0 0-2.15.94 4.42 4.42 0 0 0-.71 2.74zm16.23 4.75v-6.12a2.43 2.43 0 0 0-.52-1.7 2.21 2.21 0 0 0-1.7-.57 2.73 2.73 0 0 0-2.18.81 4 4 0 0 0-.7 2.64v5h-1.44v-9.49h1.17l.24 1.29a2.91 2.91 0 0 1 1.24-1.09 4.13 4.13 0 0 1 1.7-.37 3.63 3.63 0 0 1 2.58.81 3.53 3.53 0 0 1 .87 2.65v6.17zm10.7-5.26v5.26h-1.48v-12.63h3.4a5.46 5.46 0 0 1 3.4.9 3.2 3.2 0 0 1 1.22 2.66 3.39 3.39 0 0 1-2.55 3.39l3.4 5.68h-1.7l-3.06-5.26zm0-1.25h2a3.59 3.59 0 0 0 2.3-.61 2.38 2.38 0 0 0 .71-1.87 2.08 2.08 0 0 0-.73-1.77 4 4 0 0 0-2.41-.56h-1.9zm15.09 6.51l-.29-1.36a3.81 3.81 0 0 1-1.41 1.2 3.93 3.93 0 0 1-1.7.32 3.17 3.17 0 0 1-2.21-.72 2.68 2.68 0 0 1-.8-2.05c0-1.92 1.53-2.92 4.59-3h1.7v-.58a2.33 2.33 0 0 0-.47-1.69 2 2 0 0 0-1.55-.54 6.27 6.27 0 0 0-2.67.73l-.68-1.13a7.18 7.18 0 0 1 1.53-.61 7.52 7.52 0 0 1 1.7-.2 3.63 3.63 0 0 1 2.52.74 3.15 3.15 0 0 1 .81 2.41v6.46zm-3.24-1a2.88 2.88 0 0 0 2.1-.73 2.69 2.69 0 0 0 .75-2v-.86H61.4a5.32 5.32 0 0 0-2.48.52 1.7 1.7 0 0 0-.75 1.47 1.47 1.47 0 0 0 .46 1.17 2 2 0 0 0 1.37.41zm7.15-11.02a.94.94 0 0 1 .24-.73.82.82 0 0 1 .56-.22.94.94 0 0 1 .6.22 1 1 0 0 1 .23.73.92.92 0 0 1-.23.71.89.89 0 0 1-.6.24.81.81 0 0 1-.61-.24.91.91 0 0 1-.19-.71zm1.55 12h-1.43v-9.46h1.43zm4.49.02h-1.43V102.4h1.43zm9.16-2.58a2.33 2.33 0 0 1-1 2 4.64 4.64 0 0 1-2.77.71 6.11 6.11 0 0 1-2.94-.59v-1.32a7.77 7.77 0 0 0 1.46.54 7.11 7.11 0 0 0 1.52.19 3.35 3.35 0 0 0 1.7-.36 1.17 1.17 0 0 0 .61-1.08 1.23 1.23 0 0 0-.48-1 7.66 7.66 0 0 0-1.88-.93 9.85 9.85 0 0 1-1.87-.85 2.44 2.44 0 0 1-.84-.85 2.29 2.29 0 0 1 .67-2.93 4.42 4.42 0 0 1 2.58-.66 7.78 7.78 0 0 1 3 .61l-.51 1.28a6.75 6.75 0 0 0-2.58-.59 3 3 0 0 0-1.53.32 1 1 0 0 0-.32 1.52 1.45 1.45 0 0 0 .61.51 11.51 11.51 0 0 0 1.7.71 6.46 6.46 0 0 1 2.28 1.22 2.21 2.21 0 0 1 .59 1.55z"/></svg>