<svg xmlns="http://www.w3.org/2000/svg" width="102" height="122" viewBox="0 0 102 122"><defs><style>.b{fill:#152177}.c{fill:#d789ef}</style></defs><path fill="none" d="M0 0h102v122H0z"/><path class="b" d="M75.06 22.11a1.84 1.84 0 0 0-1.31-1.49s-14.61-6.06-23.35-6.06c-10.2 0-22.1 6.06-22.1 6.06a1.82 1.82 0 0 0-1.3 1.49c-.12.93-3.08 22.79 4.48 33.67a35.56 35.56 0 0 0 19.09 13.69 1.55 1.55 0 0 0 .43 0 1.55 1.55 0 0 0 .43 0 35.57 35.57 0 0 0 19.14-13.76c7.63-10.81 4.6-32.71 4.49-33.6z"/><path class="c" d="M51 71.17a3.09 3.09 0 0 1-.8-.11 37.16 37.16 0 0 1-20.08-14.38c-7.88-11.35-4.87-33.89-4.74-34.79a3.39 3.39 0 0 1 2.28-2.73C29 18.47 40.32 13 50.41 13c8.7 0 22.57 5.62 23.8 6.15a3.38 3.38 0 0 1 2.34 2.76c.14.95 3.16 23.4-4.74 34.79a37.16 37.16 0 0 1-20.08 14.36 3 3 0 0 1-.73.11zM51 68a33.71 33.71 0 0 0 18.21-13.12c7.29-10.37 4.4-31.63 4.26-32.55a.22.22 0 0 0-.15-.18L73.1 22c-.1 0-14.42-5.9-22.73-5.9C40.65 16.15 29.09 22 29 22l-.3.12a.28.28 0 0 0-.17.18c-.12.9-3 22.18 4.21 32.55A33.68 33.68 0 0 0 51 68z"/><path class="c" d="M51.41 30.35a42.7 42.7 0 0 0-.41-6.78 2.12 2.12 0 0 1-.78 1.69 20 20 0 0 0-7.09 14.92c-.4 8.79 6.4 14 7.31 14.7A12.44 12.44 0 0 1 51 59l1 .33a19.09 19.09 0 0 1 .08-3.78 3.54 3.54 0 0 1 1.7-1.95c-.89-12.85-1.71-19.95-2.37-23.25z"/><path d="M52.56 54.65A16.92 16.92 0 0 0 59 37.7c-1.88-8.3-6.36-11-6.8-12.08a12.58 12.58 0 0 1-1.05-2l.36 23.13s-.82 7.05 1.05 7.9z" fill="#7555b3"/><path class="b" d="M17.14 94.89l-4.3-11.18c0 .89.11 1.94.11 3.16v8h-1.36V82.35h2.16l4 10.4 4-10.4H24v12.54h-1.47v-8a29.88 29.88 0 0 1 .11-3l-4.33 11.1zm18.37-4.66a5.19 5.19 0 0 1-1.17 3.61 4.56 4.56 0 0 1-5.44.69 3.86 3.86 0 0 1-1.51-1.69 6 6 0 0 1-.55-2.61A5.3 5.3 0 0 1 28 86.62a4.12 4.12 0 0 1 3.23-1.29 4 4 0 0 1 3.16 1.32 5.15 5.15 0 0 1 1.12 3.58zm-7.24 0A4.58 4.58 0 0 0 29 93a2.89 2.89 0 0 0 4.08.2l.21-.2a4.49 4.49 0 0 0 .71-2.77 4.4 4.4 0 0 0-.73-2.75 2.59 2.59 0 0 0-2.16-.93 2.57 2.57 0 0 0-2.13.92 4.49 4.49 0 0 0-.71 2.76zm16.25 4.66v-6a2.5 2.5 0 0 0-.52-1.74 2.11 2.11 0 0 0-1.7-.58 2.72 2.72 0 0 0-2.18.8 4.12 4.12 0 0 0-.7 2.66v4.86H38V85.5h1.17l.22 1.31a3 3 0 0 1 1.24-1.09 4.14 4.14 0 0 1 1.87-.39 3.58 3.58 0 0 1 2.57.83 3.47 3.47 0 0 1 .83 2.63v6.1zm12.16-9.39v.92l-1.7.2a3.33 3.33 0 0 1 .44.78 3.18 3.18 0 0 1 .19 1.1 2.81 2.81 0 0 1-1 2.22 3.8 3.8 0 0 1-2.61.83 3.57 3.57 0 0 1-.8 0 1.41 1.41 0 0 0-.92 1.22.63.63 0 0 0 .32.58 2.47 2.47 0 0 0 1.11.18h1.7a3.74 3.74 0 0 1 2.38.65 2.23 2.23 0 0 1 .81 1.88 2.66 2.66 0 0 1-1.25 2.39 6.8 6.8 0 0 1-3.69.83 5.18 5.18 0 0 1-2.88-.7 2.23 2.23 0 0 1-1.1-2 2.16 2.16 0 0 1 .56-1.49 2.66 2.66 0 0 1 1.55-.85 1.52 1.52 0 0 1-.53-.54 1.39 1.39 0 0 1-.24-.79 1.49 1.49 0 0 1 .24-.9 2.91 2.91 0 0 1 .88-.76 2.65 2.65 0 0 1-1.2-1 3.38 3.38 0 0 1 .47-4 3.83 3.83 0 0 1 2.66-.85 4.69 4.69 0 0 1 1.34.17zM49.1 96.58a1.27 1.27 0 0 0 .66 1.17 3.6 3.6 0 0 0 1.85.39 5.31 5.31 0 0 0 2.69-.54 1.67 1.67 0 0 0 .86-1.46 1.13 1.13 0 0 0-.47-1.06 3.55 3.55 0 0 0-1.79-.29h-1.7a2.27 2.27 0 0 0-1.51.45 1.69 1.69 0 0 0-.59 1.34zm.78-8a1.93 1.93 0 0 0 .56 1.51 2.26 2.26 0 0 0 1.58.5 1.84 1.84 0 0 0 2.09-1.53 2.26 2.26 0 0 0 0-.52 1.86 1.86 0 0 0-1.57-2.11 1.69 1.69 0 0 0-.55 0 2.1 2.1 0 0 0-1.57.54 2.2 2.2 0 0 0-.54 1.57zm16.93 1.65a5.19 5.19 0 0 1-1.17 3.61 4.64 4.64 0 0 1-5.49.69 4 4 0 0 1-1.52-1.69 6 6 0 0 1-.54-2.61 5.24 5.24 0 0 1 1.15-3.61 4.15 4.15 0 0 1 3.24-1.29 4 4 0 0 1 3.16 1.32 5.23 5.23 0 0 1 1.17 3.58zm-7.23 0A4.57 4.57 0 0 0 60.3 93a2.57 2.57 0 0 0 2.14 1 2.51 2.51 0 0 0 2.16-1 5.56 5.56 0 0 0 0-5.51 3 3 0 0 0-4.16-.12l-.12.12a4.56 4.56 0 0 0-.74 2.74zm20.06-1.7a6.31 6.31 0 0 1-1.7 4.78 6.8 6.8 0 0 1-4.84 1.58h-3.55V82.35h3.87a5.67 5.67 0 0 1 6.22 5.06 5.24 5.24 0 0 1 0 1.12zm-1.56 0a5.1 5.1 0 0 0-1.24-3.71 5 5 0 0 0-3.74-1.2H71v10.07h1.8a5.47 5.47 0 0 0 4-1.29 5.06 5.06 0 0 0 1.32-3.81zm4.39-6.18H86a6.8 6.8 0 0 1 3.63.75 2.6 2.6 0 0 1 1.14 2.37 2.68 2.68 0 0 1-.63 1.84 3 3 0 0 1-1.83 1c1.92.34 2.89 1.34 2.89 3A3.25 3.25 0 0 1 90.1 94a4.88 4.88 0 0 1-3.2.95h-4.42zm1.46 5.41h2.43a4 4 0 0 0 2.24-.5 1.84 1.84 0 0 0 .68-1.69 1.67 1.67 0 0 0-.76-1.57 4.77 4.77 0 0 0-2.41-.46h-2.18zm0 1.23v4.71h2.65a3.71 3.71 0 0 0 2.3-.51 2.17 2.17 0 0 0 .78-1.86 1.94 1.94 0 0 0-.8-1.69 4.13 4.13 0 0 0-2.4-.56z"/></svg>