<svg xmlns="http://www.w3.org/2000/svg" width="102" height="122" viewBox="0 0 102 122"><path fill="none" d="M0 0h102v122H0z"/><path d="M11.27 32.36h6.8v3.22h-2.64v19h2.55v3.17h-6.71zm11.89 20.47a7.93 7.93 0 0 1-3.17-10.78 1.71 1.71 0 0 1 .13-.23 7.93 7.93 0 0 1 3-2.85 9.28 9.28 0 0 1 4.39-1 9.2 9.2 0 0 1 4.37 1 7.93 7.93 0 0 1 3 2.85 7.81 7.81 0 0 1-2.6 10.76l-.44.25a9.33 9.33 0 0 1-4.37 1 9.17 9.17 0 0 1-4.31-1zm6.48-3.1a4.11 4.11 0 0 0 1.52-1.54 4.8 4.8 0 0 0 .51-2.29 5 5 0 0 0-.51-2.29 4 4 0 0 0-1.5-1.52 4.25 4.25 0 0 0-4.2 0 4 4 0 0 0-1.5 1.52 5 5 0 0 0-.57 2.29 4.8 4.8 0 0 0 .54 2.29 4.11 4.11 0 0 0 1.5 1.54 4.3 4.3 0 0 0 4.2 0zm18.91-7.47a5.34 5.34 0 0 1 2.11 2.13 7 7 0 0 1 0 6.44 5.41 5.41 0 0 1-2.11 2.16 5.81 5.81 0 0 1-2.94.76 4.33 4.33 0 0 1-3.45-1.37v1.16h-4V37.28h4.16v5.39a4.44 4.44 0 0 1 3.32-1.22 6 6 0 0 1 2.91.81zm-2 7.44a2.94 2.94 0 0 0 .69-2.09 2.87 2.87 0 0 0-.69-2.06 2.36 2.36 0 0 0-1.8-.73 2.31 2.31 0 0 0-1.7.73 3.35 3.35 0 0 0 0 4.15 2.31 2.31 0 0 0 1.7.74 2.36 2.36 0 0 0 1.78-.74zm3.41 7.67l1-2.94a2.44 2.44 0 0 0 1.29.33 1 1 0 0 0 .9-.39 1.69 1.69 0 0 0 .34-1.15v-11.5h4.15v11.52a4.65 4.65 0 0 1-1.28 3.39 4.79 4.79 0 0 1-3.51 1.27 6 6 0 0 1-2.89-.53zm3.83-17.6a2.1 2.1 0 0 1-.19-3l.19-.18a2.55 2.55 0 0 1 1.83-.63 2.76 2.76 0 0 1 1.84.59 1.93 1.93 0 0 1 .7 1.58 2.06 2.06 0 0 1-.71 1.69 2.52 2.52 0 0 1-1.84.64 2.57 2.57 0 0 1-1.82-.69zm6.3 5.98h6.4v3.15h-6.4zm12.35 7.08a7.46 7.46 0 0 1-3-2.83 8.27 8.27 0 0 1 0-8.2 7.59 7.59 0 0 1 3-2.83 9 9 0 0 1 4.33-1 9.32 9.32 0 0 1 3.79.74 7.25 7.25 0 0 1 2.74 2.14l-2.77 2.49a4.57 4.57 0 0 0-3.61-1.8 4.42 4.42 0 0 0-2.22.56 3.77 3.77 0 0 0-1.54 1.51 5.13 5.13 0 0 0 0 4.58 3.88 3.88 0 0 0 1.52 1.54 4.42 4.42 0 0 0 2.22.54 4.51 4.51 0 0 0 3.61-1.79l2.77 2.49a7.28 7.28 0 0 1-2.81 2.13 9.84 9.84 0 0 1-8.12-.27zm11.57 4.95v-3.17h2.55v-19h-2.55v-3.25h6.72v25.42zM16.73 88.64a7 7 0 0 1-1.57 4.76 5.45 5.45 0 0 1-4.29 1.69 5.51 5.51 0 0 1-4.28-1.69 7.06 7.06 0 0 1-1.49-4.78 6.91 6.91 0 0 1 1.53-4.78 5.51 5.51 0 0 1 4.32-1.69 5.39 5.39 0 0 1 4.26 1.69 7 7 0 0 1 1.52 4.8zm-10.08 0a6 6 0 0 0 1.08 3.89 3.93 3.93 0 0 0 3.18 1.37 3.85 3.85 0 0 0 3.18-1.33 6.06 6.06 0 0 0 1.07-3.93 6 6 0 0 0-1.07-3.92 3.83 3.83 0 0 0-3.16-1.3 3.92 3.92 0 0 0-3.2 1.3 5.89 5.89 0 0 0-1.08 3.92zm17.15-3.29a3.55 3.55 0 0 1 2.91 1.27 5.66 5.66 0 0 1 1 3.61 5.56 5.56 0 0 1-1 3.61 3.5 3.5 0 0 1-2.89 1.3 4 4 0 0 1-1.7-.35 3.24 3.24 0 0 1-1.28-1h-.1l-.34 1.11h-1V81.54h1.45v5.23a3.38 3.38 0 0 1 2.95-1.42zm-.21 1.2a2.51 2.51 0 0 0-2.12.85 4.68 4.68 0 0 0-.65 2.83 4.77 4.77 0 0 0 .67 2.85 2.55 2.55 0 0 0 2.14.86 2.23 2.23 0 0 0 1.87-1 5 5 0 0 0 .66-2.73 4.86 4.86 0 0 0-.64-2.76 2.37 2.37 0 0 0-2-.9zm5.44 12.66a3.31 3.31 0 0 1-1.32-.22v-1.17a4.21 4.21 0 0 0 1.17.19 1.29 1.29 0 0 0 1-.38 1.69 1.69 0 0 0 .28-1.11v-11h1.45v10.89c.03 1.87-.84 2.8-2.58 2.8zm1-16.27a1 1 0 0 1 .24-.71.88.88 0 0 1 1.21 0 .93.93 0 0 1 .25.71 1 1 0 0 1-.25.73.88.88 0 0 1-1.21 0 1.08 1.08 0 0 1-.24-.64zm8.66 12.2a4.42 4.42 0 0 1-3.4-1.24 5 5 0 0 1-1.21-3.55 5.45 5.45 0 0 1 1.13-3.62 3.77 3.77 0 0 1 3-1.36 3.59 3.59 0 0 1 2.82 1.17 4.5 4.5 0 0 1 1 3.09v.91H35.7a3.82 3.82 0 0 0 .85 2.53 3 3 0 0 0 2.26.86 7.6 7.6 0 0 0 3-.7v1.28a8.29 8.29 0 0 1-3.08.67zm-.39-8.6a2.32 2.32 0 0 0-1.82.74 3.36 3.36 0 0 0-.78 2.05h4.93a3.28 3.28 0 0 0-.6-2.08 2.14 2.14 0 0 0-1.73-.71zm10.11 8.6a4 4 0 0 1-3.19-1.24 5.13 5.13 0 0 1-1.12-3.57 5.36 5.36 0 0 1 1.14-3.68 4.2 4.2 0 0 1 3.28-1.29 6.3 6.3 0 0 1 1.36.15 4.94 4.94 0 0 1 1.07.34l-.44 1.22a6.56 6.56 0 0 0-1-.32 5.58 5.58 0 0 0-1-.12c-1.94 0-2.9 1.22-2.9 3.68a4.37 4.37 0 0 0 .71 2.68 2.5 2.5 0 0 0 2.09.93 6.34 6.34 0 0 0 2.43-.51v1.27a5.22 5.22 0 0 1-2.43.46zm7.69-1.18h.73l.56-.12v1a2.76 2.76 0 0 1-.68.19 5.75 5.75 0 0 1-.83 0c-1.84 0-2.74-1-2.74-2.9v-5.51h-1.36v-.72l1.36-.6.6-2h.83v2.2h2.75v1.12H54.6v5.56a2 2 0 0 0 .41 1.32 1.45 1.45 0 0 0 1.09.46zm3.06-10.93a.9.9 0 0 1 .26-.71.86.86 0 0 1 1.19 0 .93.93 0 0 1 .25.71 1 1 0 0 1-.25.73.88.88 0 0 1-1.19 0 1 1 0 0 1-.26-.73zm1.6 11.87h-1.43v-9.4h1.43zm5.13 0l-3.6-9.46h1.53l2 5.61a21.07 21.07 0 0 1 .8 2.56 10.32 10.32 0 0 1 .61-1.9c.34-1 1.09-3 2.28-6.27h1.53l-3.48 9.46zm10.81.24a4.45 4.45 0 0 1-3.4-1.24 4.94 4.94 0 0 1-1.2-3.55 5.39 5.39 0 0 1 1.12-3.62 3.74 3.74 0 0 1 3-1.36 3.61 3.61 0 0 1 2.83 1.17 4.5 4.5 0 0 1 1 3.09v.91h-6.41a3.75 3.75 0 0 0 .85 2.53 2.94 2.94 0 0 0 2.25.86 7.63 7.63 0 0 0 3-.7v1.28a6.64 6.64 0 0 1-1.45.47 7.42 7.42 0 0 1-1.59.16zm-.41-8.6a2.34 2.34 0 0 0-1.81.74 3.38 3.38 0 0 0-.8 2.05h5a3.17 3.17 0 0 0-.61-2.08 2.1 2.1 0 0 0-1.78-.71zm5.55 4.36v-1.33h4.25v1.33zm12.13-7.41a4.11 4.11 0 0 0-3.29 1.41 6.72 6.72 0 0 0 0 7.62 4.18 4.18 0 0 0 3.4 1.36 11.72 11.72 0 0 0 2.87-.48v1.29a9.47 9.47 0 0 1-3.25.49 5.47 5.47 0 0 1-4.3-1.69 7 7 0 0 1-1.53-4.81 7.64 7.64 0 0 1 .73-3.39 5.21 5.21 0 0 1 2.19-2.22 6.4 6.4 0 0 1 3.25-.8 8 8 0 0 1 3.4.73l-.61 1.25a6.69 6.69 0 0 0-2.86-.76z" fill="#152177"/></svg>