<svg xmlns="http://www.w3.org/2000/svg" width="102" height="122" viewBox="0 0 102 122"><path fill="none" d="M0 0h102v122H0z"/><path d="M30.41 27.6h34.27a12.26 12.26 0 0 0 9.42-4.41 25.85 25.85 0 0 0-43.69 4.41m31.37 4H28.9a25.81 25.81 0 0 0 0 14.47h32.88a7.24 7.24 0 1 0 0-14.47m12.41 22.84a12.21 12.21 0 0 0-9.34-4.32H30.41a25.85 25.85 0 0 0 43.78 4.32" fill="#7555b3"/><path d="M28.9 31.63a25.81 25.81 0 0 0 0 14.47h21.5a30 30 0 0 0 0-14.47zm11.75-15a26.42 26.42 0 0 0-10.2 11h19a28 28 0 0 0-8.79-11m.75 45A29 29 0 0 0 50 50.12H30.4a26.53 26.53 0 0 0 11.05 11.44M9.76 94.62H3.23V82.93h6.53v1.2h-5.1v3.78h4.78v1.18H4.59v4.31h5.1l.07 1.22zm3.72 0h-1.33V82.18h1.33v12.44zm8.23-.01l-.26-1.25a4.05 4.05 0 0 1-1.31 1.12 4.26 4.26 0 0 1-1.7.29 2.9 2.9 0 0 1-2.05-.68 2.42 2.42 0 0 1-.73-1.9c0-1.69 1.41-2.69 4.25-2.78h1.49v-.54a2.09 2.09 0 0 0-.46-1.52 1.83 1.83 0 0 0-1.41-.5 6 6 0 0 0-2.48.66l-.41-1.1a6.58 6.58 0 0 1 1.41-.56 6.37 6.37 0 0 1 1.57-.2 3.39 3.39 0 0 1 2.31.76 2.9 2.9 0 0 1 .76 2.24v6zm-3-.94a2.71 2.71 0 0 0 1.94-.7 2.5 2.5 0 0 0 .72-1.9v-.8H20a4.9 4.9 0 0 0-2.29.49 1.45 1.45 0 0 0-.7 1.36 1.32 1.32 0 0 0 .43 1.08 1.82 1.82 0 0 0 1.26.47zm12.41-1.44a2.2 2.2 0 0 1-.92 1.88 4.37 4.37 0 0 1-2.57.66 5.6 5.6 0 0 1-2.72-.56v-1.24a8.6 8.6 0 0 0 1.36.51 6 6 0 0 0 1.4.17 3.18 3.18 0 0 0 1.6-.33 1.11 1.11 0 0 0 .56-1 1.06 1.06 0 0 0-.44-.87 6.48 6.48 0 0 0-1.7-.86 10.55 10.55 0 0 1-1.7-.8 2.3 2.3 0 0 1-.77-.78 2.09 2.09 0 0 1 .63-2.71 4.12 4.12 0 0 1 2.4-.63 7.35 7.35 0 0 1 2.77.58l-.48 1.09a6.42 6.42 0 0 0-2.4-.55 2.9 2.9 0 0 0-1.42.29.92.92 0 0 0-.48.81 1 1 0 0 0 .17.61 1.56 1.56 0 0 0 .59.47c.25.13.78.35 1.53.64a5.81 5.81 0 0 1 2.1 1.14 2 2 0 0 1 .48 1.48zm5 1.44h.68l.52-.11v1a2.74 2.74 0 0 1-.64.17 5 5 0 0 1-.77 0c-1.7 0-2.53-.9-2.53-2.68v-5.16h-1.27v-.65l1.26-.56.56-1.86h.77v2h2.55v1H34.7v5.15a1.67 1.67 0 0 0 .37 1.2 1.31 1.31 0 0 0 1.04.5zM39 83.48a1 1 0 0 1 .22-.68.85.85 0 0 1 .58-.2.77.77 0 0 1 .54.22.86.86 0 0 1 .24.66.84.84 0 0 1-.24.66.7.7 0 0 1-.54.22.77.77 0 0 1-.58-.22.89.89 0 0 1-.22-.66zm1.44 11.13H39.1v-8.76h1.33zm6.34.16a3.82 3.82 0 0 1-3-1.17 4.79 4.79 0 0 1-1.05-3.39 5 5 0 0 1 1.07-3.39 3.83 3.83 0 0 1 3-1.2 6 6 0 0 1 1.26.13 5.06 5.06 0 0 1 1 .32l-.41 1.14a6.45 6.45 0 0 0-1-.31 5.63 5.63 0 0 0-.92-.1c-1.78 0-2.67 1.14-2.67 3.39a4 4 0 0 0 .65 2.48 2.27 2.27 0 0 0 1.94.86 6.1 6.1 0 0 0 2.24-.34v1.17a4.79 4.79 0 0 1-2.16.41zm10-2.54a2.19 2.19 0 0 1-.91 1.88 4.32 4.32 0 0 1-2.55.66 5.74 5.74 0 0 1-2.74-.56v-1.24a10.55 10.55 0 0 0 1.36.51 6.52 6.52 0 0 0 1.39.17 3.3 3.3 0 0 0 1.7-.33 1.11 1.11 0 0 0 .5-.91 1.15 1.15 0 0 0-.46-.93 6.83 6.83 0 0 0-1.7-.87 9.72 9.72 0 0 1-1.7-.79 2.49 2.49 0 0 1-.77-.78 2 2 0 0 1-.25-1 1.92 1.92 0 0 1 .86-1.69 4.16 4.16 0 0 1 2.4-.63 7.11 7.11 0 0 1 2.77.57l-.46 1.09a6.36 6.36 0 0 0-2.39-.54 2.91 2.91 0 0 0-1.43.28 1 1 0 0 0-.49.82 1 1 0 0 0 .18.61 1.74 1.74 0 0 0 .58.47 16.2 16.2 0 0 0 1.55.65 5.91 5.91 0 0 1 2.11 1.13 2 2 0 0 1 .36 1.43zm5.89 2.54a4 4 0 0 1-3.08-1.19 4.56 4.56 0 0 1-1.12-3.29 5.06 5.06 0 0 1 1-3.39 3.53 3.53 0 0 1 2.83-1.25 3.42 3.42 0 0 1 2.6 1.09 4.13 4.13 0 0 1 1 2.86v.83h-6.15a3.47 3.47 0 0 0 .79 2.35 2.68 2.68 0 0 0 2.09.8 7.28 7.28 0 0 0 2.8-.59v1.18a7.75 7.75 0 0 1-1.34.43 8.52 8.52 0 0 1-1.51.17zm-.36-8a2.21 2.21 0 0 0-1.7.68 3.28 3.28 0 0 0-.73 1.92h4.59a3 3 0 0 0-.56-1.94 2 2 0 0 0-1.69-.63zm11.25 7.81l-.25-1.25A4.16 4.16 0 0 1 72 94.45a4.29 4.29 0 0 1-1.7.29 3 3 0 0 1-2.06-.68 2.42 2.42 0 0 1-.73-1.9c0-1.69 1.41-2.69 4.25-2.78h1.5v-.51a2.22 2.22 0 0 0-.44-1.52 1.9 1.9 0 0 0-1.43-.5 5.91 5.91 0 0 0-2.48.66l-.41-1.1a6.18 6.18 0 0 1 3-.76 3.41 3.41 0 0 1 2.33.7 3 3 0 0 1 .75 2.23v6zm-3-.94a2.74 2.74 0 0 0 2-.68 2.48 2.48 0 0 0 .68-1.9v-.8h-1.47a4.9 4.9 0 0 0-2.29.49 1.47 1.47 0 0 0-.7 1.36 1.32 1.32 0 0 0 .43 1.08 1.8 1.8 0 0 0 1.25.48zm10.75-8a4.62 4.62 0 0 1 1.05.11l-.18 1.23a5.36 5.36 0 0 0-1-.12 2.44 2.44 0 0 0-1.82.85 3.19 3.19 0 0 0-.75 2.15v4.71H77.2v-8.72h1.1l.15 1.61a3.87 3.87 0 0 1 1.18-1.3 2.7 2.7 0 0 1 1.58-.48zm6.2 9.09a3.79 3.79 0 0 1-3-1.17 4.79 4.79 0 0 1-1-3.39 5.06 5.06 0 0 1 1-3.39 3.83 3.83 0 0 1 3-1.2 6.76 6.76 0 0 1 1.27.13 5 5 0 0 1 1 .32l-.41 1.14a8.1 8.1 0 0 0-.95-.31 5.63 5.63 0 0 0-.92-.1c-1.8 0-2.68 1.14-2.68 3.39a4.11 4.11 0 0 0 .64 2.48 2.33 2.33 0 0 0 1.94.86 6.18 6.18 0 0 0 2.26-.34v1.17a4.87 4.87 0 0 1-2.25.45zm10.32-.16v-5.6a2.27 2.27 0 0 0-.49-1.59 2 2 0 0 0-1.53-.53 2.54 2.54 0 0 0-2 .75 3.74 3.74 0 0 0-.63 2.45v4.59H91.8V82.18h1.33v3.79a10.46 10.46 0 0 1 0 1.12 2.69 2.69 0 0 1 1.1-1 3.58 3.58 0 0 1 1.7-.37 3.42 3.42 0 0 1 2.33.71 3.21 3.21 0 0 1 .8 2.43v5.72z" fill="#152177"/></svg>