<svg xmlns="http://www.w3.org/2000/svg" width="102" height="122" viewBox="0 0 102 122"><defs><style>.b{fill:#152177}.c{fill:#7555b3}.d{fill:#fff}</style></defs><path fill="none" d="M0 0h102v122H0z"/><path class="b" d="M12.55 94.89L8.26 83.71c0 .88.12 1.93.12 3.15v8H7V82.27h2.23l3.95 10.42 4-10.42h2.19v12.62H18v-8.13a27.14 27.14 0 0 1 .12-3l-4.4 11.17zm16.03 0l-.29-1.34a4.28 4.28 0 0 1-1.41 1.2 4.49 4.49 0 0 1-1.7.31 3.1 3.1 0 0 1-2.18-.73 2.62 2.62 0 0 1-.87-2c0-1.92 1.53-2.92 4.59-3h1.58v-.57a2.46 2.46 0 0 0-.47-1.7 2 2 0 0 0-1.55-.54 6.42 6.42 0 0 0-2.68.73l-.45-1.09a7.69 7.69 0 0 1 1.55-.61 7.52 7.52 0 0 1 1.7-.2 3.59 3.59 0 0 1 2.52.75 3.11 3.11 0 0 1 .81 2.4v6.46zm-3.25-1a2.91 2.91 0 0 0 2.11-.68 2.68 2.68 0 0 0 .76-2v-.86h-1.44a5.17 5.17 0 0 0-2.47.53 1.69 1.69 0 0 0-.76 1.47 1.51 1.51 0 0 0 .47 1.1 2.05 2.05 0 0 0 1.33.42zm11.59-8.63a5.38 5.38 0 0 1 1.14.11l-.2 1.32a4.55 4.55 0 0 0-1-.12 2.51 2.51 0 0 0-2 .93 3.39 3.39 0 0 0-.86 2.31v5.08h-1.45v-9.46h1.2l.17 1.7a4.35 4.35 0 0 1 1.27-1.43 3 3 0 0 1 1.73-.44zm2.79-2.38a1 1 0 0 1 .24-.73.87.87 0 0 1 .61-.22.84.84 0 0 1 .6.22 1 1 0 0 1 .25.73.93.93 0 0 1-.25.71.91.91 0 0 1-1.21 0 1 1 0 0 1-.24-.71zm1.57 12h-1.45v-9.45h1.45zm11.23-4.74a5.19 5.19 0 0 1-1.17 3.61 4.07 4.07 0 0 1-3.23 1.31 4.38 4.38 0 0 1-2.21-.59 4 4 0 0 1-1.53-1.7 6 6 0 0 1-.53-2.61A5.24 5.24 0 0 1 45 86.57a4.12 4.12 0 0 1 3.21-1.29 4.06 4.06 0 0 1 3.18 1.32 5.17 5.17 0 0 1 1.12 3.54zm-7.24 0a4.52 4.52 0 0 0 .73 2.77 2.54 2.54 0 0 0 2.14 1 2.57 2.57 0 0 0 2.15-.94 4.54 4.54 0 0 0 .71-2.83 4.31 4.31 0 0 0-.73-2.72 2.56 2.56 0 0 0-2.14-1 2.52 2.52 0 0 0-2.13.91 4.44 4.44 0 0 0-.73 2.81zm16.25 4.75v-6.12a2.5 2.5 0 0 0-.52-1.69 2.22 2.22 0 0 0-1.7-.56 2.68 2.68 0 0 0-2.18.79 4 4 0 0 0-.7 2.65v4.93H55v-9.46h1.16l.24 1.29a3.08 3.08 0 0 1 1.24-1.08 4 4 0 0 1 1.7-.38 3.61 3.61 0 0 1 2.58.82 3.5 3.5 0 0 1 1 2.64v6.17zm8.38.17a4.39 4.39 0 0 1-3.31-1.27 5.08 5.08 0 0 1-1.21-3.56 5.52 5.52 0 0 1 1.12-3.63 3.79 3.79 0 0 1 3-1.34 3.62 3.62 0 0 1 2.82 1.17 4.53 4.53 0 0 1 1 3.09v.9h-6.46a3.69 3.69 0 0 0 .85 2.52 2.89 2.89 0 0 0 2.29.86 7.53 7.53 0 0 0 3-.61v1.28a8.18 8.18 0 0 1-1.45.47 9 9 0 0 1-1.65.12zm-.37-8.64a2.41 2.41 0 0 0-1.84.74 3.65 3.65 0 0 0-.8 2h5a3.1 3.1 0 0 0-.61-2.06 2.11 2.11 0 0 0-1.75-.68zm9.38 7.45a4.45 4.45 0 0 0 .73 0 2.75 2.75 0 0 0 .57-.12v1.14a3.28 3.28 0 0 1-.68.19 5.61 5.61 0 0 1-.82 0c-1.84 0-2.75-1-2.75-2.89v-5.64H74.6v-.69l1.36-.6.61-2h.81v2.2h2.76v1.12h-2.76v5.56a1.89 1.89 0 0 0 .41 1.3 1.41 1.41 0 0 0 1.12.43zm6.26 0a4.45 4.45 0 0 0 .73 0 2.85 2.85 0 0 0 .58-.12v1.14a3.46 3.46 0 0 1-.7.19 5.48 5.48 0 0 1-.81 0c-1.84 0-2.76-1-2.76-2.89v-5.64h-1.36v-.69l1.36-.6.61-2h.84v2.2h2.73v1.12h-2.73v5.56a2 2 0 0 0 .39 1.3 1.41 1.41 0 0 0 1.12.43zm7.21 1.19A4.41 4.41 0 0 1 89 93.79a5 5 0 0 1-1.21-3.56 5.52 5.52 0 0 1 1.12-3.63 3.82 3.82 0 0 1 3-1.34 3.63 3.63 0 0 1 2.82 1.17 4.51 4.51 0 0 1 1 3.09v.9h-6.41a3.79 3.79 0 0 0 .85 2.52 2.93 2.93 0 0 0 2.26.86 7.53 7.53 0 0 0 3-.61v1.28a8.18 8.18 0 0 1-1.45.47 9 9 0 0 1-1.6.12zM92 86.42a2.34 2.34 0 0 0-1.82.74 3.38 3.38 0 0 0-.8 2h4.95a3.24 3.24 0 0 0-.6-2.06 2.13 2.13 0 0 0-1.73-.68z"/><path class="c" d="M48.86 14.56v3l-11 4.44.19-2.68 10.81-4.73z"/><path class="c" d="M66.71 6.78l-15.66 6.83-15.72-6.7-2.1 1.34-.37 3.44L35 10.44l16.07 6.25 2.21-.88.02 1.74 11.04 4.31-.22-2.68-9.33-3.98 12.27-4.9-.35-3.52z"/><path class="b" d="M68.82 8.1l-2.11-1.32.35 3.52 2.15 1.24-.39-3.44zM40 22.59L37.86 22l11-4.37-16-6L35 10.44l16 6.25 16-6.39 2.14 1.24-15.91 6 11.05 4.31-2.2.63L51 18.4l-11 4.19z"/><path class="c" d="M33 31.43a.35.35 0 0 1-.31-.37l1.92-19.47a.34.34 0 0 1 .37-.3.32.32 0 0 1 .32.35l-2 19.47a.34.34 0 0 1-.3.32zm35.23 0a.32.32 0 0 1-.34-.3l-1.19-19.6a.32.32 0 0 1 .28-.36.32.32 0 0 1 .35.29l1.19 19.63a.34.34 0 0 1-.32.35zm-22.84 3.92L39.73 22a.34.34 0 0 1 .16-.45.36.36 0 0 1 .46.19l6.29 14.77-1.26-1.2zm10.37.65l6.09-14.32a.34.34 0 0 1 .45-.16.33.33 0 0 1 .17.41l-5.35 12.64z"/><path class="c" d="M61 28.81s-2.9 3.71-4.91 5.91S51 40.38 51 40.38s-3-3.38-5.1-5.66-4.9-5.91-4.9-5.91l-3 16.8a68.73 68.73 0 0 0 6.51 7.14A69.85 69.85 0 0 0 51 57.61a70.79 70.79 0 0 0 6.49-5.08A72.24 72.24 0 0 0 64 45.39zM51 49.87a.88.88 0 0 1 0-1.76.88.88 0 0 1 .9.86.89.89 0 0 1-.9.89z"/><path class="d" d="M51 49.49a.41.41 0 0 1-.24-.08L39.1 38.6v-.92L51 48.7l11.9-11.15v.88l-11.68 11a.41.41 0 0 1-.24.08z"/><path class="b" d="M75.72 31.09L61 28.81a132.34 132.34 0 0 1 1.36 20.77 122.22 122.22 0 0 1-1.7 21.86l14.88-1.7a82.59 82.59 0 0 0 1.8-19.33 95.62 95.62 0 0 0-1.7-19.32zm-6.8 34.26a.71.71 0 0 1-.73-.69.73.73 0 0 1 .73-.71.71.71 0 0 1 0 1.42zM39.63 49.49A132.49 132.49 0 0 1 41 28.81l-14.72 2.37a95.72 95.72 0 0 0-1.7 19.33 82.69 82.69 0 0 0 1.89 19.34l14.87 1.59a122.29 122.29 0 0 1-1.78-21.86zm-6.8 15.83a.67.67 0 0 1-.68-.68.68.68 0 0 1 1.36 0 .68.68 0 0 1-.68.68z"/><path class="d" d="M69.36 35.84a.66.66 0 0 0 .24-.49.68.68 0 0 0-.68-.66.66.66 0 0 0-.24 1.31 86.08 86.08 0 0 1 .92 14.25 72.55 72.55 0 0 1-1 14.34.32.32 0 0 0 .22.4.35.35 0 0 0 .34-.26 71.22 71.22 0 0 0 1-14.5 89.66 89.66 0 0 0-.8-14.39zm-35.77-.49a.8.8 0 0 0-.77-.83.79.79 0 0 0-.82.77.77.77 0 0 0 .37.7 122 122 0 0 0-.77 14 105.52 105.52 0 0 0 .87 14.65.34.34 0 0 0 .34.29.36.36 0 0 0 .29-.39A105.62 105.62 0 0 1 32.25 50 120.73 120.73 0 0 1 33 36a.74.74 0 0 0 .59-.65z"/></svg>