<svg xmlns="http://www.w3.org/2000/svg" width="102" height="122" viewBox="0 0 102 122"><defs><style>.b{fill:#152177}.c{fill:#7555b3}</style></defs><path fill="none" d="M0 0h102v122H0z"/><path class="b" d="M3.16 82.27H6.8a6.6 6.6 0 0 1 3.59.76 2.64 2.64 0 0 1 1.12 2.37 2.72 2.72 0 0 1-.63 1.85 3.05 3.05 0 0 1-1.82 1v.08c1.92.32 2.87 1.34 2.87 3a3.19 3.19 0 0 1-1.14 2.64 4.91 4.91 0 0 1-3.21 1H3.16zm1.48 5.4h2.43a3.92 3.92 0 0 0 2.23-.47 1.94 1.94 0 0 0 .7-1.7 1.71 1.71 0 0 0-.77-1.5 4.75 4.75 0 0 0-2.43-.44H4.64zm0 1.25v4.71h2.64A3.78 3.78 0 0 0 9.59 93a2.16 2.16 0 0 0 .76-1.85 2 2 0 0 0-.78-1.69A4.14 4.14 0 0 0 7.16 89zm15.62 6L20 93.55a4.25 4.25 0 0 1-1.43 1.2 4.28 4.28 0 0 1-1.7.31 3.13 3.13 0 0 1-2.21-.73 2.62 2.62 0 0 1-.8-2c0-1.92 1.53-2.92 4.59-3h1.7v-.57a2.36 2.36 0 0 0-.49-1.7 2 2 0 0 0-1.53-.54 6.46 6.46 0 0 0-2.82.73l-.44-1.09a7.84 7.84 0 0 1 1.54-.61 7.52 7.52 0 0 1 1.7-.2 3.56 3.56 0 0 1 2.52.75 3.12 3.12 0 0 1 .82 2.4v6.46zm-3.26-1a2.82 2.82 0 0 0 2.12-.68 2.66 2.66 0 0 0 .79-2v-.86h-1.45a5.11 5.11 0 0 0-2.46.53 1.68 1.68 0 0 0-.77 1.47 1.45 1.45 0 0 0 .48 1.17 1.93 1.93 0 0 0 1.29.32zm11.08 1.19a4 4 0 0 1-3.18-1.27 5.09 5.09 0 0 1-1.1-3.58 5.34 5.34 0 0 1 1.2-3.71 4.15 4.15 0 0 1 3.26-1.29 7.75 7.75 0 0 1 1.36.14 4.09 4.09 0 0 1 1.07.36L30.21 87a6.29 6.29 0 0 0-1-.33 4.6 4.6 0 0 0-1-.11c-1.94 0-2.89 1.22-2.89 3.66a4.41 4.41 0 0 0 .68 2.65 2.43 2.43 0 0 0 2.09.93 6.29 6.29 0 0 0 2.43-.5v1.27a5.32 5.32 0 0 1-2.44.49zm6.07-5c.26-.34.63-.81 1.14-1.37l3.06-3.24h1.7l-3.84 4 4.11 5.42h-1.7l-3.4-4.47-1.08.93v3.54h-1.42V81.47h1.42V90zm12.31-4.76a3.6 3.6 0 0 1 2.91 1.27 6.86 6.86 0 0 1 0 7.22 3.53 3.53 0 0 1-2.89 1.29 4.27 4.27 0 0 1-1.7-.34 3.06 3.06 0 0 1-1.28-1h-.12l-.29 1.22h-1V81.47h1.41v5.22a3.39 3.39 0 0 1 2.96-1.41zm-.2 1.2a2.52 2.52 0 0 0-2.13.83 4.63 4.63 0 0 0-.64 2.83A4.69 4.69 0 0 0 44.2 93a2.58 2.58 0 0 0 2.14.85 2.27 2.27 0 0 0 2-1 5 5 0 0 0 .66-2.72 4.82 4.82 0 0 0-.65-2.75 2.26 2.26 0 0 0-2.05-1zm14.84 3.59a5.15 5.15 0 0 1-1.18 3.61 4.06 4.06 0 0 1-3.23 1.31 4.4 4.4 0 0 1-2.29-.59 3.89 3.89 0 0 1-1.51-1.7 6 6 0 0 1-.55-2.61 5.24 5.24 0 0 1 1.16-3.59 4.09 4.09 0 0 1 3.23-1.29 4 4 0 0 1 3.16 1.32 5.21 5.21 0 0 1 1.21 3.54zm-7.23 0a4.58 4.58 0 0 0 .72 2.77 2.9 2.9 0 0 0 4.28 0 4.47 4.47 0 0 0 .73-2.78 4.31 4.31 0 0 0-.73-2.72 2.56 2.56 0 0 0-2.16-1 2.51 2.51 0 0 0-2.12.91 4.44 4.44 0 0 0-.72 2.82zm16.24 4.75v-6.12a2.46 2.46 0 0 0-.53-1.69 2.13 2.13 0 0 0-1.58-.66 2.68 2.68 0 0 0-2.18.79 4 4 0 0 0-.69 2.65v5H63.7v-9.43h1.17l.22 1.29a3.08 3.08 0 0 1 1.24-1.08 4.09 4.09 0 0 1 1.79-.38 3.63 3.63 0 0 1 2.57.82 3.53 3.53 0 0 1 .86 2.64v6.17zm8.4.17a4.41 4.41 0 0 1-3.4-1.27 5 5 0 0 1-1.21-3.56A5.52 5.52 0 0 1 75 86.6a3.79 3.79 0 0 1 3.18-1.34A3.62 3.62 0 0 1 81 86.43a4.53 4.53 0 0 1 1 3.09v.9h-6.55a3.74 3.74 0 0 0 .85 2.52 2.88 2.88 0 0 0 2.26.86 7.58 7.58 0 0 0 3-.61v1.28a8.18 8.18 0 0 1-1.45.47 9 9 0 0 1-1.6.12zm-.31-8.64a2.35 2.35 0 0 0-1.82.74 3.47 3.47 0 0 0-.82 2h5a3.16 3.16 0 0 0-.63-2 2.14 2.14 0 0 0-1.73-.74zm6 7.55a1.34 1.34 0 0 1 .26-.88 1 1 0 0 1 .76-.29 1.15 1.15 0 0 1 .79.29 1.55 1.55 0 0 1 0 1.75 1.16 1.16 0 0 1-1.52 0 1.2 1.2 0 0 1-.26-.84zm3.8 5.15a3.58 3.58 0 0 1-1.34-.2v-1.17a4.19 4.19 0 0 0 1.17.17 1.31 1.31 0 0 0 1-.35 1.74 1.74 0 0 0 .31-1.12v-11h1.44v10.9c.01 1.93-.85 2.77-2.58 2.77zm1-16.24a1 1 0 0 1 .24-.73.85.85 0 0 1 .61-.22.81.81 0 0 1 .59.22 1 1 0 0 1 .26.73.9.9 0 0 1-.26.71.81.81 0 0 1-.59.23.84.84 0 0 1-.61-.23 1 1 0 0 1-.24-.71zm10.73 9.43a2.36 2.36 0 0 1-1 2 4.68 4.68 0 0 1-2.77.71 6.18 6.18 0 0 1-2.94-.59v-1.24a8.58 8.58 0 0 0 1.46.55 7 7 0 0 0 1.51.18 3.42 3.42 0 0 0 1.7-.35 1.16 1.16 0 0 0 .61-1.09 1.17 1.17 0 0 0-.49-1A7.43 7.43 0 0 0 96 90.6a10.32 10.32 0 0 1-1.89-.85 2.68 2.68 0 0 1-.81-.83 2.07 2.07 0 0 1-.3-1.11 2.11 2.11 0 0 1 1-1.83 4.45 4.45 0 0 1 2.59-.66 7.54 7.54 0 0 1 3 .61L99 87.09a6.7 6.7 0 0 0-2.55-.67 3.07 3.07 0 0 0-1.55.32 1 1 0 0 0-.51.88 1.12 1.12 0 0 0 .19.64 1.73 1.73 0 0 0 .63.51 11.51 11.51 0 0 0 1.7.71 6.33 6.33 0 0 1 2.27 1.22 2.24 2.24 0 0 1 .58 1.61zM25.31 6.78V41.6l26.01 14.77V46.33L34 36.45V20.93l17.41 9.87v-9.25L25.31 6.78z"/><path class="c" d="M77.32 6.78V41.6l-26 14.77V46.33l17.39-9.88V20.93L51.32 30.8v-9.25l26-14.77z"/><path class="c" d="M25.31 71.17V36.34l26.01-14.77v10.05L34 41.5v14.74l17.41-9.9v10.05l-26.1 14.78z"/><path class="b" d="M77.32 71.17V36.34l-26-14.77v10.05l17.39 9.88v14.74l-17.39-9.9v10.05l26 14.78z"/></svg>