<svg id="Layer_1" data-name="Layer 1" xmlns="http://www.w3.org/2000/svg" width="60" height="72" viewBox="0 0 60 72"><defs><style>.cls-2{fill:#152177}.cls-3{fill:#d789ef}.cls-5{fill:#7555b3}</style></defs><path fill="none" opacity=".99" d="M-.06 0h60v72h-60z"/><path class="cls-2" d="M18.71 49.06a2.42 2.42 0 0 0-1.94.82 3.25 3.25 0 0 0-.71 2.23 3.39 3.39 0 0 0 .68 2.26 2.45 2.45 0 0 0 2 .8 6.52 6.52 0 0 0 1.78-.28v.76a5.52 5.52 0 0 1-1.91.29 3.23 3.23 0 0 1-2.54-1 4.15 4.15 0 0 1-.89-2.84 4.44 4.44 0 0 1 .43-2 3.15 3.15 0 0 1 1.24-1.34 3.78 3.78 0 0 1 1.91-.46 4.66 4.66 0 0 1 2.05.42l-.36.75a3.91 3.91 0 0 0-1.74-.41zm4.1 6.78H22v-7.93h.84zM29.42 53a3.11 3.11 0 0 1-.68 2.13 2.44 2.44 0 0 1-1.9.77 2.54 2.54 0 0 1-1.33-.35 2.33 2.33 0 0 1-.9-1 3.53 3.53 0 0 1-.32-1.55 3 3 0 0 1 .71-2.08 2.39 2.39 0 0 1 1.89-.77 2.36 2.36 0 0 1 1.86.78 3.06 3.06 0 0 1 .67 2.07zm-4.25 0a2.62 2.62 0 0 0 .43 1.63 1.48 1.48 0 0 0 1.26.56 1.51 1.51 0 0 0 1.26-.56 3.29 3.29 0 0 0 0-3.25 1.54 1.54 0 0 0-1.27-.55 1.49 1.49 0 0 0-1.26.55 2.61 2.61 0 0 0-.42 1.62zm6.53-2.74v3.62a1.42 1.42 0 0 0 .31 1 1.24 1.24 0 0 0 1 .34 1.57 1.57 0 0 0 1.28-.48 2.41 2.41 0 0 0 .41-1.56v-2.92h.84v5.58h-.7l-.12-.75a1.83 1.83 0 0 1-.72.63 2.53 2.53 0 0 1-1 .22 2.12 2.12 0 0 1-1.53-.49 2 2 0 0 1-.51-1.54v-3.65zm9.4 4.83a2 2 0 0 1-1.76.85 2.08 2.08 0 0 1-1.7-.75 3.33 3.33 0 0 1-.64-2.13 3.38 3.38 0 0 1 .61-2.14 2.26 2.26 0 0 1 3.45.06h.06v-3.07h.84v7.93h-.69zm-1.69.14a1.56 1.56 0 0 0 1.26-.47 2.37 2.37 0 0 0 .39-1.52v-.18a2.81 2.81 0 0 0-.4-1.69 1.49 1.49 0 0 0-1.26-.51 1.3 1.3 0 0 0-1.14.58 2.89 2.89 0 0 0-.39 1.63 2.81 2.81 0 0 0 .39 1.62 1.34 1.34 0 0 0 1.15.54zm-32.1 3.83a2.4 2.4 0 0 0-1.93.82 3.25 3.25 0 0 0-.72 2.23 3.34 3.34 0 0 0 .69 2.26 2.45 2.45 0 0 0 2 .8 6.58 6.58 0 0 0 1.78-.28v.76a5.56 5.56 0 0 1-1.91.29 3.22 3.22 0 0 1-2.54-1 4.15 4.15 0 0 1-.89-2.84 4.44 4.44 0 0 1 .43-2 3.15 3.15 0 0 1 1.24-1.34 3.78 3.78 0 0 1 1.91-.46 4.69 4.69 0 0 1 2 .42l-.37.74a3.84 3.84 0 0 0-1.69-.4zM15.39 63a3.11 3.11 0 0 1-.68 2.13 2.44 2.44 0 0 1-1.9.77 2.54 2.54 0 0 1-1.33-.35 2.33 2.33 0 0 1-.9-1 3.53 3.53 0 0 1-.32-1.55 3 3 0 0 1 .74-2.08 2.39 2.39 0 0 1 1.89-.77 2.36 2.36 0 0 1 1.86.78 3.06 3.06 0 0 1 .64 2.07zm-4.25 0a2.62 2.62 0 0 0 .43 1.63 1.48 1.48 0 0 0 1.26.56 1.51 1.51 0 0 0 1.26-.56 3.29 3.29 0 0 0 0-3.25 1.54 1.54 0 0 0-1.27-.55 1.48 1.48 0 0 0-1.26.55 2.61 2.61 0 0 0-.42 1.62zM24 65.84v-3.63a1.49 1.49 0 0 0-.29-1 1.07 1.07 0 0 0-.88-.34 1.41 1.41 0 0 0-1.17.46 2.14 2.14 0 0 0-.38 1.39v3.12h-.84v-3.63a1.49 1.49 0 0 0-.29-1 1.08 1.08 0 0 0-.89-.34 1.36 1.36 0 0 0-1.16.48 2.56 2.56 0 0 0-.37 1.56v2.93h-.85v-5.58h.69l.14.76a1.72 1.72 0 0 1 .67-.64 2.11 2.11 0 0 1 1-.23 1.66 1.66 0 0 1 1.71 1 1.84 1.84 0 0 1 .72-.69 2.27 2.27 0 0 1 1.08-.26 1.91 1.91 0 0 1 1.42.49 2.19 2.19 0 0 1 .47 1.56v3.64zm5.17.1a2.55 2.55 0 0 1-1-.2 1.94 1.94 0 0 1-.75-.62h-.06a7.47 7.47 0 0 1 .06.92v2.3h-.85v-8.08h.69l.12.76a1.89 1.89 0 0 1 .76-.66 2.25 2.25 0 0 1 1-.21 2.07 2.07 0 0 1 1.71.76 4 4 0 0 1 0 4.27 2.08 2.08 0 0 1-1.68.76zm-.12-5.07a1.53 1.53 0 0 0-1.24.47 2.51 2.51 0 0 0-.39 1.51V63a2.77 2.77 0 0 0 .39 1.68 1.49 1.49 0 0 0 1.26.51 1.28 1.28 0 0 0 1.13-.59 2.78 2.78 0 0 0 .41-1.6 2.68 2.68 0 0 0-.41-1.6 1.35 1.35 0 0 0-1.15-.53zm4.71-.61v3.62a1.42 1.42 0 0 0 .31 1 1.24 1.24 0 0 0 1 .34 1.59 1.59 0 0 0 1.28-.48 2.41 2.41 0 0 0 .41-1.56v-2.92h.84v5.58h-.7l-.12-.75a1.83 1.83 0 0 1-.72.63 2.54 2.54 0 0 1-1.06.22 2.09 2.09 0 0 1-1.52-.49 2 2 0 0 1-.51-1.54v-3.65zm7.41 4.98a3 3 0 0 0 .43 0l.33-.07v.65a1.44 1.44 0 0 1-.4.1 3 3 0 0 1-.49 0q-1.62 0-1.62-1.71v-3.3h-.8v-.41l.8-.35.36-1.15h.49v1.3h1.62v.65h-1.62v3.25a1.13 1.13 0 0 0 .24.77.84.84 0 0 0 .66.27zm1.83-6.5a.54.54 0 0 1 .15-.42.51.51 0 0 1 .7 0 .54.54 0 0 1 .15.42.56.56 0 0 1-.15.43.51.51 0 0 1-.7 0 .56.56 0 0 1-.15-.43zm.92 7.1H43v-5.58h.85zm5.58 0v-3.61a1.43 1.43 0 0 0-.31-1 1.24 1.24 0 0 0-1-.34 1.64 1.64 0 0 0-1.29.47 2.43 2.43 0 0 0-.4 1.57v2.93h-.85v-5.6h.69l.14.76a1.63 1.63 0 0 1 .73-.64 2.37 2.37 0 0 1 1-.23 2.15 2.15 0 0 1 1.52.49 2.06 2.06 0 0 1 .51 1.56v3.64zm7.15-5.58v.53l-1 .12a1.87 1.87 0 0 1 .25.47 1.67 1.67 0 0 1 .1.62 1.65 1.65 0 0 1-.56 1.31 2.28 2.28 0 0 1-1.54.49 2.24 2.24 0 0 1-.46 0 .83.83 0 0 0-.54.72.36.36 0 0 0 .19.34 1.38 1.38 0 0 0 .64.11h1a2.23 2.23 0 0 1 1.39.38 1.33 1.33 0 0 1 .49 1.11 1.57 1.57 0 0 1-.75 1.41 3.88 3.88 0 0 1-2.16.49 2.89 2.89 0 0 1-1.7-.43 1.3 1.3 0 0 1-.6-1.15 1.28 1.28 0 0 1 .33-.88 1.65 1.65 0 0 1 .92-.5 1 1 0 0 1-.36-.3.81.81 0 0 1-.15-.48.88.88 0 0 1 .17-.53 1.64 1.64 0 0 1 .51-.44 1.54 1.54 0 0 1-.71-.61 1.78 1.78 0 0 1-.27-1 1.82 1.82 0 0 1 .55-1.41 2.27 2.27 0 0 1 1.56-.5 2.74 2.74 0 0 1 .79.11zm-4.45 6.51a.76.76 0 0 0 .38.69 2.1 2.1 0 0 0 1.1.23 3.06 3.06 0 0 0 1.57-.31 1 1 0 0 0 .51-.87.68.68 0 0 0-.28-.63 2.23 2.23 0 0 0-1-.17h-1a1.34 1.34 0 0 0-.9.27 1 1 0 0 0-.38.79zm.46-4.77a1.15 1.15 0 0 0 .33.89 1.32 1.32 0 0 0 .92.3A1.08 1.08 0 0 0 55.15 62a1.11 1.11 0 0 0-1.26-1.26A1.12 1.12 0 0 0 52.66 62z"/><path class="cls-3" d="M41.91 15.59a4.46 4.46 0 0 0-5.79-4.13 7.43 7.43 0 0 0-12.19 0 4.45 4.45 0 0 0-5.78 4.13 7.43 7.43 0 0 0 2 14.58h19.72a7.43 7.43 0 0 0 2-14.58z"/><path d="M37.27 39.71h-6.72v-3.53a.53.53 0 0 0-.52-.52.52.52 0 0 0-.52.52v3.53h-6.89a.52.52 0 0 0-.52.52.52.52 0 0 0 .52.52h14.65a.52.52 0 0 0 .52-.52.52.52 0 0 0-.52-.52z" fill="#fff"/><path class="cls-5" d="M37.62 27.13a.84.84 0 0 1-.84.83H23.27a.83.83 0 0 1-.83-.83v-2.71a.83.83 0 0 1 .83-.83h13.51a.84.84 0 0 1 .84.83v2.71z"/><path class="cls-5" d="M37.62 31.5a.84.84 0 0 1-.84.83H23.27a.83.83 0 0 1-.83-.83v-2.7a.84.84 0 0 1 .83-.84h13.51a.85.85 0 0 1 .84.84v2.7z"/><path class="cls-5" d="M37.62 35.87a.84.84 0 0 1-.84.83H23.27a.83.83 0 0 1-.83-.83v-2.7a.84.84 0 0 1 .83-.84h13.51a.85.85 0 0 1 .84.84v2.7z"/><circle class="cls-3" cx="30.03" cy="40.23" r="1.25"/><path class="cls-2" d="M35.42 26.3a.52.52 0 0 0 .52-.52.52.52 0 0 0-.52-.52H33.2a.52.52 0 0 0-.52.52.52.52 0 0 0 .52.52zM32 25.78a.52.52 0 1 0-.52.52.52.52 0 0 0 .52-.52zm3.42 3.85H33.2a.52.52 0 1 0 0 1h2.22a.52.52 0 0 0 0-1zm-4.32.15a.52.52 0 0 0 .73.74.51.51 0 0 0 0-.74.52.52 0 0 0-.73 0zM35.42 34H33.2a.52.52 0 1 0 0 1h2.22a.52.52 0 1 0 0-1zm-4.42.52a.52.52 0 1 0 .88-.37.52.52 0 0 0-.88.37z"/><path class="cls-2" d="M18.31 16.1a.53.53 0 0 0 .38-.49 3.91 3.91 0 0 1 5.1-3.61.51.51 0 0 0 .58-.2 6.9 6.9 0 0 1 11.32 0 .51.51 0 0 0 .58.2 3.91 3.91 0 0 1 5.09 3.64.53.53 0 0 0 .38.49 6.88 6.88 0 0 1 5 5.8.51.51 0 0 0 .57.45.52.52 0 0 0 .46-.58 7.91 7.91 0 0 0-5.35-6.56 5 5 0 0 0-6.06-4.33 7.94 7.94 0 0 0-12.59 0 5 5 0 0 0-6.06 4.33 7.94 7.94 0 0 0 2.54 15.46h1.71c0 .84-.07 1.21.29 1.66a1.36 1.36 0 0 0-.29.84v2.7a1.35 1.35 0 0 0 1.35 1.35h6.24v1.32a1.79 1.79 0 0 0-1.18 1.17h-5.75a.52.52 0 0 0-.52.52.52.52 0 0 0 .52.52h5.71a1.77 1.77 0 0 0 3.39 0h5.55a.52.52 0 0 0 .52-.52.52.52 0 0 0-.52-.52h-5.55a1.76 1.76 0 0 0-1.17-1.17v-1.35h6.23a1.35 1.35 0 0 0 1.36-1.35v-2.7a1.36 1.36 0 0 0-.29-.84c.35-.45.29-.82.29-1.66 1.85 0 4.27.23 6.74-1.8a8 8 0 0 0 2.74-4.5.52.52 0 0 0-.41-.62.53.53 0 0 0-.61.41 6.93 6.93 0 0 1-6.75 5.47h-1.71c0-.84.06-1.22-.29-1.67a1.35 1.35 0 0 0 .29-.83v-2.71a1.36 1.36 0 0 0-1.36-1.35h-5.54a.52.52 0 0 0 0 1h5.54a.31.31 0 0 1 .32.31v2.71a.31.31 0 0 1-.32.31H23.27a.31.31 0 0 1-.31-.31v-2.67a.31.31 0 0 1 .31-.31h5.54a.52.52 0 0 0 0-1h-5.54a1.36 1.36 0 0 0-1.35 1.35v2.71a1.35 1.35 0 0 0 .29.83c-.36.45-.29.82-.29 1.67H20.2a6.9 6.9 0 0 1-1.89-13.57zm12.45 24.13a.73.73 0 1 1-.76-.73.73.73 0 0 1 .76.73zM23 28.8a.31.31 0 0 1 .31-.32h13.47a.32.32 0 0 1 .32.32v2.7a.31.31 0 0 1-.32.31H23.27a.31.31 0 0 1-.27-.31zm0 4.37a.31.31 0 0 1 .31-.32h13.47a.32.32 0 0 1 .32.32v2.7a.31.31 0 0 1-.32.31H23.27a.31.31 0 0 1-.31-.31z"/></svg>