<svg xmlns="http://www.w3.org/2000/svg" width="102" height="122" viewBox="0 0 102 122"><path fill="none" d="M0 0h102v122H0z"/><path d="M20.4 83.15a4.1 4.1 0 0 0-3.3 1.37 5.53 5.53 0 0 0-1.21 3.79 5.66 5.66 0 0 0 1.16 3.83 4.16 4.16 0 0 0 3.32 1.36 11.9 11.9 0 0 0 3-.48v1.29a8.86 8.86 0 0 1-3.23.48 5.49 5.49 0 0 1-4.32-1.7 6.87 6.87 0 0 1-1.51-4.79 7.64 7.64 0 0 1 .73-3.39 5.17 5.17 0 0 1 2.13-2.26 6.54 6.54 0 0 1 3.21-.83 8 8 0 0 1 3.4.73l-.61 1.27a6.73 6.73 0 0 0-2.77-.67zm11.41 11.48l-.28-1.33h-.08A4 4 0 0 1 30 94.5a4.48 4.48 0 0 1-1.7.3 3.17 3.17 0 0 1-2.21-.72 2.59 2.59 0 0 1-.74-2.08c0-1.9 1.53-2.9 4.59-3h1.61v-.6a2.33 2.33 0 0 0-.47-1.69 2 2 0 0 0-1.55-.53 6.4 6.4 0 0 0-2.67.71l-.44-1.08a6.42 6.42 0 0 1 3.23-.81 3.71 3.71 0 0 1 2.51.74 3.12 3.12 0 0 1 .72 2.34v6.46zm-3.25-1a2.88 2.88 0 0 0 2-.73 2.7 2.7 0 0 0 .78-2V90h-1.4a5.42 5.42 0 0 0-2.47.53 1.69 1.69 0 0 0-.76 1.47 1.41 1.41 0 0 0 .49 1.2 1.92 1.92 0 0 0 1.36.42zm8.7 1.02h-1.42V81.22h1.44l-.02 13.43zm8.89.02l-.28-1.36a4 4 0 0 1-1.42 1.21 4.45 4.45 0 0 1-1.7.3 3.13 3.13 0 0 1-2.21-.73 2.61 2.61 0 0 1-.79-2c0-1.91 1.54-2.91 4.6-3H46v-.59a2.39 2.39 0 0 0-.5-1.69 1.87 1.87 0 0 0-1.53-.53 6.44 6.44 0 0 0-2.68.71l-.44-1.08a7 7 0 0 1 3.21-.91 3.58 3.58 0 0 1 2.52.77 3.12 3.12 0 0 1 .82 2.4v6.46zm-3.24-1a3 3 0 0 0 2.09-.75 2.72 2.72 0 0 0 .76-2.06V90h-1.41a5.12 5.12 0 0 0-2.46.54 1.58 1.58 0 0 0-.77 1.46 1.54 1.54 0 0 0 .46 1.18 2 2 0 0 0 1.33.47zm11.69-8.61a3.53 3.53 0 0 1 2.91 1.27 6.89 6.89 0 0 1 0 7.24 3.58 3.58 0 0 1-2.91 1.27 4 4 0 0 1-1.7-.34 3.21 3.21 0 0 1-1.29-1h-.1l-.31 1.22h-1V81.33h1.43v5.22a3.42 3.42 0 0 1 2.97-1.49zm-.2 1.2a2.56 2.56 0 0 0-2.13.83 6.57 6.57 0 0 0 0 5.7 2.53 2.53 0 0 0 2.13.86 2.2 2.2 0 0 0 2-1 6.18 6.18 0 0 0 0-5.53 2.36 2.36 0 0 0-2-.86zm12.48 8.43l-.29-1.34a4.09 4.09 0 0 1-1.41 1.2 4.48 4.48 0 0 1-1.7.3 3.14 3.14 0 0 1-2.21-.72 2.64 2.64 0 0 1-.8-2.07c0-1.9 1.55-2.9 4.61-3h1.59v-.6a2.35 2.35 0 0 0-.49-1.69 2 2 0 0 0-1.53-.53A6.5 6.5 0 0 0 62 87l-.44-1.11a9.69 9.69 0 0 1 1.55-.59 6.53 6.53 0 0 1 1.7-.2 3.68 3.68 0 0 1 2.52.74 3.2 3.2 0 0 1 .67 2.41v6.44zm-3.25-1a2.86 2.86 0 0 0 2.11-.73 2.7 2.7 0 0 0 .76-2V90h-1.42a5.39 5.39 0 0 0-2.47.53 1.69 1.69 0 0 0-.76 1.47 1.46 1.46 0 0 0 .45 1.17 2 2 0 0 0 1.33.5zM77 92.13a2.39 2.39 0 0 1-1 2 4.73 4.73 0 0 1-2.77.73 6.21 6.21 0 0 1-2.94-.59V93a5.83 5.83 0 0 0 1.46.54 5.91 5.91 0 0 0 1.51.2 3.42 3.42 0 0 0 1.7-.35 1.23 1.23 0 0 0 .6-1 1.27 1.27 0 0 0-.48-1 7.78 7.78 0 0 0-1.87-.93 9 9 0 0 1-1.85-.88 2.53 2.53 0 0 1-.83-.83 2.28 2.28 0 0 1-.26-1.12 2.09 2.09 0 0 1 .94-1.81 4.48 4.48 0 0 1 2.6-.66 7.48 7.48 0 0 1 3 .62l-.53 1.16a7.15 7.15 0 0 0-2.58-.6 3 3 0 0 0-1.53.33 1 1 0 0 0-.53.88 1.12 1.12 0 0 0 .19.64 1.73 1.73 0 0 0 .63.51 11.51 11.51 0 0 0 1.7.71 6 6 0 0 1 2.28 1.24 2.21 2.21 0 0 1 .56 1.48zm8.82 2.59V88.6a2.5 2.5 0 0 0-.51-1.69 2.18 2.18 0 0 0-1.7-.58 2.71 2.71 0 0 0-2.18.82 4.09 4.09 0 0 0-.66 2.66v4.93h-1.41V81.33h1.44v4.07a8.28 8.28 0 0 1 0 1.22 3 3 0 0 1 1.2-1.07 4.48 4.48 0 0 1 4.4.43 3.5 3.5 0 0 1 .87 2.62v6.12zM46.78 71.49a18.06 18.06 0 0 1-8.33-34 5.31 5.31 0 0 0 3.22-5.29c0-8.85 5.44-14.2 14.33-14.07a2.62 2.62 0 0 0 2.45-1.44 7.67 7.67 0 0 1 8.37-3.29c1.19.26 2.41.61 2.29 2-.17 1.69-1.48 1.27-2.63 1a5.64 5.64 0 0 0-3.4.12c-2.54 1-2.79 2.54-.75 4.32 6.2 5.37 7 12.73 1.7 18.86-1.85 2.17-1.58 4-.53 6.42a18 18 0 0 1-16.72 25.37z" fill="#152177"/><path d="M31.91 53.17a14.06 14.06 0 0 1 7.58-12.93c3.77-2.12 5.76-4.66 5.1-9.25-.49-3.78 2.82-8 6.53-9.34A10 10 0 0 1 63.14 36 6.64 6.64 0 0 1 62 37.58c-3 2.85-2.89 6-1.25 9.49a15.13 15.13 0 1 1-28.9 6.1z" fill="#7555b3"/></svg>