<svg xmlns="http://www.w3.org/2000/svg" width="102" height="122" viewBox="0 0 102 122"><defs><style>.b{fill:#152177}</style></defs><path fill="none" d="M0 0h102v122H0z"/><path class="b" d="M12.6 89a5.87 5.87 0 0 1-1.6 4.43A6.26 6.26 0 0 1 6.49 95H3.33V83.28h3.5a5.81 5.81 0 0 1 4.25 1.51A5.72 5.72 0 0 1 12.6 89zm-1.45 0A4.62 4.62 0 0 0 10 85.62a4.58 4.58 0 0 0-3.4-1.17h-2v9.34h1.7a5 5 0 0 0 3.7-1.21 4.67 4.67 0 0 0 1.17-3.52zm3.74-5.19a.86.86 0 0 1 .24-.66.78.78 0 0 1 .56-.13.76.76 0 0 1 .54.2.86.86 0 0 1 .24.66.89.89 0 0 1-.24.68.77.77 0 0 1-.54.22.72.72 0 0 1-.56-.22.89.89 0 0 1-.24-.74zm1.45 11.07H15v-8.67h1.33zm10-8.68v.8l-1.7.19a3 3 0 0 1 .41.75 2.68 2.68 0 0 1 .17 1 2.56 2.56 0 0 1-.88 2.06 3.55 3.55 0 0 1-2.41.76 3 3 0 0 1-.73 0 1.31 1.31 0 0 0-.85 1.14.58.58 0 0 0 .29.53 2.21 2.21 0 0 0 1 .16h1.56a3.58 3.58 0 0 1 2.21.61 2.07 2.07 0 0 1 .75 1.7A2.47 2.47 0 0 1 25 98.16a6.3 6.3 0 0 1-3.4.76 4.79 4.79 0 0 1-2.6-.64 2.09 2.09 0 0 1-.92-1.82 2 2 0 0 1 .51-1.38A2.62 2.62 0 0 1 20 94.3a1.3 1.3 0 0 1-.58-.48 1.24 1.24 0 0 1-.22-.74 1.36 1.36 0 0 1 .25-.83 2.36 2.36 0 0 1 .85-.75 2.3 2.3 0 0 1-1.12-1 2.71 2.71 0 0 1-.4-1.5 2.85 2.85 0 0 1 .87-2.22A3.53 3.53 0 0 1 22 86a4 4 0 0 1 1.24.17zm-7 10.17a1.19 1.19 0 0 0 .59 1.08 3.35 3.35 0 0 0 1.7.36 4.83 4.83 0 0 0 2.48-.49 1.53 1.53 0 0 0 .8-1.36 1.08 1.08 0 0 0-.44-1 3.42 3.42 0 0 0-1.7-.29h-1.6a2.1 2.1 0 0 0-1.41.44 1.51 1.51 0 0 0-.42 1.29zm.72-7.37a1.81 1.81 0 0 0 .53 1.39 2.09 2.09 0 0 0 1.44.47c1.31 0 2-.62 2-1.88A1.71 1.71 0 0 0 22 87a1.92 1.92 0 0 0-1.44.51 2 2 0 0 0-.5 1.49zm8-5.14a.85.85 0 0 1 .22-.66.78.78 0 0 1 .56-.13.8.8 0 0 1 .55.2.82.82 0 0 1 .23.66.85.85 0 0 1-.23.68.77.77 0 0 1-.55.15.74.74 0 0 1-.56-.22.93.93 0 0 1-.23-.72zm1.43 11.07h-1.34v-8.72h1.33zm5.65-.93a4.09 4.09 0 0 0 .7 0l.51-.1v1a3 3 0 0 1-.63.17H35c-1.7 0-2.55-.9-2.55-2.68v-5.16h-1.31v-.63l1.26-.6.6-1.82h.77v2h2.55v1h-2.59v5.08a1.64 1.64 0 0 0 .39 1.22 1.23 1.23 0 0 0 1.02.52zm8.36.87l-.25-1.24a3.36 3.36 0 0 1-3 1.41 3 3 0 0 1-2.06-.68 2.44 2.44 0 0 1-.73-1.91c0-1.7 1.41-2.7 4.25-2.78h1.5v-.56a2.22 2.22 0 0 0-.45-1.51 1.82 1.82 0 0 0-1.42-.49 5.84 5.84 0 0 0-2.49.66l-.4-1a5.87 5.87 0 0 1 1.41-.54 6.3 6.3 0 0 1 1.56-.2 3.36 3.36 0 0 1 2.33.69 3 3 0 0 1 .74 2.28v5.93zm-3-.93a2.71 2.71 0 0 0 2-.68 2.53 2.53 0 0 0 .71-1.78v-.85h-1.37a5.2 5.2 0 0 0-2.3.49 1.55 1.55 0 0 0-.7 1.36 1.38 1.38 0 0 0 .43 1.1 1.87 1.87 0 0 0 1.22.42zm8.07.95h-1.34V82.54h1.34v12.35zm13.19-5.78a6.41 6.41 0 0 1-1.43 4.41 5 5 0 0 1-3.94 1.69 5.07 5.07 0 0 1-4-1.58 6.49 6.49 0 0 1-1.45-4.54 6.33 6.33 0 0 1 1.46-4.37 5.65 5.65 0 0 1 8-.1 6.46 6.46 0 0 1 1.36 4.49zm-9.33 0a5.46 5.46 0 0 0 1 3.59 3.65 3.65 0 0 0 3 1.22 3.54 3.54 0 0 0 2.94-1.22 7 7 0 0 0 0-7.16 3.54 3.54 0 0 0-2.94-1.22 3.59 3.59 0 0 0-3 1.22 5.46 5.46 0 0 0-1 3.57zm15.25 6A3.76 3.76 0 0 1 64.74 94a4.85 4.85 0 0 1-1.06-3.39 5.07 5.07 0 0 1 1.06-3.39 3.85 3.85 0 0 1 3-1.2 6.74 6.74 0 0 1 1.26.13 5.06 5.06 0 0 1 1 .32l-.43 1.12c-.28-.1-.61-.2-1-.29a5.64 5.64 0 0 0-.92-.11c-1.7 0-2.68 1.13-2.68 3.38a4 4 0 0 0 .75 2.43 2.24 2.24 0 0 0 1.92.86 5.82 5.82 0 0 0 2.26-.46v1.17a4.77 4.77 0 0 1-2.22.56zm8 0a4.1 4.1 0 0 1-3.08-1.19 4.61 4.61 0 0 1-1.12-3.29 5.12 5.12 0 0 1 1-3.39A3.51 3.51 0 0 1 75.36 86 3.28 3.28 0 0 1 78 87.09a4.17 4.17 0 0 1 1 2.87v.83h-6.12a3.38 3.38 0 0 0 .78 2.4 2.68 2.68 0 0 0 2.09.8 7 7 0 0 0 2.81-.59v1.18a6.27 6.27 0 0 1-1.35.44 7.62 7.62 0 0 1-1.51.11zm-.36-8a2.21 2.21 0 0 0-1.7.68 3.29 3.29 0 0 0-.73 2h4.61a2.86 2.86 0 0 0-.56-1.92 2 2 0 0 0-1.6-.71zm11.29 7.73l-.25-1.24a3.45 3.45 0 0 1-3.15 1.54 3 3 0 0 1-2.06-.67 2.45 2.45 0 0 1-.73-1.92c0-1.69 1.41-2.69 4.25-2.78h1.5v-.56a2.23 2.23 0 0 0-.44-1.5 1.81 1.81 0 0 0-1.43-.5 6 6 0 0 0-2.48.66l-.41-1a6 6 0 0 1 1.41-.54 5.92 5.92 0 0 1 1.56-.21 3.41 3.41 0 0 1 2.33.7 2.88 2.88 0 0 1 .75 2.23v5.8zm-3-.93a2.71 2.71 0 0 0 2-.68 2.54 2.54 0 0 0 .68-1.78v-.85h-1.36a5 5 0 0 0-2.29.49 1.53 1.53 0 0 0-.7 1.36 1.37 1.37 0 0 0 .42 1.1 1.89 1.89 0 0 0 1.23.42zm12.72.93V89.3a2.25 2.25 0 0 0-.49-1.6 2 2 0 0 0-1.53-.52 2.56 2.56 0 0 0-2 .73 3.78 3.78 0 0 0-.56 2.45v4.53h-1.36v-8.68h1.09l.22 1.19a2.76 2.76 0 0 1 1.14-1 3.82 3.82 0 0 1 1.7-.36 3.43 3.43 0 0 1 2.38.77 3.24 3.24 0 0 1 .8 2.44v5.64zm-45.4-23.67V59.93a17.85 17.85 0 0 0 16.66-24.35 16.8 16.8 0 0 0-10.06-10 17.92 17.92 0 0 0-24.4 16.57H21.9a29.16 29.16 0 0 1 38.33-27.5 28.11 28.11 0 0 1 18.36 18.3 29.1 29.1 0 0 1-27.66 38.22z"/><path class="b" d="M51 59.97H39.8V48.78H51v11.19zm-11.2 8.6h-8.64v-8.6h8.64v8.6z"/><path class="b" d="M31.16 59.97h-7.22v-7.2h7.22v7.2z"/></svg>