<svg id="Layer_1" data-name="Layer 1" xmlns="http://www.w3.org/2000/svg" width="60" height="72" viewBox="0 0 60 72"><defs><style>.cls-2{fill:#152177}.cls-3{fill:#7555b3}.cls-4{fill:#d789ef}</style></defs><path fill="none" opacity=".99" d="M0 0h60v72H0z"/><path class="cls-2" d="M13.71 55.84l-.93-2.37h-3l-.92 2.37H8l3-7.48h.73l2.92 7.48zm-1.2-3.15l-.87-2.31c-.11-.29-.22-.65-.34-1.07a10.3 10.3 0 0 1-.3 1.07l-.88 2.31zm9.61 3.15h-.85l-1.5-5c-.07-.22-.15-.5-.24-.83a4.23 4.23 0 0 1-.14-.61 11.15 11.15 0 0 1-.39 1.48l-1.45 5h-.86l-2-7.45h.92L16.83 53a14.79 14.79 0 0 1 .36 1.75 12.31 12.31 0 0 1 .41-1.82l1.33-4.53h.92l1.4 4.6a14.26 14.26 0 0 1 .41 1.78A14.41 14.41 0 0 1 22 53l1.17-4.59h.91zm7.36-1.98a1.84 1.84 0 0 1-.71 1.53 3.08 3.08 0 0 1-1.94.55 4.77 4.77 0 0 1-2-.34v-.84a5.47 5.47 0 0 0 1 .31 5.63 5.63 0 0 0 1.07.11 2.16 2.16 0 0 0 1.31-.33 1.08 1.08 0 0 0 .44-.91 1.24 1.24 0 0 0-.16-.64 1.48 1.48 0 0 0-.52-.45 6.42 6.42 0 0 0-1.11-.47 3.57 3.57 0 0 1-1.48-.89 1.92 1.92 0 0 1-.45-1.32 1.67 1.67 0 0 1 .65-1.38 2.74 2.74 0 0 1 1.71-.5 5.05 5.05 0 0 1 2 .4l-.27.76a4.56 4.56 0 0 0-1.79-.39 1.68 1.68 0 0 0-1.07.3 1 1 0 0 0-.39.81 1.35 1.35 0 0 0 .14.64 1.5 1.5 0 0 0 .48.45 6.06 6.06 0 0 0 1 .46 4.08 4.08 0 0 1 1.61.89 1.8 1.8 0 0 1 .48 1.25zm8.43 0a1.84 1.84 0 0 1-.71 1.53 3.08 3.08 0 0 1-1.94.55 4.77 4.77 0 0 1-2-.34v-.84a5.37 5.37 0 0 0 2.06.42 2.16 2.16 0 0 0 1.31-.33 1.08 1.08 0 0 0 .44-.91 1.24 1.24 0 0 0-.16-.64 1.48 1.48 0 0 0-.52-.45 6.42 6.42 0 0 0-1.11-.47 3.57 3.57 0 0 1-1.48-.89 1.92 1.92 0 0 1-.45-1.32 1.67 1.67 0 0 1 .65-1.38 2.74 2.74 0 0 1 1.71-.5 5.05 5.05 0 0 1 2 .4l-.27.76a4.56 4.56 0 0 0-1.79-.39 1.7 1.7 0 0 0-1.07.3 1 1 0 0 0-.39.81 1.35 1.35 0 0 0 .14.64 1.5 1.5 0 0 0 .48.45 6.44 6.44 0 0 0 1 .46 4.08 4.08 0 0 1 1.61.89 1.75 1.75 0 0 1 .49 1.25zm7.34 1.98h-1l-4.07-6.25c.06.73.08 1.41.08 2v4.23h-.79v-7.43h1l4.06 6.23v-6.23h.81zm6.25-1.98a1.82 1.82 0 0 1-.72 1.53 3.05 3.05 0 0 1-1.93.55 4.85 4.85 0 0 1-2-.34v-.84a5.85 5.85 0 0 0 1 .31 5.63 5.63 0 0 0 1.07.11 2.13 2.13 0 0 0 1.3-.33 1.08 1.08 0 0 0 .44-.91 1.24 1.24 0 0 0-.15-.64 1.58 1.58 0 0 0-.52-.45 7.2 7.2 0 0 0-1.11-.47 3.62 3.62 0 0 1-1.49-.89 2 2 0 0 1-.44-1.32 1.64 1.64 0 0 1 .65-1.38 2.74 2.74 0 0 1 1.71-.5 5.05 5.05 0 0 1 2 .4l-.27.76a4.6 4.6 0 0 0-1.79-.39 1.73 1.73 0 0 0-1.08.3 1 1 0 0 0-.38.81 1.24 1.24 0 0 0 .14.64 1.32 1.32 0 0 0 .48.45 5.89 5.89 0 0 0 1 .46 4.14 4.14 0 0 1 1.62.89 1.8 1.8 0 0 1 .47 1.25z"/><path class="cls-3" d="M27.2 38.73l-3.53-1-3.34-3.8 4.17-.12 2.7 4.91m-8.2-2.5l-2-.55-1.88-2.14 2.28-.38 1.6 3.07"/><path class="cls-2" d="M14 33.26l2 .41.3-.52V15.56l-.3-.34-2 1.16v16.88"/><path class="cls-4" d="M23.87 17.06L16 15.22v18.45l1.18-.11L19 36.22l1.42-3 3.42-.32V17.06"/><path class="cls-2" d="M18.53 34.21l3.48.7.23-.54V12.75l-.24-.49L18.53 14v20.21"/><path class="cls-4" d="M41.87 18.64L22 12.26v22.65l2.3-.3 2.89 4.12L29.48 34l12.39-1.6V18.64"/><path class="cls-3" d="M38.27 42l-5-1.41-4.74-5.4 6.14-.07 3.6 6.88"/><path class="cls-2" d="M26 35.65l5.12 1 .39-.34V8.3l-.39-.55L26 10.31v25.34"/><path class="cls-4" d="M48.18 16.3l-17.1-8.55v28.89l3-.6 4.18 6 3.6-7.52 6.32-1.26V16.3"/></svg>