<svg xmlns="http://www.w3.org/2000/svg" width="102" height="122" viewBox="0 0 102 122"><path fill="none" d="M0 0h102v122H0z"/><path d="M37.93 94.89h-1.7l-4.63-6.12-1.32 1.17v5H28.8V82.28h1.46v6.25L36 82.28h1.7l-5.1 5.48zm9.72-4.73a5.19 5.19 0 0 1-1.17 3.61 4.13 4.13 0 0 1-3.23 1.29 4.44 4.44 0 0 1-2.25-.59 3.8 3.8 0 0 1-1.52-1.7 5.69 5.69 0 0 1-.48-2.61 5.25 5.25 0 0 1 1.15-3.61 4.18 4.18 0 0 1 3.23-1.29 4.06 4.06 0 0 1 3.17 1.33 5.16 5.16 0 0 1 1.1 3.57zm-7.24 0a4.48 4.48 0 0 0 .73 2.75 2.52 2.52 0 0 0 2.14 1 2.55 2.55 0 0 0 2.14-.94 4.48 4.48 0 0 0 .74-2.76 4.38 4.38 0 0 0-.74-2.74 2.55 2.55 0 0 0-2.16-1 2.51 2.51 0 0 0-2.12.91 4.5 4.5 0 0 0-.73 2.78zm12.82 3.71a4.45 4.45 0 0 0 .73 0 2.66 2.66 0 0 0 .56-.12v1.14a3.28 3.28 0 0 1-.68.19 5.61 5.61 0 0 1-.82 0c-1.83 0-2.75-1-2.75-2.89v-5.64h-1.36v-.69l1.36-.6.63-2h.83v2.18h2.75v1.12H51.7v5.56a1.84 1.84 0 0 0 .4 1.3 1.42 1.42 0 0 0 1.13.45zm4.62 1.02h-1.43V81.47h1.43zm2.94-12.01a.92.92 0 0 1 .24-.73.81.81 0 0 1 .59-.22.88.88 0 0 1 .62.22 1 1 0 0 1 .23.73.94.94 0 0 1-.23.71.83.83 0 0 1-.62.23.73.73 0 0 1-.59-.23.89.89 0 0 1-.24-.71zm1.55 12h-1.43v-9.45h1.43zm9.54.01v-6.12a2.51 2.51 0 0 0-.53-1.69 2.17 2.17 0 0 0-1.7-.56 2.68 2.68 0 0 0-2.18.79 4 4 0 0 0-.69 2.69v4.93h-1.45v-9.5h1.17l.24 1.29A3.08 3.08 0 0 1 68 85.64a4 4 0 0 1 1.7-.38 3.73 3.73 0 0 1 2.59.82 3.49 3.49 0 0 1 .86 2.64v6.17zM21.71 71.22L51 42.02l29.09 29.2H21.71zm0-58.19H51L21.71 44.55V13.03z" fill="#152177"/><path fill="#7555b3" d="M51 13.03L21.71 43.77v27.45L51 42.02l29.09-28.99H51z"/></svg>