<svg xmlns="http://www.w3.org/2000/svg" width="102" height="122" viewBox="0 0 102 122"><path fill="none" d="M0 0h102v122H0z"/><path d="M39.75 91.26a3.13 3.13 0 0 1-1.21 2.6 5.3 5.3 0 0 1-3.3.93 8.24 8.24 0 0 1-3.4-.58v-1.42a9.27 9.27 0 0 0 1.7.52 9.09 9.09 0 0 0 1.8.19 3.64 3.64 0 0 0 2.23-.56 1.84 1.84 0 0 0 .75-1.54 2.18 2.18 0 0 0-.27-1.09 2.51 2.51 0 0 0-.89-.76 11.28 11.28 0 0 0-1.89-.8 6 6 0 0 1-2.51-1.5A3.27 3.27 0 0 1 32 85a2.83 2.83 0 0 1 1.11-2.34 4.71 4.71 0 0 1 2.89-.84 8.86 8.86 0 0 1 3.4.68l-.4 1.29a7.81 7.81 0 0 0-3.05-.66 2.9 2.9 0 0 0-1.82.51 1.69 1.69 0 0 0-.71 1.36 2.22 2.22 0 0 0 .24 1.08 2.42 2.42 0 0 0 .82.77 10.46 10.46 0 0 0 1.7.78 7 7 0 0 1 2.73 1.5 3.12 3.12 0 0 1 .84 2.13zm10.11 3.36l-1.7-5.56c-.1-.34-.32-1.1-.61-2.3-.24 1-.44 1.69-.61 2.32l-1.89 5.54h-1.7l-2.55-9.46h1.5c.61 2.37 1.08 4.19 1.41 5.42a22.52 22.52 0 0 1 .54 2.51c.07-.31.17-.74.31-1.27s.27-.93.37-1.24l1.7-5.42h1.56l1.7 5.42a18.08 18.08 0 0 1 .67 2.5 5.12 5.12 0 0 1 .18-1l1.81-7H54l-2.62 9.46zm5.93-12.03a.92.92 0 0 1 .24-.71.79.79 0 0 1 .6-.24.89.89 0 0 1 .61.24 1 1 0 0 1 .24.71 1 1 0 0 1-.24.73.88.88 0 0 1-.61.23.82.82 0 0 1-.6-.23 1 1 0 0 1-.24-.73zm1.55 12h-1.43v-9.43h1.43zm7.26-8.33h-2.35v8.36h-1.44v-8.36h-1.7v-.64l1.7-.51v-.52c0-2.34 1-3.49 3.06-3.49a6.13 6.13 0 0 1 1.7.3l-.38 1.14a4.81 4.81 0 0 0-1.41-.26 1.37 1.37 0 0 0-1.2.53 3 3 0 0 0-.39 1.69v.63h2.41zm4.86 7.34a4.45 4.45 0 0 0 .73 0l.56-.12v1.1a2.53 2.53 0 0 1-.68.19h-.81c-1.84 0-2.76-1-2.76-2.9v-5.61h-1.36v-.67L66.5 85l.62-2H68v2.2h2.75v1.1H68v5.51a1.85 1.85 0 0 0 .42 1.3 1.36 1.36 0 0 0 1.04.49z" fill="#152177"/><path d="M65.79 67.54c-6.8 3.95-16.27 4.36-25.74.31a40.18 40.18 0 0 1-18.12-15.46 30.24 30.24 0 0 0 6.68 4.07c9.79 4.57 19.57 4.25 26.45 0a140.57 140.57 0 0 1-24.32-25.21 29.1 29.1 0 0 1-3.27-4.39 189.85 189.85 0 0 0 23.67 17.89 174.41 174.41 0 0 1-16.65-20.82 165.52 165.52 0 0 0 27.42 22.45A12.25 12.25 0 0 1 63 47q.41-1.08.75-2.25C66 36.45 63.39 27 57.66 19.2c13.23 7.91 21.07 22.94 17.8 35.46a3.9 3.9 0 0 1-.27 1l.1.15C81.82 64 80 72.57 79.22 71c-3.55-6.92-10.1-4.8-13.43-3.39z" fill="#7555b3"/></svg>