<svg xmlns="http://www.w3.org/2000/svg" width="102" height="122" viewBox="0 0 102 122"><defs><style>.c{fill:#7555b3}</style></defs><path fill="none" d="M0 0h102v122H0z"/><path d="M24.67 94.89l-1.58-4H18l-1.53 4H15l5-12.66h1.25l5 12.66zm-2-5.34l-1.47-3.9c-.18-.5-.39-1.1-.59-1.83a13.8 13.8 0 0 1-.61 1.83l-1.48 3.9zm17.18 5.34v-6.15a2.52 2.52 0 0 0-.49-1.7 1.9 1.9 0 0 0-1.5-.56 2.43 2.43 0 0 0-2 .77 3.64 3.64 0 0 0-.65 2.35v5.29h-1.45v-6.15a2.52 2.52 0 0 0-.49-1.7 1.93 1.93 0 0 0-1.51-.56 2.33 2.33 0 0 0-2 .8 4.45 4.45 0 0 0-.63 2.64v5h-1.42v-9.49h1.19l.24 1.29a2.74 2.74 0 0 1 1.14-1.07 3.46 3.46 0 0 1 1.7-.39 2.81 2.81 0 0 1 2.9 1.6 3.14 3.14 0 0 1 1.23-1.17 3.91 3.91 0 0 1 1.83-.43 3.29 3.29 0 0 1 2.42.82 3.76 3.76 0 0 1 .8 2.64v6.17zm10.22 0l-.27-1.34a4 4 0 0 1-1.43 1.2 4.31 4.31 0 0 1-1.7.31 3.12 3.12 0 0 1-2.21-.73 2.59 2.59 0 0 1-.8-2q0-2.88 4.59-3h1.62v-.59a2.37 2.37 0 0 0-.5-1.7 1.9 1.9 0 0 0-1.53-.52 6.29 6.29 0 0 0-2.68.71l-.44-1.09a6.37 6.37 0 0 1 1.54-.59 6.56 6.56 0 0 1 1.7-.22 3.68 3.68 0 0 1 2.52.75 3.11 3.11 0 0 1 .81 2.4v6.46zm-3.23-1a2.9 2.9 0 0 0 2.11-.68 2.68 2.68 0 0 0 .76-2v-.91h-1.48a5.54 5.54 0 0 0-2.47.52A1.72 1.72 0 0 0 45 92.3a1.46 1.46 0 0 0 .47 1.18 2.06 2.06 0 0 0 1.33.39zm13.29 1h-6.8v-.98l5.1-7.36h-4.86v-1.12h6.44v1.12l-5.1 7.22h5.24l-.02 1.12zm10.42-4.73a5.19 5.19 0 0 1-1.17 3.61 4.15 4.15 0 0 1-3.23 1.29 4.44 4.44 0 0 1-2.26-.59 3.85 3.85 0 0 1-1.52-1.7 5.66 5.66 0 0 1-.54-2.59A5.24 5.24 0 0 1 63 86.57a4.11 4.11 0 0 1 3.23-1.29 4.05 4.05 0 0 1 3.17 1.32 5.18 5.18 0 0 1 1.15 3.56zm-7.23 0a4.54 4.54 0 0 0 .68 2.75 2.9 2.9 0 0 0 4.28 0 4.41 4.41 0 0 0 .73-2.76 4.31 4.31 0 0 0-.73-2.74 2.56 2.56 0 0 0-2.16-1 2.51 2.51 0 0 0-2.12.91 4.49 4.49 0 0 0-.68 2.84zm16.24 4.73v-6.12a2.57 2.57 0 0 0-.56-1.69 2.17 2.17 0 0 0-1.7-.56 2.65 2.65 0 0 0-2.17.79 4.09 4.09 0 0 0-.7 2.65v4.93H73.1v-9.46h1.17l.22 1.29a3.31 3.31 0 0 1 1.24-1.08 4 4 0 0 1 1.7-.38 3.63 3.63 0 0 1 2.57.82 3.54 3.54 0 0 1 .87 2.64v6.17zM11.9 111.83l-1.7-5.54c-.1-.34-.31-1.12-.61-2.32-.24 1-.44 1.7-.61 2.34l-1.82 5.52h-1.7l-2.55-9.45H4.4c.61 2.37 1.09 4.18 1.41 5.42a23.89 23.89 0 0 1 .55 2.51c.07-.32.17-.74.3-1.27s.28-.93.38-1.24l1.7-5.42h1.56l1.7 5.42a19.82 19.82 0 0 1 .65 2.49 2.26 2.26 0 0 1 .18-1c.19-.42.72-2.76 1.81-7h1.49l-2.45 9.45zm10.2.17a4.4 4.4 0 0 1-3.4-1.27 5 5 0 0 1-1.21-3.54 5.57 5.57 0 0 1 1.21-3.64 3.78 3.78 0 0 1 3-1.34 3.58 3.58 0 0 1 2.74 1.15 4.49 4.49 0 0 1 1 3.1v.9H19a3.78 3.78 0 0 0 .85 2.52 2.94 2.94 0 0 0 2.26.87 7.88 7.88 0 0 0 3-.61v1.27a8.18 8.18 0 0 1-1.45.47 8.14 8.14 0 0 1-1.56.12zm-.46-8.64a2.36 2.36 0 0 0-1.82.73 3.35 3.35 0 0 0-.81 2h5a3.13 3.13 0 0 0-.6-2.07 2.13 2.13 0 0 0-1.77-.66zm10.66-1.13a3.47 3.47 0 0 1 2.91 1.27 6.82 6.82 0 0 1 0 7.21A3.51 3.51 0 0 1 32.3 112a3.83 3.83 0 0 1-1.7-.34 3.15 3.15 0 0 1-1.29-1h-.1l-.31 1.22h-1V98.41h1.43v5.22a3.4 3.4 0 0 1 2.97-1.4zm-.2 1.2a2.48 2.48 0 0 0-2.11.83A6.33 6.33 0 0 0 30 110a2.51 2.51 0 0 0 2.13.85 2.19 2.19 0 0 0 2-1 4.92 4.92 0 0 0 .66-2.78 4.62 4.62 0 0 0-.66-2.74 2.26 2.26 0 0 0-1.94-1zm17.45 5.83a2.36 2.36 0 0 1-1 2 4.68 4.68 0 0 1-2.77.71 6.06 6.06 0 0 1-2.94-.59v-1.27a7.29 7.29 0 0 0 1.46.54 5.9 5.9 0 0 0 1.51.19 3.43 3.43 0 0 0 1.7-.36 1.23 1.23 0 0 0 .12-2 7.78 7.78 0 0 0-1.87-.93 11 11 0 0 1-1.89-.85 3 3 0 0 1-.83-.83 2.43 2.43 0 0 1-.27-1.12 2.14 2.14 0 0 1 1-1.83 4.43 4.43 0 0 1 2.58-.66 7.73 7.73 0 0 1 3 .61l-.54 1.13a6.9 6.9 0 0 0-2.55-.68 3.06 3.06 0 0 0-1.55.31 1 1 0 0 0-.51.88 1.06 1.06 0 0 0 .19.66 2.24 2.24 0 0 0 .63.51 16.79 16.79 0 0 0 1.7.69 6 6 0 0 1 2.28 1.28 2.13 2.13 0 0 1 .55 1.61zM55.9 112a4.31 4.31 0 0 1-3.4-1.27 4.84 4.84 0 0 1-1.23-3.54 5.44 5.44 0 0 1 1.14-3.64 3.7 3.7 0 0 1 3-1.34 3.59 3.59 0 0 1 2.82 1.17 4.49 4.49 0 0 1 1 3.08v.9h-6.38a3.65 3.65 0 0 0 .84 2.52 2.92 2.92 0 0 0 2.26.87 7.8 7.8 0 0 0 3-.61v1.27a8.08 8.08 0 0 1-1.44.47 9 9 0 0 1-1.61.12zm-.4-8.64a2.33 2.33 0 0 0-1.81.73 3.38 3.38 0 0 0-.8 2h4.91a3.08 3.08 0 0 0-.6-2.07 2.14 2.14 0 0 0-1.7-.66zm10.66-1.15a5.34 5.34 0 0 1 1.13.1l-.19 1.32a6 6 0 0 0-1-.12 2.52 2.52 0 0 0-2 .94 3.4 3.4 0 0 0-.82 2.3v5.08h-1.45v-9.45H63l.17 1.69a3.94 3.94 0 0 1 1.27-1.42 2.93 2.93 0 0 1 1.72-.44zm5 9.62l-3.6-9.45h1.55l2 5.61a25.34 25.34 0 0 1 .81 2.56 11 11 0 0 1 .6-1.9c.32-1 1.1-3.05 2.28-6.27h1.7l-3.67 9.45zm6.69-12a1 1 0 0 1 .23-.73.88.88 0 0 1 .62-.22.81.81 0 0 1 .59.22 1 1 0 0 1 .26.73.94.94 0 0 1-.26.71.77.77 0 0 1-.59.24.85.85 0 0 1-.62-.24 1 1 0 0 1-.25-.72zm1.56 12h-1.47v-9.45h1.45zm6.83.17a4.11 4.11 0 0 1-3.24-1.25 5.15 5.15 0 0 1-1.12-3.58A5.34 5.34 0 0 1 83 103.5a4.14 4.14 0 0 1 3.29-1.29 7.83 7.83 0 0 1 1.36.13 5 5 0 0 1 1.07.36l-.45 1.22a5.34 5.34 0 0 0-1-.32 4.19 4.19 0 0 0-1-.12c-1.94 0-2.89 1.22-2.89 3.68a4.26 4.26 0 0 0 .7 2.66 2.47 2.47 0 0 0 2.09.93 6.34 6.34 0 0 0 2.43-.51v1.27a5.22 5.22 0 0 1-2.38.49zm8.66 0a4.37 4.37 0 0 1-3.4-1.27 4.93 4.93 0 0 1-1.23-3.54 5.55 5.55 0 0 1 1.14-3.64 3.76 3.76 0 0 1 3-1.34 3.52 3.52 0 0 1 2.82 1.17 4.44 4.44 0 0 1 1 3.08v.9H91.8a3.66 3.66 0 0 0 .85 2.52 2.91 2.91 0 0 0 2.24.87 7.6 7.6 0 0 0 3.06-.61v1.27a7.88 7.88 0 0 1-1.42.47 9.17 9.17 0 0 1-1.65.12zm-.39-8.64a2.34 2.34 0 0 0-1.82.73 3.35 3.35 0 0 0-.87 2.1h5.1a3.14 3.14 0 0 0-.61-2.07 2.19 2.19 0 0 0-1.82-.76zM34.87 43.17a7.35 7.35 0 0 0 .27 2.19 14.39 14.39 0 0 0 .78 1.69.88.88 0 0 1 .17.56.94.94 0 0 1-.46.75l-1.55 1a1.2 1.2 0 0 1-.64.22 1.11 1.11 0 0 1-.73-.34 8.22 8.22 0 0 1-.89-1.15c-.25-.43-.49-.89-.76-1.45a9.12 9.12 0 0 1-7.23 3.39 6.85 6.85 0 0 1-4.93-1.69 6.37 6.37 0 0 1-1.82-4.69 6.34 6.34 0 0 1 2.25-5.09 8.89 8.89 0 0 1 6-1.91 20.68 20.68 0 0 1 2.61.18c.91.14 1.84.33 2.83.55v-1.8a5.42 5.42 0 0 0-1.16-3.93 5.65 5.65 0 0 0-4-1.12 11.29 11.29 0 0 0-2.65.31 17.89 17.89 0 0 0-2.66.85 6.74 6.74 0 0 1-.86.3 1.38 1.38 0 0 1-.39.09c-.34 0-.51-.26-.51-.77v-1.15a1.59 1.59 0 0 1 .17-.86 1.72 1.72 0 0 1 .68-.51 13.7 13.7 0 0 1 3.11-1.1 14.5 14.5 0 0 1 3.82-.48 9.06 9.06 0 0 1 6.45 2 8.1 8.1 0 0 1 2 6v7.94zm-10 3.73a8.06 8.06 0 0 0 2.53-.44 5.54 5.54 0 0 0 2.33-1.57 3.81 3.81 0 0 0 .83-1.56 8.59 8.59 0 0 0 .26-2.14v-1a19.48 19.48 0 0 0-2.26-.41 18 18 0 0 0-2.32-.15 5.76 5.76 0 0 0-3.67 1 3.4 3.4 0 0 0-1.19 2.81 3.4 3.4 0 0 0 .9 2.6 3.44 3.44 0 0 0 2.61.86zm19.73 2.65a1.39 1.39 0 0 1-.93-.24 2.17 2.17 0 0 1-.51-1L37.4 29.4a4.21 4.21 0 0 1-.22-1 .53.53 0 0 1 .15-.45.52.52 0 0 1 .44-.16h2.42a1.33 1.33 0 0 1 1 .25 1.89 1.89 0 0 1 .49 1l4.13 16.23L49.61 29a1.6 1.6 0 0 1 .45-1 1.72 1.72 0 0 1 1-.25h2a1.39 1.39 0 0 1 1 .25 1.64 1.64 0 0 1 .48 1l3.87 16.42L62.61 29a1.81 1.81 0 0 1 .49-1 1.48 1.48 0 0 1 1-.25h2.2a.52.52 0 0 1 .46.15.57.57 0 0 1 .17.46 2.54 2.54 0 0 1 0 .39 1 1 0 0 1-.17.62l-6 19a2.1 2.1 0 0 1-.51.95 1.57 1.57 0 0 1-.94.25h-2.07a1.57 1.57 0 0 1-1-.25 1.85 1.85 0 0 1-.46-1L52 32.53l-3.8 15.8a2 2 0 0 1-.45 1 1.64 1.64 0 0 1-1 .24zm31.61.66a17.22 17.22 0 0 1-3.79-.44 10.94 10.94 0 0 1-2.74-1 1.92 1.92 0 0 1-.77-.67 1.87 1.87 0 0 1-.15-.7v-1.24c0-.51.21-.75.58-.75a1.62 1.62 0 0 1 .44 0l.61.24A13.89 13.89 0 0 0 76 46.8a6.61 6.61 0 0 0 3.59-.8 2.63 2.63 0 0 0 1.27-2.33 2.44 2.44 0 0 0-.66-1.7 6.3 6.3 0 0 0-2.48-1.27l-3.64-1.05a7.53 7.53 0 0 1-3.94-2.51A5.7 5.7 0 0 1 69 33.6a5.57 5.57 0 0 1 .75-2.73 6.52 6.52 0 0 1 1.7-2.06A8.37 8.37 0 0 1 74 27.53a11.18 11.18 0 0 1 3-.42 12 12 0 0 1 1.7.09l1.6.27 1.4.39a6.65 6.65 0 0 1 1 .44 2.2 2.2 0 0 1 .73.62 1.22 1.22 0 0 1 .22.8v1.15c0 .53-.18.8-.56.8a2.44 2.44 0 0 1-.93-.31 11.49 11.49 0 0 0-4.78-.86 6.46 6.46 0 0 0-3.26.68 2.39 2.39 0 0 0-1.09 2.17 2.31 2.31 0 0 0 .8 1.65 7.5 7.5 0 0 0 2.67 1.39l3.5 1.1a7.62 7.62 0 0 1 3.81 2.36 5.5 5.5 0 0 1 1.12 3.39 6.35 6.35 0 0 1-.63 2.83 6.47 6.47 0 0 1-1.8 2.16 8 8 0 0 1-2.72 1.38 12.24 12.24 0 0 1-3.55.6z" fill="#152177"/><path class="c" d="M80.87 62.12C72.78 68.08 61 71.17 51 71.17a54.31 54.31 0 0 1-36.57-13.9c-.76-.68 0-1.69.84-1.08a73.87 73.87 0 0 0 36.58 9.69 73.24 73.24 0 0 0 27.91-5.69c1.24-.55 2.43.95 1.11 1.93z"/><path class="c" d="M84.23 58.29c-1-1.32-6.8-.63-9.45-.31-.8.09-.92-.59-.2-1.1 4.62-3.23 12.22-2.3 13.11-1.23s-.26 8.74-4.58 12.3c-.66.57-1.31.27-1-.46.97-2.42 3.16-7.9 2.12-9.2z"/></svg>