<svg id="Layer_1" data-name="Layer 1" xmlns="http://www.w3.org/2000/svg" width="60" height="72" viewBox="0 0 60 72"><defs><style>.cls-2{fill:#152177}</style></defs><path fill="none" opacity=".99" d="M0 0h60v72H0z"/><path class="cls-2" d="M14.19 55.71l-.93-2.37h-3l-.92 2.37h-.85l2.94-7.48h.73l2.93 7.48zM13 52.56l-.86-2.31c-.11-.29-.23-.65-.35-1.07a8.82 8.82 0 0 1-.32 1.07l-.87 2.31zm9.61 3.15h-.86l-1.5-5c-.07-.22-.15-.5-.24-.83s-.13-.54-.14-.61a11 11 0 0 1-.35 1.47l-1.46 5h-.85l-2-7.45h.92l1.18 4.6a16.36 16.36 0 0 1 .35 1.75 12.31 12.31 0 0 1 .41-1.82l1.33-4.53h.92l1.4 4.57a13.85 13.85 0 0 1 .41 1.78 16.59 16.59 0 0 1 .37-1.76l1.17-4.59h.92zM30 53.72a1.82 1.82 0 0 1-.71 1.54 3.12 3.12 0 0 1-1.93.55 5 5 0 0 1-2-.34v-.84a5.36 5.36 0 0 0 2.07.42 2.15 2.15 0 0 0 1.3-.33 1.08 1.08 0 0 0 .44-.91 1.15 1.15 0 0 0-.16-.64 1.4 1.4 0 0 0-.52-.45 7.42 7.42 0 0 0-1.1-.48 3.45 3.45 0 0 1-1.49-.88 2 2 0 0 1-.52-1.36 1.66 1.66 0 0 1 .62-1.34 2.68 2.68 0 0 1 1.71-.51 5.14 5.14 0 0 1 2.05.41l-.27.76a4.64 4.64 0 0 0-1.8-.39 1.79 1.79 0 0 0-1.07.29 1 1 0 0 0-.39.82 1.35 1.35 0 0 0 .14.64 1.44 1.44 0 0 0 .49.45 5.89 5.89 0 0 0 1 .46 4 4 0 0 1 1.61.89 1.73 1.73 0 0 1 .53 1.24zm8.35 1.99H34.2v-7.45h4.15V49h-3.29v2.4h3.09v.76h-3.09v2.74h3.29zm4.83-6.78a2.43 2.43 0 0 0-1.94.82 3.29 3.29 0 0 0-.7 2.23 3.34 3.34 0 0 0 .68 2.26 2.45 2.45 0 0 0 2 .8 7 7 0 0 0 1.78-.28v.76a5.56 5.56 0 0 1-1.91.29 3.25 3.25 0 0 1-2.54-1 4.15 4.15 0 0 1-.94-2.81 4.41 4.41 0 0 1 .39-2 3 3 0 0 1 1.24-1.34 3.78 3.78 0 0 1 1.91-.47 4.72 4.72 0 0 1 2.05.43l-.37.75a3.84 3.84 0 0 0-1.65-.44zM51 55.71h-4.94V55l2-2a14.26 14.26 0 0 0 1.18-1.3 3.41 3.41 0 0 0 .43-.75 2.3 2.3 0 0 0 .14-.79 1.24 1.24 0 0 0-.36-.94 1.36 1.36 0 0 0-1-.35 2.54 2.54 0 0 0-.88.15 3.62 3.62 0 0 0-.93.55l-.49-.57a3.47 3.47 0 0 1 2.25-.86 2.35 2.35 0 0 1 1.64.54 1.84 1.84 0 0 1 .6 1.44 2.88 2.88 0 0 1-.4 1.41 9.16 9.16 0 0 1-1.49 1.75l-1.63 1.59H51z"/><path d="M20.55 34.84l-3.31.76V14.13l3.31.76v20m4.14 1.22l-4.14 1.17V12.47l4.14 1.18v22.46m5.31 1.3l-5.31 1.94V10.4L30 12.34v25.07m14.18-2.5L30 42V7.75l14.18 7.09v20.07" fill="#d789ef"/><path class="cls-2" d="M27.17 9.16L30 7.75V42l-2.83-1.41V9.16M22.5 11.5l2.19-1.1v29l-2.19-1.1V11.5m-3.69 1.84l1.74-.87v24.81l-1.74-.87V13.34m-1.57.79l-1.42.71v20.07l1.42.71V14.13"/></svg>