<svg id="Layer_1" data-name="Layer 1" xmlns="http://www.w3.org/2000/svg" width="60" height="72" viewBox="0 0 60 72"><defs><style>.cls-2{fill:#152177}.cls-3{fill:#d789ef}.cls-4{fill:#7555b3}</style></defs><path fill="none" opacity=".99" d="M0 0h60v72H0z"/><path class="cls-2" d="M19.64 52.61v3.1h-.86v-7.45h2a3.19 3.19 0 0 1 2 .53 1.87 1.87 0 0 1 .66 1.57 2 2 0 0 1-1.5 2l2 3.35H23l-1.8-3.1zm0-.74h1.19a2 2 0 0 0 1.34-.37 1.33 1.33 0 0 0 .43-1.09 1.23 1.23 0 0 0-.43-1.06 2.35 2.35 0 0 0-1.4-.33h-1.13zm6.25-1.75v3.63a1.42 1.42 0 0 0 .31 1 1.24 1.24 0 0 0 1 .34 1.57 1.57 0 0 0 1.28-.48 2.41 2.41 0 0 0 .41-1.56v-2.93h.84v5.59H29l-.12-.71a1.71 1.71 0 0 1-.72.63 2.53 2.53 0 0 1-1.05.22 2.12 2.12 0 0 1-1.53-.49 2 2 0 0 1-.5-1.54v-3.7zm8.2-.12a2.06 2.06 0 0 1 1.71.75 4 4 0 0 1 0 4.27 2.1 2.1 0 0 1-1.71.76 2.47 2.47 0 0 1-1-.2 2 2 0 0 1-.76-.62h-.06l-.18.72h-.6v-7.9h.84v3.09a2 2 0 0 1 1.76-.87zm-.12.71a1.49 1.49 0 0 0-1.25.5 3.84 3.84 0 0 0 0 3.35 1.51 1.51 0 0 0 1.28.54 1.29 1.29 0 0 0 1.16-.57 2.87 2.87 0 0 0 .38-1.63 2.73 2.73 0 0 0-.38-1.62 1.34 1.34 0 0 0-1.16-.54zm3.03-.59h.91l1.22 3.19a12.56 12.56 0 0 1 .5 1.57c0-.17.14-.47.28-.89s.6-1.71 1.38-3.87h.9l-2.39 6.36a3.22 3.22 0 0 1-.8 1.34 1.75 1.75 0 0 1-1.16.39 3.31 3.31 0 0 1-.77-.09v-.67a3.06 3.06 0 0 0 .63.06 1.29 1.29 0 0 0 1.24-1l.31-.79z"/><path class="cls-3" d="M45.24 14.54l-1.69 22.02-22.02 1.69 23.71-23.71z"/><path class="cls-2" d="M33.39 26.4l10.16 10.16 1.69-22.02L33.39 26.4z"/><ellipse class="cls-4" cx="30" cy="23.01" rx="19.15" ry="9.88" transform="rotate(-45 29.999 23.004)"/><path class="cls-4" d="M18.15 17.08l5.92-5.92 6.78-3.39 5.08 3.39-2.54 7.62-7.62 6.77-7.62 2.54-3.39-5.08 3.39-5.93z"/><path class="cls-3" d="M35.93 11.16l-5.08-3.39h9.31zm9.31 4.23l-9.31-4.23-2.54 7.62zM25.77 25.55L37 30l-3.58-11.2zm-7.62 2.54l3.38 10.16 4.24-12.7zM14.76 23v9.31l3.39-4.23z"/></svg>