<svg xmlns="http://www.w3.org/2000/svg" width="102" height="122" viewBox="0 0 102 122"><defs><style>.c{fill:#fff}</style></defs><path fill="none" d="M0 0h102v122H0z"/><path d="M12.9 86a3.55 3.55 0 0 1-1.31 3 6 6 0 0 1-3.75 1H6.36v4.88H4.88V82.35h3.28c3.16 0 4.74 1.22 4.74 3.65zm-6.54 2.74h1.31a5 5 0 0 0 2.84-.63 2.3 2.3 0 0 0 .86-2 2.17 2.17 0 0 0-.81-1.86A4.36 4.36 0 0 0 8 83.62H6.29zm17.17 1.49a5.19 5.19 0 0 1-1.17 3.61 4.18 4.18 0 0 1-3.23 1.29 4.22 4.22 0 0 1-2.27-.6 3.86 3.86 0 0 1-1.51-1.69 5.75 5.75 0 0 1-.54-2.61A5.24 5.24 0 0 1 16 86.62a4.15 4.15 0 0 1 3.23-1.29 4.05 4.05 0 0 1 3.17 1.32 5.23 5.23 0 0 1 1.13 3.58zm-7.24 0A4.49 4.49 0 0 0 17 93a2.57 2.57 0 0 0 2.14 1 2.55 2.55 0 0 0 2.14-1 5.29 5.29 0 0 0 .09-5.51 2.59 2.59 0 0 0-2.16-.93 2.57 2.57 0 0 0-2.13.92 4.46 4.46 0 0 0-.79 2.75zm15.87 2.15a2.36 2.36 0 0 1-1 2 4.76 4.76 0 0 1-2.77.72 5.84 5.84 0 0 1-2.91-.6v-1.31a7 7 0 0 0 1.46.55 6 6 0 0 0 1.51.2 3.33 3.33 0 0 0 1.7-.36 1.25 1.25 0 0 0 .12-2 8.09 8.09 0 0 0-1.87-.91 12.53 12.53 0 0 1-1.88-.81 2.66 2.66 0 0 1-.82-.86 2.32 2.32 0 0 1-.27-1.12 2.19 2.19 0 0 1 .95-1.88 4.41 4.41 0 0 1 2.52-.7 7.33 7.33 0 0 1 3 .63l-.51 1.17a6.44 6.44 0 0 0-2.48-.59 2.88 2.88 0 0 0-1.55.32 1 1 0 0 0-.51.88 1 1 0 0 0 .19.64 2.21 2.21 0 0 0 .63.51 16.85 16.85 0 0 0 1.7.7 6 6 0 0 1 2.28 1.23 2.16 2.16 0 0 1 .51 1.59zM37.57 94a4.45 4.45 0 0 0 .73 0l.56-.1v1a2.36 2.36 0 0 1-.69.19 5.61 5.61 0 0 1-.82 0c-1.84 0-2.75-1-2.75-2.89v-5.58h-1.36v-.69l1.36-.6.61-2H36v2.17h2.75v1.12H36v5.56a1.93 1.93 0 0 0 .41 1.32 1.44 1.44 0 0 0 1.16.5zm10.95-8.5v.92l-1.7.2a2.94 2.94 0 0 1 .42.78 3.13 3.13 0 0 1-.76 3.32 3.76 3.76 0 0 1-2.6.83 3.57 3.57 0 0 1-.8 0 1.41 1.41 0 0 0-.92 1.22.63.63 0 0 0 .32.58 2.41 2.41 0 0 0 1.09.18h1.7a3.67 3.67 0 0 1 2.36.65 2.18 2.18 0 0 1 .84 1.88 2.69 2.69 0 0 1-1.26 2.39 6.8 6.8 0 0 1-3.69.83 5.13 5.13 0 0 1-2.87-.7 2.37 2.37 0 0 1-.53-3.49 2.72 2.72 0 0 1 1.56-.85 1.7 1.7 0 0 1-.61-.52 1.27 1.27 0 0 1-.25-.8 1.38 1.38 0 0 1 .29-.89 3 3 0 0 1 .86-.77 2.55 2.55 0 0 1-1.19-1 2.94 2.94 0 0 1-.47-1.7 3.11 3.11 0 0 1 .93-2.39 3.86 3.86 0 0 1 2.65-.84 4.71 4.71 0 0 1 1.35.16zM41 96.58a1.33 1.33 0 0 0 .65 1.17 3.67 3.67 0 0 0 1.87.39 5.06 5.06 0 0 0 2.67-.54 1.7 1.7 0 0 0 .81-1.46 1.19 1.19 0 0 0-.47-1.06 3.63 3.63 0 0 0-1.81-.29H43a2.34 2.34 0 0 0-1.53.45 1.75 1.75 0 0 0-.47 1.34zm.78-8a2 2 0 0 0 .57 1.51 2.19 2.19 0 0 0 1.56.5 1.84 1.84 0 0 0 2-1.59 2 2 0 0 0 0-.49 1.88 1.88 0 0 0-1.66-2.08 1.78 1.78 0 0 0-.4 0 2 2 0 0 0-1.56.54 2.21 2.21 0 0 0-.55 1.57zm13.01-3.25a6.27 6.27 0 0 1 1.14.1l-.2 1.34a5.19 5.19 0 0 0-1-.13 2.5 2.5 0 0 0-2 .93 3.34 3.34 0 0 0-.82 2.32V95h-1.44v-9.5h1.18l.17 1.7a4.06 4.06 0 0 1 1.27-1.43 2.84 2.84 0 0 1 1.7-.44zm6.92 9.8a4.41 4.41 0 0 1-3.32-1.27 4.92 4.92 0 0 1-1.22-3.55 5.34 5.34 0 0 1 1.14-3.62 3.75 3.75 0 0 1 3-1.36 3.6 3.6 0 0 1 2.82 1.17 4.44 4.44 0 0 1 1 3.09v.91h-6.46a3.82 3.82 0 0 0 .83 2.5 3 3 0 0 0 2.26.86 7.55 7.55 0 0 0 3-.7v1.28a8 8 0 0 1-1.43.47 8.35 8.35 0 0 1-1.62.22zm-.39-8.59a2.27 2.27 0 0 0-1.82.74 3.38 3.38 0 0 0-.8 2h5a3.11 3.11 0 0 0-.61-2.08 2.14 2.14 0 0 0-1.77-.66zM75 91.6a3.07 3.07 0 0 1-1.2 2.59 5.33 5.33 0 0 1-3.3.94 8.24 8.24 0 0 1-3.4-.58v-1.36a8.52 8.52 0 0 0 1.7.51 7.77 7.77 0 0 0 1.8.21 3.74 3.74 0 0 0 2.23-.56 1.88 1.88 0 0 0 .75-1.56 2 2 0 0 0-.28-1.07 2.64 2.64 0 0 0-.88-.78 15.75 15.75 0 0 0-1.89-.8A5.91 5.91 0 0 1 68 87.6a3.3 3.3 0 0 1-.77-2.25A2.83 2.83 0 0 1 68.31 83a4.56 4.56 0 0 1 2.9-.87 8.62 8.62 0 0 1 3.4.7l-.46 1.27a7.92 7.92 0 0 0-3-.64 2.82 2.82 0 0 0-1.82.49 1.67 1.67 0 0 0-.66 1.39 2.17 2.17 0 0 0 .24 1.06 2.33 2.33 0 0 0 .81.78 9.63 9.63 0 0 0 1.7.77 6.86 6.86 0 0 1 2.74 1.52A3 3 0 0 1 75 91.6zm13.59-2.96a7.78 7.78 0 0 1-1 4 4.85 4.85 0 0 1-2.75 2.22l3 3.12h-2.13l-2.41-2.9h-.48a5.45 5.45 0 0 1-4.31-1.7 8.35 8.35 0 0 1 0-9.59 5.6 5.6 0 0 1 4.33-1.69 5.38 5.38 0 0 1 4.25 1.69 7 7 0 0 1 1.5 4.85zm-10.1 0a5.92 5.92 0 0 0 1.1 3.88 4.47 4.47 0 0 0 6.3.06l.06-.06a6.09 6.09 0 0 0 1.05-3.9 6 6 0 0 0-1-3.9 3.8 3.8 0 0 0-3.16-1.3 3.9 3.9 0 0 0-3.2 1.32 6 6 0 0 0-1.15 3.9zm12.9 6.25V82.35h1.48v11.28h5.58v1.26zm-12.32-47c-.19-.6-1.07-2.48-4.27-1.82a16 16 0 0 1-2.92.39 55.93 55.93 0 0 0 6-14.15c1.09-4.22 1.92-9.84-.3-12.71a17.19 17.19 0 0 0-13.82-6.47 25.26 25.26 0 0 0-7.18 1 26.87 26.87 0 0 0-4.2-.37 13.58 13.58 0 0 0-7.38 1.8 33.19 33.19 0 0 0-5.1-1.31c-5.1-.81-9.11-.17-12.08 1.91-3.61 2.55-5.27 7-5 13.12a74.84 74.84 0 0 0 2.93 13.56 46.65 46.65 0 0 0 3.09 8c1.55 2.93 3.21 4.66 5.1 5.29a5 5 0 0 0 4.93-1.07 5.83 5.83 0 0 0 3 1.7 10.58 10.58 0 0 0 6.8-.41v2.37a23.9 23.9 0 0 0 .92 6.78.49.49 0 0 0 .12.37 8.38 8.38 0 0 0 2.15 3.61 6.11 6.11 0 0 0 4.36 1.61 9.76 9.76 0 0 0 2-.22 9.56 9.56 0 0 0 6.43-3.69c1.7-2.41 2.49-6 2.65-11.68v-.76h.7a15.51 15.51 0 0 0 6.56-1.13c1.29-.54 5.51-2.78 4.51-5.72z" fill="#152177"/><path class="c" d="M77.49 48.31c-.26-.76-1.06-1-2.4-.73-4 .83-5.42.24-5.88-.1a54.63 54.63 0 0 0 7-15.66c.64-2.54 2-8.74 0-11.3a15.57 15.57 0 0 0-12.56-5.85 21.84 21.84 0 0 0-7.3 1.16 17.19 17.19 0 0 0-4.1-.58 11.74 11.74 0 0 0-7 1.93c-1.89-.71-11-3.81-16.61.17-3.13 2.2-4.57 6.14-4.29 11.71a71.65 71.65 0 0 0 2.81 13.2c2.23 7.27 4.64 11.37 7.17 12.22a3.57 3.57 0 0 0 1 .17 4.24 4.24 0 0 0 3.25-1.83c2-2.41 3.86-4.39 4.51-5.09a7.39 7.39 0 0 0 3.19.88.14.14 0 0 1 0 .09c-.22.27-.41.51-.58.69-.76 1-.93 1.21-3.4 1.7-.71.15-2.61.52-2.63 1.86s2.23 2 2.5 2.1a9.78 9.78 0 0 0 2.58.34 7.5 7.5 0 0 0 5.2-2c0 5.17.17 10.25.8 11.86a5.91 5.91 0 0 0 5.66 4.36 9.74 9.74 0 0 0 1.94-.19c4.1-.88 5.88-2.68 6.56-6.66.38-2.13 1-7.2 1.31-9.93a7.45 7.45 0 0 0 2.3.29 13.57 13.57 0 0 0 5.23-1c1.54-.68 4.25-2.35 3.74-3.81zm-13.6-32A13.72 13.72 0 0 1 75 21.54c2 2.57-.22 14.3-6.68 24.43l-.32-.22v-.14a11.35 11.35 0 0 0 1.07-7.86 17.38 17.38 0 0 1-.2-2.79 17.67 17.67 0 0 1 .27-2.51 14.34 14.34 0 0 0 .24-3.2.91.91 0 0 0 0-.33 17.35 17.35 0 0 0-4-7.43 17.9 17.9 0 0 0-6.34-4.73 21.68 21.68 0 0 1 4.75-.46zM67.42 38a11 11 0 0 1-.47 6.1 7.42 7.42 0 0 1-.45-.89 15.25 15.25 0 0 0-.74-1.4c-1.41-2.53-4.73-8.47-3-10.86.87-1.24 3.06-1.29 5-1.07a16.69 16.69 0 0 1-.22 2.35 22.49 22.49 0 0 0-.29 2.7 18.58 18.58 0 0 0 .17 3.07zm-30 13.82c-1.31 1.56-2.21 1.26-2.5 1.15-1.94-.62-4.18-4.69-6.15-11.15A71.42 71.42 0 0 1 26 29c-.26-5 .95-8.48 3.58-10.31 4.3-3 11.38-1.2 14.2-.28l-.16.11c-4.5 4.66-4.5 12.63-4.5 13.15v.82a31.84 31.84 0 0 1-.17 6.69 8.49 8.49 0 0 0 2.24 7.07c.19.18.39.33.6.52-.74.88-2.49 2.78-4.39 5.01zm5.1-6.61a6.85 6.85 0 0 1-1.8-5.72 34.31 34.31 0 0 0 .1-7V32a8.94 8.94 0 0 1 6.07-1.78 2.49 2.49 0 0 1 1.92 2.14c1.34 6.18.17 8.76-.77 10.84-.18.42-.37.83-.52 1.25l-.12.33a20.37 20.37 0 0 0-.79 2.22 5.79 5.79 0 0 1-4.11-1.83zm7.51 6a6.43 6.43 0 0 1-7.27 2.3 3.61 3.61 0 0 1-1.09-.46 5.73 5.73 0 0 1 1.16-.34c2.94-.61 3.4-1 4.4-2.28.22-.29.48-.63.83-1 .55-.59.78-.49 1.23-.32a1.75 1.75 0 0 1 .85 1.1 1.24 1.24 0 0 1-.19 1zm14.88 0c-.1 1.44-1 8.74-1.43 11.3-.58 3.39-1.82 4.59-5.3 5.34a4.4 4.4 0 0 1-5.58-2.71c0-.15-.1-.31-.14-.46-.54-1.34-.81-7.46-.62-14.19a1.82 1.82 0 0 0 0-.33v-.41A3.28 3.28 0 0 0 50 47.61a2.56 2.56 0 0 0-1.7-.2c.2-.72.44-1.42.71-2.12l.12-.32c.14-.37.31-.74.48-1.15 1-2.17 2.33-5.08.87-11.86a4.25 4.25 0 0 0-4.87-3.52h-.23a12.57 12.57 0 0 0-3.93 1.22L41 30c.22-2.53 1-7.27 4-10.27a9.74 9.74 0 0 1 7.22-2.75 15.79 15.79 0 0 1 12 5.73 18.14 18.14 0 0 1 3.3 5.63c-3-.31-5.1.29-6.17 1.78-2.28 3.25 1.25 9.55 3 12.59.31.56.58 1 .67 1.23a11.15 11.15 0 0 0 1.7 2.88l.42.56c-.83.22-2.53.85-2.33 3.85zm8.21-.55a12 12 0 0 1-4 .83 5.13 5.13 0 0 1-2.71-.35c0-1.9.63-2.1 1.38-2.31l.34-.1.24.15c1.33.89 3.69 1 7 .29a9.06 9.06 0 0 1-2.27 1.49z"/><path class="c" d="M48 32c0-.52-.68-.86-1.41-1a2.06 2.06 0 0 0-1.4.2.57.57 0 0 0-.22.34 1 1 0 0 0 .24.64 1.77 1.77 0 0 0 1.17.73h.19A1.52 1.52 0 0 0 48 32zm16.77-1.4c-.7.1-1.36.41-1.29.81a1.37 1.37 0 0 0 1.27.85h.19a1.65 1.65 0 0 0 .94-.51 1 1 0 0 0 .34-.71c-.06-.42-.77-.54-1.45-.44z"/></svg>