<svg xmlns="http://www.w3.org/2000/svg" width="102" height="122" viewBox="0 0 102 122"><path fill="none" d="M0 0h102v122H0z"/><path d="M24 89.81v5.08h-1.51V82.35h3.4a5.44 5.44 0 0 1 3.4.88 3.22 3.22 0 0 1 1.31 2.68 3.4 3.4 0 0 1-2.55 3.39l3.4 5.7h-1.7l-3.16-5.15zm0-1.26h2a3.35 3.35 0 0 0 2.27-.63 2.26 2.26 0 0 0 .73-1.84 2.15 2.15 0 0 0-.75-1.82 4.17 4.17 0 0 0-2.37-.54H24zm11.51 1.58L32.3 85.5H34l2.5 3.63L39 85.5h1.61l-3.3 4.63 3.4 4.87H39.1l-2.67-3.83-2.77 3.76H32zm14.35 1.47a3.09 3.09 0 0 1-1.21 2.61 5.31 5.31 0 0 1-3.28.93 8.09 8.09 0 0 1-3.4-.59v-1.36a9.3 9.3 0 0 0 1.7.53 10.13 10.13 0 0 0 1.82.19 3.73 3.73 0 0 0 2.21-.56 1.83 1.83 0 0 0 .75-1.56 1.9 1.9 0 0 0-.27-1.07 2.51 2.51 0 0 0-.87-.78 17.55 17.55 0 0 0-1.89-.8 6 6 0 0 1-2.53-1.49 3.38 3.38 0 0 1-.75-2.25 2.83 2.83 0 0 1 1-2.37 4.71 4.71 0 0 1 2.93-.87 8.66 8.66 0 0 1 3.4.7L49 84.13a8.06 8.06 0 0 0-3-.64 3 3 0 0 0-1.82.49 1.67 1.67 0 0 0-.66 1.39 2 2 0 0 0 .25 1.08 2.14 2.14 0 0 0 .82.76 9 9 0 0 0 1.7.77A6.89 6.89 0 0 1 49 89.5a2.92 2.92 0 0 1 .86 2.1zM60 94.89l-1.7-5.54c-.1-.34-.3-1.1-.61-2.31a22.58 22.58 0 0 1-.61 2.32l-1.7 5.53h-1.7L51 85.5h1.51l1.4 5.44a19.19 19.19 0 0 1 .49 2.51c.07-.34.17-.76.31-1.27s.27-.93.37-1.24l1.7-5.44h1.56L60 90.94a19.46 19.46 0 0 1 .67 2.49 7.73 7.73 0 0 1 .18-1c.11-.43.7-2.75 1.81-7h1.47l-2.48 9.39zM65.91 83a.92.92 0 0 1 .24-.71.85.85 0 0 1 .61-.24.82.82 0 0 1 .59.24.9.9 0 0 1 .26.71 1 1 0 0 1-.26.73.86.86 0 0 1-.59.23.84.84 0 0 1-.61-.23 1 1 0 0 1-.24-.73zm1.56 11.86H66V85.5h1.44zm7.33-8.24h-2.43v8.27h-1.43v-8.27h-1.7V86l1.7-.53v-.52c0-2.33 1-3.39 3.06-3.39a6.11 6.11 0 0 1 1.7.28L75.34 83a5 5 0 0 0-1.42-.27 1.42 1.42 0 0 0-1.21.54 3 3 0 0 0-.39 1.69v.61h2.48zM79.58 94h.75l.56-.12v1a2.51 2.51 0 0 1-.7.19 5.61 5.61 0 0 1-.82 0c-1.83 0-2.75-1-2.75-2.9v-5.55h-1.36v-.69l1.36-.6.61-2h.83v2.17h2.76v1.12h-2.76v5.56a2 2 0 0 0 .41 1.32 1.41 1.41 0 0 0 1.11.5z" fill="#152177"/><path d="M80.26 39.09A24.78 24.78 0 0 1 74.51 47a18.69 18.69 0 0 0 3.06-9c.15-4-1-7.51-2.67-8.76 2.1 10.04-2.28 17.68-9.77 24.12a13.52 13.52 0 0 0 8.72-2.24 25.05 25.05 0 0 1-16 7.93 12.74 12.74 0 0 0 8.31 3.64c-9.55 2.31-16.44-2.4-22.79-8.77.22 3.25 2.1 5.45 4 7.67a1.22 1.22 0 0 1-.62-.13 16 16 0 0 1-9.35-13.19c-.46-4.77.44-9.26 4.25-12.7a16.48 16.48 0 0 1 6.8-3.71 3 3 0 0 1 1.84.11A50 50 0 0 0 64 36.13a14.25 14.25 0 0 0 6.8-.46 3.73 3.73 0 0 0 2.6-4.39 9.82 9.82 0 0 0-2.7-5.3 28.91 28.91 0 0 0-20.4-10.17 4.52 4.52 0 0 1-2.72-1 6.81 6.81 0 0 0-9.59.72l-.36.45c-.28.32-.57.63-.83.95a7.58 7.58 0 0 1-5.1 2.53c-2.87.28-4.95 1.22-4.74 5.08a7.22 7.22 0 0 1 0 .93 4.84 4.84 0 0 1-2.08 4.29 11.36 11.36 0 0 0-1.52 1.42 4 4 0 0 0-1.28 4.42c.29 1 .61 2 .87 3a4.17 4.17 0 0 1-.65 4 2.94 2.94 0 0 0-.13 3.83c.39.61.88 1.18 1.27 1.79a26.77 26.77 0 0 1 2.36 3.95 31.44 31.44 0 0 0 31.56 18.67c9.93-1 16.88-6.35 21.52-15a18.14 18.14 0 0 0 .88-2.09c-3.23 2.36-6.2 4.42-10 5 7.52-4.48 11.36-10.83 10.5-19.66zm-22.1-14.27a1.22 1.22 0 0 1 1.34 1.06 1.77 1.77 0 0 1 0 .23 1.26 1.26 0 0 1-1.14 1.36 1.44 1.44 0 0 1-1.55-1.17v-.12a1.23 1.23 0 0 1 1.35-1.36z" fill="#7555b3"/></svg>