<svg xmlns="http://www.w3.org/2000/svg" width="102" height="122" viewBox="0 0 102 122"><path fill="none" d="M0 0h102v122H0z"/><path d="M30.04 91.6a3 3 0 0 1-1.14 2.59 5.18 5.18 0 0 1-3.28.93 8.23 8.23 0 0 1-3.4-.57v-1.36a9.92 9.92 0 0 0 3.52.71 3.66 3.66 0 0 0 2.21-.56 1.86 1.86 0 0 0 .8-1.56 1.9 1.9 0 0 0-.28-1.06 2.29 2.29 0 0 0-.88-.78 14 14 0 0 0-1.87-.8 6 6 0 0 1-2.53-1.49 3.26 3.26 0 0 1-.75-2.26 2.82 2.82 0 0 1 .9-2.37 4.58 4.58 0 0 1 2.91-.86 8.65 8.65 0 0 1 3.4.69l-.46 1.27a8 8 0 0 0-3-.64 2.91 2.91 0 0 0-1.82.49 1.72 1.72 0 0 0-.67 1.39 2.21 2.21 0 0 0 .24 1.07 2.45 2.45 0 0 0 .82.78 9.59 9.59 0 0 0 1.7.76 7 7 0 0 1 2.74 1.53 3 3 0 0 1 .84 2.1zm2.26-8.58a.89.89 0 0 1 .24-.71.85.85 0 0 1 .61-.24 1 1 0 0 1 .6.24.93.93 0 0 1 .25.71 1 1 0 0 1-.25.73.91.91 0 0 1-.6.24.81.81 0 0 1-.61-.24 1 1 0 0 1-.24-.73zm1.55 11.86h-1.43V85.5h1.43zm9.5-1.2a3.39 3.39 0 0 1-3 1.44 3.53 3.53 0 0 1-3-1.25 6.91 6.91 0 0 1 0-7.25 3.84 3.84 0 0 1 5.42-.33 4.44 4.44 0 0 1 .43.44h.1v-5.2h1.45v13.35h-1.13zm-2.87.26a2.66 2.66 0 0 0 2.14-.75 4.06 4.06 0 0 0 .66-2.58v-.3a4.51 4.51 0 0 0-.68-2.86 2.53 2.53 0 0 0-2.14-.87 2.17 2.17 0 0 0-1.92 1 4.81 4.81 0 0 0-.68 2.77 4.65 4.65 0 0 0 .66 2.67 2.27 2.27 0 0 0 1.96.92zm11.27 1.18a4.41 4.41 0 0 1-3.32-1.27 4.94 4.94 0 0 1-1.21-3.54 5.48 5.48 0 0 1 1.13-3.63 3.77 3.77 0 0 1 3-1.35 3.51 3.51 0 0 1 2.82 1.17 4.39 4.39 0 0 1 1 3.08v.92h-6.42a3.74 3.74 0 0 0 .82 2.52 2.91 2.91 0 0 0 2.25.86 7.8 7.8 0 0 0 3-.69v1.27a8.18 8.18 0 0 1-1.45.47 7 7 0 0 1-1.62.19zm-.4-8.59a2.3 2.3 0 0 0-1.81.75 3.34 3.34 0 0 0-.8 2h5a3.18 3.18 0 0 0-.61-2.09 2.16 2.16 0 0 0-1.76-.66zm7.78 3.59c.25-.35.63-.81 1.14-1.39l3.06-3.23h1.7l-3.83 4 4.1 5.35h-1.7l-3.4-4.45-1.09.93v3.52H57.8V81.53h1.41v8.59zm7.77-7.1a1 1 0 0 1 .23-.71.94.94 0 0 1 .62-.24.92.92 0 0 1 .59.24.94.94 0 0 1 .26.71 1 1 0 0 1-.26.73.87.87 0 0 1-.59.27.89.89 0 0 1-.62-.24 1 1 0 0 1-.23-.76zm1.54 11.86h-1.43V85.5h1.43zm6.36.24a3.52 3.52 0 0 1-2.87-1.27 6.87 6.87 0 0 1 0-7.22 3.83 3.83 0 0 1 5.38-.37 6.51 6.51 0 0 1 .51.54l.2-1.3h1.14v13.7h-1.41v-4a9.13 9.13 0 0 1 .11-1.48 3.39 3.39 0 0 1-3.06 1.4zm.22-1.19a2.58 2.58 0 0 0 2.16-.74 4.13 4.13 0 0 0 .7-2.58v-.32a4.72 4.72 0 0 0-.68-2.86 2.54 2.54 0 0 0-2.13-.87 2.2 2.2 0 0 0-1.94 1 4.77 4.77 0 0 0-.68 2.76 4.61 4.61 0 0 0 .67 2.7 2.23 2.23 0 0 0 2 .91zM39.27 40.14a.21.21 0 0 1-.19-.11 3.1 3.1 0 0 0-.86 0 3.62 3.62 0 0 1-1.82-.49c-.5-.35-1-.1-1.43-.37a3.8 3.8 0 0 0-1.7-.27c-.51 0-1.16 0-1.39.34s-1.16 1.29-1.5 1.69a12.35 12.35 0 0 1-2.23 2s.14.22 0 .37a3.22 3.22 0 0 0 0 .76 1.15 1.15 0 0 1-.1.58.92.92 0 0 0-.2.51 1.48 1.48 0 0 0 0 .93c.15.47.29 1-.36.79s-.51-.81-1-.83-1.21 0-1.42-.72-.57-2-.64-2.17a2.19 2.19 0 0 1 .15-1.9 6.29 6.29 0 0 0 .7-1.54 3.53 3.53 0 0 1 .71-1.46c.27-.15.19-.64.34-.86s.1-.58.21-.77.13-.78.27-1.2a5.54 5.54 0 0 1 .82-1.4 2.38 2.38 0 0 0 .42-1.07.82.82 0 0 1 .36-.86 7.71 7.71 0 0 0 1.34-1.53v-1c0-.26-.1-.5.15-.6a5.2 5.2 0 0 0 .62-.32 2.53 2.53 0 0 0-.77-.62 6.53 6.53 0 0 1-2.27-3.13c-.14-1.07-.21-2.74 1.24-3.39a17.84 17.84 0 0 1 3.28-1c.24 0 1.07-.2 1.39 0a1.35 1.35 0 0 0-.49 0c-.15 0 .7 0 .9.26a2 2 0 0 0-.65-.09c-.23 0 .43.31.55.51s.56.36.49.68a3.22 3.22 0 0 0 0 1 2 2 0 0 1 .24.81 4.58 4.58 0 0 0 .25 1.35 3.39 3.39 0 0 1 .29 1.69s.12.31.71-.39a2.07 2.07 0 0 1 1.48-.79c.29 0 .75-.29 1-.17a2.63 2.63 0 0 0 1 0 7.13 7.13 0 0 0 2.16-.12 9.55 9.55 0 0 1 1.7-.26c.24 0-.29-.39.15-.67s-.48-.46.2-1.31 0-1.1-.08-1.27a2.75 2.75 0 0 1-.15-1.07c0-.32-.09-1.15-.09-1.15l.12-.15a.61.61 0 0 0-.19-.2c-.1 0-.18-.41-.25-.63a8.68 8.68 0 0 0-1.14-1.61.71.71 0 0 1-.24-.73c0-.27.22-.49.17-.76a4.21 4.21 0 0 1 0-.8c0-.13 0-.9.21-1s.13 0 .18.13-.08-.66.12-.66.24 0 .34.27.19.53.21.61a.62.62 0 0 0 .08.24.59.59 0 0 1 .37 0 .29.29 0 0 1 .29.26c0 .1 0-.09.21-.09s.39 0 .44.15a3.66 3.66 0 0 1 .1.56 2 2 0 0 0 .14.53 1.52 1.52 0 0 1 .18.76 11.31 11.31 0 0 0 .19 1.3 10.88 10.88 0 0 0 .7 1.46 4.76 4.76 0 0 0 1.41 0c.44 0 1.22 0 1.14.49a19.77 19.77 0 0 0-.24 2.66 27.41 27.41 0 0 1-.34 3.39 8.09 8.09 0 0 1-1.36 2.7 13.67 13.67 0 0 1-1.82.95l-2.21 1a6 6 0 0 0 .78.95c.16 0 .14-.12.33 0h.2l1.12.29c.1 0 .17 0 .16-.09a.8.8 0 0 1 .32-.66c.12 0-.17.33 0 .51s2.58-.52 2.53-.39.14.14.29 0a2.71 2.71 0 0 1 1.24-.54 8.05 8.05 0 0 0 1.7 0c.27-.1 1.53-.88 2-1.08s1.9-.14 2.46-.53 2-1.37 2.53-1.69a38.93 38.93 0 0 1 5.65-3.09 15.25 15.25 0 0 0 3.4-1.25c.38-.28 1.53-.9 1.7-1.11s1.4.31 2 1.17a10.62 10.62 0 0 1 1.48-.57 3.33 3.33 0 0 0 1.09-.64 19.89 19.89 0 0 1 2-1.29s.24-.1.29-.27.24-.49.41-.44.39-.48.54-.34.34-.31.53-.14a.44.44 0 0 1 .25.14s.24-.21.34 0 .19-.21.48 0c0 0 .19.24-.17.68a.88.88 0 0 0-.37.44 3.06 3.06 0 0 1-1.08 1.18 1.71 1.71 0 0 0-1 1.53c0 .86-.34 1.86-1.25 1.69a3.39 3.39 0 0 0-2.5.51 2.89 2.89 0 0 1-.14.58c-.08.1-.44 0-.93.37s-.79.42-1.18.71-.46.48-.78.63a3.58 3.58 0 0 0-.9.79 9.07 9.07 0 0 1-1.95 1.24 46.72 46.72 0 0 0-5.68 2.56 26.84 26.84 0 0 1-5.1 3.24l-.19.15c-.15.13-2.29 2.1-3 2.61a2.14 2.14 0 0 0-1.39 1.83 23.12 23.12 0 0 1-1.18 3.13c-.1 1-.15 2-.17 2.56s-1 8.47-1.26 9.25a4.49 4.49 0 0 0-.17 2.06 3.33 3.33 0 0 1-.54 2.09 7 7 0 0 0-.85 3.09c.09.88.17 1.2 0 1.32s-1.12 0-1.24.39a.47.47 0 0 1-.56.29s-.14 1.32.08 1.56 1.06 1.2 0 1.91a9.7 9.7 0 0 0-2.38 1.8 2.79 2.79 0 0 1-1 1 4.09 4.09 0 0 0-.61.49.57.57 0 0 1-.62.2s-.23.1-.51-.19c0 0-.42 0-.49-.22 0 0-.36 0-.41-.25 0 0-.17-.39.36-.56a3.8 3.8 0 0 0 1.41-1.54 9.76 9.76 0 0 1 .73-1.88 7.57 7.57 0 0 0 .75-3 .28.28 0 0 1-.12-.2 4.51 4.51 0 0 1 0-.9 6.06 6.06 0 0 0 .09-1.7c0-.91.11-2.44 0-3.49a67.76 67.76 0 0 1 .44-9.21 4.54 4.54 0 0 0 .43-1.53 4.38 4.38 0 0 1 .11-1.57 5.39 5.39 0 0 0 .09-1.7c0-.15-.88-.74-1-1.17v.6c0 .15 0 0-.36-.38a3.41 3.41 0 0 1-.94-1.55l-.95-.55z" fill="#152177"/><path d="M43.11 31.31c-.08 1.59-3.84 8.88-3.84 8.88a4.37 4.37 0 0 0 0 1.69 4 4 0 0 1-.65 2.14l.87.46c1.17-.68.68-2.71.68-2.71a2.55 2.55 0 0 1 0-1s4.25-8.48 4-9.07a4 4 0 0 1-1-.29z" fill="#d789ef"/></svg>