<svg xmlns="http://www.w3.org/2000/svg" width="102" height="122" viewBox="0 0 102 122"><path fill="none" d="M0 0h102v122H0z"/><path d="M38.76 94.89h-1.7l-6.9-10.51q.15 1.88.15 3.39v7.12H28.9V82.35h1.7l6.8 10.54V82.35h1.38zm11.03-9.39v.92l-1.7.2a3 3 0 0 1 .45.78 3.43 3.43 0 0 1 .18 1.1 2.77 2.77 0 0 1-.95 2.22 3.81 3.81 0 0 1-2.62.83 3.57 3.57 0 0 1-.8 0 1.38 1.38 0 0 0-.91 1.22.63.63 0 0 0 .32.58 2.45 2.45 0 0 0 1.1.18h1.7a3.71 3.71 0 0 1 2.37.65 2.25 2.25 0 0 1 .83 1.88 2.67 2.67 0 0 1-1.28 2.39 6.74 6.74 0 0 1-3.68.83 4.94 4.94 0 0 1-2.86-.7 2.19 2.19 0 0 1-1.14-2 2.16 2.16 0 0 1 .56-1.49 2.81 2.81 0 0 1 1.55-.85 1.43 1.43 0 0 1-.6-.52 1.27 1.27 0 0 1-.25-.8 1.42 1.42 0 0 1 .27-.89 2.81 2.81 0 0 1 .88-.77 2.57 2.57 0 0 1-1.2-1 3.38 3.38 0 0 1 .49-4.07 3.91 3.91 0 0 1 2.65-.85 4.72 4.72 0 0 1 1.35.17zm-7.56 11.08a1.3 1.3 0 0 0 .64 1.17 3.65 3.65 0 0 0 1.86.39 5.3 5.3 0 0 0 2.68-.54 1.7 1.7 0 0 0 .87-1.46 1.12 1.12 0 0 0-.48-1.06 3.51 3.51 0 0 0-1.8-.29h-1.7a2.27 2.27 0 0 0-1.51.45 1.68 1.68 0 0 0-.56 1.34zm.76-8a2 2 0 0 0 .58 1.51 2.23 2.23 0 0 0 1.57.5 1.83 1.83 0 0 0 2.1-1.51 2 2 0 0 0 0-.54 1.86 1.86 0 0 0-2.14-2.11 2 2 0 0 0-1.55.54 2.18 2.18 0 0 0-.55 1.56zM51.61 83a1 1 0 0 1 .24-.71.89.89 0 0 1 .61-.24.85.85 0 0 1 .6.24.93.93 0 0 1 .25.71 1 1 0 0 1-.25.73.91.91 0 0 1-1.21 0 1.09 1.09 0 0 1-.24-.73zm1.57 11.86h-1.45V85.5h1.45zm9.53.03v-6a2.39 2.39 0 0 0-.52-1.69 2.11 2.11 0 0 0-1.7-.58 2.77 2.77 0 0 0-2.2.8 4.16 4.16 0 0 0-.68 2.58v4.86h-1.44V85.5h1.17l.22 1.31a2.77 2.77 0 0 1 1.23-1.09 4.17 4.17 0 0 1 1.78-.39 3.58 3.58 0 0 1 2.57.83 3.47 3.47 0 0 1 .86 2.63v6.1zm6.67-4.76L66.1 85.5h1.7l2.5 3.63 2.49-3.63h1.62l-3.3 4.63 3.4 4.87h-1.7l-2.65-3.83-2.62 3.76h-1.7z" fill="#152177"/><path d="M76.4 42.16V28.6a1.69 1.69 0 0 0-1-1.69L51.9 13.35a1.71 1.71 0 0 0-1.82 0L26.52 26.91a1.69 1.69 0 0 0-.95 1.69v27a1.77 1.77 0 0 0 1 1.69q11.65 6.66 23.28 13.39a2 2 0 0 0 2.26 0q11.63-6.78 23.27-13.39a1.84 1.84 0 0 0 1-1.69c0-4.53.02-8.99.02-13.44zM65.74 53a3.29 3.29 0 0 1-3 3.55h-.39a5.8 5.8 0 0 1-5-2.17c-4.62-5.54-9.28-11.08-13.92-16.61a1.68 1.68 0 0 0-.66-.61v16.21a3.12 3.12 0 0 1-2.15 3 3.38 3.38 0 0 1-3.7-1 3.11 3.11 0 0 1-.68-2.07V31a3.21 3.21 0 0 1 3.05-3.38 5.72 5.72 0 0 1 5.2 2.05q7 8.32 14 16.67c.17.2.27.47.66.59V31a3.17 3.17 0 0 1 2.93-3.4 3.22 3.22 0 0 1 .62 0 3.11 3.11 0 0 1 2.94 2.63 6.37 6.37 0 0 1 0 1.07q.12 10.85.1 21.7z" fill="#7555b3"/></svg>