<svg xmlns="http://www.w3.org/2000/svg" width="102" height="122" viewBox="0 0 102 122"><defs><style>.b{fill:#152177}.c{fill:#7555b3}</style></defs><path fill="none" d="M0 0h102v122H0z"/><path class="b" d="M29.79 94.6l-1.59-4h-5.1l-1.56 4h-1.48l5-12.66h1.24l5 12.66zm-2-5.32l-1.47-3.91a16.78 16.78 0 0 1-.59-1.82 14.64 14.64 0 0 1-.55 1.82l-1.49 3.91zm16.29 5.32h-1.44l-2.55-8.47c-.12-.37-.26-.85-.41-1.41a7.33 7.33 0 0 1-.24-1 19.65 19.65 0 0 1-.61 2.49l-2.47 8.39h-1.47L31.5 82h1.57l2 7.85a24.34 24.34 0 0 1 .61 2.94 21.78 21.78 0 0 1 .7-3.08L38.66 82h1.56l2.38 7.82a21.92 21.92 0 0 1 .7 3 26 26 0 0 1 .63-3L45.89 82h1.55zm12.51-3.35a3.13 3.13 0 0 1-1.2 2.61 5.45 5.45 0 0 1-3.3.93 8.41 8.41 0 0 1-3.4-.58v-1.42a9.27 9.27 0 0 0 1.7.52 9.09 9.09 0 0 0 1.8.19 3.66 3.66 0 0 0 2.21-.56 1.84 1.84 0 0 0 .75-1.54 2.18 2.18 0 0 0-.26-1.09 2.51 2.51 0 0 0-.89-.76 12.53 12.53 0 0 0-1.88-.81 6.15 6.15 0 0 1-2.52-1.49 3.27 3.27 0 0 1-.77-2.25 2.81 2.81 0 0 1 1.06-2.33 4.58 4.58 0 0 1 3-.86 8.65 8.65 0 0 1 3.4.69l-.46 1.29a7.78 7.78 0 0 0-3.08-.66 3 3 0 0 0-1.82.49 1.68 1.68 0 0 0-.71 1.38 2.22 2.22 0 0 0 .24 1.08 2.48 2.48 0 0 0 .81.77 10.86 10.86 0 0 0 1.7.78 6.82 6.82 0 0 1 2.74 1.5 3 3 0 0 1 .88 2.12zm14.34 0a3.09 3.09 0 0 1-1.23 2.61 5.37 5.37 0 0 1-3.28.93 8.58 8.58 0 0 1-3.4-.58v-1.42a9 9 0 0 0 3.52.71 3.66 3.66 0 0 0 2.21-.56 1.84 1.84 0 0 0 .75-1.54 2 2 0 0 0-.27-1.09 2.43 2.43 0 0 0-.89-.76 12.42 12.42 0 0 0-1.87-.81 6.14 6.14 0 0 1-2.53-1.49 3.26 3.26 0 0 1-.75-2.25 2.81 2.81 0 0 1 1.09-2.32 4.58 4.58 0 0 1 2.91-.86 8.68 8.68 0 0 1 3.4.69l-.46 1.29a7.81 7.81 0 0 0-3-.66 3 3 0 0 0-1.82.49A1.71 1.71 0 0 0 64.6 85a2.22 2.22 0 0 0 .29 1.09 2.42 2.42 0 0 0 .82.77 11.38 11.38 0 0 0 1.7.78 6.84 6.84 0 0 1 2.73 1.5 3 3 0 0 1 .75 2.11zM80.48 85a2.88 2.88 0 0 1-.58 2 3.43 3.43 0 0 1-1.94 1v.15a3.52 3.52 0 0 1 2.26 1 2.77 2.77 0 0 1 .74 2 3.25 3.25 0 0 1-1.25 2.76 5.64 5.64 0 0 1-3.57 1 9.36 9.36 0 0 1-1.83-.15 6.36 6.36 0 0 1-1.7-.54V92.8a7.34 7.34 0 0 0 1.7.61 7 7 0 0 0 1.7.22c2.17 0 3.28-.86 3.28-2.55s-1.21-2.31-3.62-2.31h-1.24v-1.24h1.26a3.77 3.77 0 0 0 2.51-.71 2.12 2.12 0 0 0 .87-1.82 1.7 1.7 0 0 0-.65-1.44 2.59 2.59 0 0 0-1.7-.53 5.5 5.5 0 0 0-1.56.22 6.73 6.73 0 0 0-1.7.84l-.73-1a6.39 6.39 0 0 1 1.8-1 6.24 6.24 0 0 1 2.14-.35 4.44 4.44 0 0 1 2.86.84 2.9 2.9 0 0 1 .95 2.42zM30.79 23.2l-3.88 1.93v33.89L30.79 61V23.23"/><path class="c" d="M51.56 56.09L30.79 61V23.2l20.77 4.83v28.06"/><path class="b" d="M42.19 48.36L51 49.48V34.85l-8.81 1.11v12.4M51 56.14L71.2 61V23.23L51 28.08v28.06"/><path class="c" d="M59.81 48.36L51 49.48V34.85l8.81 1.11v12.4"/><path class="b" d="M59.81 29.94L51 31.55l-8.81-1.61 8.81-2.3 8.82 2.3"/><path fill="#d789ef" d="M59.81 54.36L51 52.75l-8.81 1.61L51 56.8l8.82-2.44"/><path class="b" d="M42.19 29.94L51 27.77V13.18l-8.81 4.39v12.42"/><path class="c" d="M59.81 29.94L51 27.77V13.13l8.81 4.39v12.42"/><path class="b" d="M51 71.17l-8.81-4.39V54.36L51 56.53l.14.15v14.23l-.14.26"/><path class="c" d="M51 71.17l8.81-4.39V54.36L51 56.53v14.64M71.2 23.2l3.89 1.93v33.89L71.2 61V23.2"/></svg>