<svg xmlns="http://www.w3.org/2000/svg" width="112.281" height="89.03" viewBox="0 0 112.281 89.03"><path fill="#37bbc7" d="M834.371,1587.81a5.134,5.134,0,0,0-2.326,1.2,7.984,7.984,0,0,0-1.009,3.3,0.233,0.233,0,0,1-.458,0,7.984,7.984,0,0,0-1.009-3.3,5.134,5.134,0,0,0-2.326-1.2,0.235,0.235,0,0,1-.173-0.23,0.224,0.224,0,0,1,.173-0.22,5.049,5.049,0,0,0,2.326-1.21,7.981,7.981,0,0,0,1.009-3.29,0.231,0.231,0,0,1,.458,0,7.981,7.981,0,0,0,1.009,3.29,5.049,5.049,0,0,0,2.326,1.21,0.224,0.224,0,0,1,.174.22,0.236,0.236,0,0,1-.174.23M855.579,1644a4.628,4.628,0,0,0-2.122,1.1,7.289,7.289,0,0,0-.92,3,0.211,0.211,0,0,1-.418,0,7.272,7.272,0,0,0-.921-3,4.624,4.624,0,0,0-2.121-1.1,0.206,0.206,0,0,1-.158-0.2,0.217,0.217,0,0,1,.158-0.21,4.624,4.624,0,0,0,2.121-1.1,7.25,7.25,0,0,0,.921-3,0.211,0.211,0,0,1,.418,0,7.237,7.237,0,0,0,.92,3,4.628,4.628,0,0,0,2.122,1.1,0.218,0.218,0,0,1,.158.21A0.207,0.207,0,0,1,855.579,1644Zm40.657-19.51a11.255,11.255,0,0,0-5.161,2.67c-1,1.06-1.771,4.29-2.239,7.31a0.514,0.514,0,0,1-1.017,0c-0.468-3.02-1.241-6.25-2.239-7.31a11.262,11.262,0,0,0-5.16-2.67,0.517,0.517,0,0,1,0-1,11.262,11.262,0,0,0,5.16-2.67c1-1.06,1.771-4.29,2.239-7.31a0.514,0.514,0,0,1,1.017,0c0.468,3.02,1.241,6.25,2.239,7.31a11.255,11.255,0,0,0,5.161,2.67A0.517,0.517,0,0,1,896.236,1624.49ZM799.5,1569.91a10.475,10.475,0,0,0-4.822,2.5c-0.933.99-1.656,4-2.093,6.83a0.48,0.48,0,0,1-.95,0c-0.437-2.83-1.16-5.84-2.093-6.83a10.475,10.475,0,0,0-4.822-2.5,0.477,0.477,0,0,1-.359-0.47,0.465,0.465,0,0,1,.359-0.46,10.569,10.569,0,0,0,4.822-2.5c0.933-.99,1.655-4.01,2.092-6.83a0.481,0.481,0,0,1,.951,0c0.437,2.82,1.16,5.84,2.093,6.83a10.569,10.569,0,0,0,4.822,2.5,0.465,0.465,0,0,1,.359.46A0.477,0.477,0,0,1,799.5,1569.91Z" transform="translate(-784.344 -1559.25)"/></svg>